<?xml version="1.0" standalone="no"?>
<!DOCTYPE svg PUBLIC "-//W3C//DTD SVG 1.1//EN" "http://www.w3.org/Graphics/SVG/1.1/DTD/svg11.dtd" >
<svg xmlns="http://www.w3.org/2000/svg" xmlns:xlink="http://www.w3.org/1999/xlink" version="1.1">
<metadata></metadata>
<defs>
<font id="existencelight" horiz-adv-x="348" >
<font-face units-per-em="2048" ascent="1638" descent="-410" />
<missing-glyph horiz-adv-x="665" />
<glyph unicode="fi" horiz-adv-x="878" d="M43 1036v62h92v235q0 194 87 305t222 111q82 0 151 -47.5t104.5 -115t35.5 -132.5h-61q0 80 -68 157t-162 77q-106 0 -176.5 -93t-70.5 -262v-235h323v-62h-323v-1636h-62v1636h-92zM674 1098h61v-1098h-61v1098z" />
<glyph unicode="fl" horiz-adv-x="862" d="M43 1036v62h92v276q0 189 107.5 303.5t263.5 114.5q133 0 221 -49v-1743h-61v1704q-73 27 -160 27q-131 0 -220 -97.5t-89 -259.5v-276h323v-62h-323v-1636h-62v1636h-92z" />
<glyph unicode="fb" horiz-adv-x="1619" d="M666 0v1704q-73 27 -160 27q-131 0 -220 -97.5t-89 -259.5v-276h323v-62h-323v-1636h-62v1636h-92v62h92v276q0 189 107.5 303.5t263.5 114.5q133 0 221 -49v-637q70 4 94 4q135 0 250.5 -31t196.5 -84.5t138 -124.5t84.5 -152t27.5 -167q0 -107 -44.5 -205.5 t-128.5 -178t-219 -126.5t-303 -47q-77 0 -157 6zM823 55q153 0 276 42t199.5 112.5t117 158t40.5 183.5t-40.5 184t-117 158.5t-200.5 113t-277 42.5q-11 0 -94 -5v-987q35 -2 96 -2z" />
<glyph unicode="fh" horiz-adv-x="1642" d="M666 0v1704q-73 27 -160 27q-131 0 -220 -97.5t-89 -259.5v-276h323v-62h-323v-1636h-62v1636h-92v62h92v276q0 189 107.5 303.5t263.5 114.5q133 0 221 -49v-733q148 108 342 108q143 0 258.5 -69.5t165.5 -204.5q27 -70 27 -144v-700h-62v696q0 66 -22 125 q-42 116 -143 176t-226 60q-94 0 -183.5 -32.5t-156.5 -92.5v-932h-61z" />
<glyph unicode="fj" horiz-adv-x="878" d="M43 1036v62h92v235q0 194 88 305t223 111q83 0 152 -47.5t105 -115t36 -132.5h-61q0 80 -69 157t-163 77q-106 0 -177.5 -93t-71.5 -262v-235h323v-62h-323v-1341h-62v1341h-92zM678 1098h61v-1282q0 -194 -88 -305t-223 -111q-67 0 -140 40.5t-100 96.5l54 29 q21 -42 78 -73.5t108 -31.5q106 0 178 93t72 262v1282z" />
<glyph unicode="fk" horiz-adv-x="1697" d="M1595 27l-36 -50l-699 551l-133 -98v-430h-61v1704q-73 27 -160 27q-131 0 -220 -97.5t-89 -259.5v-276h323v-62h-323v-1636h-62v1636h-92v62h92v276q0 189 107.5 303.5t263.5 114.5q133 0 221 -49v-1235l832 612l36 -49l-684 -506z" />
<glyph unicode=" "  horiz-adv-x="665" />
<glyph unicode="&#x09;" horiz-adv-x="665" />
<glyph unicode="&#xa0;" horiz-adv-x="665" />
<glyph unicode="!" horiz-adv-x="376" d="M158 336v1098h61v-1098h-61zM127 0v123h123v-123h-123z" />
<glyph unicode="&#x22;" horiz-adv-x="499" d="M311 1147v287h62v-287h-62zM127 1147v287h61v-287h-61z" />
<glyph unicode="#" horiz-adv-x="1095" d="M1059 1014l-10 -62h-215l-76 -501h217l-10 -62h-215l-60 -389h-61l57 389h-352l-60 -389h-61l57 389h-213l11 62h213l75 501h-215l11 62h213l63 420h64l-64 -420h352l64 420h63l-63 -420h215zM418 952l-76 -501h354l76 501h-354z" />
<glyph unicode="$" horiz-adv-x="1036" d="M487 1649h62v-185q127 -5 227.5 -66.5t149.5 -176.5l-58 -25q-43 97 -127 149.5t-192 57.5v-666q60 -21 109.5 -43t103 -56t89.5 -71.5t59.5 -89t23.5 -110.5q0 -162 -109.5 -272t-275.5 -124v-186h-62v184q-129 5 -228.5 67t-147.5 177l57 25q42 -97 126.5 -149.5 t192.5 -57.5v663q-61 23 -110 45t-102.5 56t-89.5 71.5t-59.5 89.5t-23.5 111q0 161 109 271t276 124v187zM164 1067q0 -189 323 -307v641q-141 -14 -232 -107t-91 -227zM872 367q0 56 -27.5 105t-77.5 86.5t-101 64t-117 51.5v-641q141 12 232 105t91 229z" />
<glyph unicode="%" horiz-adv-x="1038" d="M580 156q0 69 49.5 118.5t118.5 49.5t118 -49.5t49 -118.5t-49 -118.5t-118 -49.5t-118.5 49.5t-49.5 118.5zM123 1276q0 69 49.5 118.5t118.5 49.5t118.5 -49.5t49.5 -118.5t-49.5 -118.5t-118.5 -49.5t-118.5 49.5t-49.5 118.5zM123 14l739 1434l53 -29l-739 -1433z M184 1276q0 -44 31.5 -75.5t75.5 -31.5t75 31.5t31 75.5t-31 75t-75 31t-75.5 -31t-31.5 -75zM641 156q0 -44 31.5 -75.5t75.5 -31.5t75 31.5t31 75.5t-31 75t-75 31t-75.5 -31t-31.5 -75z" />
<glyph unicode="&#x26;" horiz-adv-x="997" d="M627 803h118v96h62v-96h98v-62h-98v-739q-65 -6 -127 -6q-160 0 -288 48t-203.5 140t-75.5 213q0 128 87.5 231.5t235.5 147.5q-102 41 -158.5 123.5t-56.5 190.5q0 161 117 257.5t293 96.5q25 0 71 -4l-4 -62q-46 4 -67 4q-151 0 -249.5 -79t-98.5 -213 q0 -125 93.5 -206t250.5 -81zM745 741h-118q-197 0 -325 -100.5t-128 -243.5q0 -155 143 -247.5t363 -92.5q40 0 65 2v682z" />
<glyph unicode="'" horiz-adv-x="266" d="M102 1147v287h62v-287h-62z" />
<glyph unicode="(" horiz-adv-x="538" d="M539 -184l-45 -41q-189 199 -285 442t-96 500q0 256 96.5 499.5t284.5 442.5l45 -41q-180 -190 -272.5 -423.5t-92.5 -477.5q0 -246 92.5 -478.5t272.5 -422.5z" />
<glyph unicode=")" horiz-adv-x="538" d="M45 -225l-45 41q180 190 272.5 422.5t92.5 478.5q0 244 -92.5 477.5t-272.5 423.5l45 41q188 -199 284.5 -442.5t96.5 -499.5q0 -257 -96 -500t-285 -442z" />
<glyph unicode="*" horiz-adv-x="806" d="M434 1380v-266l254 82l17 -57l-254 -82l157 -213l-49 -37l-158 213l-153 -211l-49 37l153 211l-250 82l21 57l250 -82v266h61z" />
<glyph unicode="+" horiz-adv-x="942" d="M102 602v62h338v337h62v-337h338v-62h-338v-338h-62v338h-338z" />
<glyph unicode="," horiz-adv-x="376" d="M127 123h123v-174q0 -145 -96 -180l-21 57q55 18 55 123v51h-61v123z" />
<glyph unicode="-" horiz-adv-x="737" d="M102 602v62h533v-62h-533z" />
<glyph unicode="." horiz-adv-x="376" d="M127 0v123h123v-123h-123z" />
<glyph unicode="/" horiz-adv-x="931" d="M98 -94l-57 24l793 1698l57 -24z" />
<glyph unicode="0" horiz-adv-x="1097" d="M549 1464q102 0 185 -64t134.5 -170.5t79 -238t27.5 -274.5t-27.5 -275.5t-79 -239t-134.5 -170t-185 -63.5q-103 0 -186 63.5t-134.5 170t-78.5 238.5t-27 276q0 143 27 274.5t78.5 238t134.5 170.5t186 64zM549 1403q-88 0 -159.5 -58.5t-115 -156.5t-67 -219 t-23.5 -252q0 -132 23.5 -253t67 -218.5t115 -156t159.5 -58.5t158.5 58.5t114.5 156t67.5 218.5t23.5 253q0 131 -23.5 252t-67.5 219t-115 156.5t-158 58.5z" />
<glyph unicode="1" horiz-adv-x="1077" d="M655 0h-61v1323l-344 -432l-49 37l454 571v-1499z" />
<glyph unicode="2" horiz-adv-x="1077" d="M971 61v-61h-897l588 678q48 56 74 89t63 88t54 108t17 106q0 79 -32 144t-85 105.5t-117.5 62.5t-131.5 22q-112 0 -200 -52t-140 -153l-55 25q60 120 162 180.5t233 60.5q63 0 124.5 -15.5t116.5 -47.5t96.5 -77t66 -108.5t24.5 -136.5q0 -65 -18.5 -126t-58 -122.5 t-70 -100t-85.5 -101.5l-495 -568h766z" />
<glyph unicode="3" horiz-adv-x="1077" d="M115 -2l10 61q61 -10 139 -10q168 0 307 47t222.5 135t83.5 201q0 104 -81 195t-212 135q-136 47 -359 47l400 563h-459v62h577l-401 -568q149 -7 262 -45q138 -47 236 -154t98 -235q0 -90 -41.5 -166t-109.5 -126t-157 -85.5t-181 -51t-185 -15.5q-88 0 -149 10z" />
<glyph unicode="4" horiz-adv-x="1077" d="M973 326v-62h-172v-264h-62v264h-651l713 1245v-1183h172zM195 326h544v952z" />
<glyph unicode="5" horiz-adv-x="1077" d="M113 -2l10 61q61 -10 139 -10q168 0 307 47t222 135t83 201q0 104 -80.5 195t-211.5 135q-133 45 -273 45q-49 0 -125 -4v631h559v-62h-497v-506q37 2 63 2q150 0 293 -47q138 -47 236 -154t98 -235q0 -90 -41.5 -166t-109.5 -126t-157 -85.5t-181 -51t-185 -15.5 q-88 0 -149 10z" />
<glyph unicode="6" horiz-adv-x="1077" d="M741 1438v-62q-58 4 -90 4q-111 0 -195.5 -32t-135 -83t-82 -124t-43 -145.5t-11.5 -157.5v-224q57 94 153.5 150.5t211.5 56.5q177 0 301.5 -124.5t124.5 -301.5t-124.5 -301.5t-301.5 -124.5t-301.5 124.5t-124.5 301.5v443q0 66 7.5 126.5t25 122t44.5 113.5t69 97 t95.5 77t126 50t158.5 18q34 0 92 -4zM184 395q0 -151 107 -257.5t258 -106.5t257.5 106.5t106.5 257.5t-106.5 258t-257.5 107t-258 -107t-107 -258z" />
<glyph unicode="7" horiz-adv-x="1077" d="M123 1372v62h838l-486 -1444l-59 14l458 1368h-751z" />
<glyph unicode="8" horiz-adv-x="1077" d="M186 1110q0 146 103.5 249t249.5 103t249 -103t103 -249q0 -103 -55 -188t-144 -129q121 -46 197 -155t76 -243q0 -177 -124.5 -301.5t-301.5 -124.5t-301.5 124.5t-124.5 301.5q0 134 75.5 243t196.5 155q-90 43 -144.5 128.5t-54.5 188.5zM248 1110q0 -120 85.5 -205.5 t205.5 -85.5t205 85.5t85 205.5t-85 205.5t-205 85.5t-205.5 -85.5t-85.5 -205.5zM174 395q0 -151 107 -257.5t258 -106.5t257.5 106.5t106.5 257.5t-106.5 258t-257.5 107t-258 -107t-107 -258z" />
<glyph unicode="9" horiz-adv-x="1077" d="M336 -4v61q58 -4 90 -4q111 0 195.5 32t135 83t82 124.5t43 146t11.5 157.5v223q-57 -94 -153.5 -150.5t-211.5 -56.5q-177 0 -301.5 124.5t-124.5 301.5t124.5 301.5t301.5 124.5t301.5 -124.5t124.5 -301.5v-442q0 -66 -7.5 -126.5t-25 -122t-44.5 -113.5t-69 -97 t-95.5 -77t-126 -50t-158.5 -18q-34 0 -92 4zM893 1038q0 151 -107 258t-258 107t-257.5 -107t-106.5 -258t106.5 -257.5t257.5 -106.5t258 106.5t107 257.5z" />
<glyph unicode=":" horiz-adv-x="376" d="M127 975v123h123v-123h-123zM127 0v123h123v-123h-123z" />
<glyph unicode=";" horiz-adv-x="376" d="M127 975v123h123v-123h-123zM127 123h123v-174q0 -145 -96 -180l-21 57q55 18 55 123v51h-61v123z" />
<glyph unicode="&#x3c;" horiz-adv-x="1126" d="M1024 299l-20 -57l-902 348l902 348l20 -57l-752 -291z" />
<glyph unicode="=" horiz-adv-x="942" d="M102 698v62h738v-62h-738zM102 506v61h738v-61h-738z" />
<glyph unicode="&#x3e;" horiz-adv-x="1126" d="M123 242l-21 57l752 291l-752 291l21 57l901 -348z" />
<glyph unicode="?" horiz-adv-x="1028" d="M518 336h-61v166q0 95 49.5 160t148.5 120q101 56 155 124.5t54 174.5q0 101 -55.5 176t-138 110.5t-174.5 35.5q-236 0 -338 -205l-54 29q120 237 392 237q79 0 154.5 -25t137.5 -71.5t100 -121t38 -165.5q0 -67 -17 -121t-52 -95.5t-75 -72.5t-98 -63q-84 -46 -125 -98 t-41 -129v-166zM426 0v123h123v-123h-123z" />
<glyph unicode="@" horiz-adv-x="1720" d="M838 858q-98 0 -176 -64.5t-78 -172.5t78 -174t176 -66q153 0 243 104v260q-101 113 -243 113zM1178 109l24 -58q-86 -42 -165.5 -62t-176.5 -20q-152 0 -290 59.5t-238.5 159.5t-159.5 238.5t-59 290.5t59 290t159.5 238.5t238.5 159.5t290 59t290.5 -59t238.5 -159.5 t159.5 -238.5t59.5 -290q0 -71 -21.5 -139.5t-61 -124.5t-104.5 -90.5t-145 -34.5q-52 0 -98 25.5t-74 64.5q-106 -99 -266 -99q-77 0 -148 34t-119.5 105t-48.5 163q0 136 97 217.5t219 81.5q139 0 243 -84v2q0 113 -58.5 178t-148.5 65q-135 0 -229 -94l-45 45 q111 111 274 111q118 0 193.5 -82.5t75.5 -222.5v-351q0 -34 41 -66t92 -32q86 0 149 50t92 123t29 155q0 186 -92 344t-250 250t-344 92t-344 -92t-250 -250t-92 -344t92 -344t250 -250t344 -92q87 0 160.5 19t157.5 59z" />
<glyph unicode="A" horiz-adv-x="1298" d="M100 10l549 1458l549 -1458l-57 -20l-150 397h-684l-149 -397zM649 1294l-319 -845h637z" />
<glyph unicode="B" horiz-adv-x="1077" d="M143 1434q80 6 158 6q274 0 412.5 -98t138.5 -257q0 -111 -70 -195t-207 -126q190 -40 295 -137t105 -234q0 -182 -179.5 -288.5t-494.5 -106.5q-79 0 -158 6v1430zM301 59q286 0 449 88.5t163 245.5t-163.5 246.5t-450.5 89.5h-94v-668q35 -2 96 -2zM301 1378 q-61 0 -96 -2v-585h117q233 0 351 81.5t118 212.5q0 133 -122.5 213t-367.5 80z" />
<glyph unicode="C" horiz-adv-x="1060" d="M954 61l4 -61q-67 -6 -151 -6q-135 0 -249.5 40.5t-195.5 110t-138 162t-84 196.5t-27 214q0 111 27 215.5t84.5 197.5t138.5 162t196 109.5t250 40.5q82 0 149 -6l-4 -62q-68 6 -145 6q-123 0 -228 -37t-179 -100.5t-126 -148.5t-77 -180.5t-25 -196.5q0 -127 40.5 -244 t117 -211t199.5 -150.5t276 -56.5q79 0 147 6z" />
<glyph unicode="D" horiz-adv-x="1128" d="M322 55q153 0 276 56.5t199 150.5t116.5 211t40.5 244q0 101 -24.5 196.5t-76.5 180.5t-125.5 148.5t-178 100.5t-227.5 37q-51 0 -117 -4v-1319q35 -2 117 -2zM322 1442q135 0 249.5 -40.5t195.5 -109.5t138 -162t84 -197.5t27 -215.5q0 -110 -27 -214t-84 -196.5 t-138 -162t-195.5 -110t-249.5 -40.5q-100 0 -179 6v1434q106 8 179 8z" />
<glyph unicode="E" horiz-adv-x="1067" d="M954 0h-811v1434h811v-62h-749v-541h614v-61h-614v-709h749v-61z" />
<glyph unicode="F" horiz-adv-x="1067" d="M205 0h-62v1434h811v-62h-749v-541h614v-61h-614v-770z" />
<glyph unicode="G" horiz-adv-x="1120" d="M924 631h61v-631q-79 -6 -178 -6q-135 0 -249.5 40.5t-195.5 110t-138 162t-84 196.5t-27 214q0 111 27 215.5t84 197.5t138 162t195.5 109.5t249.5 40.5q72 0 178 -8v-64q-87 10 -178 10q-153 0 -276 -56.5t-199.5 -151t-117 -211.5t-40.5 -244t40.5 -244t117 -211 t199.5 -150.5t276 -56.5q82 0 117 2v574z" />
<glyph unicode="H" horiz-adv-x="1118" d="M975 0h-62v770h-708v-770h-62v1434h62v-603h708v603h62v-1434z" />
<glyph unicode="I" d="M143 1434h62v-1434h-62v1434z" />
<glyph unicode="J" horiz-adv-x="940" d="M743 475v959h62v-977q0 -202 -115.5 -339.5t-294.5 -137.5q-164 0 -303 139l43 47q135 -125 260 -125q124 0 210.5 78.5t117.5 195.5q20 73 20 160z" />
<glyph unicode="K" horiz-adv-x="1179" d="M1077 20l-45 -40l-710 729l-117 -109v-600h-62v1434h62v-750l829 772l41 -45l-710 -659z" />
<glyph unicode="L" horiz-adv-x="1009" d="M143 1434h62v-1373h692v-61h-754v1434z" />
<glyph unicode="M" horiz-adv-x="1343" d="M205 0h-62v1483l529 -989l528 989v-1483h-61v1239l-467 -877l-467 877v-1239z" />
<glyph unicode="N" horiz-adv-x="1140" d="M205 0h-62v1493l793 -1327v1268h61v-1493l-792 1327v-1268z" />
<glyph unicode="O" horiz-adv-x="1675" d="M102 717q0 150 58.5 286t157 234.5t234.5 156.5t286 58q200 0 369 -98.5t267.5 -267.5t98.5 -369t-98.5 -369t-267.5 -267.5t-369 -98.5q-150 0 -286 58t-234.5 156.5t-157 234.5t-58.5 286zM164 717q0 -137 53.5 -262t143.5 -215t215 -143.5t262 -53.5q183 0 338 90 t245 245t90 339t-90 339t-245 245t-338 90q-137 0 -262 -53.5t-215 -143.5t-143.5 -215t-53.5 -262z" />
<glyph unicode="P" horiz-adv-x="1097" d="M205 0h-62v1434q80 6 158 6q167 0 302.5 -41t219 -109.5t128 -153t44.5 -175.5q0 -92 -44.5 -176.5t-128 -152.5t-219 -108.5t-302.5 -40.5q-26 0 -96 4v-487zM301 1378q-61 0 -96 -2v-827q66 -4 96 -4q153 0 276 35.5t199.5 94.5t117 132.5t40.5 153.5t-40.5 153.5 t-117 133t-199.5 95t-276 35.5z" />
<glyph unicode="Q" horiz-adv-x="1675" d="M1573 27l-45 -45l-195 192q-100 -91 -227.5 -141.5t-267.5 -50.5q-150 0 -286 58t-234.5 156.5t-157 234.5t-58.5 286t58.5 286t157 234.5t234.5 156.5t286 58q200 0 369 -98.5t267.5 -267.5t98.5 -369q0 -142 -51 -270t-144 -228zM164 717q0 -137 53.5 -262t143.5 -215 t215 -143.5t262 -53.5q129 0 245 45.5t207 128.5l-192 195l45 45l192 -195q176 195 176 455q0 184 -90 339t-245 245t-338 90q-137 0 -262 -53.5t-215 -143.5t-143.5 -215t-53.5 -262z" />
<glyph unicode="R" horiz-adv-x="1118" d="M205 0h-62v1434q80 6 158 6q167 0 302.5 -41t219 -109.5t128 -153t44.5 -175.5q0 -136 -93 -253t-267 -176l391 -514l-49 -36l-406 532q-121 -31 -270 -31q-26 0 -96 4v-487zM301 1378q-61 0 -96 -2v-827q66 -4 96 -4q153 0 276 35.5t199.5 94.5t117 132.5t40.5 153.5 t-40.5 153.5t-117 133t-199.5 95t-276 35.5z" />
<glyph unicode="S" horiz-adv-x="1056" d="M121 217l57 25q44 -101 134.5 -153t205.5 -52q157 0 261 93.5t104 238.5q0 50 -23 94t-57.5 76t-86 61.5t-96.5 48.5t-102 39q-63 22 -113.5 43.5t-107.5 55.5t-95 72t-63.5 91.5t-25.5 114.5q0 172 122 282.5t304 110.5q134 0 240 -61t157 -180l-57 -25 q-44 101 -134.5 153t-205.5 52q-157 0 -261 -93.5t-104 -238.5q0 -50 23 -94t57.5 -76.5t86 -62t96.5 -48.5t102 -39q63 -22 113.5 -43.5t107.5 -55.5t95 -71.5t63.5 -91t25.5 -114.5q0 -172 -122 -283t-304 -111q-135 0 -240.5 61.5t-156.5 180.5z" />
<glyph unicode="T" horiz-adv-x="1159" d="M610 0h-61v1372h-447v62h955v-62h-447v-1372z" />
<glyph unicode="U" horiz-adv-x="1142" d="M135 1434h62v-1039q0 -155 109.5 -254.5t264.5 -99.5t265 99.5t110 254.5v1039h62v-1039q0 -181 -128.5 -298t-308.5 -117q-117 0 -216 51t-159.5 147t-60.5 217v1039z" />
<glyph unicode="V" horiz-adv-x="1298" d="M100 1423l58 19l491 -1323l492 1323l57 -19l-549 -1480z" />
<glyph unicode="W" horiz-adv-x="1583" d="M612 1425l58 17l121 -418l122 418l58 -17l-150 -507l226 -766l376 1290l58 -17l-434 -1486l-256 874l-254 -874l-435 1486l58 17l377 -1290l223 766z" />
<glyph unicode="X" horiz-adv-x="1142" d="M987 -16l-416 673l-415 -673l-54 32l433 701l-433 700l54 33l415 -674l416 674l53 -33l-432 -700l432 -701z" />
<glyph unicode="Y" horiz-adv-x="1142" d="M602 0h-61v707l-439 710l54 33l415 -674l416 674l53 -33l-438 -710v-707z" />
<glyph unicode="Z" horiz-adv-x="1126" d="M119 1372v62h895l-795 -1373h789v-61h-895l794 1372h-788z" />
<glyph unicode="[" horiz-adv-x="491" d="M143 1659h349v-62h-287v-1761h287v-61h-349v1884z" />
<glyph unicode="\" horiz-adv-x="931" d="M891 -70l-57 -24l-793 1698l57 24z" />
<glyph unicode="]" horiz-adv-x="491" d="M0 1659h348v-1884h-348v61h287v1761h-287v62z" />
<glyph unicode="^" horiz-adv-x="665" d="M563 1137l-49 -37l-180 231l-182 -231l-50 37l232 297z" />
<glyph unicode="_" horiz-adv-x="1046" d="M0 0v61h1047v-61h-1047z" />
<glyph unicode="`" horiz-adv-x="591" d="M469 1294l-37 -49l-309 223l37 50z" />
<glyph unicode="a" horiz-adv-x="1089" d="M266 926l-45 41q157 151 377 151q50 0 99 -12.5t99 -44t87 -77.5t60.5 -120t23.5 -166v-698h-62v106q-137 -126 -358 -126q-115 0 -213.5 48.5t-159.5 142t-61 212.5t60.5 211.5t159 140t214.5 47.5q210 0 358 -141v57q0 79 -19.5 142t-50 103t-72 66.5t-82.5 37 t-83 10.5q-198 0 -332 -131zM547 41q106 0 200 38t158 118v356q-136 168 -358 168q-155 0 -264 -93t-109 -245t110 -247t263 -95z" />
<glyph unicode="b" horiz-adv-x="1089" d="M293 55q153 0 276 42.5t199.5 113t117 158.5t40.5 184t-40.5 184t-117 159.5t-200.5 114t-277 42.5q-28 0 -94 -4v-992q35 -2 96 -2zM135 1829h62v-719q70 4 94 4q135 0 250 -31t196 -85t138.5 -125.5t84.5 -152.5t27 -167q0 -108 -44.5 -206.5t-128 -178t-219 -127 t-302.5 -47.5q-79 0 -158 6v1829z" />
<glyph unicode="c" horiz-adv-x="1030" d="M924 53l4 -61q-68 -6 -131 -6q-168 0 -303 48t-219 128t-128.5 179.5t-44.5 207.5t44.5 208t128.5 180.5t219.5 128.5t302.5 48q63 0 131 -6l-4 -61q-67 6 -127 6q-152 0 -275.5 -43.5t-200 -115.5t-117 -160.5t-40.5 -184.5t40.5 -184.5t117 -160t199.5 -114.5t276 -43 q59 0 127 6z" />
<glyph unicode="d" horiz-adv-x="1089" d="M893 1829h61v-1829q-80 -6 -157 -6q-168 0 -303 47.5t-219 127t-128.5 178t-44.5 206.5q0 86 27.5 167t84.5 152.5t138 125.5t196.5 85t250.5 31q24 0 94 -4v719zM797 55q61 0 96 2v992q-66 4 -94 4q-153 0 -277 -42.5t-200.5 -114t-117 -159.5t-40.5 -184t40.5 -184 t117 -158.5t199.5 -113t276 -42.5z" />
<glyph unicode="e" horiz-adv-x="1150" d="M926 61v-61q-90 -8 -131 -8q-165 0 -299.5 47.5t-218.5 126.5t-129.5 178.5t-45.5 208.5q0 122 33 221.5t85 162t118.5 105t129 59.5t122.5 17q107 0 194 -39.5t145 -109t89 -164t31 -203.5h-883q-2 -16 -2 -49q0 -75 24.5 -146t76 -135t125 -112t179.5 -76.5t232 -28.5 q61 0 125 6zM590 1057q-68 0 -134 -24.5t-124.5 -71.5t-101 -124t-58.5 -173h811q0 66 -26 134t-73 126.5t-124.5 95.5t-169.5 37z" />
<glyph unicode="f" horiz-adv-x="530" d="M43 1036v62h92v235q0 189 107.5 302.5t263.5 113.5q99 0 165.5 -30.5t139.5 -98.5l-41 -45q-67 62 -123.5 87.5t-140.5 25.5q-131 0 -220 -96.5t-89 -258.5v-235h323v-62h-323v-1636h-62v1636h-92z" />
<glyph unicode="g" horiz-adv-x="1089" d="M893 -123v121q-53 -6 -94 -6q-135 0 -250.5 31t-196.5 85t-138 125.5t-84.5 152.5t-27.5 167q0 108 44.5 206.5t128.5 178t219 127t303 47.5q77 0 157 -6v-1229q0 -124 -49 -232t-143.5 -176.5t-214.5 -68.5q-161 0 -303 139l41 45q126 -123 262 -123q102 0 182.5 60 t122 154t41.5 202zM797 1051q-153 0 -276 -42.5t-199.5 -113t-117 -158.5t-40.5 -184t40.5 -184t117 -159.5t200.5 -114t277 -42.5q28 0 94 4v992q-35 2 -96 2z" />
<glyph unicode="h" horiz-adv-x="1112" d="M135 1829h62v-819q148 108 342 108q143 0 258.5 -69.5t165.5 -204.5q26 -68 26 -144v-700h-61v696q0 63 -23 125q-42 116 -142.5 176t-225.5 60q-94 0 -183.5 -32.5t-156.5 -92.5v-932h-62v1829z" />
<glyph unicode="i" d="M143 1098h62v-1098h-62v1098zM123 1331v103h102v-103h-102z" />
<glyph unicode="j" d="M123 1333v101h102v-101h-102zM-250 -475l53 29q54 -93 148 -93q82 0 137 71.5t55 193.5v1372h62v-1372q0 -149 -73 -237.5t-181 -88.5q-132 0 -201 125z" />
<glyph unicode="k" horiz-adv-x="1167" d="M1065 27l-37 -50l-698 551l-133 -98v-430h-62v1829h62v-1321l831 612l37 -49l-684 -506z" />
<glyph unicode="l" horiz-adv-x="331" d="M135 1829h62v-1829h-62v1829z" />
<glyph unicode="m" horiz-adv-x="1703" d="M135 1098h62v-90q132 110 313 110q126 0 218 -66t130 -184q38 119 128 184.5t216 65.5q164 0 271.5 -114t107.5 -306v-698h-61v698q0 24 -5 55t-17 73.5t-36 81.5t-57 73.5t-86 55t-117 20.5q-80 0 -143 -33.5t-98.5 -87t-53.5 -112.5t-18 -119v-705h-62v705 q0 59 -18.5 118.5t-55 113t-100 87t-143.5 33.5q-179 0 -313 -127v-930h-62v1098z" />
<glyph unicode="n" horiz-adv-x="1114" d="M135 1098h62v-90q71 53 162 81.5t184 28.5q142 0 258.5 -71t165.5 -203q24 -66 24 -144v-700h-61v700q0 84 -34.5 153.5t-90.5 113t-124 67t-138 23.5q-95 0 -188 -33t-158 -92v-932h-62v1098z" />
<glyph unicode="o" horiz-adv-x="1343" d="M102 549q0 154 76.5 285t208 207.5t285.5 76.5t285 -76.5t207.5 -207.5t76.5 -285t-76.5 -285t-207.5 -207.5t-285 -76.5t-285.5 76.5t-208 207.5t-76.5 285zM164 549q0 -138 68 -255t185 -185t255 -68t255 68t185 185t68 255t-68 255t-185 185t-255 68t-255 -68 t-185 -185t-68 -255z" />
<glyph unicode="p" horiz-adv-x="1089" d="M197 -600h-62v1706q80 6 158 6q167 0 302.5 -47.5t219 -127t128 -178t44.5 -206.5q0 -86 -27 -167t-84.5 -152.5t-138.5 -125.5t-196 -85t-250 -31q-24 0 -94 4v-596zM293 1051q-61 0 -96 -2v-992q66 -4 94 -4q153 0 277 42.5t200.5 114t117 159.5t40.5 184t-40.5 184 t-117 158.5t-199.5 113t-276 42.5z" />
<glyph unicode="q" horiz-adv-x="1089" d="M797 1051q-153 0 -276 -42.5t-199.5 -113t-117 -158.5t-40.5 -184t40.5 -184t117 -159.5t200.5 -114t277 -42.5q28 0 94 4v992q-35 2 -96 2zM954 -600h-61v596q-70 -4 -94 -4q-135 0 -250.5 31t-196.5 85t-138 125.5t-84.5 152.5t-27.5 167q0 108 44.5 206.5t128.5 178 t219 127t303 47.5q77 0 157 -6v-1706z" />
<glyph unicode="r" horiz-adv-x="614" d="M543 1118v-61q-95 0 -188 -33t-158 -92v-932h-62v1098h62v-90q71 53 162 81.5t184 28.5z" />
<glyph unicode="s" horiz-adv-x="950" d="M162 29l24 57q41 -15 100 -27t101 -12q179 0 289 73t110 183q0 79 -81 134t-234 81q-177 29 -273 101t-96 176q0 135 127.5 226t333.5 91q51 0 116.5 -12.5t108.5 -30.5l-24 -57q-41 15 -100 27t-101 12q-179 0 -289 -73t-110 -183q0 -79 81 -134t234 -81 q177 -29 273 -101t96 -176q0 -135 -127.5 -226t-333.5 -91q-51 0 -116.5 12.5t-108.5 30.5z" />
<glyph unicode="t" horiz-adv-x="606" d="M520 1098v-62h-323v-651q0 -160 87 -243t226 -83q29 0 47 2l8 -61q-18 -2 -55 -2q-107 0 -190 40.5t-134 129.5t-51 217v651h-92v62h92v356h62v-356h323z" />
<glyph unicode="u" horiz-adv-x="1101" d="M123 1098h61v-703q0 -155 106.5 -254.5t260.5 -99.5t260.5 99.5t106.5 254.5v703h61v-703q0 -182 -124.5 -298.5t-303.5 -116.5t-303.5 116.5t-124.5 298.5v703z" />
<glyph unicode="v" horiz-adv-x="1077" d="M102 1087l58 21l379 -981l379 981l57 -21l-436 -1128z" />
<glyph unicode="w" horiz-adv-x="1593" d="M618 1087l58 21l121 -313l121 313l57 -21l-146 -376l226 -584l379 981l57 -21l-436 -1128l-258 668l-258 -668l-437 1128l58 21l379 -981l225 584z" />
<glyph unicode="x" horiz-adv-x="1134" d="M152 -18l-50 36l426 531l-426 530l50 37l415 -518l416 518l49 -37l-426 -530l426 -531l-49 -36l-416 516z" />
<glyph unicode="y" horiz-adv-x="1110" d="M913 1098h62v-1221q0 -124 -49.5 -232t-144 -176.5t-214.5 -68.5q-161 0 -303 139l41 45q126 -123 262 -123q102 0 182.5 60t122 154t41.5 202v219q-154 -137 -344 -137q-78 0 -155.5 28t-143 79t-106.5 133.5t-41 181.5v717h61v-721q0 -106 56 -189.5t142.5 -125.5 t184.5 -42q103 0 180.5 39t165.5 123v916z" />
<glyph unicode="z" horiz-adv-x="1093" d="M102 1036v62h897l-780 -1037h772v-61h-897l780 1036h-772z" />
<glyph unicode="{" horiz-adv-x="512" d="M512 1659v-62q-117 0 -181.5 -58.5t-64.5 -135.5q0 -66 31 -237.5t31 -260.5q0 -115 -131 -188q131 -73 131 -189q0 -90 -31 -261.5t-31 -235.5q0 -78 64.5 -136.5t181.5 -58.5v-61q-145 0 -226 77t-81 179q0 84 30.5 254t30.5 243q0 55 -57.5 103t-112.5 61v49 q55 13 112.5 61t57.5 103q0 73 -30.5 243.5t-30.5 254.5q0 102 81 179t226 77z" />
<glyph unicode="|" horiz-adv-x="376" d="M158 1829h61v-2075h-61v2075z" />
<glyph unicode="}" horiz-adv-x="512" d="M0 1597v62q145 0 226 -77t81 -179q0 -84 -30.5 -254.5t-30.5 -243.5q0 -55 57.5 -103t112.5 -61v-49q-55 -13 -112.5 -61t-57.5 -103q0 -73 30.5 -243t30.5 -254q0 -102 -81 -179t-226 -77v61q117 0 181.5 58.5t64.5 136.5q0 64 -31 235.5t-31 261.5q0 116 131 189 q-131 73 -131 188q0 89 31 260.5t31 237.5q0 77 -64.5 135.5t-181.5 58.5z" />
<glyph unicode="~" horiz-adv-x="1046" d="M895 688l49 -37q-98 -125 -225 -125q-102 0 -215 84q-96 70 -174 70q-99 0 -178 -100l-50 36q99 125 228 125q100 0 211 -82q89 -71 178 -71q98 0 176 100z" />
<glyph unicode="&#xa1;" horiz-adv-x="376" d="M158 -336v1098h61v-1098h-61zM127 975v123h123v-123h-123z" />
<glyph unicode="&#xa2;" horiz-adv-x="1048" d="M924 53l4 -61q-68 -6 -131 -6q-71 0 -146 10v-184h-61v194q-157 34 -270 119t-165.5 193.5t-52.5 230.5q0 90 31 175.5t90 159t153.5 129.5t213.5 81v188h61v-178q75 10 146 10q63 0 131 -6l-4 -61q-67 6 -127 6q-152 0 -275.5 -43.5t-200 -115.5t-117 -160.5 t-40.5 -184.5t40.5 -184.5t117 -160t199.5 -114.5t276 -43q59 0 127 6z" />
<glyph unicode="&#xa3;" horiz-adv-x="1009" d="M41 768h133q-24 113 -24 207q0 205 142.5 332t412.5 127v-62q-240 0 -367 -110t-127 -287q0 -86 25 -207h215v-61h-201q4 -14 14.5 -57.5t15 -62t12.5 -56.5t11.5 -62t6.5 -56t3 -61q0 -51 -19.5 -113t-49.5 -104q22 10 59 10q106 0 215 -51q103 -47 191 -47 q115 0 188 70l41 -45q-93 -86 -229 -86q-100 0 -215 51q-106 47 -191 47q-39 0 -123 -43q-72 -37 -102 -41l-10 61q61 13 122.5 102.5t61.5 188.5q0 28 -3 59.5t-6.5 55t-12 61.5t-13 56.5t-16 63t-15.5 59.5h-145v61z" />
<glyph unicode="&#xa5;" horiz-adv-x="1142" d="M244 532v62h297v113l-439 710l54 33l415 -674l416 674l53 -33l-438 -710v-113h297v-62h-297v-118h297v-62h-297v-352h-61v352h-297v62h297v118h-297z" />
<glyph unicode="&#xa6;" horiz-adv-x="471" d="M205 1829h61v-901h-61v901zM205 655h61v-901h-61v901z" />
<glyph unicode="&#xa7;" horiz-adv-x="1050" d="M561 309l-84 10q-164 21 -259 120t-95 214q0 86 61.5 156t163.5 109q-168 64 -168 215q0 125 119.5 213t321.5 88q74 0 161 -17l-8 -61q-82 16 -153 16q-175 0 -277 -70t-102 -169q0 -73 63.5 -120.5t181.5 -64.5l80 -10q167 -22 264 -121.5t97 -214.5q0 -88 -62 -157 t-164 -107q168 -64 168 -213q0 -125 -119 -213t-321 -88q-80 0 -162 16l8 62q87 -17 154 -17q175 0 277 70.5t102 169.5q0 70 -66 118.5t-182 65.5zM866 602q0 97 -85 175.5t-216 96.5q-47 7 -71 7q-132 0 -221 -69t-89 -159q0 -98 85 -176t220 -96q41 -6 70 -6 q132 0 219.5 68t87.5 159z" />
<glyph unicode="&#xa8;" horiz-adv-x="665" d="M143 1331v103h103v-103h-103zM420 1331v103h102v-103h-102z" />
<glyph unicode="&#xa9;" horiz-adv-x="1720" d="M1079 379l8 -62q-33 -4 -96 -4q-120 0 -217 34.5t-157 92t-91.5 128.5t-31.5 149t31.5 150t92 129.5t157.5 91.5t218 34q63 0 94 -4l-8 -61q-31 4 -86 4q-106 0 -191.5 -29.5t-138 -78.5t-80.5 -109.5t-28 -126.5t28 -126.5t80.5 -109t137.5 -77.5t190 -29q55 0 88 4z M113 717q0 152 59 290t159.5 238.5t238.5 159.5t290 59t290.5 -59t238.5 -159.5t159.5 -238.5t59.5 -290q0 -203 -100.5 -375t-272.5 -272.5t-375 -100.5q-152 0 -290 59.5t-238.5 159.5t-159.5 238.5t-59 290.5zM174 717q0 -186 92 -344t250 -250t344 -92t344 92t250 250 t92 344t-92 344t-250 250t-344 92t-344 -92t-250 -250t-92 -344z" />
<glyph unicode="&#xab;" horiz-adv-x="854" d="M752 334l-37 -49l-346 268l346 270l37 -49l-281 -221zM485 334l-36 -49l-347 268l347 270l36 -49l-280 -221z" />
<glyph unicode="&#xad;" horiz-adv-x="737" d="M102 602v62h533v-62h-533z" />
<glyph unicode="&#xae;" horiz-adv-x="1024" d="M512 1464q161 0 275 -114t114 -275t-114 -275t-275 -114t-275 114t-114 275t114 275t275 114zM512 1403q-136 0 -232 -95.5t-96 -232.5q0 -136 95.5 -231.5t232.5 -95.5t232.5 95.5t95.5 231.5q0 137 -96 232.5t-232 95.5zM457 891h-62v412h60q92 0 143 -42t51 -102 q0 -38 -22.5 -70.5t-65.5 -50.5l98 -129l-49 -37l-114 150q-12 -2 -39 -2v-129zM457 1241v-160q62 0 96.5 23t34.5 55q0 33 -34.5 57.5t-96.5 24.5z" />
<glyph unicode="&#xaf;" horiz-adv-x="819" d="M143 1352v61h533v-61h-533z" />
<glyph unicode="&#xb0;" horiz-adv-x="561" d="M113 1098q0 69 49.5 118.5t118.5 49.5t118.5 -49.5t49.5 -118.5t-49.5 -118.5t-118.5 -49.5t-118.5 49.5t-49.5 118.5zM174 1098q0 -44 31.5 -75.5t75.5 -31.5t75 31.5t31 75.5t-31 75t-75 31t-75.5 -31t-31.5 -75z" />
<glyph unicode="&#xb1;" horiz-adv-x="983" d="M123 664v61h338v336h61v-336h338v-61h-338v-336h-61v336h-338zM123 205v61h737v-61h-737z" />
<glyph unicode="&#xb2;" horiz-adv-x="651" d="M539 1047v-62h-437l285 328q28 32 44 52.5t31 53t15 60.5q0 60 -43.5 94.5t-101.5 34.5q-97 0 -137 -82l-54 28q59 115 191 115q82 0 144.5 -51t62.5 -139q0 -87 -107 -207l-196 -225h303z" />
<glyph unicode="&#xb3;" horiz-adv-x="595" d="M106 987l13 62q29 -5 59 -5q103 0 178.5 41t75.5 113q0 40 -35 76.5t-84 54.5q-51 16 -184 23l174 247h-180v62h301l-180 -254q51 -8 90 -21q70 -24 115 -75.5t45 -112.5q0 -68 -47 -118.5t-117.5 -73.5t-151.5 -23q-49 0 -72 4z" />
<glyph unicode="&#xb4;" horiz-adv-x="632" d="M180 1245l-37 49l310 224l36 -50z" />
<glyph unicode="&#xb6;" horiz-adv-x="851" d="M504 0h-62v877h-61q-116 0 -197.5 81.5t-81.5 196.5t82 197t197 82h450v-62h-102v-1372h-61v1372h-164v-1372zM381 1372q-91 0 -154 -63t-63 -154t63 -154t154 -63h61v434h-61z" />
<glyph unicode="&#xb7;" horiz-adv-x="327" d="M102 569v123h123v-123h-123z" />
<glyph unicode="&#xb8;" horiz-adv-x="552" d="M219 -223l21 57q19 -8 47 -8q61 0 61 41q0 20 -65 20h-27l31 119l61 -16l-12 -39q33 -6 53.5 -28t20.5 -56q0 -50 -37 -76.5t-88 -26.5q-33 0 -66 13z" />
<glyph unicode="&#xb9;" horiz-adv-x="456" d="M334 985h-62v533l-120 -150l-50 37l232 293v-713z" />
<glyph unicode="&#xbb;" horiz-adv-x="854" d="M406 285l-37 49l280 219l-280 221l37 49l346 -270zM139 285l-37 49l281 219l-281 221l37 49l346 -270z" />
<glyph unicode="&#xbf;" horiz-adv-x="870" d="M510 762h61v-166q0 -181 -196 -281q-42 -24 -65 -39t-55.5 -43t-49 -55.5t-29 -69.5t-12.5 -92q0 -98 54.5 -173t137 -111.5t174.5 -36.5q236 0 340 203l56 -25q-118 -240 -394 -240q-78 0 -153 24.5t-137.5 70.5t-101 121t-38.5 167q0 121 59.5 206t178.5 147 q83 43 126.5 94.5t43.5 132.5v166zM602 1098v-123h-123v123h123z" />
<glyph unicode="&#xc0;" horiz-adv-x="1298" d="M100 10l549 1458l549 -1458l-57 -20l-150 397h-684l-149 -397zM649 1294l-319 -845h637zM809 1604l-37 -50l-309 224l37 49z" />
<glyph unicode="&#xc1;" horiz-adv-x="1298" d="M100 10l549 1458l549 -1458l-57 -20l-150 397h-684l-149 -397zM649 1294l-319 -845h637zM530 1554l-36 50l309 223l37 -49z" />
<glyph unicode="&#xc2;" horiz-adv-x="1298" d="M100 10l549 1458l549 -1458l-57 -20l-150 397h-684l-149 -397zM649 1294l-319 -845h637zM819 1591l-49 -37l-135 170l-133 -170l-49 37l182 236z" />
<glyph unicode="&#xc3;" horiz-adv-x="1298" d="M100 10l549 1458l549 -1458l-57 -20l-150 397h-684l-149 -397zM649 1294l-319 -845h637zM827 1755l50 -37q-26 -48 -66 -72t-80 -24q-57 0 -115 43q-45 33 -79 33q-25 0 -52 -18.5t-43 -53.5l-49 37q25 47 64 71.5t80 24.5q59 0 116 -45q42 -31 78 -31q24 0 51.5 18 t44.5 54z" />
<glyph unicode="&#xc4;" horiz-adv-x="1298" d="M100 10l549 1458l549 -1458l-57 -20l-150 397h-684l-149 -397zM649 1294l-319 -845h637zM446 1640v103h103v-103h-103zM723 1640v103h102v-103h-102z" />
<glyph unicode="&#xc5;" horiz-adv-x="1298" d="M100 10l549 1458l549 -1458l-57 -20l-150 397h-684l-149 -397zM649 1294l-319 -845h637zM498 1692q0 57 40 97t97 40t97 -40t40 -97t-40 -97.5t-97 -40.5t-97 40.5t-40 97.5zM559 1692q0 -31 22.5 -53.5t53.5 -22.5t53.5 22.5t22.5 53.5t-22.5 53t-53.5 22t-53.5 -22 t-22.5 -53z" />
<glyph unicode="&#xc6;" horiz-adv-x="1531" d="M813 1300l-448 -894h448v894zM813 344h-479l-178 -358l-54 28l711 1420h606v-62h-545v-541h410v-61h-410v-709h545v-61h-606v344z" />
<glyph unicode="&#xc7;" horiz-adv-x="1060" d="M590 -213l20 57q19 -8 47 -8q62 0 62 41q0 21 -66 21h-26l28 110q-132 25 -237 94.5t-170.5 166t-100 211t-34.5 237.5q0 111 27 215.5t84.5 197.5t138.5 162t196 109.5t250 40.5q82 0 149 -6l-4 -62q-68 6 -145 6q-123 0 -228 -37t-179 -100.5t-126 -148.5t-77 -180.5 t-25 -196.5q0 -127 40.5 -244t117 -211t199.5 -150.5t276 -56.5q79 0 147 6l4 -61q-67 -6 -151 -6q-45 0 -88 6l-12 -39q33 -6 53 -28t20 -56q0 -50 -37 -76t-88 -26q-35 0 -65 12z" />
<glyph unicode="&#xc8;" horiz-adv-x="1067" d="M954 0h-811v1434h811v-62h-749v-541h614v-61h-614v-709h749v-61zM723 1604l-37 -50l-309 224l37 49z" />
<glyph unicode="&#xc9;" horiz-adv-x="1067" d="M954 0h-811v1434h811v-62h-749v-541h614v-61h-614v-709h749v-61zM414 1554l-37 50l309 223l37 -49z" />
<glyph unicode="&#xca;" horiz-adv-x="1067" d="M954 0h-811v1434h811v-62h-749v-541h614v-61h-614v-709h749v-61zM733 1591l-49 -37l-135 170l-133 -170l-49 37l182 236z" />
<glyph unicode="&#xcb;" horiz-adv-x="1067" d="M954 0h-811v1434h811v-62h-749v-541h614v-61h-614v-709h749v-61zM360 1640v103h103v-103h-103zM637 1640v103h102v-103h-102z" />
<glyph unicode="&#xcc;" d="M143 1434h62v-1434h-62v1434zM348 1604l-37 -50l-309 224l37 49z" />
<glyph unicode="&#xcd;" d="M143 1434h62v-1434h-62v1434zM70 1554l-37 50l309 223l37 -49z" />
<glyph unicode="&#xce;" d="M143 1434h62v-1434h-62v1434zM358 1591l-49 -37l-135 170l-133 -170l-49 37l182 236z" />
<glyph unicode="&#xcf;" d="M143 1434h62v-1434h-62v1434zM-14 1640v103h102v-103h-102zM262 1640v103h103v-103h-103z" />
<glyph unicode="&#xd1;" horiz-adv-x="1140" d="M205 0h-62v1493l793 -1327v1268h61v-1493l-792 1327v-1268zM762 1755l49 -37q-26 -48 -65.5 -72t-79.5 -24q-57 0 -115 43q-45 33 -80 33q-25 0 -51.5 -18.5t-42.5 -53.5l-49 37q25 47 63.5 71.5t79.5 24.5q60 0 117 -45q42 -31 78 -31q24 0 51.5 18t44.5 54z" />
<glyph unicode="&#xd2;" horiz-adv-x="1675" d="M102 717q0 150 58.5 286t157 234.5t234.5 156.5t286 58q200 0 369 -98.5t267.5 -267.5t98.5 -369t-98.5 -369t-267.5 -267.5t-369 -98.5q-150 0 -286 58t-234.5 156.5t-157 234.5t-58.5 286zM164 717q0 -137 53.5 -262t143.5 -215t215 -143.5t262 -53.5q183 0 338 90 t245 245t90 339t-90 339t-245 245t-338 90q-137 0 -262 -53.5t-215 -143.5t-143.5 -215t-53.5 -262zM1012 1604l-37 -50l-309 224l36 49z" />
<glyph unicode="&#xd3;" horiz-adv-x="1675" d="M102 717q0 150 58.5 286t157 234.5t234.5 156.5t286 58q200 0 369 -98.5t267.5 -267.5t98.5 -369t-98.5 -369t-267.5 -267.5t-369 -98.5q-150 0 -286 58t-234.5 156.5t-157 234.5t-58.5 286zM164 717q0 -137 53.5 -262t143.5 -215t215 -143.5t262 -53.5q183 0 338 90 t245 245t90 339t-90 339t-245 245t-338 90q-137 0 -262 -53.5t-215 -143.5t-143.5 -215t-53.5 -262zM702 1554l-36 50l309 223l37 -49z" />
<glyph unicode="&#xd4;" horiz-adv-x="1675" d="M102 717q0 150 58.5 286t157 234.5t234.5 156.5t286 58q200 0 369 -98.5t267.5 -267.5t98.5 -369t-98.5 -369t-267.5 -267.5t-369 -98.5q-150 0 -286 58t-234.5 156.5t-157 234.5t-58.5 286zM164 717q0 -137 53.5 -262t143.5 -215t215 -143.5t262 -53.5q183 0 338 90 t245 245t90 339t-90 339t-245 245t-338 90q-137 0 -262 -53.5t-215 -143.5t-143.5 -215t-53.5 -262zM1022 1591l-49 -37l-135 170l-133 -170l-50 37l183 236z" />
<glyph unicode="&#xd5;" horiz-adv-x="1675" d="M102 717q0 150 58.5 286t157 234.5t234.5 156.5t286 58q200 0 369 -98.5t267.5 -267.5t98.5 -369t-98.5 -369t-267.5 -267.5t-369 -98.5q-150 0 -286 58t-234.5 156.5t-157 234.5t-58.5 286zM164 717q0 -137 53.5 -262t143.5 -215t215 -143.5t262 -53.5q183 0 338 90 t245 245t90 339t-90 339t-245 245t-338 90q-137 0 -262 -53.5t-215 -143.5t-143.5 -215t-53.5 -262zM1030 1755l49 -37q-26 -48 -65.5 -72t-79.5 -24q-57 0 -115 43q-45 33 -80 33q-25 0 -51.5 -18.5t-42.5 -53.5l-49 37q25 47 63.5 71.5t79.5 24.5q60 0 117 -45 q42 -31 78 -31q24 0 51.5 18t44.5 54z" />
<glyph unicode="&#xd6;" horiz-adv-x="1675" d="M102 717q0 150 58.5 286t157 234.5t234.5 156.5t286 58q200 0 369 -98.5t267.5 -267.5t98.5 -369t-98.5 -369t-267.5 -267.5t-369 -98.5q-150 0 -286 58t-234.5 156.5t-157 234.5t-58.5 286zM164 717q0 -137 53.5 -262t143.5 -215t215 -143.5t262 -53.5q183 0 338 90 t245 245t90 339t-90 339t-245 245t-338 90q-137 0 -262 -53.5t-215 -143.5t-143.5 -215t-53.5 -262zM649 1640v103h103v-103h-103zM926 1640v103h102v-103h-102z" />
<glyph unicode="&#xd7;" horiz-adv-x="983" d="M168 264l-45 45l323 324l-323 323l45 45l324 -323l323 323l45 -45l-323 -323l323 -324l-45 -45l-323 324z" />
<glyph unicode="&#xd8;" horiz-adv-x="1675" d="M147 -18l-45 45l193 192q-91 101 -142 228.5t-51 269.5q0 150 58.5 286t157 234.5t234.5 156.5t286 58q140 0 267.5 -51t227.5 -144l195 195l45 -45l-195 -195q93 -100 144 -227.5t51 -267.5q0 -200 -98.5 -369t-267.5 -267.5t-369 -98.5q-142 0 -270 50.5t-228 141.5z M1511 717q0 128 -46.5 244.5t-129.5 207.5l-952 -952q193 -174 455 -174q183 0 338 90t245 245t90 339zM164 717q0 -262 174 -455l952 952q-91 84 -207.5 130.5t-244.5 46.5q-137 0 -262 -53.5t-215 -143.5t-143.5 -215t-53.5 -262z" />
<glyph unicode="&#xd9;" horiz-adv-x="1142" d="M135 1434h62v-1039q0 -155 109.5 -254.5t264.5 -99.5t265 99.5t110 254.5v1039h62v-1039q0 -181 -128.5 -298t-308.5 -117q-117 0 -216 51t-159.5 147t-60.5 217v1039zM745 1604l-36 -50l-310 224l37 49z" />
<glyph unicode="&#xda;" horiz-adv-x="1142" d="M135 1434h62v-1039q0 -155 109.5 -254.5t264.5 -99.5t265 99.5t110 254.5v1039h62v-1039q0 -181 -128.5 -298t-308.5 -117q-117 0 -216 51t-159.5 147t-60.5 217v1039zM436 1554l-37 50l310 223l36 -49z" />
<glyph unicode="&#xdb;" horiz-adv-x="1142" d="M135 1434h62v-1039q0 -155 109.5 -254.5t264.5 -99.5t265 99.5t110 254.5v1039h62v-1039q0 -181 -128.5 -298t-308.5 -117q-117 0 -216 51t-159.5 147t-60.5 217v1039zM756 1591l-49 -37l-136 170l-133 -170l-49 37l182 236z" />
<glyph unicode="&#xdc;" horiz-adv-x="1142" d="M135 1434h62v-1039q0 -155 109.5 -254.5t264.5 -99.5t265 99.5t110 254.5v1039h62v-1039q0 -181 -128.5 -298t-308.5 -117q-117 0 -216 51t-159.5 147t-60.5 217v1039zM383 1640v103h102v-103h-102zM659 1640v103h103v-103h-103z" />
<glyph unicode="&#xdd;" horiz-adv-x="1142" d="M602 0h-61v707l-439 710l54 33l415 -674l416 674l53 -33l-438 -710v-707zM436 1554l-37 50l310 223l36 -49z" />
<glyph unicode="&#xde;" horiz-adv-x="956" d="M205 1434v-279q58 4 90 4q131 0 239 -37t177 -99t106 -140.5t37 -163.5q0 -86 -37 -164.5t-106 -140.5t-177 -98.5t-239 -36.5q-61 0 -90 4v-283h-62v1434h62zM295 1098q-41 0 -90 -6v-748q33 -4 90 -4q117 0 213 31.5t157.5 84.5t94.5 120.5t33 142.5q0 155 -134 267 t-364 112z" />
<glyph unicode="&#xdf;" horiz-adv-x="1107" d="M197 0h-62v1251q0 131 95.5 218t218.5 87v-61q-99 0 -175.5 -70t-76.5 -174v-153h716l-329 -492q107 -19 200.5 -79.5t152 -155t58.5 -199.5q0 -103 -41 -195.5t-116.5 -163t-192 -112t-256.5 -41.5v61q125 0 229.5 36.5t172.5 98.5t105.5 143.5t37.5 172.5 q0 99 -64.5 186.5t-171 139t-223.5 51.5l324 487h-602v-1036z" />
<glyph unicode="&#xe0;" horiz-adv-x="1089" d="M266 926l-45 41q157 151 377 151q50 0 99 -12.5t99 -44t87 -77.5t60.5 -120t23.5 -166v-698h-62v106q-137 -126 -358 -126q-115 0 -213.5 48.5t-159.5 142t-61 212.5t60.5 211.5t159 140t214.5 47.5q210 0 358 -141v57q0 79 -19.5 142t-50 103t-72 66.5t-82.5 37 t-83 10.5q-198 0 -332 -131zM547 41q106 0 200 38t158 118v356q-136 168 -358 168q-155 0 -264 -93t-109 -245t110 -247t263 -95zM756 1294l-37 -49l-309 223l36 50z" />
<glyph unicode="&#xe1;" horiz-adv-x="1089" d="M266 926l-45 41q157 151 377 151q50 0 99 -12.5t99 -44t87 -77.5t60.5 -120t23.5 -166v-698h-62v106q-137 -126 -358 -126q-115 0 -213.5 48.5t-159.5 142t-61 212.5t60.5 211.5t159 140t214.5 47.5q210 0 358 -141v57q0 79 -19.5 142t-50 103t-72 66.5t-82.5 37 t-83 10.5q-198 0 -332 -131zM547 41q106 0 200 38t158 118v356q-136 168 -358 168q-155 0 -264 -93t-109 -245t110 -247t263 -95zM475 1245l-37 49l310 224l36 -50z" />
<glyph unicode="&#xe2;" horiz-adv-x="1089" d="M266 926l-45 41q157 151 377 151q50 0 99 -12.5t99 -44t87 -77.5t60.5 -120t23.5 -166v-698h-62v106q-137 -126 -358 -126q-115 0 -213.5 48.5t-159.5 142t-61 212.5t60.5 211.5t159 140t214.5 47.5q210 0 358 -141v57q0 79 -19.5 142t-50 103t-72 66.5t-82.5 37 t-83 10.5q-198 0 -332 -131zM547 41q106 0 200 38t158 118v356q-136 168 -358 168q-155 0 -264 -93t-109 -245t110 -247t263 -95zM780 1282l-49 -37l-135 170l-133 -170l-49 37l182 236z" />
<glyph unicode="&#xe3;" horiz-adv-x="1089" d="M266 926l-45 41q157 151 377 151q50 0 99 -12.5t99 -44t87 -77.5t60.5 -120t23.5 -166v-698h-62v106q-137 -126 -358 -126q-115 0 -213.5 48.5t-159.5 142t-61 212.5t60.5 211.5t159 140t214.5 47.5q210 0 358 -141v57q0 79 -19.5 142t-50 103t-72 66.5t-82.5 37 t-83 10.5q-198 0 -332 -131zM547 41q106 0 200 38t158 118v356q-136 168 -358 168q-155 0 -264 -93t-109 -245t110 -247t263 -95zM774 1446l49 -37q-26 -48 -65.5 -72t-79.5 -24q-57 0 -115 43q-45 33 -80 33q-25 0 -51.5 -18.5t-42.5 -53.5l-49 37q25 47 63.5 71.5 t79.5 24.5q60 0 117 -45q42 -31 78 -31q24 0 51.5 18t44.5 54z" />
<glyph unicode="&#xe4;" horiz-adv-x="1089" d="M266 926l-45 41q157 151 377 151q50 0 99 -12.5t99 -44t87 -77.5t60.5 -120t23.5 -166v-698h-62v106q-137 -126 -358 -126q-115 0 -213.5 48.5t-159.5 142t-61 212.5t60.5 211.5t159 140t214.5 47.5q210 0 358 -141v57q0 79 -19.5 142t-50 103t-72 66.5t-82.5 37 t-83 10.5q-198 0 -332 -131zM547 41q106 0 200 38t158 118v356q-136 168 -358 168q-155 0 -264 -93t-109 -245t110 -247t263 -95zM397 1331v103h103v-103h-103zM674 1331v103h102v-103h-102z" />
<glyph unicode="&#xe5;" horiz-adv-x="1089" d="M266 926l-45 41q157 151 377 151q50 0 99 -12.5t99 -44t87 -77.5t60.5 -120t23.5 -166v-698h-62v106q-137 -126 -358 -126q-115 0 -213.5 48.5t-159.5 142t-61 212.5t60.5 211.5t159 140t214.5 47.5q210 0 358 -141v57q0 79 -19.5 142t-50 103t-72 66.5t-82.5 37 t-83 10.5q-198 0 -332 -131zM547 41q106 0 200 38t158 118v356q-136 168 -358 168q-155 0 -264 -93t-109 -245t110 -247t263 -95zM428 1382q0 57 40 97.5t97 40.5t97 -40.5t40 -97.5t-40 -97t-97 -40t-97 40t-40 97zM489 1382q0 -31 22.5 -53t53.5 -22t53.5 22t22.5 53 t-22.5 53.5t-53.5 22.5t-53.5 -22.5t-22.5 -53.5z" />
<glyph unicode="&#xe6;" horiz-adv-x="1912" d="M1708 61v-61q-90 -8 -131 -8q-226 0 -381.5 84.5t-228.5 224.5v-301h-62v106q-137 -126 -358 -126q-115 0 -213.5 48.5t-159.5 142t-61 212.5t60.5 211.5t159 140t214.5 47.5q210 0 358 -141v55q0 80 -19.5 143.5t-50 103t-72 66.5t-82.5 37.5t-83 10.5q-198 0 -332 -131 l-45 41q157 151 377 151q127 0 228.5 -77.5t127.5 -221.5q34 79 88 139.5t115.5 93.5t121 49.5t114.5 16.5q106 0 187.5 -39.5t131 -110t74 -162.5t24.5 -204h-841q-2 -16 -2 -49v-18q2 -73 26 -141.5t73.5 -130.5t119.5 -108t172 -73t225 -27q61 0 125 6zM547 41 q106 0 200 38t158 118v356q-136 168 -358 168q-155 0 -264 -93t-109 -245t110 -247t263 -95zM1393 1057q-68 0 -134 -24.5t-124.5 -71.5t-101 -124t-58.5 -173h770q0 54 -11.5 107t-38.5 105.5t-66.5 92t-100.5 64t-135 24.5z" />
<glyph unicode="&#xe7;" horiz-adv-x="1030" d="M522 -215l21 57q19 -8 47 -8q61 0 61 41q0 21 -65 21h-27l29 110q-118 26 -212 81.5t-153 129t-90 158t-31 174.5q0 86 27.5 167.5t84.5 153.5t138 126.5t196.5 86t250.5 31.5q61 0 129 -6l-4 -61q-67 6 -125 6q-153 0 -277 -43.5t-200.5 -115.5t-117 -160.5 t-40.5 -184.5t40.5 -184.5t117 -160t199.5 -114.5t276 -43q59 0 127 6l4 -61q-68 -6 -131 -6q-70 0 -148 10l-10 -37q33 -6 53.5 -28t20.5 -56q0 -50 -37 -76t-88 -26q-36 0 -66 12z" />
<glyph unicode="&#xe8;" horiz-adv-x="1150" d="M926 61v-61q-90 -8 -131 -8q-165 0 -299.5 47.5t-218.5 126.5t-129.5 178.5t-45.5 208.5q0 122 33 221.5t85 162t118.5 105t129 59.5t122.5 17q107 0 194 -39.5t145 -109t89 -164t31 -203.5h-883q-2 -16 -2 -49q0 -75 24.5 -146t76 -135t125 -112t179.5 -76.5t232 -28.5 q61 0 125 6zM590 1057q-68 0 -134 -24.5t-124.5 -71.5t-101 -124t-58.5 -173h811q0 66 -26 134t-73 126.5t-124.5 95.5t-169.5 37zM760 1294l-37 -49l-309 223l37 50z" />
<glyph unicode="&#xe9;" horiz-adv-x="1150" d="M926 61v-61q-90 -8 -131 -8q-165 0 -299.5 47.5t-218.5 126.5t-129.5 178.5t-45.5 208.5q0 122 33 221.5t85 162t118.5 105t129 59.5t122.5 17q107 0 194 -39.5t145 -109t89 -164t31 -203.5h-883q-2 -16 -2 -49q0 -75 24.5 -146t76 -135t125 -112t179.5 -76.5t232 -28.5 q61 0 125 6zM590 1057q-68 0 -134 -24.5t-124.5 -71.5t-101 -124t-58.5 -173h811q0 66 -26 134t-73 126.5t-124.5 95.5t-169.5 37zM467 1245l-37 49l309 224l37 -50z" />
<glyph unicode="&#xea;" horiz-adv-x="1150" d="M926 61v-61q-90 -8 -131 -8q-165 0 -299.5 47.5t-218.5 126.5t-129.5 178.5t-45.5 208.5q0 122 33 221.5t85 162t118.5 105t129 59.5t122.5 17q107 0 194 -39.5t145 -109t89 -164t31 -203.5h-883q-2 -16 -2 -49q0 -75 24.5 -146t76 -135t125 -112t179.5 -76.5t232 -28.5 q61 0 125 6zM590 1057q-68 0 -134 -24.5t-124.5 -71.5t-101 -124t-58.5 -173h811q0 66 -26 134t-73 126.5t-124.5 95.5t-169.5 37zM780 1282l-49 -37l-135 170l-133 -170l-49 37l182 236z" />
<glyph unicode="&#xeb;" horiz-adv-x="1150" d="M926 61v-61q-90 -8 -131 -8q-165 0 -299.5 47.5t-218.5 126.5t-129.5 178.5t-45.5 208.5q0 122 33 221.5t85 162t118.5 105t129 59.5t122.5 17q107 0 194 -39.5t145 -109t89 -164t31 -203.5h-883q-2 -16 -2 -49q0 -75 24.5 -146t76 -135t125 -112t179.5 -76.5t232 -28.5 q61 0 125 6zM590 1057q-68 0 -134 -24.5t-124.5 -71.5t-101 -124t-58.5 -173h811q0 66 -26 134t-73 126.5t-124.5 95.5t-169.5 37zM408 1331v103h102v-103h-102zM684 1331v103h102v-103h-102z" />
<glyph unicode="&#xec;" d="M143 1098h62v-1098h-62v1098zM348 1294l-37 -49l-309 223l37 50z" />
<glyph unicode="&#xed;" d="M143 1098h62v-1098h-62v1098zM70 1245l-37 49l309 224l37 -50z" />
<glyph unicode="&#xee;" d="M143 1098h62v-1098h-62v1098zM358 1282l-49 -37l-135 170l-133 -170l-49 37l182 236z" />
<glyph unicode="&#xef;" d="M143 1098h62v-1098h-62v1098zM-14 1331v103h102v-103h-102zM262 1331v103h103v-103h-103z" />
<glyph unicode="&#xf1;" horiz-adv-x="1114" d="M135 1098h62v-90q71 53 162 81.5t184 28.5q142 0 258.5 -71t165.5 -203q24 -66 24 -144v-700h-61v700q0 84 -34.5 153.5t-90.5 113t-124 67t-138 23.5q-95 0 -188 -33t-158 -92v-932h-62v1098zM737 1446l49 -37q-26 -48 -65.5 -72t-79.5 -24q-57 0 -115 43q-45 33 -80 33 q-25 0 -51.5 -18.5t-42.5 -53.5l-49 37q25 47 63.5 71.5t79.5 24.5q60 0 117 -45q42 -31 78 -31q24 0 51.5 18t44.5 54z" />
<glyph unicode="&#xf2;" horiz-adv-x="1343" d="M102 549q0 154 76.5 285t208 207.5t285.5 76.5t285 -76.5t207.5 -207.5t76.5 -285t-76.5 -285t-207.5 -207.5t-285 -76.5t-285.5 76.5t-208 207.5t-76.5 285zM164 549q0 -138 68 -255t185 -185t255 -68t255 68t185 185t68 255t-68 255t-185 185t-255 68t-255 -68 t-185 -185t-68 -255zM846 1294l-37 -49l-309 223l37 50z" />
<glyph unicode="&#xf3;" horiz-adv-x="1343" d="M102 549q0 154 76.5 285t208 207.5t285.5 76.5t285 -76.5t207.5 -207.5t76.5 -285t-76.5 -285t-207.5 -207.5t-285 -76.5t-285.5 76.5t-208 207.5t-76.5 285zM164 549q0 -138 68 -255t185 -185t255 -68t255 68t185 185t68 255t-68 255t-185 185t-255 68t-255 -68 t-185 -185t-68 -255zM561 1245l-37 49l310 224l36 -50z" />
<glyph unicode="&#xf4;" horiz-adv-x="1343" d="M102 549q0 154 76.5 285t208 207.5t285.5 76.5t285 -76.5t207.5 -207.5t76.5 -285t-76.5 -285t-207.5 -207.5t-285 -76.5t-285.5 76.5t-208 207.5t-76.5 285zM164 549q0 -138 68 -255t185 -185t255 -68t255 68t185 185t68 255t-68 255t-185 185t-255 68t-255 -68 t-185 -185t-68 -255zM856 1282l-49 -37l-135 170l-133 -170l-50 37l183 236z" />
<glyph unicode="&#xf5;" horiz-adv-x="1343" d="M102 549q0 154 76.5 285t208 207.5t285.5 76.5t285 -76.5t207.5 -207.5t76.5 -285t-76.5 -285t-207.5 -207.5t-285 -76.5t-285.5 76.5t-208 207.5t-76.5 285zM164 549q0 -138 68 -255t185 -185t255 -68t255 68t185 185t68 255t-68 255t-185 185t-255 68t-255 -68 t-185 -185t-68 -255zM864 1446l49 -37q-26 -48 -65.5 -72t-79.5 -24q-57 0 -115 43q-45 33 -80 33q-25 0 -51.5 -18.5t-42.5 -53.5l-49 37q25 47 63.5 71.5t79.5 24.5q60 0 117 -45q42 -31 78 -31q24 0 51.5 18t44.5 54z" />
<glyph unicode="&#xf6;" horiz-adv-x="1343" d="M102 549q0 154 76.5 285t208 207.5t285.5 76.5t285 -76.5t207.5 -207.5t76.5 -285t-76.5 -285t-207.5 -207.5t-285 -76.5t-285.5 76.5t-208 207.5t-76.5 285zM164 549q0 -138 68 -255t185 -185t255 -68t255 68t185 185t68 255t-68 255t-185 185t-255 68t-255 -68 t-185 -185t-68 -255zM483 1331v103h103v-103h-103zM760 1331v103h102v-103h-102z" />
<glyph unicode="&#xf7;" horiz-adv-x="983" d="M113 602v62h757v-62h-757zM430 264v123h123v-123h-123zM430 879v122h123v-122h-123z" />
<glyph unicode="&#xf8;" horiz-adv-x="1343" d="M102 549q0 154 76.5 285t208 207.5t285.5 76.5q216 0 377 -145l147 147l45 -45l-147 -147q147 -160 147 -379q0 -154 -76.5 -285t-207.5 -207.5t-285 -76.5q-220 0 -379 143l-146 -146l-45 46l146 145q-146 165 -146 381zM164 549q0 -195 127 -338l717 719 q-143 127 -336 127q-138 0 -255 -68t-185 -185t-68 -255zM1180 549q0 189 -127 336l-717 -719q144 -125 336 -125q138 0 255 68t185 185t68 255z" />
<glyph unicode="&#xf9;" horiz-adv-x="1101" d="M123 1098h61v-703q0 -155 106.5 -254.5t260.5 -99.5t260.5 99.5t106.5 254.5v703h61v-703q0 -182 -124.5 -298.5t-303.5 -116.5t-303.5 116.5t-124.5 298.5v703zM696 1294l-37 -49l-309 223l37 50z" />
<glyph unicode="&#xfa;" horiz-adv-x="1101" d="M123 1098h61v-703q0 -155 106.5 -254.5t260.5 -99.5t260.5 99.5t106.5 254.5v703h61v-703q0 -182 -124.5 -298.5t-303.5 -116.5t-303.5 116.5t-124.5 298.5v703zM428 1245l-37 49l309 224l37 -50z" />
<glyph unicode="&#xfb;" horiz-adv-x="1101" d="M123 1098h61v-703q0 -155 106.5 -254.5t260.5 -99.5t260.5 99.5t106.5 254.5v703h61v-703q0 -182 -124.5 -298.5t-303.5 -116.5t-303.5 116.5t-124.5 298.5v703zM741 1282l-49 -37l-135 170l-133 -170l-49 37l182 236z" />
<glyph unicode="&#xfc;" horiz-adv-x="1101" d="M123 1098h61v-703q0 -155 106.5 -254.5t260.5 -99.5t260.5 99.5t106.5 254.5v703h61v-703q0 -182 -124.5 -298.5t-303.5 -116.5t-303.5 116.5t-124.5 298.5v703zM369 1331v103h102v-103h-102zM645 1331v103h103v-103h-103z" />
<glyph unicode="&#xfd;" horiz-adv-x="1110" d="M913 1098h62v-1221q0 -124 -49.5 -232t-144 -176.5t-214.5 -68.5q-161 0 -303 139l41 45q126 -123 262 -123q102 0 182.5 60t122 154t41.5 202v219q-154 -137 -344 -137q-78 0 -155.5 28t-143 79t-106.5 133.5t-41 181.5v717h61v-721q0 -106 56 -189.5t142.5 -125.5 t184.5 -42q103 0 180.5 39t165.5 123v916zM414 1245l-37 49l309 224l37 -50z" />
<glyph unicode="&#xfe;" horiz-adv-x="1052" d="M123 1593h61v-481q25 2 72 2q167 0 302.5 -47.5t219 -127t128 -178t44.5 -206.5q0 -86 -27 -167t-84.5 -152t-138.5 -124.5t-196 -84.5t-250 -31h-70v-477h-61v2074zM256 1053q-47 0 -72 -2v-992q25 -2 70 -2q153 0 277 42.5t200.5 113t117 158.5t40.5 184t-40.5 184 t-117 158.5t-199.5 113t-276 42.5z" />
<glyph unicode="&#xff;" horiz-adv-x="1110" d="M913 1098h62v-1221q0 -124 -49.5 -232t-144 -176.5t-214.5 -68.5q-161 0 -303 139l41 45q126 -123 262 -123q102 0 182.5 60t122 154t41.5 202v219q-154 -137 -344 -137q-78 0 -155.5 28t-143 79t-106.5 133.5t-41 181.5v717h61v-721q0 -106 56 -189.5t142.5 -125.5 t184.5 -42q103 0 180.5 39t165.5 123v916zM360 1331v103h103v-103h-103zM637 1331v103h102v-103h-102z" />
<glyph unicode="&#x100;" horiz-adv-x="1298" d="M100 10l549 1458l549 -1458l-57 -20l-150 397h-684l-149 -397zM649 1294l-319 -845h637zM369 1661v61h532v-61h-532z" />
<glyph unicode="&#x101;" horiz-adv-x="1089" d="M266 926l-45 41q157 151 377 151q50 0 99 -12.5t99 -44t87 -77.5t60.5 -120t23.5 -166v-698h-62v106q-137 -126 -358 -126q-115 0 -213.5 48.5t-159.5 142t-61 212.5t60.5 211.5t159 140t214.5 47.5q210 0 358 -141v57q0 79 -19.5 142t-50 103t-72 66.5t-82.5 37 t-83 10.5q-198 0 -332 -131zM547 41q106 0 200 38t158 118v356q-136 168 -358 168q-155 0 -264 -93t-109 -245t110 -247t263 -95zM303 1352v61h533v-61h-533z" />
<glyph unicode="&#x102;" horiz-adv-x="1298" d="M100 10l549 1458l549 -1458l-57 -20l-150 397h-684l-149 -397zM649 1294l-319 -845h637zM778 1784h62q0 -78 -57 -131.5t-148 -53.5t-148 53.5t-57 131.5h62q0 -55 39 -89t104 -34t104 34t39 89z" />
<glyph unicode="&#x103;" horiz-adv-x="1089" d="M266 926l-45 41q157 151 377 151q50 0 99 -12.5t99 -44t87 -77.5t60.5 -120t23.5 -166v-698h-62v106q-137 -126 -358 -126q-115 0 -213.5 48.5t-159.5 142t-61 212.5t60.5 211.5t159 140t214.5 47.5q210 0 358 -141v57q0 79 -19.5 142t-50 103t-72 66.5t-82.5 37 t-83 10.5q-198 0 -332 -131zM547 41q106 0 200 38t158 118v356q-136 168 -358 168q-155 0 -264 -93t-109 -245t110 -247t263 -95zM711 1475h61q0 -78 -57 -131.5t-148 -53.5t-148 53.5t-57 131.5h62q0 -55 39 -89t104 -34t104.5 34t39.5 89z" />
<glyph unicode="&#x104;" horiz-adv-x="1298" d="M987 387h-684l-145 -399l-56 22l533 1458l561 -1454l-27 -12l15 -27q-94 -48 -94 -96q0 -15 12 -25t31 -10q25 0 61 23l33 -53q-51 -31 -94 -31q-46 0 -75.5 26.5t-29.5 69.5q0 78 102 135zM635 1298l-309 -849h637z" />
<glyph unicode="&#x105;" horiz-adv-x="1089" d="M961 -133l32 -53q-51 -31 -94 -31q-46 0 -75 26.5t-29 69.5q0 82 110 141v86q-137 -126 -358 -126q-115 0 -213.5 48.5t-159.5 142t-61 212.5t60.5 211.5t159 140t214.5 47.5q210 0 358 -141v57q0 79 -19.5 142t-50 103t-72 66.5t-82.5 37t-83 10.5q-198 0 -332 -131 l-45 41q157 151 377 151q50 0 99 -12.5t99 -44t87 -77.5t60.5 -120t23.5 -166v-698h-31l14 -25q-94 -48 -94 -96q0 -15 12 -25t31 -10q26 0 62 23zM547 41q106 0 200 38t158 118v356q-136 168 -358 168q-155 0 -264 -93t-109 -245t110 -247t263 -95z" />
<glyph unicode="&#x106;" horiz-adv-x="1060" d="M954 61l4 -61q-67 -6 -151 -6q-135 0 -249.5 40.5t-195.5 110t-138 162t-84 196.5t-27 214q0 111 27 215.5t84.5 197.5t138.5 162t196 109.5t250 40.5q82 0 149 -6l-4 -62q-68 6 -145 6q-123 0 -228 -37t-179 -100.5t-126 -148.5t-77 -180.5t-25 -196.5q0 -127 40.5 -244 t117 -211t199.5 -150.5t276 -56.5q79 0 147 6zM530 1554l-36 50l309 223l37 -49z" />
<glyph unicode="&#x107;" horiz-adv-x="1030" d="M924 53l4 -61q-68 -6 -131 -6q-168 0 -303 48t-219 128t-128.5 179.5t-44.5 207.5t44.5 208t128.5 180.5t219.5 128.5t302.5 48q63 0 131 -6l-4 -61q-67 6 -127 6q-152 0 -275.5 -43.5t-200 -115.5t-117 -160.5t-40.5 -184.5t40.5 -184.5t117 -160t199.5 -114.5t276 -43 q59 0 127 6zM489 1245l-36 49l309 224l37 -50z" />
<glyph unicode="&#x108;" horiz-adv-x="1060" d="M954 61l4 -61q-67 -6 -151 -6q-135 0 -249.5 40.5t-195.5 110t-138 162t-84 196.5t-27 214q0 111 27 215.5t84.5 197.5t138.5 162t196 109.5t250 40.5q82 0 149 -6l-4 -62q-68 6 -145 6q-123 0 -228 -37t-179 -100.5t-126 -148.5t-77 -180.5t-25 -196.5q0 -127 40.5 -244 t117 -211t199.5 -150.5t276 -56.5q79 0 147 6zM831 1591l-49 -37l-135 170l-133 -170l-49 37l182 236z" />
<glyph unicode="&#x109;" horiz-adv-x="1030" d="M924 53l4 -61q-68 -6 -131 -6q-168 0 -303 48t-219 128t-128.5 179.5t-44.5 207.5t44.5 208t128.5 180.5t219.5 128.5t302.5 48q63 0 131 -6l-4 -61q-67 6 -127 6q-152 0 -275.5 -43.5t-200 -115.5t-117 -160.5t-40.5 -184.5t40.5 -184.5t117 -160t199.5 -114.5t276 -43 q59 0 127 6zM788 1282l-49 -37l-135 170l-133 -170l-49 37l182 236z" />
<glyph unicode="&#x10a;" horiz-adv-x="1060" d="M954 61l4 -61q-67 -6 -151 -6q-135 0 -249.5 40.5t-195.5 110t-138 162t-84 196.5t-27 214q0 111 27 215.5t84.5 197.5t138.5 162t196 109.5t250 40.5q82 0 149 -6l-4 -62q-68 6 -145 6q-123 0 -228 -37t-179 -100.5t-126 -148.5t-77 -180.5t-25 -196.5q0 -127 40.5 -244 t117 -211t199.5 -150.5t276 -56.5q79 0 147 6zM600 1640v103h102v-103h-102z" />
<glyph unicode="&#x10b;" horiz-adv-x="1030" d="M924 53l4 -61q-68 -6 -131 -6q-168 0 -303 48t-219 128t-128.5 179.5t-44.5 207.5t44.5 208t128.5 180.5t219.5 128.5t302.5 48q63 0 131 -6l-4 -61q-67 6 -127 6q-152 0 -275.5 -43.5t-200 -115.5t-117 -160.5t-40.5 -184.5t40.5 -184.5t117 -160t199.5 -114.5t276 -43 q59 0 127 6zM578 1331v103h102v-103h-102z" />
<glyph unicode="&#x10c;" horiz-adv-x="1060" d="M954 61l4 -61q-67 -6 -151 -6q-135 0 -249.5 40.5t-195.5 110t-138 162t-84 196.5t-27 214q0 111 27 215.5t84.5 197.5t138.5 162t196 109.5t250 40.5q82 0 149 -6l-4 -62q-68 6 -145 6q-123 0 -228 -37t-179 -100.5t-126 -148.5t-77 -180.5t-25 -196.5q0 -127 40.5 -244 t117 -211t199.5 -150.5t276 -56.5q79 0 147 6zM801 1827l49 -37l-184 -236l-183 236l49 37l134 -170z" />
<glyph unicode="&#x10d;" horiz-adv-x="1030" d="M924 53l4 -61q-68 -6 -131 -6q-168 0 -303 48t-219 128t-128.5 179.5t-44.5 207.5t44.5 208t128.5 180.5t219.5 128.5t302.5 48q63 0 131 -6l-4 -61q-67 6 -127 6q-152 0 -275.5 -43.5t-200 -115.5t-117 -160.5t-40.5 -184.5t40.5 -184.5t117 -160t199.5 -114.5t276 -43 q59 0 127 6zM743 1518l50 -37l-185 -236l-182 236l49 37l133 -170z" />
<glyph unicode="&#x10e;" horiz-adv-x="1128" d="M322 55q153 0 276 56.5t199 150.5t116.5 211t40.5 244q0 101 -24.5 196.5t-76.5 180.5t-125.5 148.5t-178 100.5t-227.5 37q-51 0 -117 -4v-1319q35 -2 117 -2zM322 1442q135 0 249.5 -40.5t195.5 -109.5t138 -162t84 -197.5t27 -215.5q0 -110 -27 -214t-84 -196.5 t-138 -162t-195.5 -110t-249.5 -40.5q-100 0 -179 6v1434q106 8 179 8zM543 1827l49 -37l-184 -236l-183 236l49 37l134 -170z" />
<glyph unicode="&#x10f;" horiz-adv-x="1228" d="M893 1829h61v-1829q-80 -6 -157 -6q-168 0 -303 47.5t-219 127t-128.5 178t-44.5 206.5q0 86 27.5 167t84.5 152.5t138 125.5t196.5 85t250.5 31q24 0 94 -4v719zM797 55q61 0 96 2v992q-66 4 -94 4q-153 0 -277 -42.5t-200.5 -114t-117 -159.5t-40.5 -184t40.5 -184 t117 -158.5t199.5 -113t276 -42.5zM1098 1829h123v-143q0 -119 -97 -154l-20 57q55 18 55 97v30h-61v113z" />
<glyph unicode="&#x110;" horiz-adv-x="1148" d="M342 55q153 0 276 56.5t199.5 150.5t117 211t40.5 244t-40.5 244t-117 211.5t-199.5 151t-276 56.5q-51 0 -117 -4v-598h277v-61h-277v-660q35 -2 117 -2zM-31 717v61h195v656q106 8 178 8q135 0 249.5 -40.5t195.5 -109.5t138 -162t84 -197.5t27 -215.5q0 -110 -27 -214 t-84 -196.5t-138 -162t-195.5 -110t-249.5 -40.5q-98 0 -178 6v717h-195z" />
<glyph unicode="&#x111;" horiz-adv-x="1120" d="M657 1495v61h236v273h61v-273h236v-61h-236v-1495q-80 -6 -157 -6q-168 0 -303 47.5t-219 127t-128.5 178t-44.5 206.5q0 86 27.5 167t84.5 152.5t138 125.5t196.5 85t250.5 31q24 0 94 -4v385h-236zM797 55q61 0 96 2v992q-66 4 -94 4q-153 0 -277 -42.5t-200.5 -114 t-117 -159.5t-40.5 -184t40.5 -184t117 -158.5t199.5 -113t276 -42.5z" />
<glyph unicode="&#x112;" horiz-adv-x="1067" d="M954 0h-811v1434h811v-62h-749v-541h614v-61h-614v-709h749v-61zM283 1661v61h532v-61h-532z" />
<glyph unicode="&#x113;" horiz-adv-x="1150" d="M926 61v-61q-90 -8 -131 -8q-165 0 -299.5 47.5t-218.5 126.5t-129.5 178.5t-45.5 208.5q0 122 33 221.5t85 162t118.5 105t129 59.5t122.5 17q107 0 194 -39.5t145 -109t89 -164t31 -203.5h-883q-2 -16 -2 -49q0 -75 24.5 -146t76 -135t125 -112t179.5 -76.5t232 -28.5 q61 0 125 6zM590 1057q-68 0 -134 -24.5t-124.5 -71.5t-101 -124t-58.5 -173h811q0 66 -26 134t-73 126.5t-124.5 95.5t-169.5 37zM309 1352v61h533v-61h-533z" />
<glyph unicode="&#x114;" horiz-adv-x="1067" d="M954 0h-811v1434h811v-62h-749v-541h614v-61h-614v-709h749v-61zM692 1784h62q0 -78 -57 -131.5t-148 -53.5t-148 53.5t-57 131.5h62q0 -55 39 -89t104 -34t104 34t39 89z" />
<glyph unicode="&#x115;" horiz-adv-x="1150" d="M926 61v-61q-90 -8 -131 -8q-165 0 -299.5 47.5t-218.5 126.5t-129.5 178.5t-45.5 208.5q0 122 33 221.5t85 162t118.5 105t129 59.5t122.5 17q107 0 194 -39.5t145 -109t89 -164t31 -203.5h-883q-2 -16 -2 -49q0 -75 24.5 -146t76 -135t125 -112t179.5 -76.5t232 -28.5 q61 0 125 6zM590 1057q-68 0 -134 -24.5t-124.5 -71.5t-101 -124t-58.5 -173h811q0 66 -26 134t-73 126.5t-124.5 95.5t-169.5 37zM719 1475h61q0 -78 -57 -131.5t-148 -53.5q-90 0 -147 53.5t-57 131.5h61q0 -55 39 -89t104 -34t104.5 34t39.5 89z" />
<glyph unicode="&#x116;" horiz-adv-x="1067" d="M954 0h-811v1434h811v-62h-749v-541h614v-61h-614v-709h749v-61zM498 1640v103h102v-103h-102z" />
<glyph unicode="&#x117;" horiz-adv-x="1150" d="M926 61v-61q-90 -8 -131 -8q-165 0 -299.5 47.5t-218.5 126.5t-129.5 178.5t-45.5 208.5q0 122 33 221.5t85 162t118.5 105t129 59.5t122.5 17q107 0 194 -39.5t145 -109t89 -164t31 -203.5h-883q-2 -16 -2 -49q0 -75 24.5 -146t76 -135t125 -112t179.5 -76.5t232 -28.5 q61 0 125 6zM590 1057q-68 0 -134 -24.5t-124.5 -71.5t-101 -124t-58.5 -173h811q0 66 -26 134t-73 126.5t-124.5 95.5t-169.5 37zM524 1331v103h103v-103h-103z" />
<glyph unicode="&#x118;" horiz-adv-x="1067" d="M793 -133l32 -53q-51 -31 -94 -31q-46 0 -75 26.5t-29 69.5q0 69 78 121h-562v1434h811v-62h-749v-541h614v-61h-614v-709h749v-61h-186l14 -25q-94 -48 -94 -96q0 -15 12 -25t31 -10q26 0 62 23z" />
<glyph unicode="&#x119;" horiz-adv-x="1150" d="M707 -127l32 -53q-51 -31 -94 -31q-46 0 -75 26.5t-29 69.5q0 69 77 121q-124 22 -223.5 76t-162.5 128t-96.5 162t-33.5 181q0 122 33 221.5t85 162t118.5 105t129 59.5t122.5 17q107 0 194 -39.5t145 -109t89 -164t31 -203.5h-883q-2 -16 -2 -49q0 -75 24.5 -146 t76 -135t125 -112t179.5 -76.5t232 -28.5q61 0 125 6v-61q-90 -8 -131 -8q-57 0 -107 6l8 -16q-94 -48 -94 -97q0 -15 12 -25t31 -10q26 0 62 23zM590 1057q-68 0 -134 -24.5t-124.5 -71.5t-101 -124t-58.5 -173h811q0 66 -26 134t-73 126.5t-124.5 95.5t-169.5 37z" />
<glyph unicode="&#x11a;" horiz-adv-x="1067" d="M954 0h-811v1434h811v-62h-749v-541h614v-61h-614v-709h749v-61zM684 1827l49 -37l-184 -236l-182 236l49 37l133 -170z" />
<glyph unicode="&#x11b;" horiz-adv-x="1150" d="M926 61v-61q-90 -8 -131 -8q-165 0 -299.5 47.5t-218.5 126.5t-129.5 178.5t-45.5 208.5q0 122 33 221.5t85 162t118.5 105t129 59.5t122.5 17q107 0 194 -39.5t145 -109t89 -164t31 -203.5h-883q-2 -16 -2 -49q0 -75 24.5 -146t76 -135t125 -112t179.5 -76.5t232 -28.5 q61 0 125 6zM590 1057q-68 0 -134 -24.5t-124.5 -71.5t-101 -124t-58.5 -173h811q0 66 -26 134t-73 126.5t-124.5 95.5t-169.5 37zM729 1518l49 -37l-184 -236l-182 236l49 37l133 -170z" />
<glyph unicode="&#x11c;" horiz-adv-x="1120" d="M924 631h61v-631q-79 -6 -178 -6q-135 0 -249.5 40.5t-195.5 110t-138 162t-84 196.5t-27 214q0 111 27 215.5t84 197.5t138 162t195.5 109.5t249.5 40.5q72 0 178 -8v-64q-87 10 -178 10q-153 0 -276 -56.5t-199.5 -151t-117 -211.5t-40.5 -244t40.5 -244t117 -211 t199.5 -150.5t276 -56.5q82 0 117 2v574zM879 1591l-50 -37l-135 170l-133 -170l-49 37l182 236z" />
<glyph unicode="&#x11d;" horiz-adv-x="1089" d="M893 -123v121q-53 -6 -94 -6q-135 0 -250.5 31t-196.5 85t-138 125.5t-84.5 152.5t-27.5 167q0 108 44.5 206.5t128.5 178t219 127t303 47.5q77 0 157 -6v-1229q0 -124 -49 -232t-143.5 -176.5t-214.5 -68.5q-161 0 -303 139l41 45q126 -123 262 -123q102 0 182.5 60 t122 154t41.5 202zM797 1051q-153 0 -276 -42.5t-199.5 -113t-117 -158.5t-40.5 -184t40.5 -184t117 -159.5t200.5 -114t277 -42.5q28 0 94 4v992q-35 2 -96 2zM788 1282l-49 -37l-135 170l-133 -170l-49 37l182 236z" />
<glyph unicode="&#x11e;" horiz-adv-x="1120" d="M924 631h61v-631q-79 -6 -178 -6q-135 0 -249.5 40.5t-195.5 110t-138 162t-84 196.5t-27 214q0 111 27 215.5t84 197.5t138 162t195.5 109.5t249.5 40.5q72 0 178 -8v-64q-87 10 -178 10q-153 0 -276 -56.5t-199.5 -151t-117 -211.5t-40.5 -244t40.5 -244t117 -211 t199.5 -150.5t276 -56.5q82 0 117 2v574zM838 1784h61q0 -78 -57 -131.5t-148 -53.5t-148 53.5t-57 131.5h62q0 -55 39 -89t104 -34t104.5 34t39.5 89z" />
<glyph unicode="&#x11f;" horiz-adv-x="1089" d="M893 -123v121q-53 -6 -94 -6q-135 0 -250.5 31t-196.5 85t-138 125.5t-84.5 152.5t-27.5 167q0 108 44.5 206.5t128.5 178t219 127t303 47.5q77 0 157 -6v-1229q0 -124 -49 -232t-143.5 -176.5t-214.5 -68.5q-161 0 -303 139l41 45q126 -123 262 -123q102 0 182.5 60 t122 154t41.5 202zM797 1051q-153 0 -276 -42.5t-199.5 -113t-117 -158.5t-40.5 -184t40.5 -184t117 -159.5t200.5 -114t277 -42.5q28 0 94 4v992q-35 2 -96 2zM770 1475h61q0 -78 -57 -131.5t-147 -53.5q-91 0 -148 53.5t-57 131.5h61q0 -55 39.5 -89t104.5 -34t104 34 t39 89z" />
<glyph unicode="&#x120;" horiz-adv-x="1120" d="M924 631h61v-631q-79 -6 -178 -6q-135 0 -249.5 40.5t-195.5 110t-138 162t-84 196.5t-27 214q0 111 27 215.5t84 197.5t138 162t195.5 109.5t249.5 40.5q72 0 178 -8v-64q-87 10 -178 10q-153 0 -276 -56.5t-199.5 -151t-117 -211.5t-40.5 -244t40.5 -244t117 -211 t199.5 -150.5t276 -56.5q82 0 117 2v574zM643 1640v103h102v-103h-102z" />
<glyph unicode="&#x121;" horiz-adv-x="1089" d="M893 -123v121q-53 -6 -94 -6q-135 0 -250.5 31t-196.5 85t-138 125.5t-84.5 152.5t-27.5 167q0 108 44.5 206.5t128.5 178t219 127t303 47.5q77 0 157 -6v-1229q0 -124 -49 -232t-143.5 -176.5t-214.5 -68.5q-161 0 -303 139l41 45q126 -123 262 -123q102 0 182.5 60 t122 154t41.5 202zM797 1051q-153 0 -276 -42.5t-199.5 -113t-117 -158.5t-40.5 -184t40.5 -184t117 -159.5t200.5 -114t277 -42.5q28 0 94 4v992q-35 2 -96 2zM582 1331v103h102v-103h-102z" />
<glyph unicode="&#x122;" horiz-adv-x="1120" d="M924 631h61v-631q-79 -6 -178 -6q-135 0 -249.5 40.5t-195.5 110t-138 162t-84 196.5t-27 214q0 111 27 215.5t84 197.5t138 162t195.5 109.5t249.5 40.5q72 0 178 -8v-64q-87 10 -178 10q-153 0 -276 -56.5t-199.5 -151t-117 -211.5t-40.5 -244t40.5 -244t117 -211 t199.5 -150.5t276 -56.5q82 0 117 2v574zM645 -102h123v-144q0 -118 -96 -153l-21 57q56 18 56 96v31h-62v113z" />
<glyph unicode="&#x123;" horiz-adv-x="1089" d="M893 -123v121q-53 -6 -94 -6q-135 0 -250.5 31t-196.5 85t-138 125.5t-84.5 152.5t-27.5 167q0 108 44.5 206.5t128.5 178t219 127t303 47.5q77 0 157 -6v-1229q0 -124 -49 -232t-143.5 -176.5t-214.5 -68.5q-161 0 -303 139l41 45q126 -123 262 -123q102 0 182.5 60 t122 154t41.5 202zM797 1051q-153 0 -276 -42.5t-199.5 -113t-117 -158.5t-40.5 -184t40.5 -184t117 -159.5t200.5 -114t277 -42.5q28 0 94 4v992q-35 2 -96 2zM694 1233h-123v143q0 119 97 154l20 -57q-55 -18 -55 -97v-30h61v-113z" />
<glyph unicode="&#x124;" horiz-adv-x="1118" d="M975 0h-62v770h-708v-770h-62v1434h62v-603h708v603h62v-1434zM743 1591l-49 -37l-135 170l-133 -170l-49 37l182 236z" />
<glyph unicode="&#x125;" horiz-adv-x="1112" d="M135 1829h62v-819q148 108 342 108q143 0 258.5 -69.5t165.5 -204.5q26 -68 26 -144v-700h-61v696q0 63 -23 125q-42 116 -142.5 176t-225.5 60q-94 0 -183.5 -32.5t-156.5 -92.5v-932h-62v1829zM350 2013l-49 -37l-135 170l-133 -170l-49 37l182 236z" />
<glyph unicode="&#x126;" horiz-adv-x="1118" d="M205 831h708v267h-708v-267zM27 1098v61h116v275h62v-275h708v275h62v-275h117v-61h-117v-1098h-62v770h-708v-770h-62v1098h-116z" />
<glyph unicode="&#x127;" horiz-adv-x="1142" d="M-70 1434v61h236v334h61v-334h236v-61h-236v-424q148 108 342 108q143 0 258.5 -69.5t165.5 -204.5q27 -70 27 -144v-700h-62v696q0 66 -22 125q-42 116 -143 176t-226 60q-94 0 -183.5 -32.5t-156.5 -92.5v-932h-61v1434h-236z" />
<glyph unicode="&#x128;" d="M143 1434h62v-1434h-62v1434zM367 1755l49 -37q-26 -48 -66 -72t-80 -24q-56 0 -114 43q-45 33 -80 33q-25 0 -51.5 -18.5t-42.5 -53.5l-50 37q25 47 64 71.5t80 24.5q60 0 117 -45q42 -31 77 -31q25 0 52.5 18.5t44.5 53.5z" />
<glyph unicode="&#x129;" d="M143 1098h62v-1098h-62v1098zM367 1446l49 -37q-26 -48 -66 -72t-80 -24q-56 0 -114 43q-45 33 -80 33q-25 0 -51.5 -18.5t-42.5 -53.5l-50 37q25 47 64 71.5t80 24.5q60 0 117 -45q42 -31 77 -31q25 0 52.5 18.5t44.5 53.5z" />
<glyph unicode="&#x12a;" d="M143 1434h62v-1434h-62v1434zM-92 1661v61h532v-61h-532z" />
<glyph unicode="&#x12b;" d="M143 1098h62v-1098h-62v1098zM-92 1352v61h532v-61h-532z" />
<glyph unicode="&#x12c;" d="M143 1434h62v-1434h-62v1434zM317 1784h62q0 -78 -57 -131.5t-148 -53.5t-148 53.5t-57 131.5h62q0 -55 39 -89t104 -34t104 34t39 89z" />
<glyph unicode="&#x12d;" d="M143 1098h62v-1098h-62v1098zM317 1475h62q0 -78 -57 -131.5t-148 -53.5t-148 53.5t-57 131.5h62q0 -55 39 -89t104 -34t104 34t39 89z" />
<glyph unicode="&#x12e;" d="M211 -133l33 -53q-51 -31 -94 -31q-46 0 -75.5 26.5t-29.5 69.5q0 77 98 133v1422h62v-1434h-19l15 -25q-95 -49 -95 -96q0 -15 12.5 -25t31.5 -10q25 0 61 23z" />
<glyph unicode="&#x12f;" d="M211 -133l33 -53q-51 -31 -94 -31q-46 0 -75.5 26.5t-29.5 69.5q0 77 98 133v1086h62v-1098h-19l15 -25q-95 -49 -95 -96q0 -15 12.5 -25t31.5 -10q25 0 61 23z" />
<glyph unicode="&#x130;" d="M143 1434h62v-1434h-62v1434zM123 1640v103h102v-103h-102z" />
<glyph unicode="&#x131;" d="M143 1098h62v-1098h-62v1098z" />
<glyph unicode="&#x132;" horiz-adv-x="1288" d="M143 1434h62v-1434h-62v1434zM1092 475v959h61v-977q0 -202 -115.5 -339.5t-294.5 -137.5q-164 0 -303 139l43 47q135 -125 260 -125q124 0 210.5 78.5t117.5 195.5q21 77 21 160z" />
<glyph unicode="&#x133;" horiz-adv-x="696" d="M143 1098h62v-1098h-62v1098zM123 1331v103h102v-103h-102zM471 1333v101h102v-101h-102zM98 -475l54 29q54 -93 147 -93q82 0 137.5 71.5t55.5 193.5v1372h61v-1372q0 -149 -73 -237.5t-181 -88.5q-132 0 -201 125z" />
<glyph unicode="&#x134;" horiz-adv-x="940" d="M743 475v959h62v-977q0 -202 -115.5 -339.5t-294.5 -137.5q-164 0 -303 139l43 47q135 -125 260 -125q124 0 210.5 78.5t117.5 195.5q20 73 20 160zM958 1591l-49 -37l-135 170l-133 -170l-49 37l182 236z" />
<glyph unicode="&#x135;" d="M-250 -475l53 29q54 -93 148 -93q82 0 137 71.5t55 193.5v1372h62v-1372q0 -149 -73 -237.5t-181 -88.5q-132 0 -201 125zM358 1282l-49 -37l-135 170l-133 -170l-49 37l182 236z" />
<glyph unicode="&#x136;" horiz-adv-x="1179" d="M1077 20l-45 -40l-710 729l-117 -109v-600h-62v1434h62v-750l829 772l41 -45l-710 -659zM549 -102h123v-144q0 -118 -97 -153l-20 57q55 18 55 96v31h-61v113z" />
<glyph unicode="&#x137;" horiz-adv-x="1167" d="M1065 27l-37 -50l-698 551l-133 -98v-430h-62v1829h62v-1321l831 612l37 -49l-684 -506zM502 -102h123v-144q0 -118 -97 -153l-20 57q55 18 55 96v31h-61v113z" />
<glyph unicode="&#x139;" horiz-adv-x="1009" d="M143 1434h62v-1373h692v-61h-754v1434zM70 1554l-37 50l309 223l37 -49z" />
<glyph unicode="&#x13a;" horiz-adv-x="307" d="M123 1829h61v-1829h-61v1829zM49 1976l-37 49l310 224l36 -49z" />
<glyph unicode="&#x13b;" horiz-adv-x="1009" d="M143 1434h62v-1373h692v-61h-754v1434zM459 -102h123v-144q0 -118 -97 -153l-20 57q55 18 55 96v31h-61v113z" />
<glyph unicode="&#x13c;" horiz-adv-x="307" d="M123 1829h61v-1829h-61v1829zM92 -102h123v-144q0 -118 -96 -153l-21 57q56 18 56 96v31h-62v113z" />
<glyph unicode="&#x13d;" horiz-adv-x="1009" d="M143 1434h62v-1373h692v-61h-754v1434zM348 1434h123v-144q0 -118 -96 -153l-21 57q56 18 56 96v31h-62v113z" />
<glyph unicode="&#x13e;" horiz-adv-x="307" d="M123 1829h61v-1829h-61v1829zM289 2249l49 -37l-184 -236l-183 236l49 37l134 -170z" />
<glyph unicode="&#x13f;" horiz-adv-x="1009" d="M143 1434h62v-1373h692v-61h-754v1434zM453 727v102h102v-102h-102z" />
<glyph unicode="&#x140;" horiz-adv-x="307" d="M123 1829h61v-1829h-61v1829zM102 1966v102h103v-102h-103z" />
<glyph unicode="&#x141;" horiz-adv-x="1009" d="M43 825l-37 49l137 99v461h62v-416l145 104l37 -49l-182 -131v-881h692v-61h-754v897z" />
<glyph unicode="&#x142;" horiz-adv-x="331" d="M29 985l-37 49l143 103v692h62v-647l145 104l37 -49l-182 -131v-1106h-62v1061z" />
<glyph unicode="&#x143;" horiz-adv-x="1140" d="M205 0h-62v1493l793 -1327v1268h61v-1493l-792 1327v-1268zM434 1554l-37 50l310 223l36 -49z" />
<glyph unicode="&#x144;" horiz-adv-x="1114" d="M135 1098h62v-90q71 53 162 81.5t184 28.5q142 0 258.5 -71t165.5 -203q24 -66 24 -144v-700h-61v700q0 84 -34.5 153.5t-90.5 113t-124 67t-138 23.5q-95 0 -188 -33t-158 -92v-932h-62v1098zM416 1245l-37 49l309 224l37 -50z" />
<glyph unicode="&#x145;" horiz-adv-x="1140" d="M205 0h-62v1493l793 -1327v1268h61v-1493l-792 1327v-1268zM508 -102h123v-144q0 -118 -96 -153l-21 57q55 18 55 96v31h-61v113z" />
<glyph unicode="&#x146;" horiz-adv-x="1114" d="M135 1098h62v-90q71 53 162 81.5t184 28.5q142 0 258.5 -71t165.5 -203q24 -66 24 -144v-700h-61v700q0 84 -34.5 153.5t-90.5 113t-124 67t-138 23.5q-95 0 -188 -33t-158 -92v-932h-62v1098zM502 -102h123v-144q0 -118 -97 -153l-20 57q55 18 55 96v31h-61v113z" />
<glyph unicode="&#x147;" horiz-adv-x="1140" d="M205 0h-62v1493l793 -1327v1268h61v-1493l-792 1327v-1268zM705 1827l49 -37l-185 -236l-182 236l49 37l133 -170z" />
<glyph unicode="&#x148;" horiz-adv-x="1114" d="M135 1098h62v-90q71 53 162 81.5t184 28.5q142 0 258.5 -71t165.5 -203q24 -66 24 -144v-700h-61v700q0 84 -34.5 153.5t-90.5 113t-124 67t-138 23.5q-95 0 -188 -33t-158 -92v-932h-62v1098zM680 1518l49 -37l-184 -236l-183 236l50 37l133 -170z" />
<glyph unicode="&#x149;" horiz-adv-x="1114" d="M135 1098h62v-90q71 53 162 81.5t184 28.5q142 0 258.5 -71t165.5 -203q24 -66 24 -144v-700h-61v700q0 84 -34.5 153.5t-90.5 113t-124 67t-138 23.5q-95 0 -188 -33t-158 -92v-932h-62v1098zM104 1468h123v-143q0 -119 -96 -154l-20 58q55 18 55 96v31h-62v112z" />
<glyph unicode="&#x14c;" horiz-adv-x="1675" d="M102 717q0 150 58.5 286t157 234.5t234.5 156.5t286 58q200 0 369 -98.5t267.5 -267.5t98.5 -369t-98.5 -369t-267.5 -267.5t-369 -98.5q-150 0 -286 58t-234.5 156.5t-157 234.5t-58.5 286zM164 717q0 -137 53.5 -262t143.5 -215t215 -143.5t262 -53.5q183 0 338 90 t245 245t90 339t-90 339t-245 245t-338 90q-137 0 -262 -53.5t-215 -143.5t-143.5 -215t-53.5 -262zM571 1661v61h533v-61h-533z" />
<glyph unicode="&#x14d;" horiz-adv-x="1343" d="M102 549q0 154 76.5 285t208 207.5t285.5 76.5t285 -76.5t207.5 -207.5t76.5 -285t-76.5 -285t-207.5 -207.5t-285 -76.5t-285.5 76.5t-208 207.5t-76.5 285zM164 549q0 -138 68 -255t185 -185t255 -68t255 68t185 185t68 255t-68 255t-185 185t-255 68t-255 -68 t-185 -185t-68 -255zM406 1352v61h532v-61h-532z" />
<glyph unicode="&#x14e;" horiz-adv-x="1675" d="M102 717q0 150 58.5 286t157 234.5t234.5 156.5t286 58q200 0 369 -98.5t267.5 -267.5t98.5 -369t-98.5 -369t-267.5 -267.5t-369 -98.5q-150 0 -286 58t-234.5 156.5t-157 234.5t-58.5 286zM164 717q0 -137 53.5 -262t143.5 -215t215 -143.5t262 -53.5q183 0 338 90 t245 245t90 339t-90 339t-245 245t-338 90q-137 0 -262 -53.5t-215 -143.5t-143.5 -215t-53.5 -262zM981 1784h61q0 -78 -57 -131.5t-147 -53.5q-91 0 -148 53.5t-57 131.5h61q0 -55 39.5 -89t104.5 -34t104 34t39 89z" />
<glyph unicode="&#x14f;" horiz-adv-x="1343" d="M102 549q0 154 76.5 285t208 207.5t285.5 76.5t285 -76.5t207.5 -207.5t76.5 -285t-76.5 -285t-207.5 -207.5t-285 -76.5t-285.5 76.5t-208 207.5t-76.5 285zM164 549q0 -138 68 -255t185 -185t255 -68t255 68t185 185t68 255t-68 255t-185 185t-255 68t-255 -68 t-185 -185t-68 -255zM815 1475h62q0 -78 -57 -131.5t-148 -53.5t-148 53.5t-57 131.5h61q0 -55 39.5 -89t104.5 -34t104 34t39 89z" />
<glyph unicode="&#x150;" horiz-adv-x="1675" d="M102 717q0 150 58.5 286t157 234.5t234.5 156.5t286 58q200 0 369 -98.5t267.5 -267.5t98.5 -369t-98.5 -369t-267.5 -267.5t-369 -98.5q-150 0 -286 58t-234.5 156.5t-157 234.5t-58.5 286zM164 717q0 -137 53.5 -262t143.5 -215t215 -143.5t262 -53.5q183 0 338 90 t245 245t90 339t-90 339t-245 245t-338 90q-137 0 -262 -53.5t-215 -143.5t-143.5 -215t-53.5 -262zM877 1554l-37 50l309 223l37 -49zM627 1554l-37 50l309 223l37 -49z" />
<glyph unicode="&#x151;" horiz-adv-x="1343" d="M102 549q0 154 76.5 285t208 207.5t285.5 76.5t285 -76.5t207.5 -207.5t76.5 -285t-76.5 -285t-207.5 -207.5t-285 -76.5t-285.5 76.5t-208 207.5t-76.5 285zM164 549q0 -138 68 -255t185 -185t255 -68t255 68t185 185t68 255t-68 255t-185 185t-255 68t-255 -68 t-185 -185t-68 -255zM705 1245l-37 49l309 224l37 -50zM455 1245l-37 49l309 224l37 -50z" />
<glyph unicode="&#x152;" horiz-adv-x="2439" d="M2322 0h-811v422q-88 -198 -268.5 -319t-404.5 -121q-150 0 -286 58t-234.5 156.5t-157 234.5t-58.5 286t58.5 286t157 234.5t234.5 156.5t286 58q224 0 404.5 -121t268.5 -321v424h811v-62h-749v-541h614v-61h-614v-709h749v-61zM164 717q0 -137 53.5 -262t143.5 -215 t215 -143.5t262 -53.5q183 0 338 90t245 245t90 339t-90 339t-245 245t-338 90q-137 0 -262 -53.5t-215 -143.5t-143.5 -215t-53.5 -262z" />
<glyph unicode="&#x153;" horiz-adv-x="2228" d="M102 549q0 154 76.5 285t208 207.5t285.5 76.5q179 0 324.5 -102.5t207.5 -265.5q27 98 82 173t121.5 115.5t132 60t127.5 19.5q107 0 194 -39.5t145 -109t89 -164t31 -203.5h-883q-2 -10 -2 -31v-18q0 -75 24.5 -146t76 -135t125 -112t179.5 -76.5t232 -28.5q61 0 125 6 v-61q-90 -8 -131 -8q-255 0 -425.5 106t-234.5 273q-58 -172 -206.5 -281.5t-333.5 -109.5q-154 0 -285.5 76.5t-208 207.5t-76.5 285zM164 549q0 -138 68 -255t185 -185t255 -68t255 68t185 185t68 255t-68 255t-185 185t-255 68t-255 -68t-185 -185t-68 -255zM1667 1057 q-68 0 -134 -24.5t-124.5 -71.5t-101 -124t-58.5 -173h811q0 66 -26 134t-73 126.5t-124.5 95.5t-169.5 37z" />
<glyph unicode="&#x154;" horiz-adv-x="1118" d="M205 0h-62v1434q80 6 158 6q167 0 302.5 -41t219 -109.5t128 -153t44.5 -175.5q0 -136 -93 -253t-267 -176l391 -514l-49 -36l-406 532q-121 -31 -270 -31q-26 0 -96 4v-487zM301 1378q-61 0 -96 -2v-827q66 -4 96 -4q153 0 276 35.5t199.5 94.5t117 132.5t40.5 153.5 t-40.5 153.5t-117 133t-199.5 95t-276 35.5zM319 1554l-36 50l309 223l37 -49z" />
<glyph unicode="&#x155;" horiz-adv-x="614" d="M543 1118v-61q-95 0 -188 -33t-158 -92v-932h-62v1098h62v-90q71 53 162 81.5t184 28.5zM203 1245l-37 49l309 224l37 -50z" />
<glyph unicode="&#x156;" horiz-adv-x="1118" d="M205 0h-62v1434q80 6 158 6q167 0 302.5 -41t219 -109.5t128 -153t44.5 -175.5q0 -136 -93 -253t-267 -176l391 -514l-49 -36l-406 532q-121 -31 -270 -31q-26 0 -96 4v-487zM301 1378q-61 0 -96 -2v-827q66 -4 96 -4q153 0 276 35.5t199.5 94.5t117 132.5t40.5 153.5 t-40.5 153.5t-117 133t-199.5 95t-276 35.5zM522 -102h123v-144q0 -118 -96 -153l-21 57q56 18 56 96v31h-62v113z" />
<glyph unicode="&#x157;" horiz-adv-x="614" d="M543 1118v-61q-95 0 -188 -33t-158 -92v-932h-62v1098h62v-90q71 53 162 81.5t184 28.5zM256 -102h123v-144q0 -118 -96 -153l-21 57q55 18 55 96v31h-61v113z" />
<glyph unicode="&#x158;" horiz-adv-x="1118" d="M205 0h-62v1434q80 6 158 6q167 0 302.5 -41t219 -109.5t128 -153t44.5 -175.5q0 -136 -93 -253t-267 -176l391 -514l-49 -36l-406 532q-121 -31 -270 -31q-26 0 -96 4v-487zM301 1378q-61 0 -96 -2v-827q66 -4 96 -4q153 0 276 35.5t199.5 94.5t117 132.5t40.5 153.5 t-40.5 153.5t-117 133t-199.5 95t-276 35.5zM561 1827l49 -37l-184 -236l-182 236l49 37l133 -170z" />
<glyph unicode="&#x159;" horiz-adv-x="614" d="M543 1118v-61q-95 0 -188 -33t-158 -92v-932h-62v1098h62v-90q71 53 162 81.5t184 28.5zM473 1518l49 -37l-184 -236l-182 236l49 37l133 -170z" />
<glyph unicode="&#x15a;" horiz-adv-x="1056" d="M121 217l57 25q44 -101 134.5 -153t205.5 -52q157 0 261 93.5t104 238.5q0 50 -23 94t-57.5 76t-86 61.5t-96.5 48.5t-102 39q-63 22 -113.5 43.5t-107.5 55.5t-95 72t-63.5 91.5t-25.5 114.5q0 172 122 282.5t304 110.5q134 0 240 -61t157 -180l-57 -25 q-44 101 -134.5 153t-205.5 52q-157 0 -261 -93.5t-104 -238.5q0 -50 23 -94t57.5 -76.5t86 -62t96.5 -48.5t102 -39q63 -22 113.5 -43.5t107.5 -55.5t95 -71.5t63.5 -91t25.5 -114.5q0 -172 -122 -283t-304 -111q-135 0 -240.5 61.5t-156.5 180.5zM393 1554l-37 50l310 223 l36 -49z" />
<glyph unicode="&#x15b;" horiz-adv-x="950" d="M162 29l24 57q41 -15 100 -27t101 -12q179 0 289 73t110 183q0 79 -81 134t-234 81q-177 29 -273 101t-96 176q0 135 127.5 226t333.5 91q51 0 116.5 -12.5t108.5 -30.5l-24 -57q-41 15 -100 27t-101 12q-179 0 -289 -73t-110 -183q0 -79 81 -134t234 -81 q177 -29 273 -101t96 -176q0 -135 -127.5 -226t-333.5 -91q-51 0 -116.5 12.5t-108.5 30.5zM352 1245l-37 49l310 224l37 -50z" />
<glyph unicode="&#x15c;" horiz-adv-x="1056" d="M121 217l57 25q44 -101 134.5 -153t205.5 -52q157 0 261 93.5t104 238.5q0 50 -23 94t-57.5 76t-86 61.5t-96.5 48.5t-102 39q-63 22 -113.5 43.5t-107.5 55.5t-95 72t-63.5 91.5t-25.5 114.5q0 172 122 282.5t304 110.5q134 0 240 -61t157 -180l-57 -25 q-44 101 -134.5 153t-205.5 52q-157 0 -261 -93.5t-104 -238.5q0 -50 23 -94t57.5 -76.5t86 -62t96.5 -48.5t102 -39q63 -22 113.5 -43.5t107.5 -55.5t95 -71.5t63.5 -91t25.5 -114.5q0 -172 -122 -283t-304 -111q-135 0 -240.5 61.5t-156.5 180.5zM713 1591l-49 -37 l-136 170l-133 -170l-49 37l182 236z" />
<glyph unicode="&#x15d;" horiz-adv-x="950" d="M162 29l24 57q41 -15 100 -27t101 -12q179 0 289 73t110 183q0 79 -81 134t-234 81q-177 29 -273 101t-96 176q0 135 127.5 226t333.5 91q51 0 116.5 -12.5t108.5 -30.5l-24 -57q-41 15 -100 27t-101 12q-179 0 -289 -73t-110 -183q0 -79 81 -134t234 -81 q177 -29 273 -101t96 -176q0 -135 -127.5 -226t-333.5 -91q-51 0 -116.5 12.5t-108.5 30.5zM659 1282l-49 -37l-135 170l-133 -170l-49 37l182 236z" />
<glyph unicode="&#x15e;" horiz-adv-x="1056" d="M438 -217l21 57q19 -8 47 -8q61 0 61 41q0 21 -65 21h-27l21 81q-128 5 -227.5 66t-147.5 176l57 25q44 -101 134.5 -153t205.5 -52q157 0 261 93.5t104 238.5q0 50 -23 94t-57.5 76t-86 61.5t-96.5 48.5t-102 39q-63 22 -113.5 43.5t-107.5 55.5t-95 72t-63.5 91.5 t-25.5 114.5q0 172 122 282.5t304 110.5q134 0 240 -61t157 -180l-57 -25q-44 101 -134.5 153t-205.5 52q-157 0 -261 -93.5t-104 -238.5q0 -50 23 -94t57.5 -76.5t86 -62t96.5 -48.5t102 -39q63 -22 113.5 -43.5t107.5 -55.5t95 -71.5t63.5 -91t25.5 -114.5 q0 -161 -108.5 -269.5t-274.5 -122.5l-6 -20q33 -6 53.5 -28t20.5 -56q0 -50 -37 -76t-88 -26q-36 0 -66 12z" />
<glyph unicode="&#x15f;" horiz-adv-x="950" d="M381 -217l20 57q19 -8 48 -8q61 0 61 41q0 21 -66 21h-26l24 94q-23 -2 -55 -2q-51 0 -116.5 12.5t-108.5 30.5l24 57q41 -15 100 -27t101 -12q179 0 289 73t110 183q0 79 -81 134t-234 81q-177 29 -273 101t-96 176q0 135 127.5 226t333.5 91q51 0 116.5 -12.5 t108.5 -30.5l-24 -57q-41 15 -100 27t-101 12q-179 0 -289 -73t-110 -183q0 -79 81 -134t234 -81q177 -29 273 -101t96 -176q0 -114 -91.5 -198.5t-246.5 -108.5l-12 -39q33 -6 53 -28t20 -56q0 -50 -37 -76t-88 -26q-35 0 -65 12z" />
<glyph unicode="&#x160;" horiz-adv-x="1056" d="M121 217l57 25q44 -101 134.5 -153t205.5 -52q157 0 261 93.5t104 238.5q0 50 -23 94t-57.5 76t-86 61.5t-96.5 48.5t-102 39q-63 22 -113.5 43.5t-107.5 55.5t-95 72t-63.5 91.5t-25.5 114.5q0 172 122 282.5t304 110.5q134 0 240 -61t157 -180l-57 -25 q-44 101 -134.5 153t-205.5 52q-157 0 -261 -93.5t-104 -238.5q0 -50 23 -94t57.5 -76.5t86 -62t96.5 -48.5t102 -39q63 -22 113.5 -43.5t107.5 -55.5t95 -71.5t63.5 -91t25.5 -114.5q0 -172 -122 -283t-304 -111q-135 0 -240.5 61.5t-156.5 180.5zM664 1827l49 -37 l-185 -236l-182 236l49 37l133 -170z" />
<glyph unicode="&#x161;" horiz-adv-x="950" d="M162 29l24 57q41 -15 100 -27t101 -12q179 0 289 73t110 183q0 79 -81 134t-234 81q-177 29 -273 101t-96 176q0 135 127.5 226t333.5 91q51 0 116.5 -12.5t108.5 -30.5l-24 -57q-41 15 -100 27t-101 12q-179 0 -289 -73t-110 -183q0 -79 81 -134t234 -81 q177 -29 273 -101t96 -176q0 -135 -127.5 -226t-333.5 -91q-51 0 -116.5 12.5t-108.5 30.5zM610 1518l49 -37l-184 -236l-182 236l49 37l133 -170z" />
<glyph unicode="&#x162;" horiz-adv-x="1159" d="M610 0h-61v1372h-447v62h955v-62h-447v-1372zM518 -102h123v-144q0 -118 -96 -153l-21 57q56 18 56 96v31h-62v113z" />
<glyph unicode="&#x163;" horiz-adv-x="606" d="M520 1098v-62h-323v-651q0 -160 87 -243t226 -83q29 0 47 2l8 -61q-18 -2 -55 -2q-107 0 -190 40.5t-134 129.5t-51 217v651h-92v62h92v356h62v-356h323zM285 -102h123v-144q0 -118 -97 -153l-20 57q55 18 55 96v31h-61v113z" />
<glyph unicode="&#x164;" horiz-adv-x="1159" d="M610 0h-61v1372h-447v62h955v-62h-447v-1372zM715 1827l49 -37l-184 -236l-183 236l49 37l134 -170z" />
<glyph unicode="&#x165;" horiz-adv-x="606" d="M520 1098v-62h-323v-651q0 -160 87 -243t226 -83q29 0 47 2l8 -61q-18 -2 -55 -2q-107 0 -190 40.5t-134 129.5t-51 217v651h-92v62h92v356h62v-356h323zM340 1536h123v-143q0 -119 -96 -154l-21 57q55 18 55 97v30h-61v113z" />
<glyph unicode="&#x166;" horiz-adv-x="1159" d="M313 913v62h236v397h-447v62h955v-62h-447v-397h236v-62h-236v-913h-61v913h-236z" />
<glyph unicode="&#x167;" horiz-adv-x="636" d="M-70 727v61h236v248h-92v62h92v356h61v-356h324v-62h-324v-248h236v-61h-236v-342q0 -160 87.5 -243t226.5 -83q29 0 47 2l8 -61q-18 -2 -55 -2q-107 0 -190 40.5t-134 129.5t-51 217v342h-236z" />
<glyph unicode="&#x168;" horiz-adv-x="1142" d="M135 1434h62v-1039q0 -155 109.5 -254.5t264.5 -99.5t265 99.5t110 254.5v1039h62v-1039q0 -181 -128.5 -298t-308.5 -117q-117 0 -216 51t-159.5 147t-60.5 217v1039zM764 1755l49 -37q-26 -48 -65.5 -72t-79.5 -24q-57 0 -115 43q-45 33 -80 33q-25 0 -51.5 -18.5 t-42.5 -53.5l-49 37q25 47 63.5 71.5t79.5 24.5q60 0 117 -45q42 -31 78 -31q24 0 51.5 18t44.5 54z" />
<glyph unicode="&#x169;" horiz-adv-x="1101" d="M123 1098h61v-703q0 -155 106.5 -254.5t260.5 -99.5t260.5 99.5t106.5 254.5v703h61v-703q0 -182 -124.5 -298.5t-303.5 -116.5t-303.5 116.5t-124.5 298.5v703zM752 1446l49 -37q-26 -48 -66 -72t-80 -24q-56 0 -114 43q-45 33 -80 33q-25 0 -51.5 -18.5t-42.5 -53.5 l-50 37q25 47 64 71.5t80 24.5q60 0 117 -45q42 -31 77 -31q25 0 52.5 18.5t44.5 53.5z" />
<glyph unicode="&#x16a;" horiz-adv-x="1142" d="M135 1434h62v-1039q0 -155 109.5 -254.5t264.5 -99.5t265 99.5t110 254.5v1039h62v-1039q0 -181 -128.5 -298t-308.5 -117q-117 0 -216 51t-159.5 147t-60.5 217v1039zM305 1661v61h533v-61h-533z" />
<glyph unicode="&#x16b;" horiz-adv-x="1101" d="M123 1098h61v-703q0 -155 106.5 -254.5t260.5 -99.5t260.5 99.5t106.5 254.5v703h61v-703q0 -182 -124.5 -298.5t-303.5 -116.5t-303.5 116.5t-124.5 298.5v703zM293 1352v61h532v-61h-532z" />
<glyph unicode="&#x16c;" horiz-adv-x="1142" d="M135 1434h62v-1039q0 -155 109.5 -254.5t264.5 -99.5t265 99.5t110 254.5v1039h62v-1039q0 -181 -128.5 -298t-308.5 -117q-117 0 -216 51t-159.5 147t-60.5 217v1039zM715 1784h61q0 -78 -57 -131.5t-148 -53.5q-90 0 -147 53.5t-57 131.5h61q0 -55 39 -89t104 -34 t104.5 34t39.5 89z" />
<glyph unicode="&#x16d;" horiz-adv-x="1101" d="M123 1098h61v-703q0 -155 106.5 -254.5t260.5 -99.5t260.5 99.5t106.5 254.5v703h61v-703q0 -182 -124.5 -298.5t-303.5 -116.5t-303.5 116.5t-124.5 298.5v703zM702 1475h62q0 -78 -57 -131.5t-148 -53.5t-148 53.5t-57 131.5h62q0 -55 39 -89t104 -34t104 34t39 89z " />
<glyph unicode="&#x16e;" horiz-adv-x="1142" d="M135 1434h62v-1039q0 -155 109.5 -254.5t264.5 -99.5t265 99.5t110 254.5v1039h62v-1039q0 -181 -128.5 -298t-308.5 -117q-117 0 -216 51t-159.5 147t-60.5 217v1039zM434 1692q0 57 40 97t97 40t97.5 -40t40.5 -97t-40.5 -97.5t-97.5 -40.5t-97 40.5t-40 97.5z M496 1692q0 -31 22 -53.5t53 -22.5t53.5 22.5t22.5 53.5t-22.5 53t-53.5 22t-53 -22t-22 -53z" />
<glyph unicode="&#x16f;" horiz-adv-x="1101" d="M123 1098h61v-703q0 -155 106.5 -254.5t260.5 -99.5t260.5 99.5t106.5 254.5v703h61v-703q0 -182 -124.5 -298.5t-303.5 -116.5t-303.5 116.5t-124.5 298.5v703zM422 1382q0 57 40 97.5t97 40.5t97 -40.5t40 -97.5t-40 -97t-97 -40t-97 40t-40 97zM483 1382 q0 -31 22.5 -53t53.5 -22t53.5 22t22.5 53t-22.5 53.5t-53.5 22.5t-53.5 -22.5t-22.5 -53.5z" />
<glyph unicode="&#x170;" horiz-adv-x="1142" d="M135 1434h62v-1039q0 -155 109.5 -254.5t264.5 -99.5t265 99.5t110 254.5v1039h62v-1039q0 -181 -128.5 -298t-308.5 -117q-117 0 -216 51t-159.5 147t-60.5 217v1039zM645 1554l-37 50l310 223l36 -49zM395 1554l-37 50l310 223l37 -49z" />
<glyph unicode="&#x171;" horiz-adv-x="1101" d="M123 1098h61v-703q0 -155 106.5 -254.5t260.5 -99.5t260.5 99.5t106.5 254.5v703h61v-703q0 -182 -124.5 -298.5t-303.5 -116.5t-303.5 116.5t-124.5 298.5v703zM602 1245l-37 49l309 224l37 -50zM352 1245l-37 49l310 224l37 -50z" />
<glyph unicode="&#x172;" horiz-adv-x="1142" d="M637 -160l33 -53q-51 -31 -95 -31q-46 0 -75 27t-29 70q0 72 86 127q-175 5 -298.5 121t-123.5 294v1039h62v-1039q0 -155 109.5 -254.5t264.5 -99.5t265 99.5t110 254.5v1039h62v-1039q0 -172 -116 -286.5t-284 -126.5l19 -33q-95 -49 -95 -96q0 -15 12 -25t31 -10 q28 0 62 22z" />
<glyph unicode="&#x173;" horiz-adv-x="1101" d="M625 -160l32 -53q-51 -31 -94 -31q-46 0 -75 27t-29 70q0 72 86 127q-114 1 -210 52.5t-154 147t-58 215.5v703h61v-703q0 -155 106.5 -254.5t260.5 -99.5t260.5 99.5t106.5 254.5v703h61v-703q0 -173 -109.5 -285t-273.5 -128l18 -33q-94 -48 -94 -96q0 -15 12 -25 t31 -10q28 0 62 22z" />
<glyph unicode="&#x174;" horiz-adv-x="1583" d="M612 1425l58 17l121 -418l122 418l58 -17l-150 -507l226 -766l376 1290l58 -17l-434 -1486l-256 874l-254 -874l-435 1486l58 17l377 -1290l223 766zM975 1591l-49 -37l-135 170l-134 -170l-49 37l183 236z" />
<glyph unicode="&#x175;" horiz-adv-x="1593" d="M618 1087l58 21l121 -313l121 313l57 -21l-146 -376l226 -584l379 981l57 -21l-436 -1128l-258 668l-258 -668l-437 1128l58 21l379 -981l225 584zM983 1282l-49 -37l-135 170l-133 -170l-50 37l183 236z" />
<glyph unicode="&#x176;" horiz-adv-x="1142" d="M602 0h-61v707l-439 710l54 33l415 -674l416 674l53 -33l-438 -710v-707zM756 1591l-49 -37l-136 170l-133 -170l-49 37l182 236z" />
<glyph unicode="&#x177;" horiz-adv-x="1110" d="M913 1098h62v-1221q0 -124 -49.5 -232t-144 -176.5t-214.5 -68.5q-161 0 -303 139l41 45q126 -123 262 -123q102 0 182.5 60t122 154t41.5 202v219q-154 -137 -344 -137q-78 0 -155.5 28t-143 79t-106.5 133.5t-41 181.5v717h61v-721q0 -106 56 -189.5t142.5 -125.5 t184.5 -42q103 0 180.5 39t165.5 123v916zM733 1282l-49 -37l-135 170l-133 -170l-49 37l182 236z" />
<glyph unicode="&#x178;" horiz-adv-x="1142" d="M602 0h-61v707l-439 710l54 33l415 -674l416 674l53 -33l-438 -710v-707zM383 1640v103h102v-103h-102zM659 1640v103h103v-103h-103z" />
<glyph unicode="&#x179;" horiz-adv-x="1126" d="M119 1372v62h895l-795 -1373h789v-61h-895l794 1372h-788zM428 1554l-37 50l309 223l37 -49z" />
<glyph unicode="&#x17a;" horiz-adv-x="1093" d="M102 1036v62h897l-780 -1037h772v-61h-897l780 1036h-772zM432 1245l-37 49l310 224l36 -50z" />
<glyph unicode="&#x17b;" horiz-adv-x="1126" d="M113 1372v62h895l-795 -1373h788v-61h-895l795 1372h-788zM506 1640v103h102v-103h-102z" />
<glyph unicode="&#x17c;" horiz-adv-x="1093" d="M102 1036v62h897l-780 -1037h772v-61h-897l780 1036h-772zM496 1331v103h102v-103h-102z" />
<glyph unicode="&#x17d;" horiz-adv-x="1126" d="M113 1372v62h895l-795 -1373h788v-61h-895l795 1372h-788zM692 1827l49 -37l-184 -236l-182 236l49 37l133 -170z" />
<glyph unicode="&#x17e;" horiz-adv-x="1093" d="M102 1036v62h897l-780 -1037h772v-61h-897l780 1036h-772zM682 1518l49 -37l-184 -236l-182 236l49 37l133 -170z" />
<glyph unicode="&#x17f;" horiz-adv-x="307" d="M184 0h-61v1251q0 131 95 218t218 87v-61q-99 0 -175.5 -70t-76.5 -174v-1251z" />
<glyph unicode="&#x192;" horiz-adv-x="618" d="M43 893v61h236v361q0 128 55 224t143.5 143t194.5 47v-62q-140 0 -236 -93.5t-96 -262.5v-357h235v-61h-235v-956q0 -128 -55 -224t-143.5 -143t-194.5 -47v61q140 0 236 94t96 263v952h-236z" />
<glyph unicode="&#x1fc;" horiz-adv-x="1531" d="M813 1300l-448 -894h448v894zM813 344h-479l-178 -358l-54 28l711 1420h606v-62h-545v-541h410v-61h-410v-709h545v-61h-606v344zM834 1554l-37 50l309 223l37 -49z" />
<glyph unicode="&#x1fd;" horiz-adv-x="1892" d="M870 1245l-36 49l309 224l37 -50zM1708 61v-61q-90 -8 -131 -8q-226 0 -381.5 84.5t-228.5 224.5v-301h-62v106q-137 -126 -358 -126q-115 0 -213.5 48.5t-159.5 142t-61 212.5t60.5 211.5t159 140t214.5 47.5q210 0 358 -141v55q0 80 -19.5 143.5t-50 103t-72 66.5 t-82.5 37.5t-83 10.5q-198 0 -332 -131l-45 41q157 151 377 151q127 0 228.5 -77.5t127.5 -221.5q34 79 88 139.5t115.5 93.5t121 49.5t114.5 16.5q106 0 187.5 -39.5t131 -110t74 -162.5t24.5 -204h-841q-2 -16 -2 -49v-18q2 -73 26 -141.5t73.5 -130.5t119.5 -108t172 -73 t225 -27q61 0 125 6zM547 41q106 0 200 38t158 118v356q-136 168 -358 168q-155 0 -264 -93t-109 -245t110 -247t263 -95zM1393 1057q-68 0 -134 -24.5t-124.5 -71.5t-101 -124t-58.5 -173h770q0 54 -11.5 107t-38.5 105.5t-66.5 92t-100.5 64t-135 24.5z" />
<glyph unicode="&#x1fe;" horiz-adv-x="1675" d="M147 -18l-45 45l193 192q-91 101 -142 228.5t-51 269.5q0 150 58.5 286t157 234.5t234.5 156.5t286 58q140 0 267.5 -51t227.5 -144l195 195l45 -45l-195 -195q93 -100 144 -227.5t51 -267.5q0 -200 -98.5 -369t-267.5 -267.5t-369 -98.5q-142 0 -270 50.5t-228 141.5z M1511 717q0 128 -46.5 244.5t-129.5 207.5l-952 -952q193 -174 455 -174q183 0 338 90t245 245t90 339zM164 717q0 -262 174 -455l952 952q-91 84 -207.5 130.5t-244.5 46.5q-137 0 -262 -53.5t-215 -143.5t-143.5 -215t-53.5 -262zM702 1554l-36 50l309 223l37 -49z" />
<glyph unicode="&#x1ff;" horiz-adv-x="1343" d="M102 549q0 154 76.5 285t208 207.5t285.5 76.5q216 0 377 -145l147 147l45 -45l-147 -147q147 -160 147 -379q0 -154 -76.5 -285t-207.5 -207.5t-285 -76.5q-220 0 -379 143l-146 -146l-45 46l146 145q-146 165 -146 381zM164 549q0 -195 127 -338l717 719 q-143 127 -336 127q-138 0 -255 -68t-185 -185t-68 -255zM1180 549q0 189 -127 336l-717 -719q144 -125 336 -125q138 0 255 68t185 185t68 255zM543 1245l-37 49l309 224l37 -50z" />
<glyph unicode="&#x218;" horiz-adv-x="1056" d="M121 217l57 25q44 -101 134.5 -153t205.5 -52q157 0 261 93.5t104 238.5q0 50 -23 94t-57.5 76t-86 61.5t-96.5 48.5t-102 39q-63 22 -113.5 43.5t-107.5 55.5t-95 72t-63.5 91.5t-25.5 114.5q0 172 122 282.5t304 110.5q134 0 240 -61t157 -180l-57 -25 q-44 101 -134.5 153t-205.5 52q-157 0 -261 -93.5t-104 -238.5q0 -50 23 -94t57.5 -76.5t86 -62t96.5 -48.5t102 -39q63 -22 113.5 -43.5t107.5 -55.5t95 -71.5t63.5 -91t25.5 -114.5q0 -172 -122 -283t-304 -111q-135 0 -240.5 61.5t-156.5 180.5zM467 -102h123v-144 q0 -118 -96 -153l-21 57q55 18 55 96v31h-61v113z" />
<glyph unicode="&#x219;" horiz-adv-x="950" d="M162 29l24 57q41 -15 100 -27t101 -12q179 0 289 73t110 183q0 79 -81 134t-234 81q-177 29 -273 101t-96 176q0 135 127.5 226t333.5 91q51 0 116.5 -12.5t108.5 -30.5l-24 -57q-41 15 -100 27t-101 12q-179 0 -289 -73t-110 -183q0 -79 81 -134t234 -81 q177 -29 273 -101t96 -176q0 -135 -127.5 -226t-333.5 -91q-51 0 -116.5 12.5t-108.5 30.5zM416 -102h123v-144q0 -118 -97 -153l-20 57q55 18 55 96v31h-61v113z" />
<glyph unicode="&#x259;" horiz-adv-x="1150" d="M264 954l-41 45q136 119 324 119q154 0 270 -81.5t174 -214t58 -294.5q0 -111 -31.5 -205t-82.5 -156t-115.5 -105t-128.5 -62.5t-124 -19.5q-118 0 -209.5 45.5t-146 123t-82 174t-27.5 205.5v31h883q-7 222 -130 360t-308 138q-162 0 -283 -103zM567 41q52 0 106.5 17 t109 54t98 89t72 129t32.5 168h-819q2 -73 18 -138.5t48 -124t77.5 -101.5t111.5 -68t146 -25z" />
<glyph unicode="&#x2c6;" horiz-adv-x="653" d="M510 1282l-49 -37l-135 170l-133 -170l-50 37l183 236z" />
<glyph unicode="&#x2c7;" horiz-adv-x="653" d="M461 1518l49 -37l-184 -236l-183 236l50 37l133 -170z" />
<glyph unicode="&#x2d8;" horiz-adv-x="696" d="M492 1475h61q0 -78 -57 -131.5t-148 -53.5t-148 53.5t-57 131.5h62q0 -55 39 -89t104 -34t104.5 34t39.5 89z" />
<glyph unicode="&#x2d9;" horiz-adv-x="389" d="M143 1331v103h103v-103h-103z" />
<glyph unicode="&#x2da;" horiz-adv-x="622" d="M174 1382q0 57 40 97.5t97 40.5t97.5 -40.5t40.5 -97.5t-40.5 -97t-97.5 -40t-97 40t-40 97zM236 1382q0 -31 22 -53t53 -22t53.5 22t22.5 53t-22.5 53.5t-53.5 22.5t-53 -22.5t-22 -53.5z" />
<glyph unicode="&#x2db;" horiz-adv-x="641" d="M434 -170l33 -53q-51 -31 -94 -31q-46 0 -75.5 26.5t-29.5 69.5q0 85 127 150l29 -53q-94 -48 -94 -97q0 -15 12 -25t31 -10q25 0 61 23z" />
<glyph unicode="&#x2dc;" horiz-adv-x="733" d="M559 1446l49 -37q-26 -48 -65.5 -72t-79.5 -24q-57 0 -115 43q-45 33 -80 33q-25 0 -51.5 -18.5t-42.5 -53.5l-49 37q25 47 63.5 71.5t79.5 24.5q60 0 117 -45q42 -31 78 -31q24 0 51.5 18t44.5 54z" />
<glyph unicode="&#x2dd;" horiz-adv-x="841" d="M430 1245l-37 49l309 224l37 -50zM180 1245l-37 49l310 224l36 -50z" />
<glyph unicode="&#x1e80;" horiz-adv-x="1583" d="M612 1425l58 17l121 -418l122 418l58 -17l-150 -507l226 -766l376 1290l58 -17l-434 -1486l-256 874l-254 -874l-435 1486l58 17l377 -1290l223 766zM965 1604l-37 -50l-310 224l37 49z" />
<glyph unicode="&#x1e81;" horiz-adv-x="1593" d="M618 1087l58 21l121 -313l121 313l57 -21l-146 -376l226 -584l379 981l57 -21l-436 -1128l-258 668l-258 -668l-437 1128l58 21l379 -981l225 584zM973 1294l-37 -49l-309 223l37 50z" />
<glyph unicode="&#x1e82;" horiz-adv-x="1583" d="M612 1425l58 17l121 -418l122 418l58 -17l-150 -507l226 -766l376 1290l58 -17l-434 -1486l-256 874l-254 -874l-435 1486l58 17l377 -1290l223 766zM655 1554l-37 50l310 223l37 -49z" />
<glyph unicode="&#x1e83;" horiz-adv-x="1593" d="M618 1087l58 21l121 -313l121 313l57 -21l-146 -376l226 -584l379 981l57 -21l-436 -1128l-258 668l-258 -668l-437 1128l58 21l379 -981l225 584zM664 1245l-37 49l309 224l37 -50z" />
<glyph unicode="&#x1e84;" horiz-adv-x="1583" d="M612 1425l58 17l121 -418l122 418l58 -17l-150 -507l226 -766l376 1290l58 -17l-434 -1486l-256 874l-254 -874l-435 1486l58 17l377 -1290l223 766zM602 1640v103h103v-103h-103zM879 1640v103h102v-103h-102z" />
<glyph unicode="&#x1e85;" horiz-adv-x="1593" d="M618 1087l58 21l121 -313l121 313l57 -21l-146 -376l226 -584l379 981l57 -21l-436 -1128l-258 668l-258 -668l-437 1128l58 21l379 -981l225 584zM610 1331v103h103v-103h-103zM887 1331v103h102v-103h-102z" />
<glyph unicode="&#x1ef2;" horiz-adv-x="1142" d="M602 0h-61v707l-439 710l54 33l415 -674l416 674l53 -33l-438 -710v-707zM745 1604l-36 -50l-310 224l37 49z" />
<glyph unicode="&#x1ef3;" horiz-adv-x="1110" d="M913 1098h62v-1221q0 -124 -49.5 -232t-144 -176.5t-214.5 -68.5q-161 0 -303 139l41 45q126 -123 262 -123q102 0 182.5 60t122 154t41.5 202v219q-154 -137 -344 -137q-78 0 -155.5 28t-143 79t-106.5 133.5t-41 181.5v717h61v-721q0 -106 56 -189.5t142.5 -125.5 t184.5 -42q103 0 180.5 39t165.5 123v916zM723 1294l-37 -49l-309 223l37 50z" />
<glyph unicode="&#x2000;" horiz-adv-x="1124" />
<glyph unicode="&#x2001;" horiz-adv-x="2249" />
<glyph unicode="&#x2002;" horiz-adv-x="1124" />
<glyph unicode="&#x2003;" horiz-adv-x="2249" />
<glyph unicode="&#x2004;" horiz-adv-x="749" />
<glyph unicode="&#x2005;" horiz-adv-x="562" />
<glyph unicode="&#x2006;" horiz-adv-x="374" />
<glyph unicode="&#x2007;" horiz-adv-x="374" />
<glyph unicode="&#x2008;" horiz-adv-x="281" />
<glyph unicode="&#x2009;" horiz-adv-x="449" />
<glyph unicode="&#x200a;" horiz-adv-x="124" />
<glyph unicode="&#x2010;" horiz-adv-x="737" d="M102 602v62h533v-62h-533z" />
<glyph unicode="&#x2011;" horiz-adv-x="737" d="M102 602v62h533v-62h-533z" />
<glyph unicode="&#x2012;" horiz-adv-x="737" d="M102 602v62h533v-62h-533z" />
<glyph unicode="&#x2013;" horiz-adv-x="1468" d="M102 602v62h1264v-62h-1264z" />
<glyph unicode="&#x2014;" horiz-adv-x="1937" d="M102 602v62h1733v-62h-1733z" />
<glyph unicode="&#x2018;" horiz-adv-x="376" d="M250 1073h-123v174q0 145 96 180l21 -57q-56 -18 -56 -123v-51h62v-123z" />
<glyph unicode="&#x2019;" horiz-adv-x="376" d="M127 1434h123v-174q0 -146 -96 -181l-21 58q55 18 55 123v51h-61v123z" />
<glyph unicode="&#x201a;" horiz-adv-x="376" d="M127 266h123v-174q0 -145 -96 -180l-21 57q55 18 55 123v51h-61v123z" />
<glyph unicode="&#x201c;" horiz-adv-x="622" d="M250 1073h-123v174q0 145 96 180l21 -57q-56 -18 -56 -123v-51h62v-123zM496 1073h-123v174q0 145 96 180l20 -57q-55 -18 -55 -123v-51h62v-123z" />
<glyph unicode="&#x201d;" horiz-adv-x="622" d="M373 1434h123v-174q0 -146 -97 -181l-20 58q55 18 55 123v51h-61v123zM127 1434h123v-174q0 -146 -96 -181l-21 58q55 18 55 123v51h-61v123z" />
<glyph unicode="&#x201e;" horiz-adv-x="622" d="M127 266h123v-174q0 -145 -96 -180l-21 57q55 18 55 123v51h-61v123zM373 266h123v-174q0 -145 -97 -180l-20 57q55 18 55 123v51h-61v123z" />
<glyph unicode="&#x2020;" horiz-adv-x="1132" d="M113 1403v61h419v365h62v-365h426v-61h-426v-1649h-62v1649h-419z" />
<glyph unicode="&#x2021;" horiz-adv-x="1132" d="M113 1403v61h419v365h62v-365h426v-61h-426v-1223h426v-61h-426v-365h-62v365h-419v61h419v1223h-419z" />
<glyph unicode="&#x2022;" horiz-adv-x="532" d="M102 614q0 68 48 116t116 48t116 -48t48 -116q0 -67 -48 -115t-116 -48t-116 48t-48 115z" />
<glyph unicode="&#x2026;" horiz-adv-x="1253" d="M983 0v123h123v-123h-123zM565 0v123h123v-123h-123zM147 0v123h123v-123h-123z" />
<glyph unicode="&#x202f;" horiz-adv-x="449" />
<glyph unicode="&#x2030;" horiz-adv-x="1435" d="M997 156q0 69 49.5 118.5t118.5 49.5t118.5 -49.5t49.5 -118.5t-49.5 -118.5t-118.5 -49.5t-118.5 49.5t-49.5 118.5zM123 1276q0 69 49.5 118.5t118.5 49.5t118.5 -49.5t49.5 -118.5t-49.5 -118.5t-118.5 -49.5t-118.5 49.5t-49.5 118.5zM184 1276q0 -44 31.5 -75.5 t75.5 -31.5t75 31.5t31 75.5t-31 75t-75 31t-75.5 -31t-31.5 -75zM1059 156q0 -44 31 -75.5t75 -31.5t75.5 31.5t31.5 75.5t-31.5 75t-75.5 31t-75 -31t-31 -75zM580 156q0 69 49.5 118.5t118.5 49.5t118 -49.5t49 -118.5t-49 -118.5t-118 -49.5t-118.5 49.5t-49.5 118.5z M641 156q0 -44 31.5 -75.5t75.5 -31.5t75 31.5t31 75.5t-31 75t-75 31t-75.5 -31t-31.5 -75zM123 14l739 1434l53 -29l-739 -1433z" />
<glyph unicode="&#x2039;" horiz-adv-x="587" d="M485 334l-36 -49l-347 268l347 270l36 -49l-280 -221z" />
<glyph unicode="&#x203a;" horiz-adv-x="587" d="M139 285l-37 49l281 219l-281 221l37 49l346 -270z" />
<glyph unicode="&#x205f;" horiz-adv-x="562" />
<glyph unicode="&#x20ac;" horiz-adv-x="1120" d="M102 834h78q17 122 68.5 230t135 193.5t208.5 135t276 49.5q82 0 150 -6l-4 -62q-67 6 -146 6q-110 0 -204.5 -29t-165 -80t-124.5 -120.5t-86 -149t-46 -167.5h557v-62h-563q-3 -27 -3 -55q0 -34 3 -64h563v-61h-555q17 -109 65 -204.5t124 -170.5t187.5 -118.5 t245.5 -43.5q80 0 148 6l4 -61q-68 -6 -152 -6q-149 0 -272.5 48.5t-207.5 132t-136 189.5t-70 228h-78v61h72q-2 20 -2 64q0 37 2 55h-72v62z" />
<glyph unicode="&#x2117;" horiz-adv-x="1740" d="M123 717q0 152 59 290t159.5 238.5t238.5 159.5t290 59t290.5 -59t238.5 -159.5t159.5 -238.5t59.5 -290q0 -203 -100.5 -375t-272.5 -272.5t-375 -100.5q-152 0 -290 59.5t-238.5 159.5t-159.5 238.5t-59 290.5zM184 717q0 -186 92 -344t250 -250t344 -92t344 92 t250 250t92 344t-92 344t-250 250t-344 92t-344 -92t-250 -250t-92 -344zM752 614h-2v-286h-62v788q23 2 64 2q186 0 285.5 -73t99.5 -179t-99.5 -179t-285.5 -73zM750 1057v-381h28q138 0 217.5 57t79.5 133t-79.5 133.5t-217.5 57.5h-28z" />
<glyph unicode="&#x2122;" horiz-adv-x="1263" d="M385 963h-61v409h-201v62h469v-62h-207v-409zM866 963l-147 276v-276h-62v520l209 -389l209 389v-520h-61v276z" />
<glyph unicode="&#x2212;" horiz-adv-x="942" d="M102 602v62h738v-62h-738z" />
<glyph unicode="&#x25fc;" horiz-adv-x="1116" d="M0 1116h1116v-1116h-1116v1116z" />
<glyph unicode="&#xf628;" horiz-adv-x="1394" d="M956 156q0 69 49.5 118.5t118.5 49.5t118.5 -49.5t49.5 -118.5t-49.5 -118.5t-118.5 -49.5t-118.5 49.5t-49.5 118.5zM123 940q0 69 49.5 118.5t118.5 49.5t118.5 -49.5t49.5 -118.5t-49.5 -118.5t-118.5 -49.5t-118.5 49.5t-49.5 118.5zM127 16l690 1098l53 -33 l-690 -1097zM184 940q0 -44 31.5 -75t75.5 -31t75 31t31 75t-31 75.5t-75 31.5t-75.5 -31.5t-31.5 -75.5zM1018 156q0 -44 31 -75.5t75 -31.5t75.5 31.5t31.5 75.5t-31.5 75t-75.5 31t-75 -31t-31 -75zM539 156q0 69 49.5 118.5t118.5 49.5t118 -49.5t49 -118.5t-49 -118.5 t-118 -49.5t-118.5 49.5t-49.5 118.5zM600 156q0 -44 31.5 -75.5t75.5 -31.5t75 31.5t31 75.5t-31 75t-75 31t-75.5 -31t-31.5 -75z" />
<glyph unicode="&#xf642;" horiz-adv-x="997" d="M539 156q0 69 49.5 118.5t118.5 49.5t118 -49.5t49 -118.5t-49 -118.5t-118 -49.5t-118.5 49.5t-49.5 118.5zM123 940q0 69 49.5 118.5t118.5 49.5t118.5 -49.5t49.5 -118.5t-49.5 -118.5t-118.5 -49.5t-118.5 49.5t-49.5 118.5zM127 16l690 1098l53 -33l-690 -1097z M184 940q0 -44 31.5 -75t75.5 -31t75 31t31 75t-31 75.5t-75 31.5t-75.5 -31.5t-31.5 -75.5zM600 156q0 -44 31.5 -75.5t75.5 -31.5t75 31.5t31 75.5t-31 75t-75 31t-75.5 -31t-31.5 -75z" />
<glyph unicode="&#xf64e;" horiz-adv-x="1099" d="M102 606v62h82q21 91 74 170t136 141.5t204.5 98.5t267.5 36q63 0 131 -6l-4 -61q-68 6 -127 6q-130 0 -239 -31t-184 -85t-124 -122t-71 -147h551v-62h-563q-3 -27 -3 -57q0 -41 5 -66h561v-61h-547q48 -163 205.5 -269t408.5 -106q60 0 127 6l4 -61q-68 -6 -131 -6 q-143 0 -263 35t-203 96t-137 138.5t-77 166.5h-84v61h74q-4 20 -4 66q0 39 2 57h-72z" />
<glyph unicode="&#xf652;" horiz-adv-x="1132" d="M236 416v61h296v62l-430 538l45 39l416 -518l422 522l45 -43l-436 -538v-62h297v-61h-297v-119h297v-61h-297v-236h-62v236h-296v61h296v119h-296z" />
<glyph unicode="&#xf653;" horiz-adv-x="966" d="M408 1335h61v-231q46 4 74 4q38 0 112 -8l-8 -62q-83 9 -104 9q-162 0 -260.5 -67.5t-98.5 -164.5q0 -76 64.5 -125.5t181.5 -66.5l80 -11q157 -20 245.5 -99.5t88.5 -195.5q0 -108 -102 -195.5t-273 -119.5v-229h-61v221q-50 -6 -105 -6q-96 0 -184 14l8 61 q88 -14 176 -14q211 0 345 79.5t134 188.5q0 89 -76.5 154t-201.5 80l-82 10q-148 18 -223.5 84.5t-75.5 169.5q0 97 76 173.5t209 105.5v241z" />
<glyph unicode="&#xf66d;" horiz-adv-x="1052" d="M829 223h-557l-88 -237l-55 26l424 1129l424 -1129l-55 -26zM553 971l-258 -686h510zM657 1475h62q0 -78 -57 -131.5t-148 -53.5t-148 53.5t-57 131.5h62q0 -55 39 -89t104 -34t104 34t39 89z" />
<glyph unicode="&#xf66e;" horiz-adv-x="1052" d="M829 223h-557l-88 -237l-55 26l424 1129l424 -1129l-55 -26zM553 971l-258 -686h510zM248 1352v61h532v-61h-532z" />
<glyph unicode="&#xf66f;" horiz-adv-x="1052" d="M803 223h-561l-84 -233l-56 22l412 1129l436 -1129l-26 -12l14 -25q-94 -48 -94 -96q0 -15 12 -25t31 -10q25 0 61 23l33 -53q-51 -31 -94 -31q-46 0 -75.5 26.5t-29.5 69.5q0 75 101 135zM514 971l-250 -686h514z" />
<glyph unicode="&#xf670;" horiz-adv-x="1531" d="M1419 0h-606v268h-469l-188 -284l-54 32l711 1082h606v-62h-545v-372h410v-62h-410v-541h545v-61zM813 983l-428 -653h428v653zM844 1245l-37 49l309 224l37 -50z" />
<glyph unicode="&#xf671;" horiz-adv-x="1030" d="M924 53l4 -61q-68 -6 -131 -6q-168 0 -303 48t-219 128t-128.5 179.5t-44.5 207.5t44.5 208t128.5 180.5t219.5 128.5t302.5 48q63 0 131 -6l-4 -61q-67 6 -127 6q-152 0 -275.5 -43.5t-200 -115.5t-117 -160.5t-40.5 -184.5t40.5 -184.5t117 -160t199.5 -114.5t276 -43 q59 0 127 6zM489 1245l-36 49l309 224l37 -50z" />
<glyph unicode="&#xf672;" horiz-adv-x="1030" d="M924 53l4 -61q-68 -6 -131 -6q-168 0 -303 48t-219 128t-128.5 179.5t-44.5 207.5t44.5 208t128.5 180.5t219.5 128.5t302.5 48q63 0 131 -6l-4 -61q-67 6 -127 6q-152 0 -275.5 -43.5t-200 -115.5t-117 -160.5t-40.5 -184.5t40.5 -184.5t117 -160t199.5 -114.5t276 -43 q59 0 127 6zM748 1518l49 -37l-185 -236l-182 236l49 37l133 -170z" />
<glyph unicode="&#xf673;" horiz-adv-x="1030" d="M924 53l4 -61q-68 -6 -131 -6q-168 0 -303 48t-219 128t-128.5 179.5t-44.5 207.5t44.5 208t128.5 180.5t219.5 128.5t302.5 48q63 0 131 -6l-4 -61q-67 6 -127 6q-152 0 -275.5 -43.5t-200 -115.5t-117 -160.5t-40.5 -184.5t40.5 -184.5t117 -160t199.5 -114.5t276 -43 q59 0 127 6zM791 1282l-50 -37l-135 170l-133 -170l-49 37l182 236z" />
<glyph unicode="&#xf674;" horiz-adv-x="1030" d="M924 53l4 -61q-68 -6 -131 -6q-168 0 -303 48t-219 128t-128.5 179.5t-44.5 207.5t44.5 208t128.5 180.5t219.5 128.5t302.5 48q63 0 131 -6l-4 -61q-67 6 -127 6q-152 0 -275.5 -43.5t-200 -115.5t-117 -160.5t-40.5 -184.5t40.5 -184.5t117 -160t199.5 -114.5t276 -43 q59 0 127 6zM575 1331v103h103v-103h-103z" />
<glyph unicode="&#xf675;" horiz-adv-x="1089" d="M293 55q153 0 276 42.5t199.5 113t117 158.5t40.5 184t-40.5 184t-117 159.5t-199.5 114t-276 42.5q-30 0 -96 -4v-992q35 -2 96 -2zM293 1114q168 0 303 -47.5t218.5 -127t128 -179t44.5 -207.5t-44.5 -206.5t-128 -178t-219 -127t-302.5 -47.5q-79 0 -158 6v1106 q106 8 158 8zM565 1518l49 -37l-184 -236l-182 236l49 37l133 -170z" />
<glyph unicode="&#xf676;" horiz-adv-x="1118" d="M322 55q153 0 276 42.5t199 113t116.5 158.5t40.5 184t-40.5 184t-116.5 159.5t-199 114t-276 42.5q-31 0 -97 -4v-435h277v-61h-277v-496q35 -2 97 -2zM-31 553v61h195v492q106 8 158 8q168 0 303 -47.5t218.5 -127t128 -179t44.5 -207.5t-44.5 -206.5t-128 -178 t-219 -127t-302.5 -47.5q-78 0 -158 6v553h-195z" />
<glyph unicode="&#xf677;" horiz-adv-x="1058" d="M946 0h-811v1098h811v-62h-749v-372h614v-62h-614v-541h749v-61zM684 1475h61q0 -78 -57 -131.5t-147 -53.5q-91 0 -148 53.5t-57 131.5h61q0 -55 39.5 -89t104.5 -34t104 34t39 89z" />
<glyph unicode="&#xf678;" horiz-adv-x="1058" d="M946 0h-811v1098h811v-62h-749v-372h614v-62h-614v-541h749v-61zM676 1518l49 -37l-184 -236l-183 236l50 37l133 -170z" />
<glyph unicode="&#xf679;" horiz-adv-x="1058" d="M946 0h-811v1098h811v-62h-749v-372h614v-62h-614v-541h749v-61zM489 1331v103h103v-103h-103z" />
<glyph unicode="&#xf67a;" horiz-adv-x="1058" d="M946 0h-811v1098h811v-62h-749v-372h614v-62h-614v-541h749v-61zM274 1352v61h533v-61h-533z" />
<glyph unicode="&#xf67c;" horiz-adv-x="1058" d="M805 -133l33 -53q-51 -31 -95 -31q-46 0 -75 26.5t-29 69.5q0 69 78 121h-582v1098h811v-62h-749v-372h614v-62h-614v-541h749v-61h-166l15 -25q-95 -49 -95 -96q0 -15 12 -25t31 -10q26 0 62 23z" />
<glyph unicode="&#xf67d;" horiz-adv-x="1050" d="M866 463h62v-463q-68 -6 -131 -6q-168 0 -303 47.5t-219 127t-128.5 178t-44.5 206.5t44 207t128 179t219.5 127.5t303.5 47.5q63 0 131 -6v-61q-62 6 -131 6q-153 0 -276.5 -42.5t-200 -114t-116.5 -159.5t-40 -184t40.5 -184t117 -158.5t199.5 -113t276 -42.5 q42 0 69 2v406zM788 1475h62q0 -78 -57 -131.5t-148 -53.5t-148 53.5t-57 131.5h62q0 -55 39 -89t104 -34t104 34t39 89z" />
<glyph unicode="&#xf67e;" horiz-adv-x="1050" d="M866 463h62v-463q-68 -6 -131 -6q-168 0 -303 47.5t-219 127t-128.5 178t-44.5 206.5t44 207t128 179t219.5 127.5t303.5 47.5q63 0 131 -6v-61q-62 6 -131 6q-153 0 -276.5 -42.5t-200 -114t-116.5 -159.5t-40 -184t40.5 -184t117 -158.5t199.5 -113t276 -42.5 q42 0 69 2v406zM829 1282l-49 -37l-135 170l-133 -170l-49 37l182 236z" />
<glyph unicode="&#xf67f;" horiz-adv-x="1050" d="M866 463h62v-463q-68 -6 -131 -6q-168 0 -303 47.5t-219 127t-128.5 178t-44.5 206.5t44 207t128 179t219.5 127.5t303.5 47.5q63 0 131 -6v-61q-62 6 -131 6q-153 0 -276.5 -42.5t-200 -114t-116.5 -159.5t-40 -184t40.5 -184t117 -158.5t199.5 -113t276 -42.5 q42 0 69 2v406zM645 -102h123v-144q0 -118 -96 -153l-21 57q56 18 56 96v31h-62v113z" />
<glyph unicode="&#xf680;" horiz-adv-x="1050" d="M866 463h62v-463q-68 -6 -131 -6q-168 0 -303 47.5t-219 127t-128.5 178t-44.5 206.5t44 207t128 179t219.5 127.5t303.5 47.5q63 0 131 -6v-61q-62 6 -131 6q-153 0 -276.5 -42.5t-200 -114t-116.5 -159.5t-40 -184t40.5 -184t117 -158.5t199.5 -113t276 -42.5 q42 0 69 2v406zM594 1331v103h102v-103h-102z" />
<glyph unicode="&#xf681;" horiz-adv-x="1081" d="M197 664h688v249h-688v-249zM8 913v62h127v123h62v-123h688v123h61v-123h127v-62h-127v-913h-61v602h-688v-602h-62v913h-127z" />
<glyph unicode="&#xf682;" horiz-adv-x="1081" d="M946 0h-61v602h-688v-602h-62v1098h62v-434h688v434h61v-1098zM725 1282l-49 -37l-135 170l-133 -170l-50 37l183 236z" />
<glyph unicode="&#xf683;" d="M143 1098h62v-1098h-62v1098zM317 1475h62q0 -78 -57 -131.5t-148 -53.5t-148 53.5t-57 131.5h62q0 -55 39 -89t104 -34t104 34t39 89z" />
<glyph unicode="&#xf684;" horiz-adv-x="1275" d="M143 1098h62v-1098h-62v1098zM1092 475v623h61v-641q0 -202 -115.5 -339.5t-294.5 -137.5q-164 0 -303 139l43 47q135 -125 260 -125q124 0 210.5 78.5t117.5 195.5q21 77 21 160z" />
<glyph unicode="&#xf685;" d="M143 1098h62v-1098h-62v1098zM-92 1352v61h532v-61h-532z" />
<glyph unicode="&#xf686;" d="M211 -133l33 -53q-51 -31 -94 -31q-46 0 -75.5 26.5t-29.5 69.5q0 77 98 133v1086h62v-1098h-19l15 -25q-95 -49 -95 -96q0 -15 12.5 -25t31.5 -10q25 0 61 23z" />
<glyph unicode="&#xf687;" d="M143 1098h62v-1098h-62v1098zM367 1446l49 -37q-26 -48 -66 -72t-80 -24q-56 0 -114 43q-45 33 -80 33q-25 0 -51.5 -18.5t-42.5 -53.5l-50 37q25 47 64 71.5t80 24.5q60 0 117 -45q42 -31 77 -31q25 0 52.5 18.5t44.5 53.5z" />
<glyph unicode="&#xf688;" horiz-adv-x="937" d="M754 475v623h61v-641q0 -202 -115 -339.5t-294 -137.5q-165 0 -304 139l43 47q135 -125 261 -125q124 0 210 78.5t117 195.5q21 77 21 160zM969 1282l-49 -37l-136 170l-133 -170l-49 37l182 236z" />
<glyph unicode="&#xf689;" horiz-adv-x="1167" d="M1065 27l-37 -50l-698 551l-133 -98v-430h-62v1098h62v-590l831 612l37 -49l-684 -506zM539 -102h123v-144q0 -118 -97 -153l-20 57q55 18 55 96v31h-61v113z" />
<glyph unicode="&#xf68a;" horiz-adv-x="970" d="M135 1098h62v-1037h671v-61h-733v1098zM61 1245l-36 49l309 224l37 -50z" />
<glyph unicode="&#xf68b;" horiz-adv-x="970" d="M135 1098h62v-1037h671v-61h-733v1098zM319 1098h123v-144q0 -118 -96 -153l-20 57q55 18 55 96v31h-62v113z" />
<glyph unicode="&#xf68c;" horiz-adv-x="970" d="M135 1098h62v-1037h671v-61h-733v1098zM440 -102h123v-144q0 -118 -96 -153l-21 57q56 18 56 96v31h-62v113z" />
<glyph unicode="&#xf68d;" horiz-adv-x="970" d="M135 1098h62v-1037h671v-61h-733v1098zM444 584v102h103v-102h-103z" />
<glyph unicode="&#xf68e;" horiz-adv-x="1124" d="M197 0h-62v1145l793 -1016v969h61v-1145l-792 1016v-969zM426 1245l-37 49l309 224l37 -50z" />
<glyph unicode="&#xf68f;" horiz-adv-x="1124" d="M197 0h-62v1145l793 -1016v969h61v-1145l-792 1016v-969zM696 1518l49 -37l-184 -236l-182 236l49 37l133 -170z" />
<glyph unicode="&#xf690;" horiz-adv-x="1124" d="M197 0h-62v1145l793 -1016v969h61v-1145l-792 1016v-969zM500 -102h123v-144q0 -118 -97 -153l-20 57q55 18 55 96v31h-61v113z" />
<glyph unicode="&#xf691;" horiz-adv-x="1343" d="M102 549q0 154 76.5 285t208 207.5t285.5 76.5t285 -76.5t207.5 -207.5t76.5 -285t-76.5 -285t-207.5 -207.5t-285 -76.5t-285.5 76.5t-208 207.5t-76.5 285zM164 549q0 -138 68 -255t185 -185t255 -68t255 68t185 185t68 255t-68 255t-185 185t-255 68t-255 -68 t-185 -185t-68 -255zM815 1475h62q0 -78 -57 -131.5t-148 -53.5t-148 53.5t-57 131.5h61q0 -55 39.5 -89t104.5 -34t104 34t39 89z" />
<glyph unicode="&#xf692;" horiz-adv-x="1343" d="M102 549q0 154 76.5 285t208 207.5t285.5 76.5t285 -76.5t207.5 -207.5t76.5 -285t-76.5 -285t-207.5 -207.5t-285 -76.5t-285.5 76.5t-208 207.5t-76.5 285zM164 549q0 -138 68 -255t185 -185t255 -68t255 68t185 185t68 255t-68 255t-185 185t-255 68t-255 -68 t-185 -185t-68 -255zM711 1245l-37 49l309 224l37 -50zM461 1245l-37 49l309 224l37 -50z" />
<glyph unicode="&#xf693;" horiz-adv-x="1343" d="M102 549q0 154 76.5 285t208 207.5t285.5 76.5t285 -76.5t207.5 -207.5t76.5 -285t-76.5 -285t-207.5 -207.5t-285 -76.5t-285.5 76.5t-208 207.5t-76.5 285zM164 549q0 -138 68 -255t185 -185t255 -68t255 68t185 185t68 255t-68 255t-185 185t-255 68t-255 -68 t-185 -185t-68 -255zM406 1352v61h532v-61h-532z" />
<glyph unicode="&#xf694;" horiz-adv-x="1343" d="M102 549q0 154 76.5 285t208 207.5t285.5 76.5q216 0 377 -145l147 147l45 -45l-147 -147q147 -160 147 -379q0 -154 -76.5 -285t-207.5 -207.5t-285 -76.5q-220 0 -379 143l-146 -146l-45 46l146 145q-146 165 -146 381zM164 549q0 -195 127 -338l717 719 q-143 127 -336 127q-138 0 -255 -68t-185 -185t-68 -255zM1180 549q0 189 -127 336l-717 -719q144 -125 336 -125q138 0 255 68t185 185t68 255zM537 1245l-37 49l309 224l37 -50z" />
<glyph unicode="&#xf695;" horiz-adv-x="876" d="M244 418q-31 0 -47 2v-420h-62v1100q47 6 109 6q235 0 366 -97.5t131 -248.5q0 -69 -28 -127t-73 -95t-89.5 -60t-89.5 -34l323 -426l-51 -32l-340 444q-79 -12 -149 -12zM197 1042v-561q14 -2 47 -2q113 0 209 28t161.5 93.5t65.5 159.5q0 123 -112 203.5t-324 80.5 q-33 0 -47 -2zM270 1245l-37 49l310 224l37 -50z" />
<glyph unicode="&#xf696;" horiz-adv-x="876" d="M244 418q-31 0 -47 2v-420h-62v1100q47 6 109 6q235 0 366 -97.5t131 -248.5q0 -69 -28 -127t-73 -95t-89.5 -60t-89.5 -34l323 -426l-51 -32l-340 444q-79 -12 -149 -12zM197 1042v-561q14 -2 47 -2q113 0 209 28t161.5 93.5t65.5 159.5q0 123 -112 203.5t-324 80.5 q-33 0 -47 -2zM485 1518l50 -37l-185 -236l-182 236l49 37l133 -170z" />
<glyph unicode="&#xf697;" horiz-adv-x="876" d="M244 418q-31 0 -47 2v-420h-62v1100q47 6 109 6q235 0 366 -97.5t131 -248.5q0 -69 -28 -127t-73 -95t-89.5 -60t-89.5 -34l323 -426l-51 -32l-340 444q-79 -12 -149 -12zM197 1042v-561q14 -2 47 -2q113 0 209 28t161.5 93.5t65.5 159.5q0 123 -112 203.5t-324 80.5 q-33 0 -47 -2zM397 -102h123v-144q0 -118 -96 -153l-21 57q56 18 56 96v31h-62v113z" />
<glyph unicode="&#xf698;" horiz-adv-x="1044" d="M117 215l57 27q45 -100 133.5 -147.5t204.5 -47.5q157 0 261 72t104 200q0 23 -6.5 42.5t-16 35t-27.5 29t-33 23t-41.5 18.5t-43.5 14.5t-48.5 12t-47 9t-48.5 8l-45 7.5t-37 6q-47 8 -72 12.5t-71 15.5t-73 22t-61.5 30.5t-53.5 43t-32.5 57t-13.5 73.5 q0 109 61.5 186.5t155.5 112.5t209 35q135 0 245.5 -60t152.5 -175l-56 -25q-41 97 -133.5 148t-208.5 51q-161 0 -262.5 -70.5t-101.5 -202.5q0 -30 11.5 -55t27 -42t46.5 -32.5t55 -24.5t68 -18t70 -13.5t76 -12.5q166 -26 222 -43q161 -48 188 -163q6 -26 6 -55 q0 -83 -33.5 -147.5t-92.5 -104.5t-135 -60.5t-165 -20.5q-293 0 -395 229zM387 1245l-37 49l309 224l37 -50z" />
<glyph unicode="&#xf699;" horiz-adv-x="1044" d="M438 -221l21 57q19 -8 47 -8q61 0 61 41q0 20 -65 20h-27l23 97q-282 6 -381 229l57 27q45 -100 133.5 -147.5t204.5 -47.5q157 0 261 72t104 200q0 23 -6.5 42.5t-16 35t-27.5 29t-33 23t-41.5 18.5t-43.5 14.5t-48.5 12t-47 9t-48.5 8l-45 7.5t-37 6q-47 8 -72 12.5 t-71 15.5t-73 22t-61.5 30.5t-53.5 43t-32.5 57t-13.5 73.5q0 109 61.5 186.5t155.5 112.5t209 35q135 0 245.5 -60t152.5 -175l-56 -25q-41 97 -133.5 148t-208.5 51q-161 0 -262.5 -70.5t-101.5 -202.5q0 -30 11.5 -55t27 -42t46.5 -32.5t55 -24.5t68 -18t70 -13.5 t76 -12.5q166 -26 222 -43q161 -48 188 -163q6 -26 6 -55q0 -151 -103.5 -234.5t-271.5 -96.5l-8 -35q33 -6 53.5 -28t20.5 -56q0 -50 -37 -76t-88 -26q-36 0 -66 12z" />
<glyph unicode="&#xf69a;" horiz-adv-x="1044" d="M117 215l57 27q45 -100 133.5 -147.5t204.5 -47.5q157 0 261 72t104 200q0 23 -6.5 42.5t-16 35t-27.5 29t-33 23t-41.5 18.5t-43.5 14.5t-48.5 12t-47 9t-48.5 8l-45 7.5t-37 6q-47 8 -72 12.5t-71 15.5t-73 22t-61.5 30.5t-53.5 43t-32.5 57t-13.5 73.5 q0 109 61.5 186.5t155.5 112.5t209 35q135 0 245.5 -60t152.5 -175l-56 -25q-41 97 -133.5 148t-208.5 51q-161 0 -262.5 -70.5t-101.5 -202.5q0 -30 11.5 -55t27 -42t46.5 -32.5t55 -24.5t68 -18t70 -13.5t76 -12.5q166 -26 222 -43q161 -48 188 -163q6 -26 6 -55 q0 -83 -33.5 -147.5t-92.5 -104.5t-135 -60.5t-165 -20.5q-293 0 -395 229zM707 1282l-50 -37l-135 170l-133 -170l-49 37l182 236z" />
<glyph unicode="&#xf69b;" horiz-adv-x="1044" d="M117 215l57 27q45 -100 133.5 -147.5t204.5 -47.5q157 0 261 72t104 200q0 23 -6.5 42.5t-16 35t-27.5 29t-33 23t-41.5 18.5t-43.5 14.5t-48.5 12t-47 9t-48.5 8l-45 7.5t-37 6q-47 8 -72 12.5t-71 15.5t-73 22t-61.5 30.5t-53.5 43t-32.5 57t-13.5 73.5 q0 109 61.5 186.5t155.5 112.5t209 35q135 0 245.5 -60t152.5 -175l-56 -25q-41 97 -133.5 148t-208.5 51q-161 0 -262.5 -70.5t-101.5 -202.5q0 -30 11.5 -55t27 -42t46.5 -32.5t55 -24.5t68 -18t70 -13.5t76 -12.5q166 -26 222 -43q161 -48 188 -163q6 -26 6 -55 q0 -83 -33.5 -147.5t-92.5 -104.5t-135 -60.5t-165 -20.5q-293 0 -395 229zM461 -102h123v-144q0 -118 -97 -153l-20 57q55 18 55 96v31h-61v113z" />
<glyph unicode="&#xf69c;" horiz-adv-x="1077" d="M272 604v62h236v370h-406v62h873v-62h-406v-370h236v-62h-236v-604h-61v604h-236z" />
<glyph unicode="&#xf69d;" horiz-adv-x="1077" d="M569 0h-61v1036h-406v62h873v-62h-406v-1036zM674 1518l49 -37l-184 -236l-183 236l50 37l133 -170z" />
<glyph unicode="&#xf69e;" horiz-adv-x="1077" d="M569 0h-61v1036h-406v62h873v-62h-406v-1036zM477 -102h123v-144q0 -118 -96 -153l-21 57q56 18 56 96v31h-62v113z" />
<glyph unicode="&#xf69f;" horiz-adv-x="1101" d="M123 1098h61v-703q0 -153 106.5 -253.5t260.5 -100.5t260.5 100.5t106.5 253.5v703h61v-703q0 -185 -124.5 -300t-303.5 -115q-116 0 -213 51.5t-156 147t-59 216.5v703zM694 1475h62q0 -78 -57 -131.5t-148 -53.5t-148 53.5t-57 131.5h62q0 -55 39 -89t104 -34t104 34 t39 89z" />
<glyph unicode="&#xf6a0;" horiz-adv-x="1101" d="M123 1098h61v-703q0 -153 106.5 -253.5t260.5 -100.5t260.5 100.5t106.5 253.5v703h61v-703q0 -185 -124.5 -300t-303.5 -115q-116 0 -213 51.5t-156 147t-59 216.5v703zM602 1245l-37 49l309 224l37 -50zM352 1245l-37 49l310 224l37 -50z" />
<glyph unicode="&#xf6a1;" horiz-adv-x="1101" d="M123 1098h61v-703q0 -153 106.5 -253.5t260.5 -100.5t260.5 100.5t106.5 253.5v703h61v-703q0 -185 -124.5 -300t-303.5 -115q-116 0 -213 51.5t-156 147t-59 216.5v703zM285 1352v61h532v-61h-532z" />
<glyph unicode="&#xf6a2;" horiz-adv-x="1101" d="M616 -160l33 -53q-51 -31 -94 -31q-46 0 -75 27t-29 70q0 72 86 127q-173 5 -293.5 120.5t-120.5 294.5v703h61v-703q0 -153 106.5 -253.5t260.5 -100.5t260.5 100.5t106.5 253.5v703h61v-703q0 -175 -112 -288t-279 -125l18 -33q-94 -48 -94 -96q0 -15 12 -25t31 -10 q27 0 61 22z" />
<glyph unicode="&#xf6a3;" horiz-adv-x="1101" d="M123 1098h61v-703q0 -153 106.5 -253.5t260.5 -100.5t260.5 100.5t106.5 253.5v703h61v-703q0 -185 -124.5 -300t-303.5 -115q-116 0 -213 51.5t-156 147t-59 216.5v703zM414 1382q0 57 40 97.5t97 40.5t97 -40.5t40 -97.5t-40 -97t-97 -40t-97 40t-40 97zM475 1382 q0 -31 22.5 -53t53.5 -22t53.5 22t22.5 53t-22.5 53.5t-53.5 22.5t-53.5 -22.5t-22.5 -53.5z" />
<glyph unicode="&#xf6a4;" horiz-adv-x="1101" d="M123 1098h61v-703q0 -153 106.5 -253.5t260.5 -100.5t260.5 100.5t106.5 253.5v703h61v-703q0 -185 -124.5 -300t-303.5 -115q-116 0 -213 51.5t-156 147t-59 216.5v703zM743 1446l50 -37q-26 -48 -66 -72t-80 -24q-57 0 -115 43q-45 33 -79 33q-25 0 -52 -18.5 t-43 -53.5l-49 37q25 47 64 71.5t80 24.5q59 0 116 -45q42 -31 78 -31q24 0 51.5 18t44.5 54z" />
<glyph unicode="&#xf6a5;" horiz-adv-x="1593" d="M662 1245l-37 49l309 224l37 -50zM618 1087l58 21l121 -313l121 313l57 -21l-146 -376l226 -584l379 981l57 -21l-436 -1128l-258 668l-258 -668l-437 1128l58 21l379 -981l225 584z" />
<glyph unicode="&#xf6a6;" horiz-adv-x="1593" d="M981 1282l-49 -37l-135 170l-133 -170l-50 37l183 236zM618 1087l58 21l121 -313l121 313l57 -21l-146 -376l226 -584l379 981l57 -21l-436 -1128l-258 668l-258 -668l-437 1128l58 21l379 -981l225 584z" />
<glyph unicode="&#xf6a7;" horiz-adv-x="1593" d="M608 1331v103h103v-103h-103zM885 1331v103h102v-103h-102zM618 1087l58 21l121 -313l121 313l57 -21l-146 -376l226 -584l379 981l57 -21l-436 -1128l-258 668l-258 -668l-437 1128l58 21l379 -981l225 584z" />
<glyph unicode="&#xf6a8;" horiz-adv-x="1593" d="M971 1294l-37 -49l-309 223l37 50zM618 1087l58 21l121 -313l121 313l57 -21l-146 -376l226 -584l379 981l57 -21l-436 -1128l-258 668l-258 -668l-437 1128l58 21l379 -981l225 584z" />
<glyph unicode="&#xf6a9;" horiz-adv-x="1132" d="M594 0h-62v539l-430 538l45 39l416 -518l422 522l45 -43l-436 -538v-539zM748 1282l-50 -37l-135 170l-133 -170l-49 37l182 236z" />
<glyph unicode="&#xf6aa;" horiz-adv-x="1132" d="M594 0h-62v539l-430 538l45 39l416 -518l422 522l45 -43l-436 -538v-539zM737 1294l-37 -49l-309 223l37 50z" />
<glyph unicode="&#xf6ab;" horiz-adv-x="1093" d="M102 1036v62h897l-780 -1037h772v-61h-897l780 1036h-772zM412 1245l-37 49l309 224l37 -50z" />
<glyph unicode="&#xf6ac;" horiz-adv-x="1093" d="M102 1036v62h897l-780 -1037h772v-61h-897l780 1036h-772zM496 1331v103h102v-103h-102z" />
<glyph unicode="&#xf6ad;" d="M143 1098h62v-1098h-62v1098zM123 1331v103h102v-103h-102z" />
<glyph unicode="&#xf6b4;" d="M143 0v1098h62v-1098h-62zM113 1311v123h123v-123h-123z" />
<glyph unicode="&#xf6b5;" horiz-adv-x="1028" d="M510 1098h61v-166q0 -181 -196 -281q-42 -24 -65 -39t-55.5 -43t-49 -55.5t-29 -69.5t-12.5 -92q0 -98 54.5 -173t137 -111.5t174.5 -36.5q237 0 340 202l56 -24q-118 -240 -394 -240q-78 0 -153 24.5t-137.5 70.5t-101 121t-38.5 167q0 121 59.5 206t178.5 147 q83 43 126.5 94.5t43.5 132.5v166zM602 1434v-123h-123v123h123z" />
<glyph unicode="&#xf6be;" d="M-250 -475l53 29q54 -93 148 -93q82 0 137 71.5t55 193.5v1372h62v-1372q0 -149 -73 -237.5t-181 -88.5q-132 0 -201 125z" />
<glyph unicode="&#xf6c3;" horiz-adv-x="368" d="M123 -102h123v-144q0 -118 -96 -153l-21 57q55 18 55 96v31h-61v113z" />
<glyph unicode="&#xf6f9;" horiz-adv-x="970" d="M31 571l-37 50l141 102v375h62v-332l145 104l37 -49l-182 -131v-629h671v-61h-733v647z" />
<glyph unicode="&#xf6fa;" horiz-adv-x="2109" d="M164 549q0 -141 69 -260.5t188 -188.5t259 -69t259 69t188 188.5t69 260.5t-69 260.5t-188 188.5t-259 69t-259 -69t-188 -188.5t-69 -260.5zM2007 0h-811v289q-73 -145 -211.5 -232.5t-304.5 -87.5q-157 0 -290 78t-210.5 211.5t-77.5 290.5t77.5 290.5t210.5 211 t290 77.5q166 0 304.5 -87.5t211.5 -231.5v289h811v-62h-750v-372h615v-62h-615v-541h750v-61z" />
<glyph unicode="&#xf6fd;" horiz-adv-x="1044" d="M117 215l57 27q45 -100 133.5 -147.5t204.5 -47.5q157 0 261 72t104 200q0 23 -6.5 42.5t-16 35t-27.5 29t-33 23t-41.5 18.5t-43.5 14.5t-48.5 12t-47 9t-48.5 8l-45 7.5t-37 6q-47 8 -72 12.5t-71 15.5t-73 22t-61.5 30.5t-53.5 43t-32.5 57t-13.5 73.5 q0 109 61.5 186.5t155.5 112.5t209 35q135 0 245.5 -60t152.5 -175l-56 -25q-41 97 -133.5 148t-208.5 51q-161 0 -262.5 -70.5t-101.5 -202.5q0 -30 11.5 -55t27 -42t46.5 -32.5t55 -24.5t68 -18t70 -13.5t76 -12.5q166 -26 222 -43q161 -48 188 -163q6 -26 6 -55 q0 -83 -33.5 -147.5t-92.5 -104.5t-135 -60.5t-165 -20.5q-293 0 -395 229zM657 1518l50 -37l-185 -236l-182 236l49 37l133 -170z" />
<glyph unicode="&#xf6ff;" horiz-adv-x="1093" d="M102 1036v62h897l-780 -1037h772v-61h-897l780 1036h-772zM682 1518l49 -37l-184 -236l-182 236l49 37l133 -170z" />
<glyph unicode="&#xf721;" d="M143 336v762h62v-762h-62zM113 0v123h123v-123h-123z" />
<glyph unicode="&#xf726;" horiz-adv-x="923" d="M821 635v-62h-98v-571q-65 -6 -127 -6q-117 0 -211.5 27t-152.5 72t-88.5 101t-30.5 117q0 94 70 174.5t200 118.5q-79 36 -120.5 97.5t-41.5 134.5q0 108 92.5 189t255.5 81q24 0 74 -4l-4 -62q-63 5 -70 5q-135 0 -210.5 -62t-75.5 -147q0 -81 73 -142t199 -61h107v96 h61v-96h98zM662 573h-84q-186 0 -295 -80.5t-109 -179.5q0 -105 111 -180.5t311 -75.5q46 0 66 2v514z" />
<glyph unicode="&#xf73f;" horiz-adv-x="792" d="M315 0v123h123v-123h-123zM408 336h-62v115q0 69 35.5 116t107.5 88q68 38 104 83t36 116q0 98 -74.5 155.5t-171.5 57.5q-160 0 -227 -137l-54 28q83 170 281 170q76 0 144.5 -30t115.5 -94t47 -150q0 -92 -43.5 -148.5t-128.5 -103.5q-56 -31 -83 -66t-27 -85v-115z " />
<glyph unicode="&#xf761;" horiz-adv-x="1052" d="M803 223h-557l-88 -237l-56 26l424 1129l424 -1129l-55 -26zM526 971l-258 -686h510z" />
<glyph unicode="&#xf762;" horiz-adv-x="847" d="M135 1098q72 8 101 8q49 0 97 -9.5t94 -31t81 -52t56.5 -77t21.5 -102.5q0 -72 -43 -133t-109 -91q136 -28 223.5 -112.5t87.5 -190.5q0 -98 -70 -171.5t-180.5 -109.5t-242.5 -36q-73 0 -117 10v1098zM535 512q-51 26 -113.5 39t-107 15.5t-117.5 2.5v-514q23 -4 73 -4 q101 0 195 30t156.5 89t62.5 133q0 60 -40 117t-109 92zM197 1042v-409q16 -4 53 -4q105 0 189.5 57.5t84.5 147.5q0 96 -86.5 153t-206.5 57q-20 0 -34 -2z" />
<glyph unicode="&#xf763;" horiz-adv-x="1030" d="M924 53l4 -61q-68 -6 -131 -6q-168 0 -303 48t-219 128t-128.5 179.5t-44.5 207.5t44.5 208t128.5 180.5t219.5 128.5t302.5 48q63 0 131 -6l-4 -61q-67 6 -127 6q-152 0 -275.5 -43.5t-200 -115.5t-117 -160.5t-40.5 -184.5t40.5 -184.5t117 -160t199.5 -114.5t276 -43 q59 0 127 6z" />
<glyph unicode="&#xf764;" horiz-adv-x="1089" d="M293 55q153 0 276 42.5t199.5 113t117 158.5t40.5 184t-40.5 184t-117 159.5t-199.5 114t-276 42.5q-30 0 -96 -4v-992q35 -2 96 -2zM293 1114q168 0 303 -47.5t218.5 -127t128 -179t44.5 -207.5t-44.5 -206.5t-128 -178t-219 -127t-302.5 -47.5q-79 0 -158 6v1106 q106 8 158 8z" />
<glyph unicode="&#xf765;" horiz-adv-x="1058" d="M946 0h-811v1098h811v-62h-749v-372h614v-62h-614v-541h749v-61z" />
<glyph unicode="&#xf766;" horiz-adv-x="1048" d="M197 0h-62v1098h811v-62h-749v-372h614v-62h-614v-602z" />
<glyph unicode="&#xf767;" horiz-adv-x="1050" d="M866 463h62v-463q-68 -6 -131 -6q-168 0 -303 47.5t-219 127t-128.5 178t-44.5 206.5t44 207t128 179t219.5 127.5t303.5 47.5q63 0 131 -6v-61q-62 6 -131 6q-153 0 -276.5 -42.5t-200 -114t-116.5 -159.5t-40 -184t40.5 -184t117 -158.5t199.5 -113t276 -42.5 q42 0 69 2v406z" />
<glyph unicode="&#xf768;" horiz-adv-x="1081" d="M946 0h-61v602h-688v-602h-62v1098h62v-434h688v434h61v-1098z" />
<glyph unicode="&#xf769;" d="M143 1098h62v-1098h-62v1098z" />
<glyph unicode="&#xf76a;" horiz-adv-x="927" d="M743 475v623h62v-641q0 -202 -115.5 -339.5t-294.5 -137.5q-164 0 -303 139l43 47q135 -125 260 -125q124 0 210.5 78.5t117.5 195.5q20 73 20 160z" />
<glyph unicode="&#xf76b;" horiz-adv-x="1167" d="M1065 27l-37 -50l-698 551l-133 -98v-430h-62v1098h62v-590l831 612l37 -49l-684 -506z" />
<glyph unicode="&#xf76c;" horiz-adv-x="970" d="M135 1098h62v-1037h671v-61h-733v1098z" />
<glyph unicode="&#xf76d;" horiz-adv-x="1327" d="M197 0h-62v1147l529 -989l528 989v-1147h-62v903l-466 -876l-467 876v-903z" />
<glyph unicode="&#xf76e;" horiz-adv-x="1124" d="M197 0h-62v1145l793 -1016v969h61v-1145l-792 1016v-969z" />
<glyph unicode="&#xf76f;" horiz-adv-x="1343" d="M102 549q0 154 76.5 285t208 207.5t285.5 76.5t285 -76.5t207.5 -207.5t76.5 -285t-76.5 -285t-207.5 -207.5t-285 -76.5t-285.5 76.5t-208 207.5t-76.5 285zM164 549q0 -138 68 -255t185 -185t255 -68t255 68t185 185t68 255t-68 255t-185 185t-255 68t-255 -68 t-185 -185t-68 -255z" />
<glyph unicode="&#xf770;" horiz-adv-x="843" d="M244 418q-31 0 -47 2v-420h-62v1100q47 6 109 6q235 0 366 -97.5t131 -248.5q0 -150 -131 -246t-366 -96zM197 1042v-561q14 -2 47 -2q113 0 209 28t161.5 93.5t65.5 159.5q0 123 -112 203.5t-324 80.5q-33 0 -47 -2z" />
<glyph unicode="&#xf771;" horiz-adv-x="1343" d="M102 549q0 154 76.5 285t208 207.5t285.5 76.5t285 -76.5t207.5 -207.5t76.5 -285q0 -224 -151 -385l141 -141q-32 -28 -45 -41l-139 139q-160 -141 -375 -141q-154 0 -285.5 76.5t-208 207.5t-76.5 285zM164 549q0 -138 68 -255t185 -185t255 -68q190 0 332 123 l-136 135l45 41l134 -133q133 146 133 342q0 138 -68 255t-185 185t-255 68t-255 -68t-185 -185t-68 -255z" />
<glyph unicode="&#xf772;" horiz-adv-x="876" d="M244 418q-31 0 -47 2v-420h-62v1100q47 6 109 6q235 0 366 -97.5t131 -248.5q0 -69 -28 -127t-73 -95t-89.5 -60t-89.5 -34l323 -426l-51 -32l-340 444q-79 -12 -149 -12zM197 1042v-561q14 -2 47 -2q113 0 209 28t161.5 93.5t65.5 159.5q0 123 -112 203.5t-324 80.5 q-33 0 -47 -2z" />
<glyph unicode="&#xf773;" horiz-adv-x="1044" d="M117 215l57 27q45 -100 133.5 -147.5t204.5 -47.5q157 0 261 72t104 200q0 23 -6.5 42.5t-16 35t-27.5 29t-33 23t-41.5 18.5t-43.5 14.5t-48.5 12t-47 9t-48.5 8l-45 7.5t-37 6q-47 8 -72 12.5t-71 15.5t-73 22t-61.5 30.5t-53.5 43t-32.5 57t-13.5 73.5 q0 109 61.5 186.5t155.5 112.5t209 35q135 0 245.5 -60t152.5 -175l-56 -25q-41 97 -133.5 148t-208.5 51q-161 0 -262.5 -70.5t-101.5 -202.5q0 -30 11.5 -55t27 -42t46.5 -32.5t55 -24.5t68 -18t70 -13.5t76 -12.5q166 -26 222 -43q161 -48 188 -163q6 -26 6 -55 q0 -83 -33.5 -147.5t-92.5 -104.5t-135 -60.5t-165 -20.5q-293 0 -395 229z" />
<glyph unicode="&#xf774;" horiz-adv-x="1077" d="M569 0h-61v1036h-406v62h873v-62h-406v-1036z" />
<glyph unicode="&#xf775;" horiz-adv-x="1101" d="M123 1098h61v-703q0 -153 106.5 -253.5t260.5 -100.5t260.5 100.5t106.5 253.5v703h61v-703q0 -185 -124.5 -300t-303.5 -115q-116 0 -213 51.5t-156 147t-59 216.5v703z" />
<glyph unicode="&#xf776;" horiz-adv-x="1077" d="M102 1087l58 21l379 -981l379 981l57 -21l-436 -1128z" />
<glyph unicode="&#xf777;" horiz-adv-x="1593" d="M618 1087l58 21l121 -313l121 313l57 -21l-146 -376l226 -584l379 981l57 -21l-436 -1128l-258 668l-258 -668l-437 1128l58 21l379 -981l225 584z" />
<glyph unicode="&#xf778;" horiz-adv-x="1134" d="M152 -18l-50 36l426 531l-426 530l50 37l415 -518l416 518l49 -37l-426 -530l426 -531l-49 -36l-416 516z" />
<glyph unicode="&#xf779;" horiz-adv-x="1132" d="M594 0h-62v539l-430 538l45 39l416 -518l422 522l45 -43l-436 -538v-539z" />
<glyph unicode="&#xf77a;" horiz-adv-x="1093" d="M102 1036v62h897l-780 -1037h772v-61h-897l780 1036h-772z" />
<glyph unicode="&#xf7a1;" d="M205 762v-762h-62v762h62zM236 1098v-123h-123v123h123z" />
<glyph unicode="&#xf7bf;" horiz-adv-x="792" d="M475 1098v-123h-123v123h123zM383 762h61v-115q0 -69 -35.5 -116.5t-107.5 -88.5q-68 -38 -103.5 -82.5t-35.5 -115.5q0 -98 74.5 -155.5t171.5 -57.5q160 0 227 137l53 -29q-83 -170 -280 -170q-76 0 -145 30t-116 94.5t-47 150.5q0 92 43.5 148.5t128.5 103.5 q56 31 83.5 66t27.5 85v115z" />
<glyph unicode="&#xf7e0;" horiz-adv-x="1052" d="M829 223h-557l-88 -237l-55 26l424 1129l424 -1129l-55 -26zM553 971l-258 -686h510zM688 1294l-37 -49l-309 223l37 50z" />
<glyph unicode="&#xf7e1;" horiz-adv-x="1052" d="M829 223h-557l-88 -237l-55 26l424 1129l424 -1129l-55 -26zM553 971l-258 -686h510zM420 1245l-37 49l309 224l37 -50z" />
<glyph unicode="&#xf7e2;" horiz-adv-x="1052" d="M829 223h-557l-88 -237l-55 26l424 1129l424 -1129l-55 -26zM553 971l-258 -686h510zM698 1282l-49 -37l-135 170l-133 -170l-49 37l182 236z" />
<glyph unicode="&#xf7e3;" horiz-adv-x="1052" d="M829 223h-557l-88 -237l-55 26l424 1129l424 -1129l-55 -26zM553 971l-258 -686h510zM707 1446l49 -37q-26 -48 -66 -72t-80 -24q-56 0 -114 43q-45 33 -80 33q-25 0 -51.5 -18.5t-42.5 -53.5l-50 37q25 47 64 71.5t80 24.5q59 0 116 -45q42 -31 78 -31q25 0 52.5 18.5 t44.5 53.5z" />
<glyph unicode="&#xf7e4;" horiz-adv-x="1052" d="M829 223h-557l-88 -237l-55 26l424 1129l424 -1129l-55 -26zM553 971l-258 -686h510zM326 1331v103h102v-103h-102zM602 1331v103h103v-103h-103z" />
<glyph unicode="&#xf7e5;" horiz-adv-x="1052" d="M829 223h-557l-88 -237l-55 26l424 1129l424 -1129l-55 -26zM553 971l-258 -686h510zM377 1382q0 57 40 97.5t97 40.5t97 -40.5t40 -97.5t-40 -97t-97 -40t-97 40t-40 97zM438 1382q0 -31 22.5 -53t53.5 -22t53.5 22t22.5 53t-22.5 53.5t-53.5 22.5t-53.5 -22.5 t-22.5 -53.5z" />
<glyph unicode="&#xf7e6;" horiz-adv-x="1531" d="M1419 0h-606v268h-469l-188 -284l-54 32l711 1082h606v-62h-545v-372h410v-62h-410v-541h545v-61zM813 983l-428 -653h428v653z" />
<glyph unicode="&#xf7e7;" horiz-adv-x="1030" d="M522 -207l21 57q19 -8 47 -8q61 0 61 41q0 21 -65 21h-27l29 110q-157 34 -269 118t-164.5 191.5t-52.5 229.5q0 108 44.5 207.5t128.5 179t219 127t303 47.5q63 0 131 -6l-4 -61q-67 6 -127 6q-153 0 -276 -42.5t-199.5 -114t-117 -159.5t-40.5 -184t40.5 -184 t117 -158.5t199.5 -113t276 -42.5q59 0 127 6l4 -61q-68 -6 -131 -6q-70 0 -148 10l-10 -37q33 -6 53.5 -28t20.5 -56q0 -50 -37 -76t-88 -26q-36 0 -66 12z" />
<glyph unicode="&#xf7e8;" horiz-adv-x="1058" d="M946 0h-811v1098h811v-62h-749v-372h614v-62h-614v-541h749v-61zM715 1294l-37 -49l-309 223l37 50z" />
<glyph unicode="&#xf7e9;" horiz-adv-x="1058" d="M946 0h-811v1098h811v-62h-749v-372h614v-62h-614v-541h749v-61zM406 1245l-37 49l309 224l37 -50z" />
<glyph unicode="&#xf7ea;" horiz-adv-x="1058" d="M946 0h-811v1098h811v-62h-749v-372h614v-62h-614v-541h749v-61zM725 1282l-49 -37l-135 170l-133 -170l-50 37l183 236z" />
<glyph unicode="&#xf7eb;" horiz-adv-x="1058" d="M946 0h-811v1098h811v-62h-749v-372h614v-62h-614v-541h749v-61zM352 1331v103h103v-103h-103zM629 1331v103h102v-103h-102z" />
<glyph unicode="&#xf7ec;" d="M143 1098h62v-1098h-62v1098zM348 1294l-37 -49l-309 223l37 50z" />
<glyph unicode="&#xf7ed;" d="M143 1098h62v-1098h-62v1098zM70 1245l-37 49l309 224l37 -50z" />
<glyph unicode="&#xf7ee;" d="M143 1098h62v-1098h-62v1098zM358 1282l-49 -37l-135 170l-133 -170l-49 37l182 236z" />
<glyph unicode="&#xf7ef;" d="M143 1098h62v-1098h-62v1098zM-14 1331v103h102v-103h-102zM262 1331v103h103v-103h-103z" />
<glyph unicode="&#xf7f1;" horiz-adv-x="1124" d="M197 0h-62v1145l793 -1016v969h61v-1145l-792 1016v-969zM754 1446l49 -37q-26 -48 -66 -72t-80 -24q-56 0 -114 43q-45 33 -80 33q-25 0 -51.5 -18.5t-42.5 -53.5l-50 37q25 47 64 71.5t80 24.5q60 0 117 -45q42 -31 77 -31q25 0 52.5 18.5t44.5 53.5z" />
<glyph unicode="&#xf7f2;" horiz-adv-x="1343" d="M102 549q0 154 76.5 285t208 207.5t285.5 76.5t285 -76.5t207.5 -207.5t76.5 -285t-76.5 -285t-207.5 -207.5t-285 -76.5t-285.5 76.5t-208 207.5t-76.5 285zM164 549q0 -138 68 -255t185 -185t255 -68t255 68t185 185t68 255t-68 255t-185 185t-255 68t-255 -68 t-185 -185t-68 -255zM846 1294l-37 -49l-309 223l37 50z" />
<glyph unicode="&#xf7f3;" horiz-adv-x="1343" d="M102 549q0 154 76.5 285t208 207.5t285.5 76.5t285 -76.5t207.5 -207.5t76.5 -285t-76.5 -285t-207.5 -207.5t-285 -76.5t-285.5 76.5t-208 207.5t-76.5 285zM164 549q0 -138 68 -255t185 -185t255 -68t255 68t185 185t68 255t-68 255t-185 185t-255 68t-255 -68 t-185 -185t-68 -255zM537 1245l-37 49l309 224l37 -50z" />
<glyph unicode="&#xf7f4;" horiz-adv-x="1343" d="M102 549q0 154 76.5 285t208 207.5t285.5 76.5t285 -76.5t207.5 -207.5t76.5 -285t-76.5 -285t-207.5 -207.5t-285 -76.5t-285.5 76.5t-208 207.5t-76.5 285zM164 549q0 -138 68 -255t185 -185t255 -68t255 68t185 185t68 255t-68 255t-185 185t-255 68t-255 -68 t-185 -185t-68 -255zM856 1282l-49 -37l-135 170l-133 -170l-50 37l183 236z" />
<glyph unicode="&#xf7f5;" horiz-adv-x="1343" d="M102 549q0 154 76.5 285t208 207.5t285.5 76.5t285 -76.5t207.5 -207.5t76.5 -285t-76.5 -285t-207.5 -207.5t-285 -76.5t-285.5 76.5t-208 207.5t-76.5 285zM164 549q0 -138 68 -255t185 -185t255 -68t255 68t185 185t68 255t-68 255t-185 185t-255 68t-255 -68 t-185 -185t-68 -255zM864 1446l49 -37q-26 -48 -65.5 -72t-79.5 -24q-57 0 -115 43q-45 33 -80 33q-25 0 -51.5 -18.5t-42.5 -53.5l-49 37q25 47 63.5 71.5t79.5 24.5q60 0 117 -45q42 -31 78 -31q24 0 51.5 18t44.5 54z" />
<glyph unicode="&#xf7f6;" horiz-adv-x="1343" d="M102 549q0 154 76.5 285t208 207.5t285.5 76.5t285 -76.5t207.5 -207.5t76.5 -285t-76.5 -285t-207.5 -207.5t-285 -76.5t-285.5 76.5t-208 207.5t-76.5 285zM164 549q0 -138 68 -255t185 -185t255 -68t255 68t185 185t68 255t-68 255t-185 185t-255 68t-255 -68 t-185 -185t-68 -255zM483 1331v103h103v-103h-103zM760 1331v103h102v-103h-102z" />
<glyph unicode="&#xf7f8;" horiz-adv-x="1343" d="M102 549q0 154 76.5 285t208 207.5t285.5 76.5q216 0 377 -145l147 147l45 -45l-147 -147q147 -160 147 -379q0 -154 -76.5 -285t-207.5 -207.5t-285 -76.5q-220 0 -379 143l-146 -146l-45 46l146 145q-146 165 -146 381zM164 549q0 -195 127 -338l717 719 q-143 127 -336 127q-138 0 -255 -68t-185 -185t-68 -255zM1180 549q0 189 -127 336l-717 -719q144 -125 336 -125q138 0 255 68t185 185t68 255z" />
<glyph unicode="&#xf7f9;" horiz-adv-x="1101" d="M123 1098h61v-703q0 -153 106.5 -253.5t260.5 -100.5t260.5 100.5t106.5 253.5v703h61v-703q0 -185 -124.5 -300t-303.5 -115q-116 0 -213 51.5t-156 147t-59 216.5v703zM725 1294l-37 -49l-309 223l37 50z" />
<glyph unicode="&#xf7fa;" horiz-adv-x="1101" d="M123 1098h61v-703q0 -153 106.5 -253.5t260.5 -100.5t260.5 100.5t106.5 253.5v703h61v-703q0 -185 -124.5 -300t-303.5 -115q-116 0 -213 51.5t-156 147t-59 216.5v703zM416 1245l-37 49l309 224l37 -50z" />
<glyph unicode="&#xf7fb;" horiz-adv-x="1101" d="M123 1098h61v-703q0 -153 106.5 -253.5t260.5 -100.5t260.5 100.5t106.5 253.5v703h61v-703q0 -185 -124.5 -300t-303.5 -115q-116 0 -213 51.5t-156 147t-59 216.5v703zM735 1282l-49 -37l-135 170l-133 -170l-49 37l182 236z" />
<glyph unicode="&#xf7fc;" horiz-adv-x="1101" d="M123 1098h61v-703q0 -153 106.5 -253.5t260.5 -100.5t260.5 100.5t106.5 253.5v703h61v-703q0 -185 -124.5 -300t-303.5 -115q-116 0 -213 51.5t-156 147t-59 216.5v703zM362 1331v103h103v-103h-103zM639 1331v103h102v-103h-102z" />
<glyph unicode="&#xf7fd;" horiz-adv-x="1132" d="M594 0h-62v539l-430 538l45 39l416 -518l422 522l45 -43l-436 -538v-539zM428 1245l-37 49l309 224l37 -50z" />
<glyph unicode="&#xf7fe;" horiz-adv-x="802" d="M197 1098v-207q50 4 71 4q105 0 189 -29t136 -78t79.5 -109.5t27.5 -127.5q0 -65 -27.5 -125.5t-79 -110t-135.5 -79t-188 -29.5q-48 0 -73 2v-209h-62v1098h62zM268 834q-9 0 -71 -5v-559q27 -2 73 -2q174 0 271.5 84t97.5 199t-98 199t-273 84z" />
<glyph unicode="&#xf7ff;" horiz-adv-x="1132" d="M594 0h-62v539l-430 538l45 39l416 -518l422 522l45 -43l-436 -538v-539zM375 1331v103h102v-103h-102zM651 1331v103h103v-103h-103z" />
<glyph horiz-adv-x="1060" d="M954 61l4 -61q-67 -6 -151 -6q-135 0 -249.5 40.5t-195.5 110t-138 162t-84 196.5t-27 214q0 111 27 215.5t84.5 197.5t138.5 162t196 109.5t250 40.5q82 0 149 -6l-4 -62q-68 6 -145 6q-120 0 -222.5 -35t-176 -95t-126 -140.5t-79.5 -172t-31 -189.5h602v-62h-602 q5 -123 47.5 -234.5t119 -201t197.5 -142.5t269 -53q79 0 147 6z" />
<glyph horiz-adv-x="1030" d="M768 580v-62h-604q6 -92 49.5 -175t120 -150t196.5 -106.5t267 -39.5q59 0 127 6l4 -61q-68 -6 -131 -6q-167 0 -302.5 48t-219.5 128.5t-128.5 179.5t-44.5 207q0 86 27.5 167.5t84.5 153.5t138 126.5t196.5 86t250.5 31.5q61 0 129 -6l-4 -61q-67 6 -125 6 q-148 0 -268.5 -40t-197 -107t-120 -150.5t-49.5 -175.5h604z" />
<glyph horiz-adv-x="843" d="M475 -174v186q-174 42 -273.5 158t-99.5 266q0 149 99.5 265.5t273.5 156.5v189h62v-177q79 9 110 9q11 0 84 -5l-4 -61q-58 4 -80 4q-219 0 -351 -110t-132 -271t132 -271t351 -110q22 0 80 4l4 -61q-58 -4 -84 -4q-40 0 -110 8v-176h-62z" />
<glyph horiz-adv-x="819" d="M143 1280v61h533v-61h-533z" />
<glyph horiz-adv-x="1150" d="M887 143l41 -45q-135 -118 -324 -118q-116 0 -212.5 47t-159 128t-96.5 187.5t-34 226.5q0 111 31.5 205t82.5 156t115.5 105.5t128.5 63t124 19.5q118 0 209.5 -45.5t146 -123.5t82 -174.5t27.5 -205.5v-30h-883q7 -222 130 -360t308 -138q164 0 283 102zM584 1057 q-52 0 -106.5 -17t-109 -54t-98 -89t-72 -129t-32.5 -168h819q-2 73 -18 138.5t-48 124t-77.5 101.5t-111.5 68t-146 25z" />
<glyph horiz-adv-x="1136" d="M666 1098v356q0 88 -63.5 161t-160.5 73q-106 0 -175.5 -95t-69.5 -260v-235h323v-62h-323v-1636h-62v1636h-92v62h92v235q0 194 87 305t220 111q81 0 148 -46.5t102 -113.5t35 -135v-356h324v-62h-324v-651q0 -160 87 -243t226 -83q29 0 47 2l9 -61q-18 -2 -56 -2 q-80 0 -147 24t-118 70.5t-80 121.5t-29 171v651h-93v62h93z" />
<glyph d="M143 -104v1202h62v-1221q0 -202 -115.5 -339.5t-294.5 -137.5q-164 0 -303 139l43 47q133 -123 260 -123q123 0 209 78t117 195q22 80 22 160zM123 1333v101h102v-101h-102z" />
<glyph horiz-adv-x="1691" d="M877 0h-62v705q0 165 -93.5 258.5t-221.5 93.5t-222 -93.5t-94 -258.5v-705h-61v705q0 99 32 179.5t85.5 130.5t120 76.5t139.5 26.5q111 0 206.5 -61.5t139.5 -175.5q44 114 139.5 175.5t206.5 61.5q71 0 137.5 -26.5t120.5 -76.5t86.5 -130.5t32.5 -179.5v-705h-62v705 q0 165 -93.5 258.5t-221.5 93.5t-221.5 -93.5t-93.5 -258.5v-705z" />
<glyph horiz-adv-x="1101" d="M184 0h-61v702q0 182 124.5 299t303.5 117t303.5 -117t124.5 -299v-702h-61v702q0 155 -106.5 255t-260.5 100t-260.5 -100t-106.5 -255v-702z" />
<glyph horiz-adv-x="622" d="M184 0h-61v713q0 182 124.5 298.5t303.5 116.5v-61q-154 0 -260.5 -99.5t-106.5 -254.5v-713z" />
<glyph horiz-adv-x="1740" d="M123 717q0 152 59 290t159.5 238.5t238.5 159.5t290 59t290.5 -59t238.5 -159.5t159.5 -238.5t59.5 -290q0 -203 -100.5 -375t-272.5 -272.5t-375 -100.5q-152 0 -290 59.5t-238.5 159.5t-159.5 238.5t-59 290.5zM184 717q0 -186 92 -344t250 -250t344 -92t344 92 t250 250t92 344t-92 344t-250 250t-344 92t-344 -92t-250 -250t-92 -344zM762 614h-33v-286h-61v788q23 2 63 2q186 0 285.5 -73t99.5 -179q0 -71 -51.5 -134.5t-144.5 -94.5l223 -291l-49 -37l-238 312q-51 -7 -94 -7zM729 1057v-381h29q138 0 217.5 57t79.5 133 t-79.5 133.5t-217.5 57.5h-29z" />
<glyph horiz-adv-x="991" d="M184 61h398q102 0 173.5 65t71.5 163t-72 163.5t-173 65.5h-172q-126 0 -217 84t-91 207t91 206t217 83h397v-62h-397q-102 0 -174 -64.5t-72 -162.5t72.5 -163.5t173.5 -65.5h172q126 0 216.5 -84t90.5 -207t-90.5 -206t-216.5 -83h-398v61z" />
<glyph horiz-adv-x="927" d="M227 784q0 -74 25 -206h160v-62h-148q25 -150 25 -211q0 -93 -37 -162q14 2 31 2q53 0 95.5 -12.5t98.5 -38.5q103 -47 170 -47q95 0 168 70l41 -45q-50 -47 -99 -66.5t-110 -19.5q-79 0 -194 51q-106 47 -170 47q-36 0 -107 -43q-63 -36 -98 -41l-10 61q62 13 110.5 79 t48.5 165q0 55 -26 211h-158v62h145q-22 128 -22 206q0 140 96.5 227t272.5 87v-62q-151 0 -229.5 -69.5t-78.5 -182.5z" />
<glyph horiz-adv-x="925" d="M43 1036v62h92v354h62v-354h321v-62h-321v-651q0 -157 85 -255.5t236 -98.5q99 0 173.5 31.5t144.5 93.5l36 -50q-153 -137 -348 -137q-183 0 -286 118t-103 302v647h-92z" />
<glyph horiz-adv-x="1691" d="M815 1098h62v-705q0 -165 93.5 -258.5t221.5 -93.5t221.5 93.5t93.5 258.5v705h62v-705q0 -99 -32 -179.5t-85.5 -130.5t-120 -76.5t-139.5 -26.5q-111 0 -206.5 61.5t-139.5 175.5q-44 -114 -139.5 -175.5t-206.5 -61.5q-71 0 -137.5 26.5t-120.5 76.5t-86.5 130.5 t-32.5 179.5v705h61v-705q0 -165 94 -258.5t222 -93.5t221.5 93.5t93.5 258.5v705z" />
</font>
</defs>
</svg>
