<?xml version="1.0" encoding="utf-8"?>
<!-- Generator: Adobe Illustrator 22.0.1, SVG Export Plug-In . SVG Version: 6.00 Build 0)  -->
<svg version="1.1" id="Layer_1" xmlns="http://www.w3.org/2000/svg" xmlns:xlink="http://www.w3.org/1999/xlink" x="0px" y="0px"
	 viewBox="0 0 812.3 180.9" style="enable-background:new 0 0 812.3 180.9;" xml:space="preserve">
<style type="text/css">
	.st0{enable-background:new    ;}
	.st1{fill:#FFFFFF;}
	.st2{fill:#7BC578;}
	.st3{fill:#72C7F0;}
	.st4{fill:#74C9F1;}
	.st5{fill:#6FC7F0;}
	.st6{fill:#72C6EF;}
	.st7{fill:#0B0C0C;}
	.st8{fill:#7CC579;}
	.st9{fill:#0C0C0C;}
	.st10{fill:#C99766;}
	.st11{fill:#FAC967;}
	.st12{fill:#B38050;}
	.st13{fill:#F7F9F6;}
	.st14{fill:#936427;}
	.st15{fill:#161616;}
	.st16{fill:#010101;}
	.st17{fill:#0B0909;}
</style>
<g class="st0">
	<path class="st1" d="M7.7,28.5h33v5.5h-3.5c-2.3,0-3.8,0.2-4.7,0.7c-1.3,0.7-1.9,1.8-1.9,3.2c0,1,0.4,2.6,1.1,4.8l18.9,61.3
		l16.4-50.5l-3.9-12.1c-0.9-2.9-2.3-5-4.2-6.3c-1.1-0.8-3.1-1.1-6-1.1v-5.5h32.7v5.5h-3.1c-2.7,0-4.5,0.3-5.4,1
		c-0.9,0.7-1.4,1.6-1.4,2.7c0,1,0.4,2.6,1.1,5l18.9,61.7l19.1-61.7c0.7-2.2,1-3.8,1-4.9c0-1.3-0.4-2.2-1.3-2.9
		c-0.9-0.6-2.6-0.9-5.2-0.9h-3.3v-5.5h28.1v5.5c-2.4,0-4.1,0.2-5.3,0.7c-1.2,0.5-2.1,1.2-2.9,2.2c-0.7,1-1.6,2.9-2.4,5.8l-25.4,77.7
		h-9.6L70.7,65.3l-17.8,55.2h-9.5L18.4,42.8c-1.2-3.8-2.7-6.2-4.4-7.4c-1.3-0.8-3.4-1.3-6.3-1.3V28.5z"/>
	<path class="st1" d="M245.8,66.3v-5.5c3.2-0.3,6-0.8,8.5-1.6c2.5-0.8,5.3-2.1,8.5-3.9h4.9v12.5c3.1-3.8,6.7-6.9,10.9-9.1
		c4.1-2.2,7.8-3.4,11.1-3.4c3.3,0,5.8,0.8,7.7,2.3c1.9,1.5,2.8,3.4,2.8,5.6c0,1.6-0.6,3-1.9,4.2c-1.3,1.2-2.8,1.8-4.5,1.8
		c-0.8,0-1.5-0.1-2-0.3c-0.6-0.2-1.4-0.7-2.5-1.5c-2.4-1.6-4.4-2.4-6.1-2.4c-2.2,0-4.6,0.9-7.3,2.8c-3.3,2.4-6,4.7-7.8,7v30.4
		c0,2.6,0.1,4.4,0.4,5.4c0.3,0.9,0.8,1.8,1.4,2.4c0.7,0.7,1.5,1.2,2.4,1.5c1,0.3,2.7,0.5,5.1,0.5h2.2v5.5h-34.1v-5.5h2.8
		c2.7,0,4.4-0.2,5.3-0.7c1.1-0.7,2-1.6,2.5-2.7c0.5-1.2,0.8-3.3,0.8-6.3V66.3H245.8z"/>
	<path class="st1" d="M304.5,34.8v-5.5c6-0.4,11.8-2.3,17.5-5.5h4.9v81.1c0,3.4,0.2,5.6,0.7,6.5c0.6,1.2,1.4,2.1,2.5,2.7
		c1.1,0.6,3.2,0.9,6.3,0.9h2.1v5.5h-33.9v-5.5h3.4c2.2,0,3.8-0.3,4.8-1c1.1-0.7,1.8-1.6,2.3-2.7c0.5-1.1,0.7-3.4,0.7-6.8V34.8H304.5
		z"/>
	<path class="st1" d="M386.8,34.9v-5.6c3-0.3,5.7-0.8,8.2-1.5c2.5-0.8,5.6-2.1,9.3-4h4.9v80c0,3.7,0.1,5.9,0.3,6.7
		c0.4,1.7,1.2,2.8,2.2,3.5c1.1,0.7,3.1,1,6.1,1h2.8v5.5l-22.9,1.1v-10.5c-4.4,4-8.5,6.8-12.4,8.5c-3.8,1.7-7.7,2.5-11.6,2.5
		c-8,0-14.6-3.2-19.8-9.6c-5.3-6.4-7.9-14.1-7.9-23.1c0-6.4,1.4-12.3,4.2-17.6c2.8-5.3,6.5-9.4,11-12.2c4.6-2.8,9.6-4.2,15-4.2
		c4.2,0,8,0.7,11.6,2.2c3.6,1.5,6.8,3.6,9.8,6.5V34.9H386.8z M397.8,104.5V79.6c0-3.6-0.7-6.5-2-8.7c-1.3-2.3-3.5-4.2-6.6-5.9
		c-3.1-1.7-6.2-2.5-9.4-2.5c-3.8,0-7.3,1-10.6,3.1c-3.2,2.1-5.8,5.1-7.6,9c-1.8,3.9-2.7,8.7-2.7,14.3c0,5.3,0.8,9.8,2.5,13.7
		c1.7,3.8,4,6.8,6.8,8.8c2.9,2,5.8,3,8.8,3c2.9,0,6.3-0.8,10-2.5C390.8,110.1,394.4,107.7,397.8,104.5z"/>
	<path class="st1" d="M485.8,103.5l4.2,3.4c-3.2,3.8-6.3,6.9-9.3,9.1c-3,2.2-5.9,3.8-8.5,4.7s-5.8,1.4-9.4,1.4c-6.5,0-12-1.3-16.5-4
		c-5.2-3-9.2-7-11.9-11.9c-2.8-4.9-4.2-10.6-4.2-17.3c0-6.9,1.3-12.9,4-17.8c2.7-4.9,6.4-8.8,11.2-11.6c4.8-2.8,10.4-4.3,16.7-4.3
		c4.7,0,8.8,0.7,12.3,2.2c3.5,1.5,6.4,3.7,8.8,6.6s4.2,6.3,5.3,10.2c0.6,2.2,1,5.1,1.1,8.7H443c-0.1,2.2-0.2,3.8-0.2,4.8
		c0,5.5,1,10.5,2.9,14.8c1.9,4.3,4.5,7.5,7.7,9.6c3.2,2,6.8,3.1,10.8,3.1c3.4,0,6.7-0.8,10-2.4C477.4,111.3,481.3,108.1,485.8,103.5
		z M477.4,76.8c-0.7-4-1.6-7-2.8-9c-1.2-1.9-2.9-3.5-5.1-4.6c-2.2-1.1-4.7-1.7-7.5-1.7s-5.4,0.6-7.8,1.7c-2.4,1.1-4.4,2.7-6,4.7
		c-1.6,2-3,5-4.2,8.8H477.4z"/>
	<path class="st1" d="M499.5,66.3v-5.5c3.2-0.3,6-0.8,8.5-1.6c2.5-0.8,5.3-2.1,8.5-3.9h4.9v12.5c3.1-3.8,6.7-6.9,10.9-9.1
		c4.1-2.2,7.8-3.4,11.1-3.4c3.3,0,5.8,0.8,7.7,2.3c1.9,1.5,2.8,3.4,2.8,5.6c0,1.6-0.6,3-1.9,4.2c-1.3,1.2-2.8,1.8-4.5,1.8
		c-0.8,0-1.5-0.1-2-0.3c-0.6-0.2-1.4-0.7-2.5-1.5c-2.4-1.6-4.4-2.4-6.1-2.4c-2.2,0-4.6,0.9-7.3,2.8c-3.3,2.4-6,4.7-7.8,7v30.4
		c0,2.6,0.1,4.4,0.4,5.4c0.3,0.9,0.8,1.8,1.4,2.4c0.7,0.7,1.5,1.2,2.4,1.5c1,0.3,2.7,0.5,5.1,0.5h2.2v5.5h-34.1v-5.5h2.8
		c2.7,0,4.4-0.2,5.3-0.7c1.1-0.7,2-1.6,2.5-2.7c0.5-1.2,0.8-3.3,0.8-6.3V66.3H499.5z"/>
	<path class="st1" d="M580.4,67.9l-1,33.2c0,3.5-0.2,8.7-0.5,15.5c-0.4,4.5-2.6,6.7-6.6,6.7c-4.4,0-6.6-2.3-6.6-6.8
		c0-5.4,0.2-13.5,0.7-24.3c0.5-10.8,0.7-18.9,0.7-24.3c0-7,0.1-15.1,0.3-24.2c0.2-9.1,0.3-17.1,0.3-24.2c0-4.5,2.2-6.7,6.6-6.7
		c4.4,0,6.6,2.2,6.6,6.7c0,7-0.1,15.1-0.3,24.2C580.5,52.8,580.4,60.9,580.4,67.9z"/>
	<path class="st1" d="M653.2,124.9c-0.8,0-2.4-1-4.6-2.9c-2-1.8-3.5-3.5-4.5-4.9c-4.3,2.3-8.1,4.1-11.3,5.3c-3.3,1.2-6,1.8-8.2,1.8
		c-10.4,0-18-2.9-22.8-8.8c-4.5-5.5-6.8-14-6.8-25.4c0-10.8,3.7-20,11.1-27.7c7.4-7.7,16.3-11.5,26.6-11.5c3.9,0,8.2,1,13,3
		c6.1,2.5,9.1,5.5,9.1,9c0,1.2-0.4,2.3-1.3,3.2c-0.4,1.7-0.8,4.5-1,8.4c-0.2,3.9-0.4,8.9-0.4,14.9c0,5.5,0.3,9.9,1.1,13.1
		c0.4,2,1.9,5.9,4.2,11.8c0.3,0.8,0.8,2,1.5,3.5l0.4,1.1c0,1.8-0.6,3.3-1.9,4.4C656.3,124.3,654.8,124.9,653.2,124.9z M639.3,78.4
		c0-1.9,0.1-4,0.4-6.3c0.2-2.3,0.6-4.6,1.1-7.2c-1.7-0.8-3.1-1.5-4.2-1.9s-2.1-0.6-2.8-0.6c-6.9,0-12.9,2.8-17.9,8.5
		c-5,5.6-7.5,12.1-7.5,19.5c0,7.3,1.3,12.8,3.9,16.5c2.6,3.7,6.5,5.5,11.6,5.5c4.3,0,7.9-0.8,10.9-2.3c1.6-0.8,3.9-2.5,6.8-5.1
		C640,93.1,639.3,84.3,639.3,78.4z"/>
	<path class="st1" d="M722.4,125.2c-3.8,0-6-2.1-6.5-6.3l-1.9-14.7c-0.6-5.2-0.9-10.1-0.9-14.6c0-1.2,0.1-3.4,0.2-6.4
		c0.2-3,0.2-5.1,0.2-6.4c0-9.6-1.8-14.4-5.4-14.4c-5,0-9.8,3-14.3,8.9c-4.1,5.4-7.3,12.2-9.6,20.5c-0.1,1.7-0.3,3.9-0.6,6.6
		c-0.3,2.2-0.4,4.4-0.4,6.5c0,1.3,0.1,3.3,0.4,6s0.4,4.7,0.4,6c0,2-0.6,3.6-1.8,4.9c-1.2,1.2-2.8,1.9-4.7,1.9c-2,0-3.5-0.6-4.8-1.9
		c-1.2-1.3-1.8-2.9-1.8-4.9c0-1.3-0.1-3.3-0.4-6s-0.4-4.7-0.4-6c0-4.6,0.3-11,1-19.1c0.6-8.1,1-14.5,1-19.1c0-1.4-0.1-3.5-0.2-6.4
		c-0.2-2.8-0.2-4.9-0.2-6.4c0-1.9,0.6-3.5,1.9-4.7c1.3-1.2,2.8-1.8,4.7-1.8c4.1,0,6.4,2.9,6.8,8.7l0.2,7.8c7.5-10,15.2-15,23.1-15
		c7.1,0,12.1,3.1,14.9,9.4c1.9,4.2,3,10.4,3.1,18.6v6.8l-0.1,6.2c0,3.7,0.5,8.5,1.4,14.3c1,5.9,1.4,10.6,1.4,14.3
		c0,2-0.6,3.6-1.9,4.8C725.9,124.6,724.3,125.2,722.4,125.2z"/>
	<path class="st1" d="M804.4,61.4c-0.5,6.6-0.8,13.1-0.8,19.7c0,14.9,0.7,26.1,2.1,33.6c0.1,0.6,0.1,1.1,0.1,1.5
		c0,1.8-0.6,3.3-1.9,4.4c-1.2,1.2-2.7,1.7-4.3,1.7c-2.8,0-4.8-2-6.1-6c-3.2,2.4-6.5,4.1-10,5.4c-3.5,1.2-7.1,1.8-10.8,1.8
		c-9.2,0-16.9-3.1-22.9-9.2c-6.2-6.3-9.4-14.4-9.4-24.2c0-11.9,3.2-21.5,9.5-28.6c6.3-7.2,14.5-10.8,24.6-10.8c5.2,0,9.2,0.8,12,2.4
		l6.3,4.6c0.6-18.8,1.4-31.4,2.2-37.9c0.6-4,2.6-6,6.1-6c4.1,0,6.1,2.2,6.1,6.5C807.1,26.5,806.2,40.2,804.4,61.4z M774.7,63.2
		c-7.5,0-13.1,2.2-16.9,6.7c-3.7,4.4-5.6,11.1-5.6,20c0,5.8,2,10.7,6.1,14.9c4.1,4.1,8.9,6.2,14.3,6.2c3.7,0,6.9-0.7,9.5-2.1
		c1.5-0.8,4-2.7,7.4-5.6c0.7-0.6,1.3-1.3,1.9-2.1l-0.2-11.6l0.1-7.8l0.1-7.9c-1.7-3.6-3.9-6.3-6.8-8.1
		C782,64.1,778.6,63.2,774.7,63.2z"/>
</g>
<g id="Balloon">
	<path class="st1" d="M148.2,131.9l1.8,5.6l0.2,4.9l-0.2,8.2l-0.1,6.1l-0.7,3.6l-0.5,13.3c0,0,2.7,4.4,6.7,4.3c2.3,0,4.6,0,6.9,0.3
		l1.6-1l6.6-16.2l5.3-11.1l1.4-2.3l6.1-6.1l8.4-6.2l24.4-15.1c0,0,6.6-4.6,9.9-8.9s7.1-11.7,7.4-13.9s1.5-7.9,1.4-9
		c0-3.8-0.6-7.5-1.9-11c-1.4-3.7-3.1-7.3-5-10.8c-0.2,0-4.7-7.7-5.4-7.7s-0.7-1.1-0.7-1.1l-8.1-7.9l-9.6-5.5c0,0-12.5-6.1-17.4-6.1
		s-6.5-1.5-14.3-0.7c-4.7,0.5-9.3,1.4-13.9,2.7c-5,1.5-9.8,3.6-14.3,6.4c-8.3,4.8-11.9,13.5-11.9,13.5s-2.9,2.9-3.7,8.8
		c-0.8,5.9-0.9,10.5-0.9,10.5l1.4,8.3l2.3,5.9l6.7,13.6l4.3,8.5l4.9,12.8L148.2,131.9z"/>
	<path class="st2" d="M168.9,102.6l-0.3,1.9c0,0.4,0,0.7-0.1,1.1c-0.1,0.3-0.1,0.3-0.4,0.3c-0.6-0.1-1.2-0.2-1.8-0.3
		s-1.4-0.2-2.1-0.3l-2.4-0.3c-0.7-0.1-1.4-0.1-2-0.1c-0.7,0-1.4,0-2.1,0c-0.9,0-1.8,0.1-2.6,0.3c-1,0.3-2,0.7-3,1.2
		c-0.4,0.2-0.9,0.3-1.3,0.5c-0.2,0.1-0.4,0.1-0.6,0c-0.1-0.1-0.1-0.2-0.1-0.4c-0.3-1-0.5-2-0.7-3.1c-0.8-3.1-1.4-6.2-1.9-9.3
		c-0.3-1.8-0.6-3.5-0.8-5.3c-0.2-2.1-0.3-4.1-0.3-6.2c0-0.8-0.1-1.5,0-2.3c0.1-1.4,0.2-2.8,0.2-4.2c0-1,0-1.9,0.1-2.9
		c0.1-1.5,0.4-3.1,0.7-4.6c0-0.4,0.1-0.8,0.3-1.2c1.2-0.3,2.4-0.4,3.6-0.6l0.6-0.1c0.9-0.1,1.8-0.2,2.6-0.3c1.1-0.2,2.3-0.3,3.5-0.4
		c1.9-0.1,3.7,0,5.6,0.1c0.9,0,1.9,0.1,2.8,0.2c1.6,0.1,3.1,0.3,4.6,0.7c0.2,0,0.4,0.2,0.5,0.4c0.1,0.4,0.3,0.8,0.4,1.1
		c0.1,0.2,0.1,0.4,0.1,0.6c0,0.5,0,1,0,1.5c0,0.5,0,1,0.1,1.4c0,0.1,0,0.1,0,0.2c-0.2,1.1-0.4,2.1-0.5,3.2c-0.3,2-0.5,4.1-0.8,6.1
		c-0.3,2.3-0.6,4.7-0.8,7.1s-0.3,4.9-0.4,7.4c-0.1,1.1-0.1,2.2-0.2,3.2c-0.1,0.1-0.1,0.1-0.1,0.2c-0.1,0.8-0.2,1.6-0.3,2.4
		C168.9,102.1,168.9,102.4,168.9,102.6z"/>
	<path class="st3" d="M173.1,107.3c0,0-0.1-0.1-0.2-0.1c-0.5-0.2-0.9-0.5-1.2-0.9c-0.2-0.2-0.3-0.4-0.3-0.6c0-0.2,0-0.3-0.1-0.4
		c-0.3-0.5-0.4-1.1-0.3-1.8c0-0.5-0.2-1-0.2-1.5c0-0.3,0-0.7,0-1c0-0.6,0-1.1,0-1.7c0-0.9,0.1-1.7,0.1-2.6c0-0.4,0.1-0.8,0.1-1.3
		c0-0.6,0.1-1.1,0.2-1.7c0.1-1,0.2-1.9,0.3-2.9c0.1-0.5,0.2-1,0.2-1.6c0-0.2,0.1-0.4,0.1-0.6c0.1-1.2,0.3-2.4,0.4-3.7
		c0.1-1,0.2-1.9,0.3-2.9s0.2-1.9,0.3-2.8c0.1-0.6,0.1-1.2,0.2-1.8s0.1-1,0.2-1.5s0.1-1.2,0.2-1.8s0.1-1.2,0.2-1.8
		c0-0.1,0.1-0.3,0.1-0.4c0.5-0.6,1-1.2,1.5-1.8c0.1-0.1,0.1-0.1,0.1-0.2c0-0.5,0.4-0.6,0.8-0.7s0.7-0.1,1-0.2c0.4,0,0.8,0,1.3,0
		c0.3,0,0.6,0,0.9,0c1,0.1,2.1,0.2,3.1,0.3s2,0.3,3.1,0.4c0.7,0.1,1.3,0.3,2,0.3c0.9,0.1,1.7,0.3,2.6,0.4c0.6,0.1,1.2,0.2,1.7,0.4
		l1.6,0.4c0.7,0.2,1.3,0.4,1.9,0.6c0.7,0.2,1.4,0.6,2,1c0.3,0.2,0.6,0.5,0.8,0.7c0.1,0.1,0.2,0.2,0.1,0.4c-0.1,1-0.3,2-0.7,3
		c-0.4,1-0.7,2.1-1.1,3.1c-0.3,0.8-0.6,1.6-0.9,2.4l-1,2.5c-0.3,0.8-0.6,1.5-0.9,2.3s-0.7,1.7-1,2.6s-0.6,1.4-0.9,2.1
		s-0.5,1.3-0.8,1.9c-0.2,0.6-0.5,1.3-0.8,1.9c-0.2,0.4-0.4,0.8-0.5,1.2c-0.3,0.8-0.7,1.6-1,2.3s-0.5,1.3-0.8,1.9s-0.5,1.3-0.8,1.9
		c-0.4,0.9-0.8,1.8-1.2,2.8c-0.2,0.5-0.4,1-0.7,1.5c-0.3,0.6-0.5,1.2-0.8,1.8c-0.1,0.4-0.1,0.4-0.6,0.3c-1.2-0.2-2.3-0.6-3.4-0.8
		c-0.3-0.1-0.6-0.1-0.9-0.2c-0.2-0.1-0.3-0.1-0.5-0.2c-1.1-0.5-2.3-0.8-3.5-1C174.9,107.6,174,107.4,173.1,107.3z"/>
	<path class="st3" d="M196.1,90.2c0.1-0.1,0.2-0.2,0.3-0.3c0.1-0.3,0.3-0.6,0.4-0.9c0.3-0.8,0.8-1.6,1.1-2.4
		c0.1-0.3,0.3-0.7,0.5-0.9c0.1-0.2,0.2-0.3,0.2-0.5c0.2-0.5,0.4-0.9,0.6-1.4s0.5-0.9,0.6-1.4s0.4-0.8,0.6-1.2s0.3-0.6,0.4-0.8
		s0.3-0.7,0.5-1c0.3-0.5,0.5-1.1,0.8-1.6c0.1-0.4,0.5-0.7,1-0.7c0.9-0.1,1.8-0.2,2.7-0.3c0.2,0,0.4,0,0.6,0c0.7,0.2,1.4,0.3,2.1,0.3
		c0.7,0.1,1.3,0.3,1.9,0.6c0.9,0.3,1.8,0.8,2.6,1.3c0.3,0.2,0.5,0.4,0.8,0.5c0.6,0.4,1.1,0.8,1.5,1.3c0.3,0.2,0.5,0.4,0.8,0.7
		c0.4,0.4,0.7,0.9,1.1,1.3s0.8,0.9,1.1,1.4c0.2,0.3,0.3,0.7,0.2,1.1c-0.4,1.8-0.9,3.6-1.2,5.4c-0.1,0.4-0.2,0.8-0.3,1.2
		c-0.1,0.3-0.2,0.6-0.4,0.8c-0.3,0.6-0.7,1.1-1,1.6c-0.2,0.4-0.5,0.8-0.8,1.2c-0.3,0.4-0.6,0.9-0.9,1.3c-0.4,0.6-0.8,1.1-1.1,1.6
		c-0.7,1-1.4,1.9-2.1,2.9c-0.6,0.7-1.1,1.5-1.7,2.2c-0.4,0.4-0.6,0.9-1,1.3c-0.5,0.6-1,1.2-1.4,1.8c-0.6,0.8-1.3,1.6-1.9,2.4
		s-1.5,1.9-2.2,2.8s-1.6,2.1-2.4,3.1c-0.3,0.4-0.7,0.8-1.1,1.3s-0.9,1.2-1.4,1.7c0,0-0.1,0.1-0.1,0.2s-0.3,0.1-0.3-0.1
		c-0.2-0.5-0.5-0.9-0.7-1.3c-0.3-0.4-0.6-0.8-1.1-1.1c-0.7-0.5-1.4-0.9-2.1-1.4s-1.6-0.9-2.4-1.3s-1.4-0.7-2.1-1s-1.3-0.6-2-0.9
		c-0.3-0.2-0.3-0.2-0.2-0.4c0.3-0.4,0.3-0.9,0.6-1.3c0,0,0.1-0.1,0.1-0.2c0.3-0.9,0.8-1.8,1.2-2.7c0.2-0.5,0.4-0.9,0.6-1.3
		c0.3-0.5,0.4-1,0.7-1.5s0.4-0.7,0.5-1.1c0.4-0.8,0.7-1.6,1.1-2.3c0.3-0.5,0.4-1,0.7-1.5s0.3-0.8,0.5-1.1c0.5-0.9,0.9-1.8,1.3-2.7
		c0.2-0.2,0.3-0.5,0.3-0.8c0.1-0.2,0.3-0.3,0.3-0.5c0.2-0.5,0.4-1,0.7-1.5c0.2-0.3,0.3-0.7,0.4-1.1C195.9,90.7,196,90.5,196.1,90.2z
		"/>
	<path class="st2" d="M144.5,48.1c0.4,0,0.9,0,1.4,0c0.8,0,1.7,0,2.5,0.1c0.9,0.1,1.7,0.4,2.4,0.8c0.3,0.2,0.6,0.2,0.9,0.2
		c1,0,2-0.1,3-0.5l1.8-0.6c0.4-0.1,0.8-0.1,1.2-0.1c1.2-0.1,2.3-0.1,3.5-0.2s2.3,0,3.5-0.1c0.7,0,1.4,0,2.2,0s1.3,0,1.9,0
		c0.6,0,1.2,0,1.8,0c0.2,0,0.4,0,0.6,0c0.4,0,0.8,0,1.3,0.1c1.2,0.1,2.5,0.4,3.7,0.7c0.7,0.2,1.5,0.5,2.2,0.7c0.5,0.2,1,0.4,1.5,0.7
		c0.1,0.1,0.2,0.2,0.3,0.3c-0.3,0.3-0.5,0.7-0.6,1.1c-0.2,0.3-0.4,0.5-0.4,0.9l0,0c-0.1,0-0.1,0.1-0.1,0.2l0,0
		c-0.4,0.1-0.4,0.4-0.4,0.7l-1.6,3.1c-0.2,0.1-0.4,0.4-0.3,0.7l0,0l0,0c-0.1,0-0.2,0-0.3,0.2s-0.2,0.4-0.2,0.6
		c-0.2,0.3-0.4,0.6-0.5,1c-0.3,0.6-0.6,1.2-0.9,1.9c-0.1,0.3-0.3,0.6-0.4,0.9c-0.1,0.4-0.3,0.8-0.6,1.2c-0.3,0.5-0.4,1.1-0.7,1.6
		c-0.3,0.5-0.4,1-0.6,1.5c-0.1,0.2-0.3,0.5-0.6,0.4c-0.1-0.3-0.4-0.5-0.7-0.6c-0.3-0.1-0.6-0.2-0.8-0.3c-0.3-0.6-1-0.9-1.6-0.8
		c-0.1,0-0.2,0-0.3-0.1c-0.1,0-0.3-0.2-0.4,0c-1.5-0.3-3.1-0.6-4.6-0.9c-1.1-0.2-2.1-0.3-3.2-0.3c-2.1,0-4.2,0.2-6.3,0.7
		c-0.4,0-0.8,0-1.1,0.2c-0.7,0.2-1.4,0.5-2,0.8c-0.9,0.5-1.9,1-2.8,1.5c-0.1,0.1-0.2,0.2-0.3,0.1c0-0.1,0-0.1,0-0.2
		c0.3-1.2,0.6-2.4,1-3.6c0.4-1.3,0.9-2.5,1.5-3.7c0.6-1.3,1.3-2.7,2-4c0.3-0.5,0.6-1,0.9-1.5c0.1-0.2,0.2-0.5,0.1-0.7
		c0-0.2-0.2-0.3-0.4-0.3c-0.2,0-0.2,0.2-0.3,0.3c-0.4,0.9-0.9,1.8-1.5,2.6c0,0-0.1,0.1-0.1,0.2c-0.7,1.2-1.3,2.5-1.9,3.8
		c-0.5,1.1-0.9,2.2-1.3,3.3c-0.3,0.8-0.5,1.7-0.7,2.5c-0.1,0.5-0.2,1-0.3,1.4c-0.1,0-0.1,0-0.2,0c-1.9-0.5-3.8-1-5.7-1.6
		c-0.2-0.1-0.3-0.1-0.5,0l-2.1,0.8c-0.5,0.1-1.1,0.1-1.6,0.2c-1.3,0.3-2.6,0.7-3.9,1.2c-0.6,0.2-1.2,0.6-1.7,1l-0.7,0.2
		c-0.1-0.2-0.1-0.4,0-0.6c0-0.2,0.1-0.3,0.1-0.5s0-0.5,0-0.7c0.1-0.4,0.2-0.8,0.3-1.2c-0.2-0.1,0-0.3,0-0.4s0.2-0.4,0.3-0.6
		c0.3-0.7,0.6-1.5,1-2.2c0.4,0,0.3-0.3,0.3-0.5l0,0c0.3-0.1,0.3-0.1,0.2-0.4l0,0l0,0c0.3-0.2,0.5-0.6,0.6-0.9s0.5-0.9,0.8-1.4
		s0.6-1,0.9-1.6c0.1-0.1,0.1-0.2,0.1-0.3l0,0c0,0,0.1-0.1,0.1-0.1l0,0c0.3,0,0.3-0.2,0.3-0.4c0.5-0.7,1-1.4,1.6-2
		c0.6-0.7,1.2-1.3,1.9-1.9c0.3-0.3,0.6-0.7,1-1c1-0.9,2-1.6,3-2.4C143.3,48.9,143.9,48.4,144.5,48.1z"/>
	<path class="st4" d="M150.3,107.7c0.6-0.1,1.2-0.2,1.8-0.3c0.3,0,0.6-0.2,0.9-0.3c0.6-0.4,1.3-0.6,2-0.7c0.6,0,1.1,0,1.7-0.1
		c0.7,0,1.3,0,2,0.1c0.3,0,0.7,0.1,1,0.1c1.7,0.1,3.4,0.4,5.2,0.7c0.8,0.1,1.7,0.3,2.5,0.4c1,0.2,0.9,0.1,0.8,1.1
		c-0.1,0.7-0.2,1.3-0.2,2s-0.1,1.3-0.2,2s-0.2,1.6-0.3,2.4c-0.1,0.6-0.1,1.3-0.2,1.9s-0.1,1.1-0.2,1.6s-0.1,1-0.2,1.5
		c-0.1,1.1-0.2,2.1-0.4,3.2c-0.1,1-0.2,1.9-0.3,2.9s-0.2,1.7-0.3,2.5c-0.1,0.5-0.1,1.1-0.2,1.6s-0.1,1.1-0.2,1.7s-0.1,1.1-0.2,1.7
		s-0.2,1.4-0.3,2.1s-0.1,1.4-0.2,2.2c0,0.2-0.2,0.4-0.4,0.4c-0.7,0.1-1.4,0.2-2.1,0.1c-0.4-0.1-0.9-0.1-1.3-0.2
		c-1-0.3-2-0.7-2.9-1.2c-1.1-0.6-2.3-1.1-3.6-1.3c-1.2-0.1-2.4,0-3.5,0.4c-0.5,0.2-0.5,0.2-0.6-0.3l-3.1-8.6c0,0,0-0.1-0.1-0.1
		c-0.1-0.6-0.3-1.1-0.6-1.6c-0.4-1.1-0.8-2.3-1.2-3.4c-0.6-1.5-1.1-3-1.7-4.6s-1.2-3.3-1.8-4.9c-0.2-0.7-0.5-1.3-0.8-2
		c-0.1-0.1-0.1-0.3,0-0.4c0.4-0.7,1-1.2,1.7-1.5c0.1-0.1,0.3-0.1,0.4-0.2c0.6-0.3,1.3-0.5,2-0.5c1.4-0.1,2.9-0.2,4.3-0.3h0.1
		c0,0.1,0,0.3,0.1,0.3l0,0c0,0.1,0,0.2,0.1,0.3v0.1c0,0.1,0,0.2,0.1,0.3v0.1c0,0.1,0,0.2,0.1,0.2l0,0c0,0.2,0.1,0.4,0.2,0.5l0,0
		c0.1,0.5,0.3,1,0.5,1.5l0,0c0.1,0.4,0.2,0.7,0.3,1.1c0.1,0.6,0.3,1.1,0.5,1.6l0,0c0,0.1,0,0.2,0.1,0.3l0,0c0,0.1,0,0.2,0.1,0.3v0.1
		c0,0.1,0,0.1,0.1,0.2v0.1c0.2,0.7,0.4,1.3,0.6,1.9c0,0.1,0.1,0.2,0.1,0.3c0.3,0.8,0.5,1.7,0.6,2.5c0.2,1,0.5,2,0.8,3
		c0.1,0.2,0.2,0.4,0.3,0.6c0-0.2,0-0.4,0-0.6c-0.2-1-0.4-1.9-0.7-2.9c-0.2-0.7-0.4-1.4-0.6-2.2c-0.1-0.3-0.2-0.7-0.3-1v-0.1
		c0-0.1,0-0.1-0.1-0.2l0,0c-0.1-0.5-0.3-1-0.4-1.4c0-0.1,0-0.2-0.1-0.3l0,0l0,0c0-0.1,0-0.2-0.1-0.2l0,0l0,0
		c-0.1-0.6-0.3-1.2-0.5-1.8l0,0c0-0.1,0-0.2-0.1-0.3l0,0c0-0.1,0-0.2-0.1-0.3v-0.1c0-0.1,0-0.2-0.1-0.2l-0.4-1.5
		C150.7,109.2,150.5,108.4,150.3,107.7z"/>
	<path class="st2" d="M201.8,121c0-0.3-0.3-0.5-0.4-0.7c-0.3-0.3-0.5-0.6-0.9-0.9c-0.2-0.1-0.2-0.4-0.1-0.5c0,0,0,0,0,0
		c0.1-0.2,0.3-0.4,0.4-0.6c0.4-0.4,0.6-0.9,1-1.3c0.7-0.8,1.4-1.7,2-2.6s1.3-1.7,2-2.5c0.1-0.1,0.1-0.2,0.1-0.3
		c0.1,0,0.2-0.1,0.3-0.2c0.4-0.5,0.9-1.1,1.3-1.7s0.8-1,1.2-1.5c0.1-0.1,0.2-0.2,0.2-0.4l0,0c0.1,0,0.2-0.1,0.3-0.2
		c0.3-0.4,0.6-0.9,1-1.3c0.3-0.3,0.5-0.5,0.6-0.9c0.1-0.1,0.3-0.2,0.3-0.3c0.2-0.3,0.4-0.5,0.6-0.8c0.5-0.7,1.1-1.4,1.7-2.1
		s1-1.2,1.4-1.8c0.2-0.2,0.4-0.5,0.6-0.7c0.4-0.5,0.8-0.9,1.1-1.4c0.1,0,0.2-0.1,0.2-0.2c0.2-0.2,0.3-0.4,0.4-0.6
		c0.1,0,0.2-0.1,0.2-0.2c0.4-0.5,0.8-1.1,1.1-1.7c0.1-0.2,0.2-0.4,0.3-0.6c0.2-0.5,0.4-1,0.6-1.4c0.3-0.7,0.6-1.4,0.9-2.1
		c0.4-1.3,0.7-2.6,1-3.9l0.2-0.1c0.9,0,1.7-0.1,2.6,0l0.6,0.1l0,0c0.1,0,0.1,0,0.2,0c0.1,0,0.1,0,0.2,0c0.8,0.3,1.6,0.7,2.3,1.1
		c0.6,0.3,1.2,0.7,1.8,1.1c0,0,0,0.1,0,0.1c0.3,0.2,0.6,0.6,0.9,0.8c0.1,0.2,0.2,0.4,0.3,0.5c0.2,0.2,0.4,0.4,0.6,0.7
		c0.3,0.5,0.6,1,0.8,1.5c0.3,0.6,0.6,1.3,0.7,1.9c0,0.2,0.1,0.4,0.2,0.6c0,0.2,0,0.4,0,0.5c-0.1,0.7-0.2,1.3-0.5,2
		c-0.1,0.1-0.1,0.2-0.1,0.3c0,0,0,0.1,0,0.1c-0.3,0.1-0.3,0.3-0.3,0.6l0,0c-0.3,0.2-0.5,0.5-0.5,0.9l-0.1,0.1
		c-0.3,0.1-0.3,0.3-0.3,0.6l0,0c-0.4,0.1-0.4,0.2-0.4,0.7l0,0l0,0c-0.1,0.1-0.3,0.1-0.3,0.3c-0.1,0.3-0.3,0.6-0.5,0.9
		c-0.4,0.6-0.7,1.2-1.1,1.7s-0.8,1.3-1.2,1.9c-0.3,0.5-0.6,0.9-0.9,1.3s-0.8,1.2-1.1,1.7c-0.3,0.4-0.6,0.8-0.9,1.2
		c-0.8,0.9-1.6,1.7-2.5,2.4c-0.7,0.7-1.5,1.3-2.3,1.9s-1.4,1.1-2.1,1.6s-1.4,1-2.1,1.6c-1,0.8-2,1.4-3.1,2.1
		c-0.8,0.5-1.6,1.1-2.5,1.6c-1.3,0.8-2.5,1.6-3.8,2.4c-0.4,0.2-0.4,0.2-0.7-0.1l-0.1-0.1l0,0c0-0.1-0.1-0.2-0.1-0.3l-0.7-1
		c-0.6-0.8-1.3-1.5-2.2-2c-0.1,0-0.1-0.1-0.2-0.2C202.1,121,202,120.9,201.8,121L201.8,121z"/>
	<path class="st3" d="M189.9,67.9c-0.1-0.2-0.3-0.3-0.5-0.3c-1.1-0.3-2.1-0.7-3.2-0.9c-0.7-0.2-1.5-0.3-2.2-0.4
		c-1.4-0.1-2.9-0.1-4.3,0.2c-0.7,0.1-1.4,0.2-2.1,0.4c-0.7,0.2-1.5,0.4-2.2,0.7c-0.1-0.1-0.1-0.2,0-0.3c0.3-1,0.4-2,0.6-2.9
		c0.3-1.5,0.7-3,1.1-4.4c0.1-0.3,0.2-0.6,0.4-0.9c0.7-1.5,1.6-2.9,2.5-4.3c0.8-1.2,1.6-2.4,2.5-3.5c0.3-0.4,0.6-0.8,1-1.2
		c0.1-0.2,0.3-0.3,0.6-0.3c0.7-0.2,1.4-0.3,2.2-0.5c0.2,0,0.5,0,0.7,0c0.6,0.1,1.1,0.1,1.7,0.2c0.5,0,1,0.1,1.5,0.3l2.2,0.6
		c0.8,0.3,1.6,0.6,2.4,0.9c1.8,0.7,3.6,1.5,5.2,2.5l2.1,1.2c0.2,0.1,0.3,0.3,0.2,0.4c-0.1,0.9-0.1,1.7-0.2,2.6
		c-0.1,0.5-0.1,1-0.1,1.5c-0.1,0.8-0.2,1.6-0.2,2.4c0,0.4-0.1,0.9-0.1,1.3c-0.1,1.1-0.2,2.1-0.4,3.2s-0.3,2.2-0.5,3.3
		c-0.1,0.6-0.3,1.2-0.4,1.7l-0.1,0.4c-0.3-0.1-0.6-0.2-0.9-0.4c-0.9-0.5-1.7-1-2.5-1.5c-1.2-0.6-2.5-1-3.8-1.3
		C192,68.4,190.9,68.2,189.9,67.9z"/>
	<path class="st2" d="M168,140.2c0.1-0.1,0-0.2-0.1-0.3l-2-1.8c-0.1-0.1-0.3-0.3-0.4-0.4c-0.1-0.1-0.1-0.2-0.1-0.3
		c0.1-0.6,0.2-1.3,0.3-1.9c0.1-0.9,0.4-1.9,0.5-2.8c0-0.5,0.2-0.9,0.3-1.4c0.1-0.7,0.3-1.4,0.4-2.1c0.1-1,0.3-2,0.5-3
		s0.4-2.1,0.6-3.2s0.4-2,0.5-3c0.1-0.5,0.2-1,0.3-1.5c0.1-0.7,0.3-1.3,0.4-2c0.1-0.9,0.4-1.8,0.5-2.7c0-0.2,0.1-0.4,0.1-0.7
		c0.2-1,0.3-1.9,0.6-2.9c0-0.2,0-0.4-0.1-0.5c-0.2-0.4-0.1-0.9,0.2-1.1c0.1-0.1,0.2-0.1,0.3-0.1c0.3-0.1,0.6-0.1,0.9-0.1
		c0.9,0,1.8,0.1,2.6,0.3c2.1,0.5,4.2,1.1,6.3,1.7c0.9,0.2,1.8,0.5,2.7,0.8c0.4,0.2,0.4,0.2,0.3,0.6s-0.3,0.6-0.5,0.9
		c-0.3,0.6-0.7,1.3-1,1.9c-0.4,0.8-0.9,1.6-1.3,2.4c-0.3,0.6-0.6,1.2-0.9,1.8s-0.6,1.1-0.9,1.6c-0.2,0.3-0.3,0.7-0.5,1
		c-0.5,0.9-0.9,1.7-1.4,2.6c-0.1,0.3-0.3,0.5-0.4,0.8c-0.5,0.9-1,1.8-1.4,2.7c-0.3,0.6-0.6,1.1-0.9,1.8s-0.6,1.1-0.9,1.7
		s-0.6,1.1-0.9,1.7c-0.2,0.3-0.3,0.7-0.6,1c-0.2,0.3-0.3,0.6-0.5,1c-0.3,0.5-0.6,1.1-0.9,1.7c-0.2,0.4-0.4,0.8-0.6,1.2
		c-0.2,0.3-0.3,0.7-0.5,1c-0.2,0.3-0.3,0.5-0.4,0.8c-0.2,0.2-0.3,0.5-0.4,0.7c-0.1,0.2-0.2,0.3-0.4,0.2
		C168.2,140.2,168.1,140.2,168,140.2L168,140.2z"/>
	<path class="st5" d="M214.4,60.3c0.2,0.1,0.3,0.3,0.5,0.3s-0.1,0.2,0.1,0.3l0.4,0.1c0.1,0,0.2,0.1,0.2,0.2s0,0.2,0.2,0.1
		s0.3,0.2,0.4,0.3c0,0.2-0.1,0.4-0.3,0.4c-0.1,0-0.2,0-0.3,0c0.4,0.2,0.5,0.2,0.6-0.2c0-0.1,0.1-0.1,0.2-0.1c0.2,0,0.2,0.2,0.3,0.3
		s0.3,0.1,0.1,0.3s0,0.2,0.1,0.1c0.2-0.1,0.4,0,0.4,0.2c0,0,0,0.1,0,0.1c0,0.1,0,0.2,0.1,0.2s0.3,0.2,0.6,0.3
		c-0.2,0.1-0.4,0.2-0.5,0.3c0.1,0.1,0.2,0,0.4,0c0,0.3-0.2,0.4-0.1,0.7c0,0.1-0.1,0.2-0.2,0.2c-0.4,0.2-0.5,0.2-0.4,0.7
		c0.3-0.1,0.4-0.4,0.6-0.5l0,0c-0.1,0.3,0.1,0.5,0.1,0.8c0,0.3,0.1,0.6,0.2,0.9c0.1,0.3,0.2,0.7,0.3,1c-0.1,0.2-0.3,0-0.4,0
		c-0.1,0-0.1,0.1-0.1,0.2c0,0,0,0.1,0,0.1c0,0,0.1,0,0.1,0l0,0c0.2,0,0.4-0.1,0.5,0s0.2,0.5,0.1,0.7c-0.1,0-0.2,0.1-0.2-0.1
		s-0.1-0.2-0.2-0.2s-0.3,0.2-0.5,0.2c-0.4,0.2-0.4,0.2-0.4,0.7c0.4-0.6,0.7-0.7,1-0.5c-0.3,0.2-0.4,0.6-0.6,0.8c0,0-0.2,0.1-0.1,0.2
		s0.1,0,0.2-0.1c0.3-0.2,0.5-0.6,0.7-0.8l0.3,0.1c0.2,0.1,0.2,0.2,0.1,0.3s-0.1,0.3-0.2,0.5c0.1,0.1,0.2,0,0.4,0.1s0.3,0.2,0.3,0.2
		c-0.1,0.3,0.2,0.5,0,0.7c0,0,0,0.1,0,0.1c0,0.2,0,0.3-0.1,0.5c0,0-0.1,0-0.1,0c-0.1,0-0.1,0.1,0,0.2s0.1,0,0.1-0.1s0-0.1,0-0.1h0.3
		c0.1,0.2-0.1,0.4,0.1,0.6s0,0.1-0.1,0.2s-0.2,0.2,0.1,0.3c0.1,0,0.1,0.1,0.1,0.2s-0.1,0.2,0,0.3s-0.2,0-0.3,0.2
		c0,0.1,0,0.1,0.1,0.1c0,0,0,0,0,0c0.3,0,0.3,0.3,0.3,0.4s0.1,0.2,0.1,0.3s-0.2,0-0.1,0c0.1,0.4-0.2,0.6-0.4,0.8
		c0,0-0.1,0.1-0.1,0.1c0,0.2,0,0.2-0.2,0.2c-0.2,0-0.3,0-0.5-0.1c-0.1,0-0.2,0-0.3,0.1s0.2,0,0.2,0.1v0.1c-0.1,0-0.2,0-0.3,0.1
		c0.2,0.1,0.3,0,0.3-0.1c0.1,0,0.2-0.1,0.4-0.1c0.3,0.1,0.7,0.3,1.1,0.4c0.1,0.1,0.1,0.2,0,0.3c-0.1,0.1-0.1,0.1,0,0.2s0,0.2,0,0.2
		s-0.1,0.2,0.1,0.2s0.1,0,0.2,0.1s0,0.1-0.1,0.2s-0.3,0-0.4,0.1c0.1,0.3,0.4,0,0.5,0.1s-0.1,0.1-0.1,0.1s-0.1,0.1,0,0.1
		c0.3,0,0.2,0.1,0,0.2s0,0.1,0,0.1H220c-0.1,0-0.2,0-0.1,0.1s0.1,0.1,0.2,0.1l0-0.1c-0.1,0.2,0.2,0.2,0.2,0.3s-0.2,0.2,0,0.3
		s-0.2,0.1-0.1,0.2s0.1,0.2,0,0.3s-0.1,0.1,0,0.1s0.1,0.3-0.1,0.5s0,0.1,0.1,0.2l0,0c0,0.1,0,0.1,0,0.2c0,0.3-0.1,0.4-0.3,0.4
		c-0.1,0-0.2,0-0.2,0.1c0,0.1,0.1,0.1,0.2,0.1h0.3c-0.1,0.1-0.4,0.1-0.3,0.4c0.1,0,0.2-0.2,0.4-0.1s-0.2,0.2-0.1,0.3s-0.1,0,0,0.1
		v-0.1c0.2,0.3,0.1,0.6-0.1,0.9s-0.4,0.2-0.4,0.1c-0.3-0.1-0.7-0.1-1-0.4s-0.1-0.4-0.2-0.6c-0.1,0.1-0.1,0.3-0.2,0.4S218,81,218,81
		c-0.7-0.9-1.4-1.7-2.3-2.4c-0.7-0.6-1.5-1.1-2.4-1.5c-1.5-0.9-3.1-1.5-4.7-1.8c-1.3-0.3-2.7-0.4-4-0.4c0-0.1,0-0.3-0.1-0.3
		c-0.2,0-0.3-0.2-0.4-0.3c0-0.1-0.1-0.1-0.2-0.1c0,0-0.1,0-0.1,0.1c-0.1,0.2-0.2,0.2-0.3,0.2c-0.1,0-0.2,0-0.3,0
		c-0.3-0.1-0.3-0.1-0.1-0.3l0.1-0.1c0.2-0.2-0.2-0.2,0-0.4s0.3-0.1,0.3-0.2s-0.2-0.2-0.1-0.3s0.2-0.4,0.2-0.6s0.3-0.2,0.2-0.3
		s0-0.2,0.1-0.3s-0.1-0.2-0.1-0.3s0.2,0,0.2-0.2s0.3,0,0.3-0.2l0,0h-0.2c0,0,0-0.1,0-0.1c0-0.2-0.2-0.4,0-0.5h0.2
		c0.1,0,0.1-0.1,0.1-0.1s-0.1,0-0.1,0h-0.1c-0.1-0.1,0.1-0.2,0.1-0.2c0-0.5,0.1-1.1,0.2-1.6c0-0.3,0-0.6,0.1-0.9
		c0-0.3,0.1-0.5,0.4-0.6c-0.1-0.1-0.1-0.1-0.2-0.1s-0.1,0-0.1-0.1c0.3-0.2-0.1-0.6,0.3-0.7c0,0,0.1,0,0.1-0.1c0,0,0-0.1-0.1-0.1
		c-0.2-0.1-0.1-0.2-0.1-0.3c0-0.3,0-0.7,0.1-1c0-0.2,0.1-0.5,0.1-0.7s0.1-0.3,0.2-0.3c0.2,0,0.2,0.1,0.2-0.1c0-0.1-0.1-0.2-0.2-0.2
		c0,0-0.1,0-0.1,0c0,0-0.1,0-0.1,0c0-0.1,0.1-0.2,0.2-0.2s0.1-0.2,0-0.3s-0.2-0.2,0-0.4c0.1,0,0.1-0.1,0.1-0.2c0-0.1,0-0.2-0.1-0.3
		c-0.1-0.2-0.1-0.3,0.1-0.3s0.1-0.1,0-0.2s-0.2-0.2,0-0.2l0,0c-0.1-0.1-0.3-0.2,0-0.3c-0.3-0.2-0.1-0.4-0.1-0.6
		c0-0.4,0.1-0.9,0.3-1.3c0,0-0.1-0.1-0.1-0.1l0,0c0-0.1,0.3-0.1,0.1-0.3s0.2,0,0.3-0.2s-0.4,0.1-0.3-0.2c0-0.2-0.1-0.3,0.2-0.4
		c0.1,0,0.1-0.1,0-0.2c0,0,0,0,0,0c-0.2-0.1,0.1-0.3-0.1-0.4s0.2-0.1,0.3-0.2s-0.3-0.1-0.2-0.3s0-0.3,0.1-0.3s0,0.1,0,0.2
		s-0.1,0.1,0,0.2s0.1-0.1,0.1-0.2s0-0.2,0.1-0.1c0.3,0.1,0.5-0.1,0.8,0s0.6,0.3,0.8,0c0,0,0.3-0.1,0.1,0.1s-0.1,0.1,0,0.2
		c0.3-0.3,0.7,0,1-0.1s0,0.3,0.2,0.3s0.2,0.2,0.3,0.2c0.3,0.2,0.3,0.2,0.6-0.1c0.2,0,0.3,0.2,0.5,0.2c0,0.2-0.2,0.1-0.2,0.3
		s0.1,0,0.2,0c0.2-0.1,0.4,0,0.6,0.1c0,0,0.1,0.1,0.1,0.1c0.3-0.2,0.4,0.1,0.4,0.2c0.2,0.2,0.4,0.4,0.7,0.5c0.2,0,0.4,0,0.5,0.3
		c-0.1,0-0.2,0-0.2,0.1s0.1,0.1,0.2,0.2c-0.2,0.1-0.4,0.1-0.6,0.2c0.5,0.2,0.7,0.1,0.7-0.4l0.2,0.1c0,0.1,0,0.1,0,0.1h0.3l0.1,0.1
		c0,0.1-0.1,0.2-0.1,0.4c0.2-0.1,0.3-0.1,0.5-0.1c0.1,0.3,0.5,0.3,0.7,0.5h-0.1c-0.2,0.1-0.3,0.2-0.3,0.4c0,0,0,0,0.1,0
		S214.4,60.6,214.4,60.3C214.5,60.4,214.4,60.3,214.4,60.3z M219.8,78.2C219.8,78.2,219.8,78.1,219.8,78.2L219.8,78.2
		C219.7,78.3,219.7,78.3,219.8,78.2C219.8,78.3,219.8,78.3,219.8,78.2L219.8,78.2C219.9,78.2,219.8,78.2,219.8,78.2z M205.6,58.3
		L205.6,58.3L205.6,58.3z"/>
	<path class="st3" d="M173.6,142.4c-0.1-0.4-0.4-0.4-0.7-0.6c-0.4-0.3-0.9-0.6-1.3-0.9c-0.1-0.1-0.2-0.3-0.1-0.4c0,0,0,0,0,0
		c0.2-0.4,0.4-0.8,0.6-1.2s0.5-1,0.8-1.4s0.4-0.8,0.6-1.1c0.2-0.2,0.3-0.5,0.4-0.8c0.3-0.5,0.6-1,0.9-1.6s0.6-1.2,1-1.8
		s0.6-1,0.9-1.6s0.6-1,0.9-1.6c0.2-0.3,0.4-0.6,0.5-0.9c0.3-0.6,0.6-1,0.9-1.6c0.2-0.5,0.5-0.9,0.8-1.4c0.3-0.5,0.6-1,0.8-1.5
		c0.5-1.1,1.2-2.1,1.7-3.2c0.3-0.6,0.6-1.1,0.9-1.6c0.5-0.9,1-1.8,1.6-2.7c0.4-0.5,0.7-1.1,0.9-1.7c0-0.1,0.2-0.2,0.3-0.3
		c0.1-0.2,0.1-0.3,0.2-0.5c0-0.4,0.2-0.7,0.4-0.9c0.6,0.2,1.2,0.4,1.9,0.5c0.5,0,1,0.1,1.4,0.3l1.2,0.8c0.6,0.5,1.2,1,1.8,1.6
		c0.7,0.8,1.4,1.6,2.1,2.4c0.3,0.3,0.6,0.6,0.8,1c0.1,0.1,0.1,0.4-0.1,0.5c0,0,0,0,0,0c-0.4,0.4-0.7,0.8-1.1,1.2
		c-0.7,0.8-1.4,1.4-2,2.2c-0.5,0.6-1,1.1-1.5,1.6l-3,3.2l-0.9,1c-0.7,0.8-1.4,1.5-2.1,2.3c-0.5,0.6-1.1,1.1-1.6,1.7
		c-0.7,0.8-1.5,1.6-2.2,2.4c-0.5,0.5-1,1-1.4,1.6c-0.6,0.7-1.2,1.4-1.9,2c-0.9,1-1.8,2-2.8,3c-0.1,0.1-0.3,0.3-0.3,0.4l-1-0.4
		C173.8,142.4,173.7,142.4,173.6,142.4L173.6,142.4z"/>
	<path class="st6" d="M157.6,47.2c-0.6,0.2-1.3,0.3-1.9,0.5c-0.3,0.1-0.5,0.1-0.8,0.2c-0.2,0.1-0.4,0.1-0.7,0
		c-1.6-0.5-3.3-1.1-4.9-1.5c-0.1,0-0.2-0.1-0.3-0.1c-0.2-0.1-0.3-0.2-0.2-0.5s0.2-0.4,0.1-0.7l0.3-0.2c0.8-0.4,1.7-0.8,2.4-1.3
		c0.8-0.5,1.7-0.9,2.6-1.2c0.2,0,0.4-0.1,0.6-0.1c0.3-0.1,0.6-0.3,1-0.4c1.2-0.4,2.4-0.8,3.7-1.2l1.5-0.5c0.1,0,0.1-0.1,0-0.2
		c0.5-0.2,1-0.3,1.6-0.4l4.2-0.7c2.1-0.4,4.2-0.6,6.3-0.8c0.8-0.1,1.7-0.1,2.5-0.1c0.5,0.1,1.1,0.1,1.6,0.1c0.8,0.2,1.5,0.2,2.3,0.4
		c1.6,0.3,3.1,0.7,4.7,1.2c0.2,0.1,0.4,0.1,0.6,0.2s0.3,0.2,0.2,0.4s-0.3,0.7-0.5,1.1c-0.4,0.7-0.7,1.4-1.1,2.1s-0.8,1.5-1.2,2.2
		s-0.7,1.4-1.1,2.1c-0.1,0.3-0.3,0.5-0.4,0.8c0,0.1-0.1,0.1-0.2,0.1c0,0,0,0,0,0c-1.6-0.6-3.3-1.1-5-1.5c-0.9-0.3-1.9-0.5-2.8-0.6
		c-0.4,0-0.8-0.2-1.1-0.3c-0.2,0-0.4,0-0.6,0c-0.2-0.1-0.5-0.2-0.7-0.3c-0.9-0.2-1.7-0.4-2.6-0.5c-0.7-0.1-1.4-0.2-2.1-0.2
		c-1.9,0-3.8,0.2-5.7,0.7C159.1,46.5,158.3,46.8,157.6,47.2z"/>
	<path class="st7" d="M175.6,38.2c-0.8,0-1.7,0-2.5,0.1c-2.1,0.1-4.2,0.4-6.3,0.8l-4.2,0.7c-0.5,0.1-1.1,0.2-1.6,0.4
		c-0.8,0.2-1.6,0.4-2.4,0.6c-1.5,0.5-3,1.1-4.4,1.8c-0.9,0.3-1.7,0.7-2.6,1.2c-0.8,0.5-1.6,0.8-2.4,1.3l-0.3,0.2
		c-1,0.5-1.9,1.1-2.8,1.7c-0.6,0.3-1.1,0.7-1.6,1.1c-0.6,0.3-1.1,0.7-1.6,1.2c-1,0.8-2.1,1.5-3,2.4c-0.4,0.3-0.7,0.7-1,1
		c-0.6,0.7-1.3,1.3-1.8,1.9c-0.6,0.6-1.1,1.3-1.6,2c-0.1,0.1-0.2,0.3-0.3,0.4l0,0c-0.1,0-0.1,0-0.1,0.1l0,0c-0.1,0-0.2,0.1-0.2,0.3
		c-0.8,1.2-1.5,2.4-2.2,3.6c0,0.1,0,0.1,0,0.2l0,0l0,0c-0.1,0.1-0.2,0.3-0.2,0.4l0,0c-0.1,0.2-0.2,0.3-0.3,0.5
		c-0.4,0.7-0.7,1.5-1,2.2c-0.1,0.2-0.2,0.4-0.3,0.6c-0.1,0.2-0.2,0.3,0,0.4c-0.1-0.1-0.2,0-0.2,0.1c-0.1,0.3-0.2,0.7-0.3,1
		c-0.4,1.1-0.7,2.2-0.9,3.4c-0.4,1.8-0.7,3.5-0.9,5.3c-0.2,1.3-0.2,2.7-0.1,4c0,0,0,0.1,0,0.1c0.1,1.2,0.2,2.5,0.4,3.7
		c0.2,1.5,0.5,3,0.9,4.4c0.4,1.9,1,3.7,1.8,5.4c1.8,4,3.6,7.9,5.7,11.7c0.4,0.7,0.7,1.4,1.1,2c0.1,0.2,0.2,0.4,0.3,0.6
		c1.2,2.2,2.4,4.4,3.5,6.7c1.1,2.1,2.1,4.4,3,6.6c0.5,1.5,1.2,2.9,1.6,4.4c0.2,0.8,0.5,1.5,0.8,2.3c0.3,0.9,0.5,1.8,0.8,2.7
		c0.6,1.8,1.2,3.6,1.8,5.4c0.1,0.3,0.2,0.5,0.4,0.8c0.3,0.4,0.2,1-0.2,1.3c-0.1,0.1-0.2,0.1-0.2,0s-0.4-0.3-0.4-0.6
		c0-0.5-0.1-0.9-0.3-1.3c-0.6-1.6-1.1-3.3-1.7-5c-1.6-4.8-3.3-9.5-5.1-14.3c-0.4-0.9-0.8-1.7-1.3-2.6c-2.1-4.2-4.3-8.3-6.4-12.5
		c-1.6-3.2-3-6.4-4.4-9.7c-0.6-1.4-1.1-2.8-1.7-4.2c-0.3-0.9-0.5-1.8-0.7-2.7c-0.6-3.4-0.9-6.9-0.7-10.4c0.1-1.2,0.3-2.5,0.6-3.7
		c0.2-0.9,0.4-1.7,0.6-2.6c0.1-0.5,0.2-0.9,0.4-1.4c0.5-1.6,1-3.2,1.6-4.7c0.7-1.9,1.6-3.6,2.7-5.3c1.7-2.3,3.6-4.5,5.8-6.3
		c2.5-2.2,5.2-4.1,8.1-5.7c2.6-1.5,5.2-2.8,8-3.9c1.3-0.5,2.7-0.9,4.1-1.2c0.3-0.1,0.6-0.1,0.8-0.3c0.6-0.2,1.2-0.4,1.8-0.5
		c1-0.3,2-0.6,3.1-0.9c0.8-0.1,1.6-0.3,2.4-0.4c2.2-0.3,4.4-0.5,6.6-0.5c2.5-0.1,5,0,7.5,0.1c1.7,0.1,3.4,0.3,5.1,0.5
		c2.1,0.3,4.3,0.8,6.3,1.5c1.6,0.6,3.3,1.1,4.9,1.8c1.8,0.7,3.6,1.5,5.4,2.4c2.4,1.1,4.7,2.4,6.9,3.7c1.2,0.8,2.4,1.7,3.5,2.6
		c0.3,0.2,0.6,0.4,0.9,0.6c0.4,0.2,0.7,0.6,0.7,1.1c-0.3-0.1-0.6-0.2-0.8-0.5c-0.6-0.4-1.3-0.9-1.9-1.3c-0.7-0.5-1.4-0.9-2.2-1.3
		c-2.5-1.3-4.9-2.5-7.4-3.8c-2.5-1.3-5.2-2.5-7.8-3.4c-1.2-0.4-2.4-0.7-3.5-1c-2.2-0.6-4.4-0.9-6.7-1.1c-1.6-0.2-3.3-0.3-4.9-0.4
		c0,0-0.1-0.1-0.1,0c0,0,0,0,0,0c-0.8-0.1-1.6-0.1-2.3-0.1c-0.1,0-0.3,0-0.4,0L175.6,38.2z"/>
	<path class="st8" d="M221.8,70.3c0-0.1,0.1-0.2,0.1-0.3c0-0.3,0-0.3,0.2-0.4c-0.2-0.1-0.3-0.3-0.3-0.5c0,0,0,0,0-0.1
		c0.1-0.2,0.1-0.3-0.1-0.3s-0.1-0.1,0-0.2s0.2,0,0-0.2c0.1-0.3-0.2-0.3-0.3-0.6c0.1-0.2,0.4-0.1,0.5-0.3c-0.1-0.2-0.3,0.1-0.3-0.1
		v-0.1c0.5-0.1,1-0.1,1.4,0.1c0.1,0,0.1,0,0.1,0.1s0.1,0.1,0.1,0.1c0.3-0.2,0.6,0.1,0.9,0.1c0.1,0,0,0.1,0,0.2h-0.2
		c-0.1,0-0.1,0-0.1,0.1s0.1,0.1,0.1,0c0,0,0.1-0.1,0.1-0.1c0.2,0,0.4,0,0.7,0.1c0.3,0.1,0.3,0.1,0.2,0.5c0,0.1,0,0.2,0.1,0.2
		s0.2,0,0.2-0.1s0.1-0.4,0.4-0.3c1.2,0.7,2.3,1.5,3.4,2.3c0-0.2-0.1-0.3-0.2-0.4c-0.3-0.2-0.5-0.5-0.8-0.8c0.1-0.1,0.2-0.1,0.3,0
		s0.4,0.2,0.6,0.2c0.3,0.4,0.6,0.9,0.8,1.3c0.7,1.3,1.2,2.6,1.6,4c0.5,1.8,0.9,3.5,1.3,5.3c0.1,0.4,0.2,0.8,0.2,1.2
		c0,0.2-0.2,0.1-0.3,0.2s0.2,0.1,0.2,0.2s0.2,0.3-0.1,0.3c-0.1,0,0,0.1,0.1,0.1s0.2,0,0.2,0.1l-0.1,0.3h-0.5
		c0.1,0.2,0.2,0.3,0.4,0.3s0.2,0.1,0.3,0.2c0,0.2,0,0.4,0,0.6c-0.3,0.1-0.4,0.5-0.8,0.3c0.3,0.3,0.4,0.4,0.6,0.2
		c0.1-0.1,0.1-0.1,0.2-0.2c-0.1,0.3,0.1,0.5,0.1,0.8c-0.1,0-0.2,0-0.1,0.1s0.1,0,0.2,0c0,0.1,0,0.2-0.1,0.2
		c-0.4-0.1-0.6-0.1-0.8,0.3c0.4,0.2,0.4,0.2,0.4,0.1l-0.3-0.2c0.2,0,0.5,0,0.7,0v0.4h-0.4l0,0l0,0l0,0c0,0.2,0.1,0.1,0.2,0.1
		s0.3,0.1,0.2,0.3c-0.1,0-0.1,0-0.1,0.1s0.1,0.1,0.1,0.1c0,0,0,0,0,0.1c0,0,0,0.1,0,0.1l-0.1,0.2c-0.1,0-0.3,0-0.3,0.2
		c0.1,0,0.2-0.2,0.3-0.1s0.1,0.1,0.1,0.2c-0.1,0.4-0.1,0.8-0.1,1.2c-0.1,0.2,0,0.2,0.1,0.2c-0.1,0.1-0.1,0.3,0,0.5
		c0,0.1-0.3,0.1-0.1,0.3c0.1,0.5-0.1,1,0,1.4c0,0.1,0,0.1-0.1,0.2s-0.1,0.1-0.1,0.1c0,0.1,0,0.2-0.1,0.2c-0.1,0-0.1,0.1-0.1,0.1
		s-0.2,0-0.3-0.1s-0.1-0.2-0.2-0.2c-0.1,0-0.1-0.1-0.1-0.2c0.2,0,0.2-0.2,0.2-0.3c-0.1,0.1-0.2,0.1-0.3,0.1
		c-0.1-0.1-0.1-0.4-0.4-0.4c-0.1,0-0.2,0-0.3,0c-0.2,0-0.5,0-0.4-0.3c0-0.1-0.1-0.1-0.2-0.1c-0.1,0-0.3,0-0.4-0.1c0,0,0.1,0,0.1-0.1
		c0,0,0-0.1,0,0s-0.1,0.1-0.1,0.1c-0.1-0.2-0.3-0.1-0.4-0.2s-0.3,0-0.3-0.2c0.2,0,0.3,0,0.4-0.2c-0.2,0.1-0.3-0.2-0.5-0.2
		s-0.1,0-0.1-0.1c0-0.1,0.1-0.2,0.1-0.2c0,0,0,0,0,0c0.3,0,0.5-0.1,0.8,0c0.1,0,0.1-0.1,0.1-0.2s0.2-0.1,0-0.2s-0.2,0-0.2,0.1
		c-0.1,0.1-0.2,0.1-0.3,0.1c-0.4-0.1-0.7,0.1-1.1-0.1s-0.3,0.1-0.2,0.2h-0.2c-0.1-0.3-0.3-0.2-0.4-0.2l0,0c0.1-0.2,0.2-0.3,0.1-0.5
		c-0.2,0.3-0.4,0.1-0.6,0.2c0,0,0,0,0-0.1v-0.1v0.1c-0.2-0.1-0.5,0.1-0.6-0.2c0.1-0.1,0.2-0.2,0.1-0.3c-0.2,0-0.2,0.1-0.2,0.3
		c-0.1,0-0.2,0-0.3,0c-0.1,0-0.3,0-0.3-0.1c0,0,0,0,0,0h0.1c0,0,0.1,0,0.1-0.1s-0.1,0-0.1,0H226c-0.2,0-0.3,0-0.5-0.1
		c0-0.1,0-0.1-0.1-0.2c-0.1-0.2-0.1-0.2-0.3,0c-0.3,0-0.5-0.3-0.8-0.3c0-0.1,0.1-0.1,0-0.2c-0.2,0-0.5,0-0.7-0.2
		c-0.2-0.1-0.3-0.1-0.5-0.2c0-0.1,0.1-0.2,0-0.2s-0.2,0-0.2,0.1c-0.2,0.1-0.3-0.1-0.4-0.3s-0.3-0.1-0.4,0c0-0.2-0.3-0.1-0.3-0.3
		s0.2-0.3,0.1-0.4c0,0,0-0.1,0-0.1c0.1-0.1,0.2-0.3,0.1-0.5c0.1-0.1,0.1-0.2,0.1-0.3c0.3-0.1,0.6-0.3,0.8-0.5
		c-0.4-0.1-0.6,0.3-0.9,0.3l0.1-0.2c0.1-0.1,0.3-0.1,0.1-0.2c0-0.1,0.1-0.3,0.2-0.4c0.1,0,0.3,0,0.2-0.2s-0.1,0-0.2,0
		c0-0.2,0-0.4,0.1-0.5c0.1-0.2,0.2-0.4,0.1-0.6c0.1,0,0.1-0.1,0.1-0.2c0,0,0-0.1,0-0.1c0.4,0,0.5-0.1,0.5-0.5
		c-0.1,0.2-0.4,0.2-0.5,0.4c-0.2-0.1,0-0.2,0-0.3l0,0c0.1,0,0.2,0.1,0.2,0s0-0.1,0-0.1s-0.1,0-0.2,0l0,0v-0.8c0.1,0,0.2,0.1,0.3,0
		s-0.1-0.1-0.2-0.1h-0.1c0.1-0.1,0-0.3,0-0.4s0.2-0.1,0.3-0.1s0.1-0.1,0-0.2s-0.1,0-0.1,0s-0.2,0-0.2-0.1v-0.5c0.1,0,0.1,0,0.1-0.1
		s-0.1-0.1-0.1,0s-0.1-0.1,0-0.2s0.1,0,0.1-0.1s0-0.3,0-0.3c-0.2-0.2-0.2-0.5-0.1-0.8c0.1-0.3-0.1-0.5-0.1-0.8c0.1,0,0.2,0,0.1-0.1
		s-0.1,0-0.2,0v-0.2c0.2,0,0.3,0.2,0.4,0.4c0.1-0.2,0.3-0.3,0.4-0.5s0.1-0.2-0.1-0.2l-0.1-0.1c0-0.1,0.1-0.2,0-0.3
		c-0.2,0.2-0.2,0.2-0.7,0.3c0.1-0.1,0.2-0.2,0-0.3c0-0.1,0-0.2,0-0.3c0.2-0.1,0.3-0.2,0.3-0.4c0-0.1,0-0.1-0.1-0.2s-0.2,0.1-0.2-0.1
		s-0.2-0.6,0-0.9c0.1-0.1,0.2-0.2,0.2-0.3s0.1,0,0.1-0.1s0,0-0.1,0s-0.1,0.1-0.1,0.2s-0.2,0.1-0.3,0c0-0.1,0-0.2,0-0.3
		c0-0.1,0.1-0.2,0.1-0.3s0.1-0.4-0.1-0.6c-0.2,0.1-0.4-0.1-0.4-0.2c-0.1-0.2,0.1-0.4,0.2-0.4c0.1-0.1,0.1-0.2,0-0.3c0,0,0,0,0,0
		c-0.1-0.1-0.1-0.2,0-0.3s0.4,0,0.5-0.1s0.1-0.1,0.1-0.2s-0.1-0.1-0.1-0.1L221.8,70.3z M232.6,89.1L232.6,89.1L232.6,89.1
		C232.6,89.1,232.6,89.2,232.6,89.1L232.6,89.1z M222,85.2c0.1,0.4,0.6,0,0.6,0.5c0,0,0.1,0,0.1,0s0.3-0.2,0.2-0.4
		C222.6,85.3,222.3,85.3,222,85.2L222,85.2z M222.7,76.8L222.7,76.8C222.8,76.8,222.8,76.8,222.7,76.8S222.7,76.8,222.7,76.8
		L222.7,76.8z M222,68.5L222,68.5L222,68.5z"/>
	<path class="st6" d="M182.3,141.9c-0.1-0.1-0.2,0-0.3,0.1l-1.4,0.9l-2,1.3c-0.2,0.1-0.3,0.1-0.4,0c-0.4-0.6-0.8-1.1-1.2-1.6
		c-0.2-0.3-0.2-0.3,0-0.6s0.6-0.6,1-0.9c0.9-0.8,1.8-1.7,2.8-2.5c0.6-0.5,1.2-1.1,1.7-1.6l2-1.8c0.6-0.6,1.3-1.2,1.9-1.8
		c0.8-0.7,1.6-1.4,2.4-2.2s1.3-1.3,2-1.9c0.5-0.4,0.9-0.9,1.4-1.3s0.8-0.8,1.2-1.1c1.2-1.1,2.4-2.2,3.6-3.3c0.3-0.3,0.5-0.5,0.8-0.7
		c0.2-0.1,0.3-0.3,0.3-0.5c0-0.3,0.1-0.6,0.3-0.8c0.2-0.3,0.5-0.5,0.8-0.5h0.3c0,0.2,0.1,0.4,0.3,0.3s0.6,0.1,1,0.2
		c0.1,0.3,0.4,0.3,0.6,0.5c1.3,1.1,2.5,2.3,3.7,3.6c0.2,0.1,0.2,0.4,0.1,0.6c0,0-0.1,0.1-0.1,0.1c-0.2,0.2-0.3,0.3-0.5,0.5
		c-0.1,0.1-0.2,0.2-0.1,0.3l0,0c-0.1,0-0.3,0-0.3,0.2l0,0c-0.1,0-0.2,0-0.2,0.1c-0.1,0.1-0.2,0.2-0.3,0.2c-3.8,2.4-7.6,4.7-11.4,7.1
		c-1.6,1.1-3.2,2.1-4.8,3.2c-1.5,1-2.8,2.1-4.2,3.2c-0.2,0.2-0.3,0.4-0.6,0.5l-0.1,0.1l0,0C182.5,141.8,182.3,141.8,182.3,141.9
		L182.3,141.9z"/>
	<path class="st7" d="M182.6,141.6c0.3-0.1,0.4-0.3,0.6-0.5c1.3-1.2,2.7-2.2,4.2-3.2c1.6-1.1,3.2-2.1,4.8-3.2
		c3.7-2.5,7.6-4.7,11.4-7.1c0.1-0.1,0.2-0.1,0.3-0.2c0.1,0,0.1,0,0.2-0.1l0,0c0.1,0,0.2-0.1,0.3-0.2l0,0c0.1,0,0.2-0.1,0.3-0.2
		c1-0.6,2-1.2,3-1.8c0.6-0.4,1.2-0.8,1.8-1.1c0.9-0.5,1.8-1.1,2.6-1.7c0.3-0.1,0.5-0.3,0.7-0.4c0.4-0.4,0.9-0.7,1.4-1
		c1.2-0.7,2.2-1.5,3.1-2.4c0.1-0.1,0.2-0.2,0.4-0.3c1.9-1.5,3.7-3.1,5.4-4.7c1.6-1.6,3-3.3,4.1-5.2c1.1-1.9,2.3-3.8,3.2-5.8
		c0-0.1,0.1-0.2,0.1-0.3l0,0l0,0c0.2-0.2,0.3-0.4,0.4-0.7l0,0c0.2-0.2,0.3-0.4,0.3-0.6l0.1-0.1c0.2-0.3,0.4-0.6,0.5-0.9l0,0
		c0.1-0.2,0.2-0.3,0.3-0.6c0,0,0-0.1,0-0.1c0.1-0.1,0.1-0.2,0.1-0.3c0.2-0.7,0.4-1.3,0.5-2c0.1-0.2,0.1-0.3,0.1-0.5
		c0.2-0.8,0.3-1.7,0.4-2.6c0-0.1,0-0.1,0-0.2c0-0.1,0-0.1,0.1-0.2c0.2-1,0.2-2.1,0.3-3.1c0.1-1.8,0-3.5-0.1-5.3
		c0-0.8-0.1-1.7-0.2-2.5c0-0.3-0.1-0.7-0.2-1c0-0.4-0.1-0.8-0.2-1.2c-0.4-1.8-0.9-3.5-1.3-5.3c-0.4-1.4-0.9-2.7-1.6-4
		c-0.2-0.5-0.5-0.9-0.8-1.3c-0.1-0.5-0.3-1-0.5-1.5c0,0-0.1-0.1-0.1-0.1c-0.5-0.6-0.9-1.2-1.2-1.8c-0.2-0.4-0.4-0.8-0.7-1.2l0,0
		c0-0.1,0-0.1-0.1-0.2l0,0c0-0.1,0-0.2-0.1-0.2c-0.2-0.4-0.4-0.8-0.7-1.1c-1-1.4-1.9-2.7-2.9-4.1c-0.2-0.3-0.4-0.6-0.7-0.9
		c0-0.1-0.1-0.2-0.2-0.2l0,0c-0.3-0.4-0.6-0.7-0.9-1l0,0l0,0l0,0c-0.3-0.5-0.6-0.9-1-1.3c-0.1-0.2-0.2-0.3-0.4-0.5c0,0,0-0.1,0-0.2
		c0,0,0,0,0,0c0.1,0,0.1,0,0.1,0c0.4,0.4,0.8,0.7,1.2,1.1c1.4,1.3,2.6,2.8,3.7,4.3c0.5,0.8,1.1,1.5,1.6,2.3c1.5,2.2,2.8,4.6,4,6.9
		c1.1,2.1,2.1,4.3,3,6.4c0.2,0.5,0.3,1,0.5,1.5c0.6,2.1,1,4.3,1.3,6.5c0.2,1.9,0.3,3.8,0.2,5.6c0,0.3,0,0.7,0,1s0.1,0.5-0.1,0.8
		c-0.1,0.1,0,0.3,0,0.4c0,1-0.1,2-0.3,3c-0.4,1.9-0.9,3.7-1.6,5.5c-0.7,1.7-1.5,3.3-2.2,4.9c-0.3,0.5-0.6,1-0.9,1.5
		c-1.8,2.6-3.8,5.1-6,7.4c-0.9,0.9-1.9,1.8-3,2.6c-1.7,1.3-3.4,2.6-5.1,3.9c-1.2,0.9-2.5,1.6-3.8,2.4l-9.9,6
		c-3.7,2.3-7.4,4.6-11.1,6.8c-2,1.2-3.9,2.6-5.8,4.1c-1.3,1.1-2.6,2.1-3.9,3.2c-0.1,0.1-0.3,0.2-0.4,0.2l-0.1-0.1
		c0.3-0.5,0.7-0.9,1.1-1.3c0.1-0.1,0.3-0.2,0.3-0.4l0,0C182.5,142,182.6,141.8,182.6,141.6L182.6,141.6
		C182.6,141.7,182.6,141.7,182.6,141.6z"/>
	<path class="st9" d="M189.9,67.9c1,0.3,2.1,0.5,3.1,0.8c1.3,0.3,2.6,0.8,3.8,1.3c0.9,0.5,1.7,1,2.5,1.5c0.3,0.2,0.6,0.3,0.9,0.4
		c0.3,0.2,0.6,0.3,0.9,0.4c0.3-1.1,0.6-2.3,0.8-3.4c0.7-3.7,1.1-7.5,1.2-11.3c0-1.1,0-2.2,0.1-3.3c0-0.4,0-0.8-0.2-1.2
		c0-0.1,0-0.1,0-0.2c0-0.5-0.1-1-0.1-1.5c-0.1-0.5-0.1-1-0.1-1.5c0.1,0.1,0.2,0.3,0.3,0.5c0.2,0.5,0.3,1,0.5,1.5
		c0.1,0.2,0.1,0.4,0.2,0.5c0.1,0.2,0.2,0.5,0.2,0.8c0.1,0.5,0.1,0.9,0.3,1.4c0.2,0.8,0.3,1.7,0.3,2.6c0.1,2.2,0,4.5-0.4,6.7
		c-0.3,2.2-0.8,4.4-1.4,6.5c-0.3,1.1-0.6,2.2-0.9,3.3c-0.2,1.1-0.5,2.1-0.9,3.1c-0.8,2.2-1.6,4.4-2.4,6.5c-0.3,0.7-0.5,1.5-0.7,2.2
		c-0.2,0.5-0.4,0.9-0.6,1.4c-0.5,1.1-0.9,2.1-1.2,3.2c-0.1,0.2-0.2,0.4-0.3,0.7c-0.2,0.3-0.4,0.6-0.5,1c-0.4,0.7-0.8,1.4-1.1,2.1
		c-0.5,0.8-0.8,1.6-1.2,2.4c-2,4.2-4,8.4-6.3,12.5c-1.1,2.1-2.4,4.1-3.6,6.2c-2.2,3.9-4.4,7.9-6.4,11.9c-1.1,2.2-2.2,4.4-3.2,6.6
		c-0.3,0.7-0.6,1.3-0.9,2c-0.2,0.6-0.6,1.2-1.1,1.6c0,0-0.1,0.1-0.2,0.1c0.1-0.4,0.2-0.8,0.3-1.1c1.4-3.4,2.9-6.7,4.6-9.9
		c2-4,4.1-7.9,6.3-11.8l3.2-5.7c0.4-0.7,0.7-1.5,1.1-2.3c0.5-1,1-1.9,1.4-2.8c0.1-0.2,0.1-0.4,0.2-0.6c0.4-1.2,0.9-2.4,1.6-3.5
		c0.8-1.4,1.4-2.8,2-4.2c0.9-1.9,1.7-3.9,2.5-5.8c1-2.5,2-5,3-7.5c0.8-2.2,1.7-4.4,2.5-6.6c0.3-0.8,0.4-1.6,0.7-2.4
		c0.1-0.2-0.1-0.3-0.2-0.4l-1.4-0.8c-0.2-0.1-0.4-0.2-0.6-0.3s-0.3-0.2-0.4-0.1s-0.1,0-0.2,0c-0.5-0.2-1-0.4-1.5-0.7l0,0
		c-0.2-0.4-0.6-0.4-0.9-0.4c-0.5-0.1-1-0.3-1.5-0.5c-1.1-0.5-2.2-0.8-3.4-0.9c-1.4-0.2-2.7-0.5-4.1-0.6c-2.3-0.3-4.6-0.4-6.9-0.3
		c-0.7,0-1.4,0.1-2,0.4c-0.4,0.2-0.9,0.3-1.4,0.4l0,0c-0.1,0-0.3,0.1-0.3-0.1s0.1-0.2,0.2-0.3c0.6-0.5,1.4-0.8,2.2-1
		c0.9-0.3,1.9-0.4,2.9-0.3c2.2,0.1,4.5,0.3,6.7,0.6C188.6,67.6,189.3,67.8,189.9,67.9z"/>
	<path class="st10" d="M167.7,164.3c0.1,0.1,0.2,0.2,0.4,0.3c0.2,0.1,0.3,0.2,0.2,0.4c-0.4,0.9-0.8,1.9-1.2,2.8s-0.8,2.2-1.3,3.2
		c-0.2,0.4-0.4,0.7-0.5,1.1c-0.3,0.5-0.6,1-0.8,1.6c-0.4,0.6-0.7,1.3-1.1,1.9c-0.1,0.2-0.3,0.3-0.5,0.4c-0.1,0.1-0.2,0.1-0.3,0
		c-1-0.7-2.1-1.2-3.3-1.6c-0.5-0.2-1-0.4-1.5-0.6c-1-0.4-2-0.7-3-1.1c-0.4-0.1-0.4-0.1-0.3-0.5c0.3-1.4,0.7-2.8,1-4.3
		c0.5-2.1,1-4.3,1.5-6.4c0.1-0.6,0.1-0.6,0.8-0.5l1.4,0.2c0.1,0.1,0.3,0,0.4-0.1c0.7,0.3,1.5,0.4,2.3,0.3c0.9,0.4,1.8,0.8,2.7,1.3
		c0.1,0.1,0.3,0.2,0.5,0.1c0.1,0,0.1,0,0.1,0.1c0.4,0.5,1,0.9,1.7,1.1C167.2,164.2,167.5,164.2,167.7,164.3z M163.1,162.4
		c-0.2,0.2-0.3,0.5-0.4,0.8c-0.5,1.3-1,2.7-1.4,4c-0.5,1.7-1.1,3.3-1.7,4.9c-0.2,0.5-0.4,1.1-0.5,1.6c0.4,0,0.6-0.1,0.7-0.4
		c0.5-1.6,1-3.1,1.5-4.7c0.6-2,1.2-4,1.8-5.9C163.1,162.6,163.1,162.5,163.1,162.4L163.1,162.4L163.1,162.4z"/>
	<path class="st6" d="M202.9,53c0,0.1,0,0.1,0,0.2c-0.1,0.1-0.2,0.2-0.3,0.1c-0.5-0.3-1-0.6-1.6-1c-0.7-0.4-1.4-0.8-2.1-1.1
		c-0.5-0.2-0.9-0.4-1.4-0.6c-0.2-0.1-0.4-0.1-0.5-0.1l0,0c0-0.1-0.1-0.1-0.1-0.1s-0.3,0-0.4-0.1c-0.7-0.3-1.4-0.7-2.1-1
		c-1-0.4-2.1-0.7-3.1-1c-1.2-0.3-2.5-0.4-3.7-0.4c-0.8,0-1.5,0.1-2.3,0.3c-0.5-0.2-1-0.1-1.5-0.2c-0.3-0.1-0.3-0.1-0.2-0.4
		c0.1-0.2,0.2-0.5,0.4-0.7c0.5-0.7,0.9-1.5,1.4-2.2c0.7-1.2,1.5-2.3,2.1-3.5c0.2-0.3,0.4-0.6,0.6-0.9c0.1-0.1,0.2-0.1,0.3-0.1
		c1.5-0.1,3,0.1,4.5,0.5c1.6,0.5,3.1,1.1,4.6,1.8c0.9,0.4,1.7,0.9,2.5,1.4c0.3,0.2,0.6,0.5,0.7,0.9c0.6,2.2,1.2,4.4,1.8,6.6
		c0.1,0.4,0.2,0.8,0.3,1.3C202.8,52.8,202.8,52.9,202.9,53z"/>
	<path class="st11" d="M169.5,141.8c-0.1,0.2,0,0.3,0.2,0.3l1.5,0.9c1,0.5,2,0.9,3,1.3c0.4,0.2,0.8,0.3,1.3,0.5
		c0.1,0.1,0.3,0.2,0.4,0.1l0,0c0,0.1,0.1,0.1,0.1,0.1c0.1,0,0.2,0.1,0.3,0.3c0.2,0.5,0.2,1.1,0.2,1.7c0,0.2-0.1,0.4-0.3,0.5
		c-0.2,0-0.5,0.1-0.7,0.1c-0.9-0.1-1.9-0.1-2.8-0.1h-1.4c-0.2,0-0.3,0-0.4,0.1l-1.2-0.2c-0.2,0-0.4,0-0.6-0.1s-0.2-0.1-0.2-0.2
		c0.2-0.4,0.3-0.9,0.5-1.3s0.4-1.1,0.6-1.7c0-0.1,0.1-0.1,0-0.2c-0.1,0-0.2,0-0.2,0c-0.1,0.1-0.2,0.2-0.3,0.3
		c-0.2,0.3-0.3,0.5-0.4,0.8c-0.2,0.6-0.5,1.2-0.7,1.8c-0.2,0.5-0.2,0.5-0.7,0.5c-0.6-0.1-1.3-0.2-1.9-0.2c-0.6-0.1-1.1-0.2-1.6-0.5
		c-0.2-0.1-0.4-0.2-0.6-0.1c-0.3-0.1-0.6-0.4-0.9-0.5c-1-0.5-2.1-0.8-3.2-1c-0.2,0-0.3-0.1-0.3-0.3s0-0.5,0.1-0.8
		c0.1-1.4,0.2-2.8,0.3-4.2c0-0.1,0.1-0.2-0.1-0.3s-0.2,0.1-0.2,0.2c-0.2,0.6-0.3,1.1-0.4,1.7c-0.1,1.1-0.2,2.1-0.3,3.2
		c0,0.1,0,0.3-0.1,0.3c-0.3-0.2-0.6-0.3-1-0.3c-0.5,0-0.9-0.2-1.3-0.6c-0.8-0.8-1.7-1.5-2.6-2.2l-1.3-1.1c-0.2-0.2-0.3-0.4-0.3-0.6
		c-0.1-0.7-0.2-1.4-0.2-2.1c0-0.4,0.3-0.7,0.7-0.7c0,0,0.1,0,0.1,0c0.2,0,0.4,0.1,0.6,0.2c-0.4,0.2-0.8,0.1-1.3,0.4
		c0.2,0,0.4,0,0.6,0c0.3,0,0.7,0,1,0c0.9,0.1,1.8,0.2,2.7,0.5c0.6,0.2,1.3,0.4,2,0.6c0.1,0,0.2,0,0.3-0.1c0.6,0.1,1.1,0.2,1.7,0.2
		c0.3,0,0.6,0,0.9,0c0.2,0,0.3,0,0.5,0c-0.1,0.1,0,0.2,0.1,0.2l0.7,0.1c0.5,0.1,1-0.1,1.4,0l0.2,0.1c1.1,0.4,2.1,0.8,3.2,1.4
		c0.2,0.2,0.5,0.2,0.7,0.2c0.2,0.1,0.3,0.1,0.4,0.3C168.7,141.5,169.1,141.7,169.5,141.8z"/>
	<path class="st2" d="M208,55.5c-0.1-0.2-0.3-0.3-0.6-0.3c-0.5-0.2-1.1-0.3-1.6-0.4c-0.1,0-0.2-0.1-0.3-0.2
		c-0.3-0.4-0.6-0.8-0.8-1.3c-0.6-1.1-1.3-2.3-1.8-3.4c-0.5-1.1-0.9-2.2-1.2-3.4c-0.1-0.4,0-0.8,0.1-1.1c0.1-0.2,0.2-0.3,0.4-0.3
		c0.5,0,0.9,0.1,1.4,0.3c0.7,0.2,1.4,0.5,2.1,0.8c1,0.4,1.9,1,2.8,1.7c0.6,0.5,1.2,1,1.8,1.5c1.4,1.1,2.7,2.3,3.8,3.7
		c0.9,1.1,1.6,2.2,2.4,3.4c1,1.6,2,3.2,2.9,4.8c0.2,0.4,0.4,0.8,0.6,1.1c0.1,0.1,0.1,0.2,0,0.2c-0.3-0.1-0.4-0.3-0.7-0.4L219,62
		c-0.2-0.3-0.4-0.6-0.6-1c-1-1.3-2.2-2.5-3.6-3.3c-1.5-0.9-3.1-1.7-4.8-2.1C209.4,55.5,208.7,55.4,208,55.5z"/>
	<path class="st7" d="M176.9,56.4l1.6-3.1c0.2-0.2,0.3-0.4,0.4-0.7l0,0c0.1,0,0.1-0.1,0.1-0.2l0,0c0.2-0.3,0.4-0.6,0.5-0.9
		c0.2-0.4,0.4-0.7,0.6-1.1c0.4-0.5,0.7-1.1,1.1-1.6c0.8-1.3,1.6-2.5,2.5-3.8c0.1-0.2,0.2-0.3,0.5-0.2s0.5,0.4,0.4,0.7
		c-0.1,0.3-0.2,0.6-0.4,0.9c-1.9,2.9-3.7,5.9-5.2,9c-1.1,2.1-2.1,4.3-2.8,6.6c-0.6,1.9-1.1,3.8-1.6,5.7c-0.4,1.3-0.7,2.7-1.1,4.1
		c-0.2,0.9-0.3,1.8-0.5,2.8c-0.5,2.9-0.8,5.8-1.1,8.7c-0.2,2.1-0.5,4.2-0.8,6.2c-0.2,1.4-0.3,2.8-0.4,4.1c-0.2,2-0.4,3.9-0.6,5.9
		c-0.2,2.2-0.4,4.5-0.7,6.7c-0.1,0.8-0.1,1.6-0.3,2.3c-0.1,0-0.1,0.1-0.1,0.2c0,0,0,0.1,0.1,0.1c0,0.2,0,0.5-0.1,0.7
		c-0.1,0-0.1,0.1-0.1,0.2c0,0,0,0,0.1,0.1c0,0.5-0.1,1-0.2,1.5c-0.1,0.1-0.1,0.1,0,0.2c0,0.3,0,0.6-0.1,0.8c-0.1,0.1-0.1,0.1,0,0.2
		c0,0.3,0,0.6-0.1,0.8c-0.1,0.1-0.1,0.1,0,0.2c0,0.3,0,0.6-0.1,0.8c-0.1,0-0.1,0.1-0.1,0.2c0,0,0,0,0.1,0.1c0,0.2,0,0.3-0.1,0.5
		c-0.1,0.1-0.1,0.1,0,0.2c0,0.3,0,0.6-0.1,0.8c-0.1,0.1-0.1,0.1,0,0.2c0,0.2,0,0.3-0.1,0.5h-0.3c0-0.4,0-0.7,0.1-1.1
		c0.1-0.1,0.1-0.1,0-0.2c0-0.5,0-1,0.1-1.5c0.1,0,0.1-0.1,0.1-0.2c0,0,0,0-0.1-0.1c0-0.4,0-0.7,0.1-1.1c0.1,0,0.1-0.1,0.1-0.2
		c0,0,0,0-0.1-0.1c0.1-1.1,0.1-2.1,0.2-3.2c0.1-1.9,0.3-3.9,0.4-5.8c0.1,0,0.1-0.1,0-0.1l0.1-0.7c0.1-1,0.2-2,0.2-3
		c0.1-1.1,0.1-2.2,0.2-3.2c0.1-2.4,0.2-4.9,0.4-7.4s0.5-4.7,0.8-7.1c0.3-2,0.5-4.1,0.8-6.1c0.1-1.1,0.3-2.2,0.5-3.2
		c0-0.1,0-0.1,0-0.2c0-0.1,0.1-0.1,0.1-0.2c0.2-1,0.4-1.9,0.7-2.8c0.6-2,1-4.1,1.7-6.1c0.3-0.8,0.5-1.6,0.8-2.4s0.7-1.8,1.1-2.7
		c0.2-0.2,0.3-0.5,0.4-0.7l0,0l0,0C176.7,56.9,176.9,56.6,176.9,56.4z"/>
	<path class="st9" d="M221,70.7l0.8,2.2c0.1,0.3,0.2,0.7,0.2,1c0,0.3,0,0.7,0.1,1c0,0.1,0,0.2,0,0.4c0,0.3,0,0.7,0,1
		c0,1.6-0.1,3.2-0.3,4.8c-0.2,1.8-0.6,3.6-1,5.3c-0.2,0.9-0.4,1.8-0.6,2.7c-0.1,0.3-0.2,0.6-0.3,0.8c-0.6,1-1,2.1-1.5,3.2
		c-0.3,0.9-0.7,1.7-1.2,2.5c-1.8,2.5-3.5,5-5.2,7.6c-0.6,0.7-1,1.5-1.4,2.3c-0.5,0.7-1,1.3-1.5,2c-0.1,0.1-0.3,0.2-0.2,0.4l0,0
		c-0.1-0.1-0.1,0.1-0.2,0.1l-1.1,1.3l-1.8,2.2c-0.6,0.6-1,1.2-1.6,1.8c-1.3,1.5-2.7,3-4.1,4.5c-1.6,1.7-3.2,3.2-4.8,4.8
		c-3.1,3.1-6.1,6.2-9.2,9.3c-0.8,0.8-1.6,1.7-2.4,2.5l-0.5,0.5c-0.1,0.1-0.1,0.1-0.2,0s-0.2,0-0.2-0.1s0-0.2,0.1-0.3
		c0.6-0.7,1.1-1.3,1.8-1.9c2.3-2.3,4.7-4.7,7-7.1c1.5-1.5,2.9-3.1,4.5-4.6c1.1-1,2.1-2.1,3.1-3.2c1.7-1.9,3.4-3.9,5-5.9
		c1.5-1.8,2.9-3.8,4.4-5.6s2.8-4,4.1-6.1c1-1.5,1.9-3,2.9-4.4c0.3-0.5,0.5-0.9,0.7-1.5c0.8-1.8,1.6-3.7,2.5-5.5
		c0.3-0.5,0.4-1.1,0.6-1.6c0.2-1.3,0.6-2.6,0.7-3.9c0-0.3,0.1-0.7,0.1-1c0,0,0.1-0.1,0-0.1c0,0,0,0,0,0l0.1-0.5c0.1,0,0.1-0.1,0-0.1
		l0.1-0.6c0.1,0,0.1-0.1,0-0.1l0.1-0.6c0.1,0,0.1-0.1,0-0.1l0.1-0.7c0.1-0.1,0.1-0.2,0-0.3l0.1-0.9c0.1,0,0.1-0.1,0-0.1l0.1-1.1
		c0.1-0.1,0.1-0.2,0-0.3c0-1.1,0-2.2,0-3.2c0.1-0.1,0.1-0.2,0-0.3c0-0.7,0-1.4-0.2-2.1L221,70.7z"/>
	<path class="st12" d="M154.6,164.4v0.2v0.1c0,0.3-0.1,0.7-0.1,1c-0.1,0.4-0.2,0.8-0.2,1.2c-0.1,0.5-0.1,0.9-0.2,1.4
		c-0.1,0.6-0.1,1.3-0.3,2c-0.1,0.2-0.1,0.4,0,0.6v0.2v0.1c-0.1,0.4-0.1,0.7-0.1,1.1c-0.1,0.3-0.2,0.7-0.2,1.1c-0.1,0-0.2,0-0.3,0
		c0-0.1-0.2-0.2-0.3-0.2l-3.1-0.7c-0.4-0.1-0.4-0.1-0.4-0.5c0-0.6,0-1.2,0.1-1.9c0.1,0,0.1-0.1,0-0.2c0,0,0,0,0,0v-0.5
		c0.1,0,0.1-0.1,0-0.2c0,0,0,0,0,0c0-0.2,0-0.3,0-0.5l0,0l0,0c-0.1-0.3,0-0.6,0-1c0,0,0,0,0-0.1c0-0.2,0-0.4,0-0.6l0.1-0.6
		c0.1,0,0.1-0.1,0-0.2c0,0,0,0,0,0c0-0.4,0-0.8,0-1.2v-0.2c0-0.4,0-0.8,0-1.1c0.1-0.8,0.1-1.6,0-2.4c0,0,0-0.1-0.1-0.1
		c0-0.2,0-0.3,0.1-0.5c1.1,0.1,2.2,0.2,3.4,0.1c0.6,0,1.3-0.1,1.9-0.1c0.3,0,0.3,0,0.3,0.3c-0.2,1.1-0.3,2.3-0.5,3.5
		C154.5,164.3,154.5,164.3,154.6,164.4z"/>
	<path class="st5" d="M222,58.5c0.3,0.2,0.5,0.5,0.7,0.9c1,1.4,1.9,2.7,2.9,4.1c0.3,0.3,0.5,0.7,0.7,1.1c0,0.1,0,0.2,0.1,0.2l0,0
		c0,0.1,0,0.2,0.1,0.2l0,0c0.1,0.4,0.3,0.9,0.5,1.3c0.3,0.6,0.5,1.2,0.6,1.9c0.1,0.3,0,0.6-0.1,0.8c-0.2,0-0.3-0.2-0.4-0.2
		c-0.5-0.4-1.1-0.7-1.8-1c-0.3-0.1-0.5-0.2-0.8,0c-0.7-0.4-1.3-0.8-2-1.3c-0.7-0.5-1.3-1.3-1.5-2.2c-0.3-1.1-0.8-2.2-1.2-3.2
		c-0.4-0.9-0.8-1.7-1.1-2.6s-0.7-1.6-1.1-2.3s-0.7-1.6-1.1-2.4c-0.1-0.1-0.2-0.2-0.1-0.4s0.2,0.1,0.3,0.2c1.2,1.2,2.5,2.4,3.7,3.7
		c0.1,0.1,0.2,0.4,0.5,0.2l0,0v0.1c0.3,0.3,0.5,0.8,1,0.9l0,0C221.8,58.4,221.9,58.5,222,58.5z"/>
	<path class="st9" d="M150.1,108.5L150.1,108.5c0-0.2,0-0.3-0.1-0.4l0,0c0-0.1,0-0.3-0.1-0.3h-0.1c0-0.3-0.1-0.7-0.3-1
		c0-0.1,0-0.3-0.1-0.4c-0.3-1-0.5-1.9-0.8-2.9c-0.7-2.8-1.4-5.6-1.9-8.5c-0.4-2.3-0.8-4.5-1.1-6.8c-0.2-1.5-0.2-2.9-0.4-4.4
		c-0.1-1-0.1-2.1-0.1-3.1c0-0.7,0.1-1.4,0.1-2.1c0.2-3,0.5-6.1,0.9-9.1c0.1-0.6,0.2-1.2,0.3-1.8c0.1-0.3,0.2-0.7,0.2-1
		c0.1-0.5,0.2-0.9,0.3-1.4c0.2-0.9,0.4-1.7,0.7-2.5c0.4-1.1,0.9-2.2,1.3-3.3c0.6-1.3,1.2-2.6,1.9-3.8c0,0,0.1-0.1,0.1-0.2
		c0.6-0.8,1-1.6,1.4-2.5c0-0.1,0.1-0.3,0.3-0.3c0.2,0,0.3,0.2,0.4,0.3c0.1,0.2,0,0.5-0.1,0.7c-0.3,0.5-0.6,1-0.9,1.5
		c-0.8,1.3-1.4,2.6-2,4c-0.6,1.2-1.1,2.4-1.5,3.7c-0.4,1.2-0.7,2.4-1,3.6c0,0.1,0,0.1,0,0.2c-0.2,0.2-0.2,0.5-0.2,0.8
		c-0.1,0.4-0.2,0.8-0.3,1.2c-0.3,1.5-0.6,3-0.7,4.6c-0.1,1-0.1,1.9-0.1,2.9c0,1.4-0.2,2.8-0.2,4.2c0,0.8,0,1.6,0,2.3
		c0,2.1,0.1,4.1,0.3,6.2c0.2,1.8,0.5,3.5,0.8,5.3c0.5,3.1,1.1,6.2,1.9,9.3c0.3,1,0.5,2,0.7,3.1c0,0.1,0.1,0.3,0.1,0.4
		c0,0.3,0.1,0.7,0.2,0.9c0.1,0.8,0.4,1.5,0.5,2.2l0.4,1.5c0,0.1,0,0.2,0.1,0.2v0.1c0,0.1,0,0.2,0.1,0.3l0,0c0,0.1,0,0.3,0.1,0.3l0,0
		c0,0.4,0.1,0.7,0.3,1.1c0,0.3,0.1,0.5,0.3,0.7l0,0l0,0c0,0.1,0,0.2,0.1,0.2l0,0v0.3h-0.2v-0.1c0-0.1,0-0.1-0.1-0.2v-0.1
		c0-0.1,0-0.2-0.1-0.3l0,0c0-0.1,0-0.2-0.1-0.3l0,0c-0.1-0.4-0.2-0.8-0.3-1.2c-0.1-0.5-0.3-1.1-0.5-1.5l0,0
		c-0.1-0.5-0.2-1.1-0.5-1.5l0,0c0-0.2,0-0.4-0.2-0.6l0,0c0-0.1,0-0.2-0.1-0.2v-0.1C150.2,108.7,150.2,108.6,150.1,108.5z"/>
	<path class="st7" d="M153.1,173.2c0.1,0,0.2,0,0.3,0c2.6,0.3,5.2,1.1,7.5,2.3c0.8,0.4,1.4,0.8,2.1,1.4c0.1,0.1,0.2,0.1,0.2,0.2
		c0.2,0.1,0.2,0.1,0.3-0.1c0.2-0.6,0.5-1.1,0.7-1.7c0.2-0.3,0.3-0.7,0.3-1c0-0.2,0.2-0.3,0.2-0.5l0.8-1.5c0.5-0.7,0.9-1.4,1.1-2.2
		c0.5-1.2,0.9-2.4,1.4-3.6c0.2-0.4,0.5-0.8,0.8-1.2c0.2-0.2,0.4-0.3,0.7-0.3c0,0.2-0.1,0.4-0.2,0.6c-0.9,2-1.8,4-2.6,6
		c-0.5,1.3-1.1,2.5-1.6,3.8c-0.3,0.6-0.5,1.3-0.8,1.9c0,0,0,0.1,0,0.1c-0.5,0.4-0.7,1.1-1.3,1.3c-0.6,0.2-1.2,0.4-1.9,0.3
		c-1-0.1-2-0.1-3-0.2c-2.2-0.1-4.4-0.6-6.3-1.7c-1.1-0.6-2.1-1.4-2.9-2.4c-0.1-0.1-0.2-0.2-0.1-0.3c0.1-0.1,0.3-0.2,0.5-0.1
		c0.1,0.1,0.2,0.3,0.4,0.3c0,0.1,0.1,0.2,0.2,0.3c0.5,0.3,1,0.6,1.5,0.9c1.1,0.5,2.3,0.8,3.5,1.3c0.3,0.1,0.6,0.2,0.8,0.2l2.3,0.3
		c1.1,0.1,2.2,0.1,3.3,0.3c0.1,0,0.2,0,0.2-0.1c0-0.1,0-0.2-0.1-0.3c-0.1,0-0.1-0.1-0.2-0.1c-1.4-0.7-2.8-1.2-4.3-1.7
		c-1.4-0.5-2.8-0.9-4.1-1.2c-0.5-0.2-1.1-0.2-1.6-0.2c-0.3-0.2-0.6-0.1-0.9-0.1c0.1-0.4,0.3-0.5,0.7-0.5
		C151.8,173.3,152.4,173.2,153.1,173.2z"/>
	<path class="st13" d="M149.6,106.8c0.2,0.3,0.3,0.7,0.3,1c-1.4,0.1-2.9,0.2-4.3,0.3c-0.7,0.1-1.4,0.2-2,0.5
		c-0.1,0.1-0.3,0.1-0.4,0.2c-0.7,0.3-1.3,0.9-1.7,1.5c-0.1,0.1-0.1,0.3,0,0.4c0.3,0.7,0.5,1.3,0.8,2c0.6,1.6,1.2,3.3,1.8,4.9
		s1.1,3,1.7,4.6c0.4,1.1,0.8,2.3,1.2,3.4c0.2,0.5,0.4,1.1,0.6,1.6l-0.2,0.1c-0.3-0.7-0.5-1.5-0.8-2.3c-0.5-1.5-1.1-2.9-1.6-4.4
		c-0.9-2.3-1.9-4.5-3-6.6c-1.1-2.3-2.3-4.5-3.5-6.7c-0.1-0.2-0.2-0.4-0.3-0.6c0.2,0.3,0.6,0.5,0.9,0.6c0.1,0,0.2,0.1,0.3,0.1
		c0.2,0.1,0.5,0.1,0.7,0c0.4-0.3,0.8-0.4,1.3-0.5c1-0.2,2.1-0.3,3.1-0.3c0.9,0,1.8,0,2.7,0S148.7,106.7,149.6,106.8z M146.5,107.5
		c-0.1-0.2,0-0.2,0.1-0.2l1.3,0.3c0.2,0,0.3,0,0.3-0.2c-0.3-0.1-0.5-0.1-0.7-0.1c-1.4-0.2-2.8-0.2-4.2-0.1c-0.9,0-1.9,0.3-2.7,0.7
		c-0.3,0.2-0.6,0.6-0.7,1c0.3,0,0.7,0.1,1,0.2c0.1,0,0.3,0,0.3-0.2s0.2-0.3,0.4-0.4c1.4-0.6,2.9-0.9,4.5-0.9h0.4
		c0.2,0.1,0.5,0.1,0.8,0.1C147.1,107.5,146.8,107.4,146.5,107.5L146.5,107.5z"/>
	<path class="st14" d="M151.3,174c0.5,0,1.1,0.1,1.6,0.2c1.4,0.4,2.8,0.7,4.1,1.2s2.9,1.1,4.3,1.7c0.1,0,0.1,0.1,0.2,0.1
		c0.1,0.1,0.1,0.2,0.1,0.3c0,0.1-0.2,0.1-0.2,0.1c-1.1-0.2-2.2-0.1-3.3-0.3l-2.4-0.3c-0.3,0-0.6-0.1-0.8-0.2
		c-1.2-0.4-2.4-0.7-3.5-1.3c-0.5-0.2-1-0.5-1.5-0.9c-0.1-0.1-0.2-0.2-0.2-0.3c0,0,0.1-0.1,0.1-0.1
		C150.3,174.4,150.9,174.3,151.3,174z"/>
	<path class="st15" d="M158.4,144.8c0.2,0,0.1-0.2,0.1-0.3c0.1-1.1,0.2-2.1,0.3-3.2c0.1-0.6,0.2-1.2,0.4-1.7c0-0.1,0.1-0.2,0.2-0.2
		s0.1,0.2,0.1,0.3c-0.2,1.4-0.2,2.8-0.3,4.2c0,0.3,0,0.5-0.1,0.8s0,0.3,0.3,0.3c1.1,0.2,2.2,0.5,3.2,1c0.3,0.1,0.6,0.4,0.9,0.5
		c0.3,0.3,0.8,0.5,1.2,0.9c-0.3,0-0.6-0.1-0.9-0.2c-0.1,0-0.2-0.1-0.3-0.2c-0.9-0.7-2-1.1-3.1-1.3c-0.3-0.1-0.7-0.2-1-0.2
		c-0.3,0-0.3,0-0.4,0.3c-0.1,0.9-0.2,1.9-0.4,2.8c-0.3,2.6-0.7,5.3-1.1,7.9c-0.1,0.4-0.1,0.9-0.2,1.3c0,0.4-0.3,0.6-0.7,0.6
		c0-0.3,0-0.5,0.1-0.8c0.3-2.3,0.7-4.5,1-6.8c0.3-1.7,0.5-3.5,0.7-5.2c0-0.3,0-0.3-0.3-0.4s-0.4-0.1-0.7-0.2
		C157.9,144.8,158.1,144.9,158.4,144.8z"/>
	<path class="st15" d="M167.6,147.4c0.6,0,0.6,0,0.7-0.5s0.4-1.2,0.7-1.8c0.1-0.3,0.3-0.6,0.4-0.8c0.1-0.1,0.2-0.2,0.3-0.3
		c0.1,0,0.2,0,0.2,0c0.1,0.1,0.1,0.1,0,0.2c-0.3,0.5-0.4,1.1-0.6,1.7s-0.3,0.9-0.5,1.3c-0.1,0.2,0,0.2,0.2,0.2s0.4,0,0.6,0.1
		l1.2,0.2c0.9,0.2,1.7,0.6,2.3,1.2c-0.3,0-0.5-0.1-0.8-0.2c-0.7-0.3-1.4-0.5-2.1-0.6c-0.5-0.1-0.9-0.1-1.4-0.1
		c-0.2,0-0.3,0.1-0.4,0.3c-0.6,1.4-1.2,2.9-1.7,4.4c-0.8,2.3-1.6,4.6-2.4,7c-0.1,0.3-0.1,0.6-0.6,0.6c-0.1-0.1,0-0.3,0-0.5
		c0.6-1.7,1.1-3.4,1.7-5.1c0.5-1.3,0.9-2.5,1.3-3.8c0.3-0.9,0.7-1.7,1-2.5c0.1-0.1,0.1-0.2,0.1-0.3c-0.4,0-0.7,0-1.1-0.1
		C167,147.4,167.3,147.5,167.6,147.4z"/>
	<path class="st9" d="M204.5,74.9c1.3-0.1,2.7,0.1,4,0.4c1.7,0.3,3.3,0.9,4.7,1.8c0.8,0.4,1.6,0.9,2.4,1.5c0.9,0.7,1.7,1.5,2.3,2.4
		c0,0.1,0.1,0.1,0.1,0.2l0.4,0.6c0,0.1-0.2,0-0.2,0.1s0,0.2-0.1,0.1c-0.3-0.3-0.7-0.5-0.9-0.8c-0.6-0.6-1.3-1.1-2-1.7
		c-1.1-0.9-2.3-1.7-3.6-2.3c-0.9-0.4-1.8-0.7-2.8-0.9c-1.3-0.4-2.6-0.6-4-0.7c-0.3,0-0.6,0-0.7-0.3c0-0.1-0.1,0-0.2-0.1l0.4-0.2
		L204.5,74.9z"/>
	<path class="st15" d="M169.4,163.5c0-0.4,0.1-0.9,0.3-1.3c1.1-2.6,2.3-5.2,3.5-7.7c0.9-1.8,1.8-3.6,2.8-5.4
		c0.2-0.4,0.4-0.8,0.6-1.2c0.2-0.3,0.4-0.5,0.6-0.7c0.1-0.1,0.1-0.1,0.2,0c0.1,0.1,0.1,0.1,0.1,0.2c-0.1,0.2-0.2,0.5-0.3,0.7
		c-1.3,2.6-2.8,5.1-4,7.8c-0.6,1.4-1.5,2.7-2,4.2c-0.2,0.6-0.4,1.1-0.7,1.6c-0.1,0.4-0.3,0.7-0.5,1.1
		C169.9,163.2,169.7,163.4,169.4,163.5z"/>
	<path class="st15" d="M185.3,48.2c0.7-0.2,1.5-0.2,2.3-0.3c1.3,0,2.5,0.1,3.7,0.4c1.1,0.3,2.1,0.6,3.1,1c0.7,0.3,1.4,0.7,2.1,1
		c0.1,0.1,0.2,0.2,0.4,0.1c0,0.1,0.1,0.1,0.1,0.1l0,0c0,0.1,0.1,0.1,0.2,0.2l2.5,1.4l0.2,0.1c0.1,0.1,0.1,0.2,0,0.2c0,0,0,0,0,0
		c-0.1,0.1-0.1,0-0.2,0l-1.2-0.6c-1.6-0.8-3.3-1.5-5-2.1c-1.8-0.6-3.7-1-5.6-1.2c-0.9-0.1-1.8-0.1-2.7-0.1c-0.2,0-0.4,0-0.6-0.1
		C184.9,48.3,185.1,48.3,185.3,48.2z"/>
	<path class="st15" d="M149.6,160.4c-0.1,0.1-0.1,0.3-0.1,0.5c0,0.2-0.1,0.4-0.1,0.6c0,0.9-0.1,1.8-0.1,2.8l-0.1,1.5
		c0,0.2,0,0.3,0,0.5c0,0.2,0,0.4,0,0.6c-0.1,0.3-0.1,0.7-0.1,1c-0.1,1.6-0.1,3.3-0.3,4.9c0,0.1,0,0.3,0,0.4c0,0.2,0,0.3-0.2,0.5
		c-0.1,0.1-0.2,0.2-0.3,0.1s-0.3-0.2-0.2-0.4c0.3-1.9,0.4-3.8,0.5-5.8s0.1-3.7,0.2-5.5c0-0.7,0.1-1.4,0.1-2.2c0-0.2,0.1-0.4,0.2-0.5
		c0.1-0.1,0.1-0.1,0.2-0.1c0.1,0,0.2,0.1,0.2,0.2c0,0.1,0,0.3,0,0.4C149.6,160.2,149.6,160.3,149.6,160.4z"/>
	<path class="st9" d="M208,55.5c0.7,0,1.4,0,2,0.2c1.7,0.4,3.3,1.1,4.8,2.1c1.4,0.9,2.6,2,3.6,3.3c0.2,0.3,0.4,0.6,0.6,1
		c0,0.1,0,0.1-0.1,0.2c-0.2-0.1-0.3-0.3-0.4-0.5c-0.6-0.7-1.3-1.4-2.1-1.9c-1.5-1.2-3.2-2.2-4.9-3c-1-0.5-2.1-0.9-3.2-1.1
		C208.1,55.7,207.9,55.7,208,55.5z"/>
	<path class="st15" d="M157.6,47.2c0.7-0.4,1.5-0.8,2.3-1c1.8-0.5,3.8-0.7,5.7-0.7c0.7,0,1.4,0.1,2.1,0.2c0.9,0.1,1.7,0.2,2.6,0.5
		c0.2,0.1,0.5,0.2,0.7,0.3l0,0l0,0c-0.6,0-1.3-0.1-1.9-0.1c-2-0.2-3.9-0.2-5.9,0c-1,0-2,0.2-3,0.3l-2.2,0.5
		C157.9,47.2,157.7,47.2,157.6,47.2z"/>
	<path class="st15" d="M150.3,142.4c0.2,2.9,0.2,5.8,0,8.7c0,0.9,0,1.7,0,2.6s-0.1,1.8-0.1,2.6c0,0.4-0.1,0.8-0.2,1.1
		c-0.2-0.1-0.2-0.3-0.2-0.5c0.1-2,0.1-4,0.2-6c0.1-2.9,0.2-5.7,0.2-8.6L150.3,142.4z"/>
	<path class="st15" d="M155,106.3c-0.7,0.1-1.4,0.3-2,0.7c-0.2,0.2-0.5,0.3-0.9,0.3c0-0.1,0-0.1,0-0.2s-0.1-0.1,0-0.2
		c0.9-0.6,1.9-1,2.9-1.3c0.8-0.2,1.7-0.4,2.5-0.5c2-0.1,3.9,0.1,5.9,0.6v0.2c-1.1-0.2-2.2-0.2-3.3-0.1c-0.5,0-1,0-1.4,0
		c-0.9-0.1-1.8,0-2.7,0.3L155,106.3z"/>
	<path class="st9" d="M161.9,161.6c-0.8,0.1-1.6,0-2.3-0.3c-0.1,0-0.2,0-0.3-0.1c-0.9-0.4-1.7-0.9-2.5-1.5c0,0,0,0,0-0.1
		c0.2-0.3,0.6-0.4,0.9-0.2c0,0,0,0,0,0c0.7,0.3,1.4,0.6,2.1,1c0.3,0.1,0.7,0.2,1,0.1c0.6,0,1.2,0,1.8,0c0.2,0,0.4,0,0.6,0.1
		c0.1,0,0.2,0.1,0.2,0.3c0,0.1-0.1,0.2-0.2,0.3C162.8,161.3,162.3,161.3,161.9,161.6z"/>
	<path class="st15" d="M173.1,107.3c0.9,0.2,1.9,0.3,2.8,0.4c1.2,0.2,2.4,0.5,3.5,1c0.2,0.1,0.3,0.1,0.5,0.2l1.5,0.9l-0.1,0.1
		c-0.7-0.3-1.4-0.6-2.2-0.8c-1.6-0.5-3.2-0.9-4.9-1.1c-0.9-0.1-1.9,0-2.8,0.3c-0.2,0.1-0.4,0-0.5-0.2c-0.2-0.3-0.1-0.5,0.3-0.5
		C171.8,107.4,172.4,107.4,173.1,107.3z"/>
	<path class="st15" d="M153.5,172.1c0-0.4,0-0.7,0.1-1.1c0,0,0-0.1,0-0.1v-0.2c0-0.1,0.1-0.2,0.1-0.3c0.1-1,0.3-1.9,0.5-2.9
		c0.1-0.6,0.2-1.2,0.3-1.8c0.3-1.4,0.6-2.8,0.9-4.2c0-0.3,0.1-0.6,0.3-0.9c0,0.4,0,0.8-0.1,1.3c-0.3,2.4-0.7,4.8-1.2,7.2
		c-0.2,0.7-0.3,1.5-0.4,2.3C154,171.7,153.8,172,153.5,172.1z"/>
	<path class="st15" d="M169.5,141.8c-0.4-0.1-0.8-0.3-1.2-0.6c-0.1-0.1-0.3-0.2-0.4-0.3c-1-0.8-2.2-1.3-3.5-1.6
		c-0.2-0.1-0.4-0.1-0.6,0c-0.5-0.1-1,0-1.4,0l-0.7-0.1c-0.1,0-0.1-0.1-0.1-0.2c1.3-0.3,2.8-0.3,4.1,0.1c0.7,0.2,1.4,0.5,2.1,0.9
		c0.1,0.1,0.2,0.1,0.3,0.1l0,0c0.4,0.3,0.9,0.6,1.4,0.9c0.2,0.2,0.4,0.3,0.6,0.5C169.8,141.8,169.6,141.7,169.5,141.8z"/>
	<path class="st15" d="M168.3,161.1c-0.1,0-0.1-0.1-0.1-0.1s0.1-0.2,0.1-0.3c1.3-2.9,2.6-5.8,3.8-8.7c0.3-0.6,0.6-1.2,0.8-1.8
		c0-0.1,0.1-0.1,0.1-0.2c0.1-0.1,0.2-0.1,0.3-0.1s0,0.2,0,0.2c-0.3,0.7-0.6,1.4-0.9,2c-0.5,1.2-1,2.5-1.6,3.7s-1.1,2.4-1.7,3.6
		c-0.2,0.5-0.4,1-0.7,1.5C168.5,161.1,168.4,161.1,168.3,161.1z"/>
	<path class="st15" d="M162.2,159.8c0.3-1.2,0.6-2.5,1-3.7c0.7-2.1,1.1-4.2,1.9-6.2c0-0.1,0.1-0.2,0.1-0.2c0.1-0.1,0.2-0.1,0.3,0
		c0.1,0,0.1,0.1,0,0.2c-0.4,1.1-0.7,2.3-1,3.4c-0.6,1.8-1.1,3.6-1.6,5.4c-0.1,0.4-0.3,0.8-0.6,1.2L162.2,159.8z"/>
	<path class="st15" d="M176.3,145.2c-0.1-0.1-0.2-0.2-0.3-0.3c0-0.1-0.1-0.1-0.1-0.1l0,0c-0.7-0.9-1.6-1.5-2.6-1.9
		c-0.5-0.1-1-0.3-1.4-0.4c-0.1,0-0.2-0.1-0.3-0.1c0-0.2,0.1-0.2,0.2-0.2c0.5,0,0.9,0,1.4,0.1c0.2,0,0.3,0,0.5,0l0,0
		c0,0.1,0.2,0.1,0.3,0.1l1,0.4c0.5,0.3,1,0.6,1.5,1c0.3,0.2,0.5,0.4,0.7,0.7c0.2,0.2,0.4,0.5,0.4,0.8c0,0.1,0.1,0.2-0.1,0.3
		s-0.3,0.2-0.5,0C176.7,145.6,176.5,145.4,176.3,145.2z"/>
	<path class="st15" d="M153.4,160.4c-0.6-0.1-1.2-0.3-1.8-0.5c-0.5-0.3-1-0.6-1.5-1c-0.1-0.1-0.3-0.1-0.2-0.3
		c0.1-0.2,0.3-0.2,0.5-0.1c0,0,0.1,0.1,0.1,0.1c0.7,0.6,1.5,0.9,2.4,1c0.7,0,1.4,0,2-0.3c0.2-0.1,0.3-0.1,0.5-0.1
		c0.3,0,0.3,0.1,0.2,0.3c-0.1,0.2-0.3,0.3-0.4,0.4C154.7,160.1,154,160.2,153.4,160.4z"/>
	<path class="st9" d="M167.7,164.3c-0.3-0.1-0.5-0.2-0.8-0.2c-0.7-0.2-1.3-0.5-1.7-1.1c0-0.1-0.1-0.1-0.1-0.1
		c-0.3-0.5-0.7-0.9-1-1.4c-0.1-0.3-0.1-0.3,0.1-0.5s0.2-0.1,0.3,0s0.3,0.3,0.4,0.4c0.7,0.9,1.7,1.6,2.9,1.9c0.3,0.1,0.6,0.2,0.9,0.4
		c0.1,0,0.2,0.1,0.2,0.2c0,0.1,0,0.3-0.2,0.3c0,0-0.1,0-0.1,0L167.7,164.3z"/>
	<path class="st15" d="M147.3,46.9c0.5-0.2,1-0.2,1.5-0.1c1.5,0.2,3,0.6,4.4,1.1c0.1,0,0.1,0,0.2,0.1c0.1,0,0.2,0.1,0.2,0.2
		c0,0.1-0.2,0.2-0.3,0.2c0,0,0,0,0,0l-1.7-0.3c-0.7-0.1-1.4-0.3-2.1-0.5c-0.3-0.1-0.7-0.2-1.1-0.2c-0.2,0-0.4,0-0.5-0.3
		c0-0.1-0.1-0.1-0.2-0.1S147.4,47,147.3,46.9z"/>
	<path class="st15" d="M200.7,121.4c-0.3,0-0.6-0.2-1-0.2s-0.3-0.2-0.3-0.3c0.2-0.4,0.2-0.4,0.6-0.3c0.4,0.1,0.9,0.1,1.3,0.3
		c0.2,0.1,0.3,0.1,0.5,0.1l0,0c0,0.1,0.1,0.1,0.2,0.1c0.1,0.1,0.1,0.1,0.2,0.2c0.9,0.5,1.6,1.2,2.2,2l0.7,1c0,0.1,0,0.2-0.1,0.2
		c0,0,0,0,0,0c-0.5-0.5-1.1-1-1.5-1.5C202.7,122.2,201.8,121.7,200.7,121.4z"/>
	<path class="st15" d="M158.5,138.8c-0.1,0.1-0.2,0.2-0.3,0.1c-0.6-0.2-1.3-0.4-2-0.6c-0.9-0.3-1.8-0.4-2.7-0.5c-0.3,0-0.7,0-1,0
		c-0.2,0-0.4,0-0.6,0c0.4-0.3,0.9-0.2,1.3-0.4c0.6,0,1.3,0,1.9,0c1.1,0.1,2.2,0.4,3.2,0.9c0.2,0,0.3,0.1,0.3,0.3
		C158.5,138.7,158.5,138.7,158.5,138.8z"/>
	<path class="st15" d="M189.8,114c-0.5-0.2-1-0.3-1.4-0.3c-0.6-0.1-1.3-0.2-1.9-0.5c0.2-0.1,0.4-0.1,0.6-0.1
		c1.2,0.1,2.4,0.3,3.6,0.7c1.3,0.5,2.6,1.1,3.7,1.9l-0.1,0.1c-0.5-0.2-0.9-0.5-1.3-0.8C191.9,114.6,190.9,114.2,189.8,114z"/>
	<path class="st15" d="M155.4,156.3c0.3-3.1,0.3-6.3,0.6-9.5c0.2,1.1,0.2,2.2,0.1,3.2c-0.1,1.4-0.2,2.8-0.4,4.3
		c-0.1,0.7-0.1,1.3-0.2,2L155.4,156.3z"/>
	<path class="st15" d="M155.3,144.4c-0.3,0.1-0.6,0-0.8-0.2c-0.4-0.3-0.7-0.6-0.9-1c-0.2-0.4-0.5-0.7-0.9-0.9
		c-0.5-0.3-0.9-0.6-1.4-1c0.3,0,0.5,0,0.8,0.1C153.4,142.1,154.5,143.1,155.3,144.4C155.3,144.3,155.3,144.4,155.3,144.4z"/>
	<path class="st15" d="M224.6,67.6c0.3-0.2,0.5-0.1,0.8,0c0.6,0.3,1.2,0.6,1.8,1c0.1,0.1,0.2,0.2,0.4,0.2c0.2,0.2,0.4,0.4,0.6,0.5
		c0.2,0.3,0.5,0.6,0.8,0.8c0.1,0.1,0.3,0.2,0.2,0.4c-1.1-0.8-2.3-1.5-3.5-2.2C225.3,68,224.9,67.9,224.6,67.6z"/>
	<path class="st13" d="M206,111.6l1.8-2.2l1.1-1.3c0-0.1,0.1-0.2,0.2-0.1c0,0.2-0.1,0.3-0.2,0.4c-0.4,0.5-0.8,1-1.2,1.5
		s-0.9,1.1-1.3,1.7c-0.1,0.1-0.2,0.2-0.3,0.2L206,111.6z"/>
	<path class="st10" d="M154.6,165.8c-0.1,0.6-0.2,1.2-0.3,1.8c-0.2,1-0.4,1.9-0.5,2.9c0,0.1,0,0.2-0.1,0.3c-0.1-0.2-0.1-0.4,0-0.6
		c0.2-0.6,0.2-1.3,0.3-2c0.1-0.5,0.1-0.9,0.2-1.4c0-0.4,0.1-0.8,0.2-1.2C154.4,165.7,154.5,165.8,154.6,165.8
		C154.6,165.8,154.6,165.8,154.6,165.8z"/>
	<path class="st15" d="M168.1,116.4h0.2c0,0.6-0.1,1.1-0.2,1.7c-0.1,0.6-0.2,1.2-0.3,1.8h-0.1C167.8,118.8,168,117.6,168.1,116.4z"
		/>
	<path class="st13" d="M218.7,68.6c-0.3,0.3-0.4,0.6-0.7,0.8c-0.1,0-0.1,0.1-0.2,0.1s0-0.1,0.1-0.2c0.2-0.3,0.3-0.6,0.6-0.8
		c-0.4-0.3-0.6-0.2-1,0.5c0-0.5,0-0.5,0.4-0.7c0.2-0.1,0.3-0.2,0.5-0.2s0.2,0,0.2,0.2s0.1,0,0.2,0.1S218.6,68.4,218.7,68.6z"/>
	<path class="st13" d="M220.1,75.4c-0.4-0.1-0.7-0.1-1.1-0.3c-0.1-0.1-0.3,0-0.4,0.1l0,0v-0.1c0-0.1-0.2,0.1-0.2-0.1
		s0.2-0.1,0.3-0.1c0.2,0,0.3,0.1,0.5,0.1c0.2,0,0.2,0,0.2-0.2c0-0.1,0-0.1,0.1-0.1c0.2-0.3,0.5-0.4,0.4-0.8c0,0,0.1,0,0.1,0
		c0,0.2,0,0.3,0.1,0.5c-0.1,0.1-0.2,0.3-0.3,0.3c-0.2,0.1-0.3,0.3-0.2,0.5c0.1,0.1,0.3,0.1,0.5,0.1L220.1,75.4L220.1,75.4z"/>
	<path class="st15" d="M175.5,147.6c0.2-0.1,0.5-0.1,0.7-0.1c-0.5,0.5-1.2,0.8-1.9,0.8c0.1-0.2,0.4-0.4,0.6-0.4
		C175.1,147.8,175.3,147.7,175.5,147.6z"/>
	<path class="st13" d="M194.3,94c0.3-0.7,0.7-1.5,1.1-2.1c0.1-0.4,0.3-0.7,0.5-1c-0.1,0.4-0.2,0.7-0.4,1.1c-0.3,0.5-0.5,1-0.7,1.5
		c-0.1,0.2-0.2,0.4-0.3,0.5L194.3,94z"/>
	<path class="st8" d="M169.3,99.2c0,1-0.1,2-0.2,3c-0.1,0-0.2,0-0.2,0.1c0,0,0,0,0,0.1c0,0.1,0,0.2,0,0.3c0-0.3,0-0.5,0.1-0.8
		c0.1-0.8,0.2-1.6,0.3-2.4C169.3,99.4,169.3,99.3,169.3,99.2z"/>
	<path class="st13" d="M165.5,172.3l-0.8,1.5l-0.2-0.1c0.2-0.5,0.5-1.1,0.8-1.6C165.4,172.1,165.5,172.2,165.5,172.3z"/>
	<path class="st13" d="M204.5,74.9h-0.2c-0.1,0-0.3,0-0.4-0.1c-0.2,0-0.4-0.1-0.5-0.3c0.1,0,0.3,0,0.3-0.2c0-0.1,0.1-0.1,0.2-0.1
		c0,0,0.1,0,0.1,0.1c0.1,0.2,0.3,0.3,0.4,0.3C204.5,74.6,204.5,74.8,204.5,74.9z"/>
	<path class="st13" d="M149.3,166.8c0-0.2,0-0.4,0-0.6c0.1-0.2,0.1-0.3,0-0.5l0.1-1.5c0.1,0.1,0.1,0.2,0.2,0.3v0.1l0,0
		c0,0,0,0.1,0,0.1c0,0.4,0,0.8,0,1.2c0,0.1,0,0.2,0,0.3l-0.1,0.6L149.3,166.8z"/>
	<path class="st4" d="M220.1,75.1c-0.2,0.1-0.4,0.1-0.5-0.1c-0.1-0.2,0-0.4,0.2-0.5c0.1-0.1,0.2-0.2,0.3-0.3L220.1,75.1z"/>
	<path class="st4" d="M209.7,57.4c-0.3,0.3-0.3,0.3-0.6,0.1c-0.1-0.1-0.3-0.1-0.3-0.2s0.2-0.2,0.3-0.1S209.6,57.1,209.7,57.4z"/>
	<path class="st13" d="M221.8,70.3l0.6,0.2c0.1,0,0.1,0,0.1,0.1s0,0.1-0.1,0.2s-0.4,0-0.5,0.1C221.8,70.7,221.8,70.5,221.8,70.3z"/>
	<path class="st13" d="M180.1,50.3c-0.2,0.4-0.4,0.8-0.6,1.1h-0.1c0.2-0.4,0.4-0.8,0.6-1.1L180.1,50.3z"/>
	<path class="st12" d="M221,70.7h-0.2c-0.1-0.3-0.2-0.6-0.3-0.9C220.8,70,220.9,70.1,221,70.7z"/>
	<path class="st13" d="M212.6,59.1c-0.1,0.5-0.2,0.5-0.7,0.4c0.2-0.1,0.4-0.1,0.6-0.2c0-0.1-0.2,0-0.2-0.2S212.5,59,212.6,59.1
		L212.6,59.1z"/>
	<path class="st13" d="M175.6,38.2h1.3c0.1,0.1,0.2,0,0.3,0v0.1C176.7,38.4,176.2,38.3,175.6,38.2z"/>
	<path class="st13" d="M214.4,60.3L214.4,60.3c-0.1,0.2-0.3,0.5-0.4,0.4s-0.1,0-0.1,0c0-0.2,0.2-0.3,0.3-0.4L214.4,60.3
		C214.4,60.3,214.4,60.3,214.4,60.3z"/>
	<path class="st10" d="M163.9,105.9c0.2,0,0.5,0.1,0.7,0.2c-0.3,0-0.6,0-0.8-0.1L163.9,105.9z"/>
	<path class="st13" d="M213.6,59.8c-0.2,0-0.3,0-0.5,0.1c-0.1-0.1,0.1-0.3,0.1-0.4C213.4,59.5,213.5,59.6,213.6,59.8z"/>
	<path class="st12" d="M181.3,109.9l0.1-0.1c0.2,0,0.3,0.2,0.5,0.3C181.6,110.1,181.4,110,181.3,109.9z"/>
	<path class="st16" d="M155.4,156.3h0.1c0,0.2,0,0.4-0.1,0.6C155.4,156.7,155.4,156.5,155.4,156.3z"/>
	<path class="st15" d="M218.9,62.2c0.1,0,0.1-0.1,0.1-0.2l0.2,0.2c0,0.1,0.1,0.1,0,0.2C219.1,62.5,219,62.3,218.9,62.2z"/>
	<path class="st4" d="M204,71.7c0,0.2-0.1,0.2-0.2,0.2c-0.1-0.2,0.1-0.3,0.2-0.5c0,0,0,0.1,0,0.1L204,71.7z"/>
	<path class="st12" d="M194.2,115.9l0.1-0.1c0.1,0.1,0.2,0.2,0.3,0.3C194.5,116.1,194.3,116,194.2,115.9z"/>
	<path class="st12" d="M163.9,105.9l-0.1,0.1c-0.1,0-0.3,0-0.4-0.1v-0.2C163.6,105.8,163.8,105.9,163.9,105.9z"/>
	<path class="st13" d="M220.1,77.4l-0.1,0.1c-0.1,0.1-0.2,0-0.2-0.1s0.1-0.1,0.1-0.1h0.2l0,0L220.1,77.4L220.1,77.4z"/>
	<path class="st12" d="M221,72.9c0.1,0.1,0.1,0.2,0,0.3C220.9,73.1,220.9,73,221,72.9z"/>
	<path class="st13" d="M213.1,59.4h-0.3c-0.1,0-0.1-0.1,0-0.1S213.1,59.2,213.1,59.4z"/>
	<path class="st13" d="M222.1,75.3c0-0.1,0-0.2,0-0.4h0.2c0,0.1,0,0.2,0,0.3L222.1,75.3z"/>
	<path class="st12" d="M221,76.4c0.1,0.1,0.1,0.2,0,0.3C220.9,76.7,220.9,76.5,221,76.4z"/>
	<path class="st12" d="M220.8,78.9c0.1,0.1,0.1,0.2,0,0.3C220.8,79.1,220.8,79,220.8,78.9z"/>
	<path class="st4" d="M204,70.7L204,70.7h0.2c0,0,0,0.1-0.1,0.1h-0.2L204,70.7z"/>
	<path class="st13" d="M224.2,68c0,0-0.1,0.1-0.1,0.1c0,0-0.1,0-0.1,0s0-0.1,0.1-0.1L224.2,68L224.2,68z"/>
	<path class="st12" d="M167.7,119.9h0.1c0,0.1,0,0.2-0.1,0.3C167.7,120.1,167.6,120,167.7,119.9z"/>
	<path class="st15" d="M168.6,114.3c-0.1,0-0.1-0.1-0.1-0.2c0,0,0,0,0.1-0.1C168.6,114.2,168.6,114.2,168.6,114.3z"/>
	<path class="st15" d="M169.1,108.6c-0.1,0-0.1-0.1-0.1-0.2c0,0,0-0.1,0.1-0.1C169.1,108.4,169.1,108.5,169.1,108.6z"/>
	<path class="st15" d="M169,109.6c-0.1,0-0.1-0.1-0.1-0.2c0,0,0,0,0.1-0.1C169.1,109.4,169.1,109.5,169,109.6z"/>
	<path class="st15" d="M168.4,112.1c0.1,0,0.1,0.1,0.1,0.2c0,0,0,0-0.1,0.1C168.4,112.2,168.4,112.1,168.4,112.1z"/>
	<path class="st15" d="M168.3,113.4c0.1,0,0.1,0.1,0.1,0.2c0,0,0,0-0.1,0.1C168.3,113.6,168.3,113.5,168.3,113.4z"/>
	<path class="st10" d="M177.2,38.3c-0.1,0-0.2,0-0.3,0C177,38.2,177.2,38.2,177.2,38.3C177.3,38.2,177.3,38.2,177.2,38.3z"/>
	<path class="st12" d="M220.6,81.3c0.1,0.1,0,0.1,0,0.1S220.5,81.4,220.6,81.3z"/>
	<path class="st15" d="M168.6,113.2c-0.1-0.1-0.1-0.1,0-0.2C168.7,113.1,168.7,113.2,168.6,113.2z"/>
	<path class="st12" d="M220.7,80.6c0.1,0.1,0,0.1,0,0.1S220.6,80.7,220.7,80.6z"/>
	<path class="st12" d="M220.7,79.9c0.1,0.1,0.1,0.1,0,0.1S220.7,79.9,220.7,79.9z"/>
	<path class="st15" d="M168.5,115c-0.1-0.1-0.1-0.1,0-0.2C168.5,114.8,168.5,114.9,168.5,115z"/>
	<path class="st10" d="M179.6,38.3c0,0,0.1-0.1,0.1,0c0,0,0,0,0,0C179.7,38.4,179.7,38.3,179.6,38.3z"/>
	<path class="st16" d="M162.2,159.8h0.1c0,0.1-0.1,0.1-0.1,0.1S162.2,159.8,162.2,159.8z"/>
	<path class="st15" d="M168.8,112.2c-0.1-0.1-0.1-0.1,0-0.2C168.8,112.1,168.8,112.2,168.8,112.2z"/>
	<path class="st12" d="M220.9,77.9c0.1,0,0.1,0.1,0,0.1S220.9,77.9,220.9,77.9z"/>
	<path class="st15" d="M168.8,111.2c-0.1-0.1-0.1-0.1,0-0.2C168.9,111.1,168.9,111.2,168.8,111.2z"/>
	<path class="st10" d="M154.6,164.4c-0.1-0.1-0.1-0.1,0-0.2C154.7,164.2,154.7,164.3,154.6,164.4
		C154.6,164.4,154.6,164.4,154.6,164.4z"/>
	<path class="st15" d="M168.2,115.2c0.1,0.1,0.1,0.1,0,0.2C168.2,115.3,168.2,115.2,168.2,115.2z"/>
	<path class="st12" d="M220.5,82c0,0,0.1,0.1,0,0.1c0,0,0,0,0,0C220.4,82.1,220.4,82.1,220.5,82C220.4,82,220.5,82,220.5,82z"/>
	<path class="st8" d="M169.1,102.9c0.1,0.1,0,0.1,0,0.1S169,102.9,169.1,102.9z"/>
	<path class="st15" d="M168.4,116c-0.1-0.1-0.1-0.1,0-0.2C168.4,115.9,168.4,115.9,168.4,116z"/>
	<path class="st11" d="M149.4,169.1c0.1,0,0.1,0.1,0,0.2c0,0,0,0,0,0C149.3,169.2,149.3,169.1,149.4,169.1z"/>
	<path class="st11" d="M149.4,169.8c0.1,0,0.1,0.1,0,0.2c0,0,0,0,0,0C149.3,169.9,149.3,169.9,149.4,169.8z"/>
	<path class="st8" d="M221.7,67.4c0,0.1-0.1,0.1-0.1,0S221.6,67.4,221.7,67.4L221.7,67.4z"/>
	<path class="st5" d="M220.1,77.4v-0.1C220.2,77.4,220.1,77.4,220.1,77.4z"/>
	<path class="st5" d="M220.2,79.3L220.2,79.3L220.2,79.3L220.2,79.3z"/>
	<polygon class="st5" points="218.9,68.1 218.9,68.1 218.9,68.1 	"/>
	<path class="st5" d="M220.1,75.4v-0.1C220.1,75.3,220.2,75.4,220.1,75.4z"/>
	<path class="st5" d="M217.9,64.6C217.9,64.5,217.9,64.6,217.9,64.6L217.9,64.6z"/>
	<path class="st11" d="M149.4,167.4C149.4,167.5,149.4,167.5,149.4,167.4L149.4,167.4L149.4,167.4z"/>
	<polygon class="st11" points="149.4,168.5 149.4,168.5 149.4,168.6 149.4,168.5 	"/>
	<path class="st8" d="M221.7,67.4L221.7,67.4L221.7,67.4c0-0.1,0.1-0.1,0.1,0H221.7z"/>
	<path class="st5" d="M205.3,59.3L205.3,59.3C205.2,59.3,205.3,59.2,205.3,59.3L205.3,59.3z"/>
	<path class="st10" d="M154.6,164.7v-0.1C154.6,164.6,154.6,164.7,154.6,164.7C154.6,164.7,154.6,164.7,154.6,164.7z"/>
	<path class="st13" d="M147.5,67.4c-0.1-0.3,0-0.6,0.2-0.8c0.1,0.1,0.2,0,0.3-0.1c0.9-0.5,1.8-1,2.8-1.5c0.6-0.3,1.3-0.6,2-0.8
		l0.1,0.2c-1.3,0.5-2.4,1.2-3.4,2.2c0.4,0.3,0.4,0.3,0.8,0c0.4-0.4,0.9-0.7,1.4-0.8c0.7-0.3,1.4-0.5,2.1-0.7
		c1.4-0.3,2.8-0.6,4.3-0.7c0.6-0.1,1.2-0.1,1.9-0.1c1.1,0,2.1,0.2,3.2,0.3c2.6,0.3,5.1,0.9,7.5,1.7l0.8,0.2c0.1,0.1,0.3,0,0.4-0.1
		c0,0,0,0,0,0c0.3,0.1,0.4-0.2,0.6-0.4c0.3-0.5,0.4-1,0.6-1.5c0.2-0.5,0.4-1.1,0.7-1.6c0.2-0.4,0.4-0.8,0.6-1.2
		c0.1-0.3,0.3-0.6,0.4-0.9c0.3-0.6,0.6-1.3,0.9-1.9c0.1-0.4,0.3-0.7,0.5-1h0.1c-0.4,0.9-0.7,1.8-1.1,2.7c-0.3,0.9-0.6,1.6-0.8,2.4
		c-0.6,2-1.1,4-1.7,6.1c-0.3,0.9-0.5,1.9-0.7,2.8c0,0.1,0,0.1-0.1,0.2c-0.1-0.5-0.1-1-0.1-1.4c0-0.5,0-1,0-1.5
		c0-0.2-0.1-0.4-0.1-0.6c-0.1-0.4-0.3-0.8-0.4-1.1c-0.1-0.2-0.2-0.4-0.5-0.4c-1.5-0.3-3.1-0.5-4.6-0.7c-0.9-0.1-1.9-0.1-2.8-0.2
		c-1.9-0.1-3.7-0.1-5.6-0.1c-1.2,0.1-2.3,0.2-3.5,0.4c-0.9,0.1-1.8,0.2-2.6,0.3l-0.6,0.1C149.9,67.1,148.7,67.2,147.5,67.4z"/>
	<path class="st13" d="M146.8,66.7c0,0.3,0,0.7-0.2,1c-0.2,0-0.4,0-0.5,0.1c-0.2,0.1-0.5,0-0.7-0.1c-0.3-0.2-0.6-0.3-0.9-0.4
		c-1.4-0.3-2.8-0.4-4.2-0.2c-1.5,0.2-2.9,0.5-4.3,1.1c-2.1,0.8-4.1,1.8-6,2.9c-0.2,0.1-0.4,0.3-0.4,0.6c-0.1,0.5-0.2,1-0.3,1.6
		c-0.1,0.8-0.2,1.7-0.3,2.5s-0.3,1.7-0.4,2.6c0,0.4-0.1,0.8-0.3,1.2c-0.1-1.3,0-2.7,0.1-4c0.2-1.8,0.6-3.5,0.9-5.3
		c0.2-1.1,0.5-2.3,0.9-3.4c0.1-0.3,0.2-0.7,0.3-1c0.1-0.1,0.1-0.2,0.2-0.1c-0.1,0.4-0.1,0.8-0.3,1.2c-0.1,0.2,0.1,0.5,0,0.7
		s-0.1,0.3-0.1,0.5c-0.1,0.2-0.1,0.4,0,0.6l0.7-0.2c-0.1,0.2-0.2,0.4-0.3,0.6s0,0.2,0.1,0.2c0.3,0,0.5-0.1,0.7-0.3
		c1.4-0.7,2.8-1.2,4.2-1.7c1.1-0.3,2.1-0.6,3.2-0.7c-0.1-0.3-0.1-0.3-0.3-0.4l-0.5-0.1l2.1-0.8c0.2-0.1,0.3-0.1,0.5,0
		c1.9,0.6,3.8,1,5.7,1.6C146.7,66.7,146.8,66.7,146.8,66.7z"/>
	<path class="st9" d="M171.8,66.3c0,0.1-0.2,0.2-0.3,0.2c0,0,0,0,0,0l-0.8-0.2c-2.5-0.8-5-1.4-7.5-1.7c-1.1-0.1-2.1-0.3-3.2-0.3
		c-0.6,0-1.2,0-1.9,0.1c-1.4,0.1-2.9,0.4-4.3,0.7c-0.7,0.2-1.4,0.4-2.1,0.7c-0.5,0.2-1,0.5-1.4,0.8c-0.3,0.3-0.4,0.3-0.8,0
		c1-0.9,2.1-1.7,3.4-2.2c0.4-0.1,0.7-0.2,1.1-0.3c2-0.5,4.1-0.8,6.3-0.7c1.1,0,2.2,0.1,3.2,0.3c1.6,0.2,3.1,0.5,4.6,0.9
		c0.1,0.1,0.3,0.2,0.4,0.2c0.6,0.2,1.1,0.4,1.7,0.6c0.1,0,0.1,0,0.2,0c0.3,0.1,0.5,0.3,0.8,0.3C171.4,65.8,171.7,66,171.8,66.3z"/>
	<path class="st9" d="M138.3,65.9l0.5,0.1c0.2,0.1,0.2,0.1,0.3,0.4c-1.1,0.2-2.2,0.4-3.2,0.7c-1.5,0.4-2.9,1-4.2,1.7
		c-0.2,0.1-0.5,0.2-0.7,0.3c-0.1,0-0.2-0.1-0.1-0.2s0.2-0.4,0.3-0.6c0.5-0.4,1.1-0.8,1.7-1c1.2-0.5,2.5-0.9,3.9-1.2
		C137.2,66,137.8,65.9,138.3,65.9z"/>
	<path class="st13" d="M132.6,61.3c0-0.1,0-0.1,0-0.2c0.7-1.2,1.4-2.5,2.2-3.6h0.1c-0.3,0.5-0.6,1-0.9,1.6c-0.3,0.6-0.5,0.9-0.8,1.4
		C133,60.8,133,61.1,132.6,61.3z"/>
	<path class="st13" d="M170.3,65.4c-0.1,0-0.1,0-0.2,0c-0.5-0.3-1.1-0.5-1.7-0.6v-0.2c0.1,0.1,0.2,0.1,0.3,0.1
		C169.4,64.5,170,64.8,170.3,65.4z"/>
	<path class="st8" d="M153.9,64.1c-0.3,0.1-0.7,0.3-1.1,0.3l-0.1-0.2C153.1,64.1,153.5,64.1,153.9,64.1z"/>
	<path class="st8" d="M179.4,51.5h0.1c-0.1,0.3-0.3,0.6-0.5,0.9C178.9,52,179.2,51.7,179.4,51.5z"/>
	<path class="st8" d="M176.3,57.8h-0.1c0-0.2,0.2-0.4,0.2-0.6s0.1-0.2,0.3-0.2C176.5,57.3,176.4,57.6,176.3,57.8z"/>
	<path class="st8" d="M178.9,52.5c-0.1,0.3-0.2,0.5-0.4,0.7C178.5,53,178.5,52.7,178.9,52.5z"/>
	<path class="st8" d="M176.9,56.4c-0.1,0.2-0.2,0.5-0.3,0.7C176.6,56.8,176.7,56.5,176.9,56.4z"/>
	<path class="st8" d="M132.1,62.3c0-0.2,0.1-0.4,0.3-0.5C132.4,62,132.4,62.2,132.1,62.3z"/>
	<path class="st8" d="M132.4,61.7c0-0.2,0.1-0.3,0.2-0.4C132.7,61.6,132.7,61.6,132.4,61.7z"/>
	<path class="st8" d="M135.1,57c0-0.2,0.1-0.3,0.3-0.4C135.4,56.8,135.4,57,135.1,57z"/>
	<path class="st8" d="M168.4,64.6v0.2c-0.2,0-0.3-0.1-0.4-0.2C168.2,64.4,168.3,64.6,168.4,64.6z"/>
	<path class="st8" d="M135,57.5h-0.1c0-0.1,0.1-0.2,0.2-0.3C135,57.3,135.1,57.4,135,57.5z"/>
	<path class="st8" d="M179,52.4c0,0.1,0,0.2-0.1,0.2S178.9,52.4,179,52.4z"/>
	<path class="st8" d="M135,57.2C135,57.1,135,57.1,135,57.2C135.1,57.1,135.1,57.2,135,57.2z"/>
	<path class="st15" d="M152.8,116.6c0.1,0.3,0.2,0.7,0.3,1c0.2,0.7,0.4,1.4,0.6,2.2c0.3,0.9,0.5,1.9,0.7,2.9c0,0.2,0,0.4,0,0.6
		c-0.2-0.2-0.3-0.4-0.3-0.6c-0.3-1-0.6-2-0.8-3c-0.2-0.9-0.4-1.7-0.6-2.5c0-0.1-0.1-0.2-0.1-0.3l0,0c0,0,0.1,0.1,0.1,0.1
		S152.7,116.8,152.8,116.6C152.8,116.7,152.8,116.7,152.8,116.6z"/>
	<path class="st15" d="M152,114.9h0.2c0,0.1,0,0.2,0,0.2s0-0.1,0-0.2l0,0c0.2,0.5,0.3,1,0.4,1.4l-0.2-0.2c0,0,0-0.1,0-0.1
		c0,0,0,0,0-0.1c-0.1,0-0.1,0.1,0,0.1c0,0,0,0.1,0.1,0.1l0.1,0.6l0,0C152.4,116.2,152.2,115.5,152,114.9z M152.3,115.4L152.3,115.4
		L152.3,115.4L152.3,115.4z M152.4,115.7L152.4,115.7L152.4,115.7z"/>
	<path class="st15" d="M150.9,111.2c0.2,0.5,0.4,1,0.5,1.5c0.1,0.4,0.2,0.8,0.3,1.2c-0.2-0.5-0.4-1.1-0.5-1.6
		C151.1,112,151,111.6,150.9,111.2z"/>
	<path class="st15" d="M152.1,114.2c-0.1-0.2-0.2-0.5-0.3-0.7c-0.1-0.3-0.2-0.7-0.3-1.1C151.8,113,151.9,113.6,152.1,114.2z"/>
	<path class="st15" d="M150.4,109.7c0.2,0.5,0.4,1,0.5,1.5C150.7,110.7,150.5,110.2,150.4,109.7z"/>
	<path class="st9" d="M152.6,116.8l-0.1-0.6l0,0l0.2,0.2l0,0c0,0.1,0,0.1,0.1,0.2v0.1c0,0,0,0.1,0,0.1c0,0.1,0,0.2,0,0.2
		S152.7,116.8,152.6,116.8z"/>
	<path class="st15" d="M150.3,109.1c0.1,0.1,0.2,0.4,0.2,0.6C150.3,109.5,150.3,109.3,150.3,109.1z"/>
	<path class="st15" d="M149.9,107.8c0.1,0.1,0.1,0.2,0.1,0.3C149.9,108,149.9,107.9,149.9,107.8z"/>
	<path class="st15" d="M152.2,114.9v-0.3c0.1,0.1,0.1,0.2,0.1,0.3l0,0H152.2L152.2,114.9z"/>
	<path class="st15" d="M151.5,112.4c-0.1-0.1-0.1-0.2-0.1-0.3C151.5,112.2,151.5,112.3,151.5,112.4z"/>
	<path class="st15" d="M151.8,114.2c0.1,0.1,0.1,0.2,0.1,0.3C151.8,114.4,151.8,114.3,151.8,114.2z"/>
	<path class="st15" d="M152.1,114.5c-0.1-0.1-0.1-0.2-0.1-0.2C152.1,114.3,152.2,114.4,152.1,114.5z"/>
	<path class="st15" d="M150,108.1c0.1,0.1,0.1,0.2,0.1,0.3C150,108.3,150,108.2,150,108.1z"/>
	<path class="st15" d="M150.2,108.9c0.1,0.1,0.1,0.2,0.1,0.2C150.2,109,150.2,109,150.2,108.9z"/>
	<path class="st15" d="M151.3,111.7c-0.1-0.1-0.1-0.2-0.1-0.2C151.3,111.5,151.3,111.6,151.3,111.7z"/>
	<path class="st15" d="M151.4,112.1c-0.1-0.1-0.1-0.2-0.1-0.3C151.4,111.9,151.4,112,151.4,112.1z"/>
	<path class="st15" d="M150.1,108.5c0.1,0.1,0.1,0.2,0.1,0.3C150.1,108.7,150.1,108.6,150.1,108.5z"/>
	<path class="st15" d="M151.7,114c0.1,0.1,0.1,0.2,0.1,0.3C151.7,114.2,151.7,114.1,151.7,114z"/>
	<path class="st15" d="M151.9,114.6c0,0,0.1,0.1,0.1,0.2C151.9,114.7,151.9,114.7,151.9,114.6z"/>
	<path class="st15" d="M152.8,116.5c0,0-0.1-0.1-0.1-0.2C152.8,116.4,152.8,116.5,152.8,116.5z"/>
	<path class="st1" d="M222.1,75.3h0.2c0.1,0.1,0,0.2,0,0.3s0.1,0.3,0.1,0.4v0.2v0.2c0,0.3,0.2,0.5,0.1,0.8c-0.1,0.3,0,0.6,0.1,0.8
		c0.1,0.1,0,0.2,0,0.3l-0.1,0.1c-0.1,0.1-0.1,0.1,0,0.2v0.1c0,0.2,0,0.3,0,0.5c-0.1,0.1-0.1,0.2-0.1,0.3c0,0,0,0,0.1,0.1
		c0,0.1,0.1,0.3,0,0.4s0,0.1,0,0.2v0.8c0,0,0,0.1,0,0.1s-0.2,0.2,0,0.3v0.2c0,0,0,0.1,0,0.1c-0.1,0-0.1,0.1-0.1,0.2
		c0.1,0.2,0.1,0.4-0.1,0.6c-0.1,0.2-0.1,0.3-0.1,0.5V83c-0.1,0.1-0.1,0.3-0.2,0.4c-0.1,0-0.1,0.2-0.1,0.2l-0.1,0.2
		c-0.1,0.1-0.1,0.2,0,0.2c0,0.1,0,0.2-0.1,0.3s0,0.3-0.1,0.5c0,0,0,0.1,0,0.1c0.1,0.2-0.1,0.3-0.1,0.4s0.3,0.1,0.3,0.3
		s0.3,0.1,0.4,0c0.1,0.2,0.1,0.3,0.4,0.3c0,0.1,0.1,0.1,0.2,0.1c0.2,0,0.4,0.1,0.5,0.2c0.2,0.1,0.4,0.2,0.7,0.2v0.2
		c0.3-0.1,0.5,0.2,0.8,0.3c0.1,0.1,0.2,0.2,0.4,0.2c0.1,0.1,0.3,0.1,0.5,0.1v0.1c0,0.1,0.1,0.2,0.3,0.2c0,0,0,0,0,0
		c0.1,0,0.2-0.1,0.3,0l0.1,0.1c0.1,0.3,0.4,0.1,0.6,0.2h0.2c0,0,0,0,0,0.1c0.1,0.3,0.3,0.5,0.7,0.6c0.3,0.2,0.3,0.2,0.4,0l0,0h0.2
		c0,0.2,0.2,0.2,0.3,0.3s0.2,0.3,0.4,0.3h0.3l0,0c0,0.2,0.2,0.2,0.3,0.2s0.3,0.1,0.4,0.2l0,0c0.1,0.1,0.3,0.2,0.5,0.2
		c0.1,0,0.2,0,0.2,0.1c-0.1,0.4,0.2,0.3,0.4,0.3c0.1,0,0.2,0,0.3,0c0,0.1,0,0.2,0,0.3s0,0.1,0.1,0.1c0.1,0.1,0.2,0.2,0.3,0.2
		l0.1,0.1c0,0.1,0,0.1,0.1,0.2c0,0.2,0.1,0.2,0.2,0.2s0.2,0.1,0.3,0.1c0.1,0,0.1-0.1,0.1-0.1c0.1,0,0.1-0.1,0.1-0.2l0.1-0.1
		c0,0,0.1-0.1,0.1-0.2c-0.1-0.5,0.1-1,0-1.4c0.1-0.1,0.1-0.2,0.1-0.3c-0.1-0.1-0.1-0.3,0-0.5c0-0.1,0-0.2-0.1-0.2
		c0-0.4,0-0.8,0.1-1.2c0,0,0-0.1-0.1-0.2v-0.1l0.1-0.2l0,0l0,0c0,0,0,0,0-0.1v-0.2c0-0.2-0.2-0.1-0.2-0.3s0.2,0,0.2-0.1v-0.4
		l-0.1-0.2c0.1-0.1,0.1-0.1,0.1-0.2v-0.2c0-0.3-0.2-0.5-0.1-0.8c0-0.1,0.1-0.2,0-0.3c0-0.2,0-0.4,0-0.6c0.1-0.2,0.1-0.4,0-0.5h-0.1
		l0.1-0.3l0.2,0.1c0.2,0.8,0.3,1.7,0.3,2.5c0.2,1.8,0.2,3.5,0.1,5.3c0,1-0.1,2.1-0.3,3.1c0,0.1,0,0.1-0.1,0.2c-0.1,0-0.1,0.1,0,0.2
		c-0.1,0.9-0.2,1.7-0.4,2.6h-0.1c-0.1-0.2-0.2-0.4-0.2-0.6c-0.1-0.7-0.4-1.3-0.7-1.9c-0.2-0.5-0.5-1-0.8-1.5
		c-0.2-0.2-0.4-0.5-0.6-0.7c-0.1-0.1-0.3-0.3-0.3-0.5v-0.3c0.1,0,0.3,0.1,0.4-0.1c-0.2-0.2-0.4-0.3-0.6-0.5
		c-1.4-1.5-3.3-2.5-5.3-2.9c-0.4-0.1-0.7-0.1-1.1-0.1l0.6,0.4v0.2c-0.9-0.1-1.7,0-2.6,0c-0.1-0.1-0.2,0-0.2,0.1
		c-0.3,1.3-0.6,2.6-1,3.9c-0.2,0.7-0.5,1.4-0.9,2.1c-0.2,0.5-0.4,1-0.6,1.4c-0.1,0.2-0.2,0.4-0.3,0.6c-0.3,0.6-0.7,1.2-1.1,1.7
		c-0.1,0-0.2,0.1-0.2,0.2c-0.1,0.2-0.2,0.4-0.4,0.6c-0.1,0-0.2,0-0.2,0.2c-0.3,0.5-0.8,0.9-1.1,1.4c-0.2,0.3-0.4,0.5-0.6,0.7
		c-0.5,0.6-1,1.2-1.4,1.8s-1.1,1.4-1.7,2.1c-0.2,0.3-0.4,0.5-0.6,0.8c-0.1,0.1-0.2,0.2-0.3,0.3l-0.2-0.1c0.4-0.8,0.9-1.6,1.4-2.3
		c1.7-2.6,3.4-5.1,5.2-7.6c0.5-0.8,0.9-1.6,1.2-2.5c0.5-1.1,0.9-2.2,1.5-3.2c0.1-0.3,0.2-0.5,0.3-0.8c0.2-0.9,0.4-1.8,0.6-2.7
		c0.4-1.8,0.8-3.5,1-5.3c0.2-1.6,0.3-3.2,0.3-4.8C222.2,76,222.1,75.7,222.1,75.3z"/>
	<path class="st13" d="M200.7,121.4c1.1,0.2,2,0.7,2.8,1.5c0.5,0.5,1,1,1.5,1.5c0,0.1,0.1,0.2,0.3,0.1l0,0l0.1,0.1
		c0.3,0.3,0.3,0.4,0.7,0.1c1.3-0.8,2.5-1.7,3.8-2.4c0.8-0.5,1.6-1.1,2.5-1.6c1-0.7,2.1-1.4,3.1-2.1c0.7-0.6,1.4-1,2.1-1.6
		s1.4-1.1,2.1-1.6s1.6-1.2,2.3-1.9c0.9-0.8,1.7-1.6,2.5-2.4c0.3-0.4,0.6-0.8,0.9-1.2c0.4-0.6,0.7-1.2,1.1-1.7s0.6-0.9,0.9-1.3
		c0.4-0.7,0.8-1.3,1.2-1.9s0.7-1.2,1.1-1.7c0.2-0.3,0.4-0.5,0.5-0.9c0-0.2,0.2-0.2,0.3-0.3c0,0.1,0,0.2-0.1,0.3
		c-0.9,2-2.1,3.9-3.2,5.8c-1.2,1.9-2.6,3.6-4.1,5.2c-1.7,1.7-3.5,3.3-5.4,4.7c-0.1,0.1-0.3,0.2-0.4,0.3c-0.9,1-2,1.8-3.1,2.4
		c-0.5,0.3-1,0.6-1.4,1c-0.2,0.2-0.5,0.3-0.7,0.4c-0.9,0.6-1.7,1.2-2.6,1.7c-0.6,0.3-1.2,0.7-1.8,1.1c-1,0.6-2,1.2-3,1.8
		c-0.1,0.1-0.1,0.2-0.3,0.2c0-0.1,0-0.2,0.1-0.3c0.2-0.1,0.3-0.3,0.5-0.5c0.2-0.1,0.2-0.4,0.1-0.6c0,0-0.1-0.1-0.1-0.1
		c-1.1-1.3-2.4-2.5-3.7-3.6C201.1,121.8,200.8,121.7,200.7,121.4z"/>
	<path class="st15" d="M224.1,87.6l-0.6-0.4c0.4-0.1,0.7,0,1.1,0.1c2,0.4,3.9,1.4,5.3,2.9c0.2,0.2,0.4,0.4,0.6,0.5
		c-0.1,0.2-0.3,0.1-0.4,0.1c-0.3-0.3-0.6-0.5-0.9-0.7c-0.6-0.4-1.2-0.8-1.8-1.1c-0.7-0.4-1.5-0.8-2.3-1.1c-0.1,0-0.1,0-0.2,0
		c-0.1,0-0.1-0.1-0.2,0l0,0C224.5,87.7,224.3,87.7,224.1,87.6z"/>
	<path class="st13" d="M210.7,105.6l0.2,0.1c-0.1,0.3-0.3,0.6-0.6,0.9c-0.4,0.4-0.7,0.8-1,1.3c-0.1,0.1-0.1,0.2-0.3,0.2
		c-0.1-0.2,0.1-0.3,0.2-0.4C209.7,106.9,210.2,106.3,210.7,105.6z"/>
	<path class="st13" d="M229.1,90.2c0.3,0.2,0.7,0.4,0.9,0.7v0.3c-0.4-0.2-0.6-0.6-0.9-0.8C229.1,90.3,229.1,90.2,229.1,90.2z"/>
	<path class="st8" d="M231.8,99.8c-0.1,0.3-0.2,0.6-0.5,0.9C231.3,100.3,231.4,99.9,231.8,99.8z"/>
	<path class="st8" d="M231,101.4c-0.1,0.2-0.2,0.5-0.4,0.7C230.6,101.6,230.6,101.5,231,101.4z"/>
	<path class="st8" d="M231.3,100.8c0,0.2-0.1,0.4-0.3,0.6C231,101.1,230.9,100.8,231.3,100.8z"/>
	<path class="st13" d="M224.1,87.6c0.2,0.1,0.4,0.1,0.6,0.3l-0.6-0.1V87.6z"/>
	<path class="st8" d="M232,99.2c0,0.2-0.1,0.4-0.3,0.6C231.8,99.5,231.8,99.3,232,99.2z"/>
	<path class="st12" d="M205.3,124.6c-0.1,0-0.2-0.1-0.2-0.2c0.1,0,0.1-0.1,0.1-0.2c0,0,0,0,0,0C205.3,124.4,205.3,124.5,205.3,124.6
		z"/>
	<path class="st13" d="M232.6,96.3h0.1c0,0.2-0.1,0.3-0.1,0.5C232.6,96.6,232.6,96.4,232.6,96.3z"/>
	<path class="st13" d="M221.4,87.9c0-0.1,0.1-0.2,0.2-0.1L221.4,87.9z"/>
	<path class="st13" d="M217.3,97.8c0-0.1,0.1-0.2,0.2-0.2C217.4,97.8,217.4,97.8,217.3,97.8z"/>
	<path class="st13" d="M216.6,98.6c0-0.2,0.1-0.2,0.2-0.2C216.8,98.5,216.7,98.6,216.6,98.6z"/>
	<path class="st8" d="M232.1,98.8c0,0.1,0,0.2-0.1,0.3C232.1,99,232,98.9,232.1,98.8z"/>
	<path class="st1" d="M202.1,121.1c-0.1,0-0.2,0-0.2-0.1C202,120.9,202,121,202.1,121.1z"/>
	<path class="st13" d="M224.6,87.9c0.1-0.1,0.1,0,0.2,0C224.8,87.9,224.7,87.9,224.6,87.9z"/>
	<path class="st12" d="M205.4,124.7L205.4,124.7L205.4,124.7z"/>
	<path class="st13" d="M218.6,75.2c0,0.2-0.1,0.2-0.3,0.1C218.4,75.2,218.5,75.2,218.6,75.2L218.6,75.2z"/>
	<path class="st1" d="M204,71.7v-0.2h0.2l0,0C204.3,71.6,204.1,71.6,204,71.7z"/>
	<path class="st1" d="M219.4,71.1c0,0,0,0.1,0,0.1s-0.1,0.2-0.1,0.1s0-0.1,0-0.2C219.2,71.1,219.3,71.1,219.4,71.1L219.4,71.1z"/>
	<path class="st1" d="M219.8,78.2c0.1,0,0.1,0,0.1,0.1l0,0C219.8,78.3,219.8,78.3,219.8,78.2C219.8,78.2,219.8,78.2,219.8,78.2z"/>
	<path class="st1" d="M220,80.7L220,80.7C219.9,80.7,220,80.7,220,80.7z"/>
	<path class="st1" d="M219.7,78.2L219.7,78.2C219.7,78.2,219.8,78.2,219.7,78.2L219.7,78.2z"/>
	<path class="st4" d="M204.2,71.4L204.2,71.4z"/>
	<polygon class="st1" points="205.6,58.3 205.5,58.3 205.6,58.3 	"/>
	<path class="st1" d="M173.8,142.6c-0.1,0-0.2,0-0.3-0.1C173.7,142.4,173.8,142.4,173.8,142.6z"/>
	<path class="st13" d="M154.2,42.6c1.4-0.7,2.9-1.4,4.4-1.8c0.8-0.2,1.6-0.4,2.4-0.6c0.1,0.1,0.1,0.1,0,0.2l-1.5,0.5
		c-1.2,0.4-2.4,0.8-3.7,1.2c-0.3,0.1-0.6,0.3-1,0.4C154.7,42.5,154.4,42.6,154.2,42.6z"/>
	<path class="st5" d="M128.3,79.2c0.1-0.4,0.2-0.8,0.3-1.2c0.1-0.8,0.3-1.7,0.4-2.6c0.1-0.9,0.2-1.7,0.4-2.5c0.1-0.5,0.2-1,0.3-1.6
		c0-0.2,0.2-0.5,0.4-0.6c1.9-1.1,3.9-2.1,6-2.9c1.4-0.5,2.8-0.9,4.3-1.1c1.4-0.2,2.8-0.1,4.2,0.2c0.3,0.1,0.6,0.2,0.9,0.4
		c0.2,0.2,0.5,0.2,0.7,0.1c0.2,0,0.4-0.1,0.5-0.1c0,0.6-0.1,1.2-0.3,1.8c-0.5,3-0.8,6-0.9,9.1c0,0.7-0.1,1.4-0.1,2.1
		c-0.1,1,0,2.1,0.1,3.1c0.1,1.5,0.2,2.9,0.4,4.4c0.3,2.3,0.7,4.5,1.1,6.8c0.5,2.9,1.1,5.7,1.9,8.5c0.3,1,0.5,1.9,0.8,2.9
		c0,0.1,0.1,0.3,0.1,0.4c-0.8-0.1-1.7-0.2-2.5-0.2s-1.8,0-2.7,0c-1,0-2.1,0.1-3.1,0.3c-0.4,0.1-0.9,0.3-1.3,0.5
		c-0.2,0.1-0.5,0.1-0.7,0c-0.1,0-0.2-0.1-0.3-0.1c-0.4-0.1-0.7-0.3-0.9-0.6c-0.4-0.7-0.7-1.3-1.1-2c-2-3.8-3.9-7.8-5.7-11.7
		c-0.7-1.8-1.3-3.6-1.8-5.5c-0.4-1.5-0.7-2.9-0.9-4.4C128.4,81.8,128.4,80.6,128.3,79.2C128.3,79.3,128.3,79.3,128.3,79.2z"/>
	<path class="st13" d="M228.1,69.3c-0.2-0.2-0.4-0.3-0.6-0.5c0.2-0.2,0.3-0.5,0.1-0.8c-0.2-0.6-0.4-1.3-0.6-1.9h0.2
		c0.4,0.6,0.8,1.3,1.2,1.8c0,0,0.1,0.1,0.1,0.1c0.2,0.5,0.3,1,0.5,1.5c-0.2,0-0.4,0-0.6-0.2S228.2,69.2,228.1,69.3z"/>
	<path class="st13" d="M229.4,88.9L229.4,88.9c-0.1-0.2-0.2-0.2-0.3,0c-0.2,0-0.4-0.1-0.4-0.3s-0.3-0.2-0.3-0.3s0-0.3,0.2-0.2
		s0.7,0,1.1,0.1c0.1,0,0.2,0,0.3-0.1c0.1-0.1,0.1-0.1,0.2-0.1s0,0.2,0,0.2s0,0.1-0.1,0.2c-0.2-0.1-0.5,0-0.8,0c-0.1,0-0.2,0-0.2,0
		c0,0.1,0.1,0.1,0.1,0.1s0.3,0.2,0.5,0.2C229.7,88.9,229.5,89,229.4,88.9z"/>
	<path class="st13" d="M222.4,76c0-0.1-0.1-0.3-0.1-0.4c0.4-0.1,0.4-0.1,0.7-0.3c0.1,0.1,0,0.2,0,0.3l-0.1,0.1c0,0-0.1,0.1,0,0.1
		s0.1,0,0.1,0l0.1-0.1c0.2,0,0.1,0.1,0.1,0.2s-0.3,0.3-0.4,0.5C222.6,76.2,222.6,76,222.4,76z"/>
	<path class="st13" d="M227.8,88.2c-0.3,0-0.6-0.2-0.7-0.6c0.2-0.1,0.5,0.1,0.6-0.2c0.2,0.2,0,0.4,0,0.5s-0.1,0.1,0,0.1l0.1-0.1
		c0.2,0,0.4-0.1,0.4,0.2L227.8,88.2L227.8,88.2z"/>
	<path class="st13" d="M232.9,83.7c0.1,0.1,0,0.2,0,0.3c-0.1,0-0.2,0.1-0.2,0.2c-0.2,0.2-0.3,0.2-0.6-0.2
		C232.5,84.2,232.6,83.8,232.9,83.7z"/>
	<path class="st13" d="M233.1,82.4l-0.2-0.1c0-0.1-0.1-0.1-0.2-0.1s-0.1-0.1-0.1-0.1c0.3,0,0.1-0.2,0.1-0.3s-0.2-0.1-0.2-0.2
		s0.3,0,0.3-0.2C233,81.7,233.1,82.1,233.1,82.4z"/>
	<path class="st13" d="M222,85.2c0.3,0,0.6,0,0.9,0c0,0.2-0.2,0.3-0.2,0.4s-0.1,0-0.1,0C222.6,85.3,222.1,85.6,222,85.2z"/>
	<path class="st13" d="M232.9,82.6c0.1,0.2,0.1,0.4,0,0.5c0-0.1-0.1-0.2-0.3-0.2s-0.3-0.1-0.4-0.3h0.5l0,0v0.1
		C232.7,82.7,232.8,82.6,232.9,82.6z"/>
	<path class="st13" d="M232.9,85.3l0.1,0.2c-0.2,0-0.5,0-0.7,0l0.3,0.2c0,0.1-0.1,0.1-0.4-0.1C232.3,85.2,232.4,85.2,232.9,85.3z"/>
	<path class="st13" d="M222,84c-0.1-0.1-0.1-0.2,0-0.2c0.3,0.1,0.5-0.3,0.9-0.3C222.6,83.8,222.3,83.9,222,84z"/>
	<path class="st13" d="M222.6,81.4v-0.1c0.1-0.2,0.4-0.1,0.5-0.4C223.1,81.4,223,81.4,222.6,81.4z"/>
	<path class="st13" d="M231.5,90.5c-0.1,0-0.1,0-0.1-0.1s0-0.2,0-0.3c0.3,0,0.2,0.3,0.4,0.4l0,0C231.6,90.5,231.5,90.5,231.5,90.5z"
		/>
	<path class="st13" d="M222.5,79.6c-0.1-0.1-0.1-0.2-0.1-0.3c0,0,0,0,0.1-0.1c0,0.1,0.1,0.1,0.2,0.1s0-0.2,0.1,0s0.1,0.2,0,0.2
		S222.6,79.5,222.5,79.6z"/>
	<path class="st13" d="M225.4,87c-0.1,0-0.3-0.1-0.4-0.2c0.2-0.2,0.2-0.2,0.3,0C225.4,86.9,225.4,86.9,225.4,87z"/>
	<path class="st13" d="M231.8,90.8L231.8,90.8l-0.1-0.3l0,0c0.1,0,0.2,0,0.3-0.1C232,90.6,232.1,90.8,231.8,90.8z"/>
	<path class="st13" d="M222.6,80.1c-0.1,0-0.1-0.1,0-0.2h0.1c0.1,0,0.3,0,0.2,0.1S222.6,80.2,222.6,80.1z"/>
	<path class="st13" d="M221.8,84.8c0-0.2-0.1-0.3,0.1-0.5C222.1,84.5,222,84.7,221.8,84.8z"/>
	<path class="st13" d="M226.5,87.3L226.5,87.3c-0.1-0.2-0.1-0.3,0.2-0.3C226.6,87.2,226.6,87.3,226.5,87.3z"/>
	<path class="st13" d="M223,86.1c-0.1,0-0.2,0-0.2-0.1c0-0.1,0.1-0.2,0.2-0.1S223,86,223,86.1z"/>
	<path class="st13" d="M222.3,83v-0.2c0.1,0,0.2-0.1,0.2,0S222.4,83,222.3,83z"/>
	<path class="st13" d="M222.5,85.7c-0.1,0.1-0.3,0.2-0.4,0C222.2,85.6,222.3,85.6,222.5,85.7z"/>
	<path class="st13" d="M232.9,86.8v0.1c-0.1,0-0.2,0.1-0.3,0.1C232.5,86.8,232.7,86.8,232.9,86.8z"/>
	<path class="st13" d="M222.6,81C222.6,81,222.6,80.9,222.6,81L222.6,81c0.1-0.1,0.1-0.2,0.2-0.1s0,0.1,0,0.1S222.6,81,222.6,81
		L222.6,81z"/>
	<path class="st13" d="M232.2,91.2c-0.1,0-0.2,0-0.2-0.2C232.1,91,232.2,91,232.2,91.2z"/>
	<path class="st13" d="M222,83.7c0-0.1,0-0.2,0.1-0.2C222.3,83.6,222.1,83.6,222,83.7z"/>
	<path class="st13" d="M232.9,85.9c0,0.1-0.1,0.1-0.2,0.1s-0.2,0-0.2-0.1l0,0L232.9,85.9z"/>
	<path class="st13" d="M232.9,88.9c0,0.1,0,0.2-0.1,0.3C232.6,89,232.9,89,232.9,88.9z"/>
	<path class="st1" d="M222.5,73.1c0-0.1,0-0.2,0.1-0.2s0.1,0,0.1,0S222.6,73.1,222.5,73.1L222.5,73.1z"/>
	<path class="st13" d="M232.9,86.3v0.2c-0.1,0-0.1,0-0.1-0.1S232.9,86.3,232.9,86.3z"/>
	<path class="st13" d="M232.8,88.3c0.1,0,0.1,0.1,0.1,0.2C232.8,88.4,232.7,88.4,232.8,88.3z"/>
	<path class="st13" d="M222.4,76.4v-0.2c0.1,0,0.1,0,0.2,0S222.4,76.4,222.4,76.4z"/>
	<path class="st13" d="M232.9,84.9V85c-0.1,0-0.1,0-0.2,0S232.9,84.9,232.9,84.9z"/>
	<path class="st13" d="M230.1,89.4L230.1,89.4C230.1,89.4,230.1,89.4,230.1,89.4C230.3,89.4,230.2,89.4,230.1,89.4
		C230.1,89.4,230.1,89.4,230.1,89.4z"/>
	<path class="st13" d="M225.8,87.1L225.8,87.1l0.1-0.1h0.1c0,0,0,0.1-0.1,0.1L225.8,87.1z"/>
	<path class="st13" d="M222.6,78.7v-0.1c0.1,0,0.1,0,0.1,0S222.6,78.7,222.6,78.7z"/>
	<path class="st1" d="M222.7,76.8L222.7,76.8C222.7,76.8,222.7,76.8,222.7,76.8S222.7,76.8,222.7,76.8L222.7,76.8z"/>
	<path class="st13" d="M224.2,86.5v-0.2C224.3,86.4,224.2,86.4,224.2,86.5z"/>
	<path class="st13" d="M232.6,91.1c0,0.1,0,0.1-0.1,0.1C232.5,91.2,232.5,91.1,232.6,91.1z"/>
	<path class="st13" d="M222.5,81.7c0-0.1,0-0.1,0.1-0.2C222.6,81.6,222.5,81.7,222.5,81.7z"/>
	<path class="st13" d="M232.6,89.1L232.6,89.1C232.6,89.1,232.6,89.1,232.6,89.1z"/>
	<path class="st13" d="M233,86.5L233,86.5L233,86.5L233,86.5z"/>
	<path class="st13" d="M232.8,90.8l-0.1,0.1C232.7,90.8,232.7,90.8,232.8,90.8z"/>
	<path class="st13" d="M222.6,78.4l0.1-0.1C222.7,78.4,222.6,78.4,222.6,78.4z"/>
	<path class="st13" d="M227.1,87.5L227.1,87.5L227.1,87.5L227.1,87.5z"/>
	<path class="st13" d="M232.5,85.9L232.5,85.9L232.5,85.9L232.5,85.9z"/>
	<polygon class="st1" points="222.1,68.5 222,68.5 222.1,68.5 	"/>
	<path class="st13" d="M232.6,89.1L232.6,89.1L232.6,89.1z"/>
	<path class="st1" d="M182.5,141.7c-0.1,0.1-0.1,0.3-0.3,0.2C182.2,141.7,182.4,141.7,182.5,141.7z"/>
	<path class="st5" d="M204.3,127c-0.1,0.1-0.2,0.2-0.3,0.2C204.1,127,204.2,127,204.3,127z"/>
	<path class="st5" d="M204.1,127.2c0,0.1-0.1,0.1-0.2,0.1S204,127.2,204.1,127.2z"/>
	<path class="st1" d="M182.6,141.6c0,0.1,0,0.1-0.1,0.1L182.6,141.6z"/>
	<path class="st13" d="M221.8,58.3c-0.5-0.2-0.7-0.6-1-0.9l0.1-0.1C221.3,57.5,221.6,57.9,221.8,58.3z"/>
	<path class="st6" d="M227.2,66H227c-0.2-0.4-0.4-0.8-0.5-1.3C226.8,65.2,227,65.6,227.2,66z"/>
	<path class="st13" d="M233.1,93.7c-0.1-0.1-0.1-0.1,0-0.2C233.2,93.6,233.2,93.7,233.1,93.7z"/>
	<path class="st13" d="M222,58.5c-0.1,0-0.2,0-0.2-0.2C221.9,58.3,222,58.4,222,58.5z"/>
	<path class="st6" d="M226.5,64.8c-0.1,0-0.1-0.1-0.1-0.2C226.5,64.7,226.5,64.7,226.5,64.8z"/>
	<path class="st6" d="M226.4,64.6c-0.1,0-0.1-0.1-0.1-0.2C226.4,64.5,226.4,64.6,226.4,64.6z"/>
	<path class="st1" d="M220.9,57.3l-0.1,0.1v-0.1l0,0H220.9z"/>
	<path class="st15" d="M163.1,162.4c0,0.1,0,0.2,0,0.3c-0.6,2-1.2,4-1.8,5.9c-0.5,1.6-1,3.1-1.5,4.7c-0.1,0.3-0.3,0.4-0.7,0.4
		c0.1-0.5,0.3-1.1,0.5-1.6c0.6-1.6,1.2-3.3,1.7-4.9c0.4-1.3,0.9-2.7,1.4-4C162.8,162.8,162.9,162.6,163.1,162.4L163.1,162.4z"/>
	<polygon class="st15" points="163.1,162.4 163.1,162.4 163.1,162.4 	"/>
	<path class="st1" d="M197,50.5c-0.1,0-0.1,0-0.1-0.1S197,50.5,197,50.5z"/>
	<path class="st13" d="M163.8,139.3c0.2-0.1,0.4-0.1,0.6,0c1.3,0.3,2.4,0.8,3.5,1.6c-0.3,0-0.5-0.1-0.7-0.2c-1-0.5-2.1-1-3.2-1.4
		L163.8,139.3z"/>
	<path class="st1" d="M175.9,144.9c0.1,0,0.1,0,0.1,0.1S175.9,144.9,175.9,144.9z"/>
	<path class="st10" d="M149.5,164.6c-0.1-0.1,0-0.3-0.2-0.3c0-0.9,0.1-1.8,0.1-2.8c0-0.2,0-0.4,0.1-0.6c0,0,0.1,0.1,0.1,0.1
		c0.1,0.8,0.1,1.6,0,2.4C149.5,163.9,149.5,164.2,149.5,164.6z"/>
	<path class="st10" d="M149.4,166.3c0-0.1,0-0.2,0-0.3C149.5,166.1,149.5,166.2,149.4,166.3C149.5,166.3,149.5,166.3,149.4,166.3z"
		/>
	<path class="st10" d="M149.5,164.8C149.5,164.8,149.5,164.8,149.5,164.8L149.5,164.8L149.5,164.8z"/>
	<path class="st10" d="M153.7,171c0,0,0,0.1,0,0.1V171z"/>
	<path class="st9" d="M146.5,107.6H146c-1.5,0-3.1,0.3-4.5,0.9c-0.2,0.1-0.4,0.2-0.4,0.4s-0.1,0.2-0.3,0.2c-0.3-0.1-0.7-0.2-1-0.2
		c0.1-0.4,0.3-0.8,0.6-1c0.8-0.5,1.7-0.7,2.7-0.7c1.4-0.1,2.8-0.1,4.2,0.1c0.2,0,0.5,0.1,0.7,0.1c0,0.2-0.1,0.3-0.3,0.2l-1.3-0.3
		c-0.1,0-0.2,0-0.1,0.2L146.5,107.6z"/>
	<path class="st12" d="M146.5,107.6v-0.1c0.3,0,0.5,0.1,0.7,0.2C146.9,107.7,146.7,107.7,146.5,107.6z"/>
	<path class="st10" d="M149.3,165.8c0.1,0.2,0.1,0.3,0,0.5C149.2,166.1,149.2,165.9,149.3,165.8z"/>
	<path class="st9" d="M152.2,114.9L152.2,114.9c0.1,0.1,0.1,0.2,0.1,0.2S152.2,114.9,152.2,114.9z"/>
	<path class="st9" d="M152.5,116.2C152.5,116.1,152.5,116.1,152.5,116.2c-0.1-0.1-0.1-0.2-0.1-0.2c0,0,0,0,0,0.1
		C152.5,116.1,152.5,116.1,152.5,116.2L152.5,116.2z"/>
	<path class="st9" d="M152.3,115.4L152.3,115.4L152.3,115.4L152.3,115.4L152.3,115.4z"/>
	<path class="st9" d="M152.4,115.7L152.4,115.7L152.4,115.7C152.4,115.7,152.4,115.7,152.4,115.7z"/>
	<path class="st8" d="M227.8,88.2h0.4C228.1,88.4,228.1,88.4,227.8,88.2z"/>
	<path class="st8" d="M231.8,90.5v0.2c-0.1,0-0.2-0.1-0.3-0.2C231.6,90.5,231.7,90.5,231.8,90.5z"/>
	<path class="st8" d="M229.1,88.9c0.1-0.2,0.2-0.1,0.3,0H229.1z"/>
	<path class="st8" d="M232.9,82.6C232.9,82.6,232.9,82.7,232.9,82.6C232.7,82.6,232.8,82.7,232.9,82.6L232.9,82.6z"/>
	<path class="st8" d="M222.9,75.8c0,0-0.1,0.1-0.1,0s0-0.1,0-0.1L222.9,75.8z"/>
	<path class="st8" d="M222.9,75.7l0.1-0.1l0.1,0.1L222.9,75.7L222.9,75.7z"/>
	<path class="st8" d="M227.8,88L227.8,88C227.6,88.1,227.7,88,227.8,88L227.8,88z"/>
	<polygon class="st7" points="176.7,147.8 177.3,148.1 182.8,142.4 182.3,142 	"/>
	<polygon class="st7" points="214.5,50.1 214.2,50.5 220.9,57.2 221.3,56.9 	"/>
	<polygon class="st7" points="149.7,156.8 149.1,159.9 149.6,159.6 149.9,157.5 	"/>
	<polygon class="st17" points="149.4,137.1 150.4,136.7 150.3,142.5 150.1,142.5 	"/>
	<polygon class="st17" points="148.9,173.4 149.3,174.2 148.7,174.4 148.2,173.6 	"/>
	<polygon class="st17" points="169.6,162.3 170.2,162.5 169.4,165.1 168.1,166.2 	"/>
</g>
</svg>
