<?xml version="1.0" encoding="utf-8"?>
<!-- Generator: Adobe Illustrator 22.0.1, SVG Export Plug-In . SVG Version: 6.00 Build 0)  -->
<svg version="1.1" id="World_Balloon_xA0_Image_1_" xmlns="http://www.w3.org/2000/svg" xmlns:xlink="http://www.w3.org/1999/xlink"
	 x="0px" y="0px" viewBox="0 0 46 60" style="enable-background:new 0 0 46 60;" xml:space="preserve">
<style type="text/css">
	.st0{fill:#76CD77;}
	.st1{fill:#66CAFE;}
	.st2{fill:#67CCFF;}
	.st3{fill:#65C9FB;}
	.st4{fill:#67C9FD;}
	.st5{fill:#09090A;}
	.st6{fill:#78CD79;}
	.st7{fill:#0A0A0A;}
	.st8{fill:#C99666;}
	.st9{fill:#FAC966;}
	.st10{fill:#B38050;}
	.st11{fill:#F6F9F6;}
	.st12{fill:#946203;}
	.st13{fill:#141414;}
	.st14{fill:#FEFEFE;}
	.st15{fill:#080505;}
</style>
<g>
	<g>
		<path class="st0" d="M17.9,27.9c0,0.3-0.1,0.5-0.1,0.8c0,0.2,0,0.3,0,0.5c0,0.1,0,0.1-0.2,0.1c-0.3,0-0.5-0.1-0.8-0.1
			c-0.3,0-0.6-0.1-0.9-0.1c-0.3,0-0.7-0.1-1-0.1c-0.3,0-0.6,0-0.9-0.1c-0.3,0-0.6,0-0.9,0c-0.4,0-0.7,0-1.1,0.1
			c-0.4,0.1-0.8,0.3-1.3,0.5c-0.2,0.1-0.4,0.1-0.5,0.2c-0.1,0-0.2,0-0.3,0c0,0,0-0.1-0.1-0.2c-0.1-0.4-0.2-0.9-0.3-1.3
			c-0.3-1.3-0.6-2.6-0.8-3.9c-0.1-0.7-0.2-1.5-0.3-2.2c-0.1-0.9-0.1-1.7-0.1-2.6c0-0.3,0-0.6,0-1c0-0.6,0.1-1.2,0.1-1.8
			c0-0.4,0-0.8,0-1.2c0.1-0.6,0.2-1.3,0.3-1.9c0-0.2,0-0.3,0.1-0.5c0.5-0.1,1-0.2,1.5-0.3c0.1,0,0.2,0,0.3,0c0.4,0,0.7-0.1,1.1-0.1
			c0.5-0.1,1-0.1,1.5-0.2c0.8,0,1.6,0,2.4,0c0.4,0,0.8,0,1.2,0.1c0.7,0.1,1.3,0.1,1.9,0.3c0.1,0,0.2,0.1,0.2,0.2
			c0,0.2,0.1,0.3,0.2,0.5c0,0.1,0.1,0.2,0.1,0.3c0,0.2,0,0.4,0,0.6c0,0.2,0,0.4,0,0.6c0,0,0,0.1,0,0.1C19.1,15.5,19,16,19,16.4
			c-0.1,0.9-0.2,1.7-0.3,2.6c-0.1,1-0.3,2-0.3,3c-0.1,1-0.1,2.1-0.2,3.1c0,0.5,0,0.9-0.1,1.4c0,0,0,0.1,0,0.1c0,0.3-0.1,0.7-0.1,1
			C17.9,27.6,17.9,27.8,17.9,27.9z"/>
		<path class="st1" d="M19.7,29.8C19.6,29.8,19.6,29.8,19.7,29.8c-0.3-0.1-0.4-0.3-0.6-0.4C19,29.3,19,29.3,19,29.2
			c0-0.1,0-0.1,0-0.2c-0.1-0.2-0.1-0.5-0.1-0.7c0-0.2-0.1-0.4-0.1-0.6c0-0.1,0-0.3,0-0.4c0-0.2,0-0.5,0-0.7c0-0.4,0-0.7,0-1.1
			c0-0.2,0-0.4,0-0.5c0-0.2,0-0.5,0.1-0.7c0-0.4,0.1-0.8,0.1-1.2c0-0.2,0.1-0.4,0.1-0.7c0-0.1,0-0.2,0-0.3c0.1-0.5,0.1-1,0.2-1.5
			c0-0.4,0.1-0.8,0.1-1.2c0-0.4,0.1-0.8,0.1-1.2c0-0.2,0.1-0.5,0.1-0.7c0-0.2,0-0.4,0.1-0.6c0-0.3,0.1-0.5,0.1-0.8
			c0-0.3,0.1-0.5,0.1-0.8c0-0.1,0-0.1,0.1-0.2c0.2-0.3,0.4-0.5,0.6-0.8c0,0,0-0.1,0-0.1c0-0.2,0.2-0.3,0.3-0.3c0.1,0,0.3,0,0.4-0.1
			c0.2,0,0.4,0,0.5,0c0.1,0,0.3,0,0.4,0c0.4,0,0.9,0.1,1.3,0.1c0.4,0,0.9,0.1,1.3,0.2c0.3,0,0.6,0.1,0.8,0.1c0.4,0,0.7,0.1,1.1,0.2
			c0.2,0,0.5,0.1,0.7,0.2c0.2,0.1,0.5,0.1,0.7,0.2c0.3,0.1,0.5,0.2,0.8,0.3c0.3,0.1,0.6,0.3,0.9,0.4c0.1,0.1,0.2,0.2,0.4,0.3
			c0.1,0,0.1,0.1,0.1,0.2c0,0.4-0.1,0.9-0.3,1.3c-0.2,0.4-0.3,0.9-0.5,1.3c-0.1,0.3-0.2,0.7-0.4,1c-0.1,0.4-0.3,0.7-0.4,1.1
			c-0.1,0.3-0.3,0.6-0.4,1c-0.1,0.4-0.3,0.7-0.4,1.1c-0.1,0.3-0.3,0.6-0.4,0.9c-0.1,0.3-0.2,0.5-0.3,0.8c-0.1,0.3-0.2,0.5-0.3,0.8
			c-0.1,0.2-0.1,0.3-0.2,0.5c-0.1,0.3-0.3,0.7-0.4,1c-0.1,0.3-0.2,0.5-0.3,0.8c-0.1,0.3-0.2,0.5-0.3,0.8c-0.2,0.4-0.3,0.8-0.5,1.2
			c-0.1,0.2-0.2,0.4-0.3,0.6c-0.1,0.3-0.2,0.5-0.3,0.8c0,0.2-0.1,0.2-0.2,0.1c-0.5-0.1-1-0.2-1.4-0.4c-0.1,0-0.2-0.1-0.4-0.1
			c-0.1,0-0.1,0-0.2-0.1c-0.5-0.2-1-0.3-1.5-0.4C20.5,30,20.1,29.9,19.7,29.8z"/>
		<path class="st1" d="M29.4,22.7c0.1,0,0.1-0.1,0.1-0.1c0-0.1,0.1-0.2,0.2-0.4c0.1-0.4,0.3-0.7,0.5-1c0-0.1,0.1-0.3,0.2-0.4
			c0-0.1,0.1-0.1,0.1-0.2c0.1-0.2,0.2-0.4,0.3-0.6c0.1-0.2,0.2-0.4,0.3-0.6c0.1-0.2,0.2-0.3,0.2-0.5c0.1-0.1,0.1-0.2,0.2-0.3
			c0.1-0.1,0.1-0.3,0.2-0.4c0.1-0.2,0.2-0.5,0.3-0.7c0.1-0.2,0.2-0.3,0.4-0.3c0.4,0,0.8-0.1,1.1-0.1c0.1,0,0.2,0,0.3,0
			C34,17,34.3,17,34.6,17c0.3,0,0.5,0.1,0.8,0.2c0.4,0.2,0.8,0.3,1.1,0.6c0.1,0.1,0.2,0.1,0.3,0.2c0.2,0.2,0.4,0.3,0.6,0.5
			c0.1,0.1,0.2,0.2,0.3,0.3c0.2,0.2,0.3,0.4,0.5,0.6c0.2,0.2,0.3,0.4,0.5,0.6c0.1,0.1,0.1,0.3,0.1,0.5c-0.2,0.8-0.4,1.5-0.5,2.3
			c0,0.2-0.1,0.3-0.1,0.5c0,0.1-0.1,0.2-0.1,0.3c-0.1,0.2-0.3,0.4-0.4,0.7c-0.1,0.2-0.2,0.3-0.4,0.5c-0.1,0.2-0.3,0.4-0.4,0.5
			c-0.1,0.2-0.3,0.5-0.5,0.7c-0.3,0.4-0.6,0.8-0.9,1.2c-0.2,0.3-0.4,0.6-0.7,0.9c-0.2,0.2-0.3,0.4-0.4,0.6c-0.2,0.3-0.4,0.5-0.6,0.8
			c-0.3,0.4-0.5,0.7-0.8,1c-0.3,0.4-0.6,0.8-0.9,1.2c-0.3,0.4-0.7,0.9-1,1.3c-0.1,0.2-0.3,0.4-0.4,0.5c-0.2,0.2-0.4,0.5-0.6,0.7
			c0,0,0,0,0,0.1c-0.1,0.1-0.1,0.1-0.1,0c-0.1-0.2-0.2-0.4-0.3-0.6c-0.1-0.2-0.3-0.3-0.4-0.5c-0.3-0.2-0.6-0.4-0.9-0.6
			c-0.3-0.2-0.7-0.4-1-0.6c-0.3-0.2-0.6-0.3-0.9-0.4c-0.3-0.1-0.6-0.2-0.8-0.4c-0.1-0.1-0.1-0.1-0.1-0.2c0.1-0.2,0.1-0.4,0.3-0.5
			c0,0,0,0,0-0.1c0.1-0.4,0.3-0.8,0.5-1.1c0.1-0.2,0.1-0.4,0.2-0.6c0.1-0.2,0.2-0.4,0.3-0.6c0.1-0.1,0.1-0.3,0.2-0.5
			c0.2-0.3,0.3-0.7,0.5-1c0.1-0.2,0.2-0.4,0.3-0.6c0.1-0.2,0.1-0.3,0.2-0.5c0.2-0.4,0.4-0.8,0.5-1.2c0-0.1,0.1-0.2,0.1-0.3
			c0.1-0.1,0.1-0.1,0.1-0.2c0.1-0.2,0.2-0.4,0.3-0.6c0.1-0.1,0.1-0.3,0.2-0.5C29.3,22.8,29.3,22.8,29.4,22.7z"/>
		<path class="st0" d="M7.7,4.9c0.2,0,0.4,0,0.6,0c0.4,0,0.7,0,1,0c0.4,0.1,0.7,0.1,1,0.4c0.1,0.1,0.2,0.1,0.4,0.1
			c0.4,0,0.8-0.1,1.3-0.2C12.2,5.1,12.4,5,12.7,5c0.2-0.1,0.3,0,0.5-0.1c0.5,0,1-0.1,1.5-0.1c0.5,0,1,0,1.5,0c0.3,0,0.6,0,0.9,0
			c0.3,0,0.5,0,0.8,0c0.3,0,0.5,0,0.8,0c0.1,0,0.2,0,0.3,0c0.2,0,0.4,0,0.5,0c0.5,0.1,1,0.2,1.6,0.3c0.3,0.1,0.6,0.2,0.9,0.3
			c0.2,0.1,0.4,0.2,0.6,0.3c0.1,0,0.1,0.1,0.1,0.1c-0.1,0.2-0.2,0.3-0.3,0.5c-0.1,0.1-0.2,0.2-0.2,0.4l0,0c0,0,0,0,0,0.1l0,0
			C22,6.9,22,7,22,7.1c-0.2,0.4-0.4,0.9-0.7,1.3c-0.1,0.1-0.1,0.2-0.1,0.3l0,0c0,0,0,0,0,0c0,0-0.1,0-0.1,0.1C21,8.9,21,8.9,21,9
			c-0.1,0.1-0.2,0.3-0.2,0.4c-0.1,0.3-0.3,0.5-0.4,0.8c-0.1,0.1-0.1,0.3-0.2,0.4c-0.1,0.2-0.1,0.3-0.2,0.5c-0.1,0.2-0.2,0.5-0.3,0.7
			c-0.1,0.2-0.2,0.4-0.3,0.6c-0.1,0.1-0.1,0.2-0.2,0.2c0-0.1-0.2-0.2-0.3-0.2c-0.1,0-0.2-0.1-0.3-0.1c-0.2-0.3-0.4-0.4-0.7-0.3
			c0,0-0.1,0-0.1,0c-0.1,0-0.1-0.1-0.2,0c-0.6-0.1-1.3-0.3-2-0.4c-0.4-0.1-0.9-0.1-1.3-0.1c-0.9,0-1.8,0.1-2.6,0.3
			c-0.2,0-0.3,0-0.5,0.1c-0.3,0.1-0.6,0.2-0.8,0.3c-0.4,0.2-0.8,0.4-1.2,0.6c0,0-0.1,0.1-0.1,0c0,0,0-0.1,0-0.1
			c0.1-0.5,0.2-1,0.4-1.5c0.2-0.5,0.4-1,0.6-1.6c0.3-0.6,0.5-1.1,0.8-1.7c0.1-0.2,0.3-0.4,0.4-0.6c0.1-0.1,0.1-0.2,0-0.3
			c0-0.1-0.1-0.1-0.2-0.1c-0.1,0-0.1,0.1-0.1,0.1c-0.1,0.4-0.4,0.7-0.6,1.1c0,0,0,0,0,0.1c-0.3,0.5-0.6,1.1-0.8,1.6
			c-0.2,0.5-0.4,0.9-0.6,1.4c-0.1,0.3-0.2,0.7-0.3,1.1c0,0.2-0.1,0.4-0.1,0.6c0,0-0.1,0-0.1,0c-0.8-0.2-1.6-0.4-2.4-0.7
			c-0.1,0-0.1,0-0.2,0c-0.3,0.1-0.6,0.2-0.9,0.3c-0.2,0-0.5,0-0.7,0.1c-0.6,0.1-1.1,0.3-1.6,0.5c-0.3,0.1-0.5,0.2-0.7,0.4
			c-0.1,0-0.2,0.1-0.3,0.1c0-0.1,0-0.2,0-0.3c0-0.1,0-0.1,0-0.2c0-0.1,0-0.2,0-0.3c0.1-0.2,0.1-0.3,0.1-0.5c-0.1,0,0-0.1,0-0.2
			C1.9,12,2,11.9,2,11.8c0.1-0.3,0.3-0.6,0.4-0.9c0.1,0,0.1-0.1,0.1-0.2l0,0c0.1,0,0.1,0,0.1-0.2l0,0l0,0c0.1-0.1,0.2-0.2,0.3-0.4
			c0.1-0.2,0.2-0.4,0.3-0.6c0.1-0.2,0.3-0.4,0.4-0.7c0,0,0-0.1,0-0.1l0,0c0,0,0,0,0,0l0,0c0.1,0,0.1-0.1,0.1-0.2
			C4,8.2,4.2,8,4.5,7.7C4.7,7.4,5,7.2,5.3,6.9c0.1-0.1,0.3-0.3,0.4-0.4c0.4-0.4,0.8-0.7,1.3-1C7.2,5.3,7.4,5.1,7.7,4.9z"/>
		<path class="st2" d="M10.1,30c0.3,0,0.5-0.1,0.8-0.1c0.1,0,0.2-0.1,0.4-0.1c0.3-0.2,0.5-0.2,0.9-0.3c0.2,0,0.5,0,0.7,0
			c0.3,0,0.6,0,0.8,0c0.1,0,0.3,0,0.4,0c0.7,0,1.5,0.2,2.2,0.3c0.4,0.1,0.7,0.1,1.1,0.2c0.4,0.1,0.4,0,0.3,0.5
			c0,0.3-0.1,0.6-0.1,0.9c0,0.3-0.1,0.6-0.1,0.9c0,0.3-0.1,0.7-0.1,1c0,0.3-0.1,0.5-0.1,0.8c0,0.2-0.1,0.5-0.1,0.7
			c0,0.2,0,0.4-0.1,0.6c-0.1,0.4-0.1,0.9-0.1,1.3c0,0.4-0.1,0.8-0.1,1.2c0,0.4-0.1,0.7-0.1,1.1c0,0.2-0.1,0.5-0.1,0.7
			c0,0.2,0,0.5-0.1,0.7c0,0.2,0,0.5-0.1,0.7c0,0.3-0.1,0.6-0.1,0.9c0,0.3-0.1,0.6-0.1,0.9c0,0.1-0.1,0.1-0.2,0.2
			c-0.3,0-0.6,0.1-0.9,0c-0.2,0-0.4,0-0.6-0.1c-0.4-0.1-0.8-0.3-1.2-0.5c-0.5-0.3-1-0.5-1.5-0.5c-0.5-0.1-1,0-1.5,0.2
			c-0.2,0.1-0.2,0.1-0.3-0.1c-0.4-1.2-0.9-2.4-1.3-3.6c0,0,0,0,0,0c0-0.2-0.2-0.5-0.2-0.7c-0.2-0.5-0.3-0.9-0.5-1.4
			c-0.2-0.6-0.5-1.3-0.7-1.9c-0.3-0.7-0.5-1.4-0.7-2.1c-0.1-0.3-0.2-0.6-0.3-0.9c0-0.1,0-0.1,0-0.2c0.2-0.2,0.4-0.5,0.7-0.6
			c0.1,0,0.1-0.1,0.2-0.1c0.3-0.1,0.5-0.2,0.8-0.2c0.6-0.1,1.2-0.1,1.8-0.1c0,0,0,0,0,0c0,0.1,0,0.1,0,0.1l0,0c0,0,0,0.1,0,0.1
			c0,0,0,0,0,0c0,0,0,0.1,0,0.1c0,0,0,0,0,0c0,0,0,0.1,0,0.1l0,0c0,0.1,0,0.2,0.1,0.2l0,0c0,0.2,0.1,0.4,0.2,0.6l0,0
			c0,0.2,0.1,0.3,0.1,0.5c0.1,0.2,0.1,0.5,0.2,0.7l0,0c0,0,0,0.1,0,0.1l0,0c0,0,0,0.1,0,0.1c0,0,0,0,0,0c0,0,0,0.1,0,0.1
			c0,0,0,0,0,0c0.1,0.3,0.2,0.5,0.3,0.8c0,0,0,0.1,0,0.1c0.1,0.3,0.2,0.7,0.3,1.1c0.1,0.4,0.2,0.8,0.3,1.3c0,0.1,0.1,0.2,0.1,0.2
			c0-0.1,0-0.2,0-0.2c-0.1-0.4-0.2-0.8-0.3-1.2c-0.1-0.3-0.2-0.6-0.3-0.9c0-0.1-0.1-0.3-0.1-0.4c0,0,0,0,0-0.1c0,0,0-0.1,0-0.1l0,0
			c0-0.2-0.1-0.4-0.2-0.6c0-0.1,0-0.1,0-0.1l0,0l0,0c0,0,0-0.1,0-0.1l0,0l0,0c-0.1-0.3-0.1-0.5-0.2-0.8l0,0c0-0.1,0-0.1,0-0.1l0,0
			c0,0,0-0.1,0-0.1c0,0,0,0,0,0c0,0,0-0.1,0-0.1c-0.1-0.2-0.1-0.4-0.2-0.6C10.3,30.6,10.2,30.3,10.1,30z"/>
		<path class="st0" d="M31.8,35.6c0-0.1-0.1-0.2-0.2-0.3c-0.1-0.1-0.2-0.2-0.4-0.4c-0.1-0.1-0.1-0.1,0-0.2c0.1-0.1,0.1-0.2,0.2-0.3
			c0.2-0.2,0.3-0.4,0.4-0.5c0.3-0.3,0.6-0.7,0.9-1.1c0.3-0.4,0.6-0.7,0.9-1.1c0,0,0-0.1,0-0.1c0,0,0.1,0,0.1-0.1
			c0.2-0.2,0.4-0.5,0.6-0.7c0.2-0.2,0.3-0.4,0.5-0.6c0,0,0.1-0.1,0.1-0.2c0,0,0,0,0,0c0.1,0,0.1,0,0.1-0.1c0.1-0.2,0.3-0.4,0.4-0.5
			c0.1-0.1,0.2-0.2,0.2-0.4c0.1,0,0.1-0.1,0.1-0.1c0.1-0.1,0.2-0.2,0.3-0.3c0.2-0.3,0.5-0.6,0.7-0.9c0.2-0.3,0.4-0.5,0.6-0.7
			c0.1-0.1,0.2-0.2,0.2-0.3c0.2-0.2,0.3-0.4,0.5-0.6c0,0,0.1,0,0.1-0.1c0.1-0.1,0.1-0.1,0.2-0.2c0,0,0.1,0,0.1-0.1
			c0.2-0.2,0.3-0.5,0.5-0.7c0-0.1,0.1-0.2,0.1-0.3c0.1-0.2,0.2-0.4,0.3-0.6c0.1-0.3,0.3-0.6,0.4-0.9c0.2-0.5,0.3-1.1,0.4-1.6
			c0,0,0.1,0,0.1,0c0.4,0,0.7,0,1.1,0c0.1,0,0.2,0,0.2,0.1l0,0c0,0,0.1,0,0.1,0c0,0,0.1,0,0.1,0c0.3,0.2,0.7,0.3,1,0.5
			c0.2,0.2,0.5,0.3,0.7,0.5c0,0,0,0,0,0.1c0.1,0.1,0.2,0.2,0.4,0.3c0,0.1,0.1,0.1,0.1,0.2c0.1,0.1,0.2,0.2,0.2,0.3
			c0.1,0.2,0.3,0.4,0.3,0.6c0.1,0.3,0.3,0.5,0.3,0.8c0,0.1,0,0.2,0.1,0.2c0,0.1,0,0.1,0,0.2c0,0.3-0.1,0.6-0.2,0.9c0,0,0,0.1,0,0.1
			c0,0,0,0,0,0c-0.1,0-0.1,0.1-0.1,0.2l0,0c-0.2,0.1-0.2,0.2-0.2,0.4c0,0,0,0,0,0c-0.1,0-0.1,0.1-0.1,0.2l0,0l0,0
			c-0.1,0.1-0.2,0.1-0.1,0.3l0,0c0,0,0,0,0,0c0,0-0.1,0-0.1,0.1c0,0.1-0.1,0.3-0.2,0.4c-0.2,0.2-0.3,0.5-0.5,0.7
			c-0.2,0.3-0.3,0.5-0.5,0.8c-0.1,0.2-0.3,0.4-0.4,0.6c-0.2,0.2-0.3,0.5-0.5,0.7c-0.1,0.2-0.3,0.3-0.4,0.5c-0.3,0.4-0.7,0.7-1,1
			c-0.3,0.3-0.6,0.5-1,0.8c-0.3,0.2-0.6,0.5-0.9,0.7c-0.3,0.2-0.6,0.4-0.9,0.7c-0.4,0.3-0.9,0.6-1.3,0.9c-0.3,0.2-0.7,0.5-1,0.7
			c-0.5,0.3-1.1,0.7-1.6,1c-0.2,0.1-0.2,0.1-0.3,0c0,0,0,0,0,0l0,0c0-0.1,0-0.1-0.1-0.1c-0.1-0.1-0.2-0.3-0.3-0.4
			c-0.3-0.3-0.5-0.6-0.9-0.9C31.9,35.7,31.9,35.7,31.8,35.6C31.8,35.6,31.8,35.6,31.8,35.6L31.8,35.6z"/>
		<path class="st1" d="M26.8,13.3c0-0.1-0.1-0.1-0.2-0.1c-0.5-0.1-0.9-0.3-1.4-0.4c-0.3-0.1-0.6-0.2-0.9-0.2c-0.6,0-1.2,0-1.8,0.1
			c-0.3,0.1-0.6,0.1-0.9,0.2c-0.3,0.1-0.6,0.2-0.9,0.3c-0.1,0,0-0.1,0-0.1c0.1-0.4,0.2-0.8,0.3-1.2c0.1-0.6,0.3-1.2,0.5-1.9
			c0-0.1,0.1-0.2,0.2-0.4c0.3-0.6,0.7-1.2,1.1-1.8c0.3-0.5,0.7-1,1.1-1.5C23.8,6.2,23.9,6,24,5.8c0.1-0.1,0.1-0.1,0.2-0.1
			c0.3-0.1,0.6-0.1,0.9-0.2c0.1,0,0.2,0,0.3,0c0.2,0,0.5,0.1,0.7,0.1c0.2,0,0.4,0.1,0.6,0.1c0.3,0.1,0.6,0.2,0.9,0.2
			c0.3,0.1,0.7,0.2,1,0.4c0.8,0.3,1.5,0.6,2.2,1.1c0.3,0.2,0.6,0.3,0.9,0.5c0.1,0,0.1,0.1,0.1,0.2c0,0.4-0.1,0.7-0.1,1.1
			c0,0.2,0,0.4-0.1,0.6c0,0.3-0.1,0.7-0.1,1c0,0.2,0,0.4,0,0.6c0,0.4-0.1,0.9-0.2,1.3c-0.1,0.5-0.1,0.9-0.2,1.4
			c0,0.2-0.1,0.5-0.2,0.7c0,0.1,0,0.1,0,0.2c-0.1,0-0.3-0.1-0.4-0.2c-0.4-0.2-0.7-0.4-1.1-0.6c-0.5-0.3-1-0.4-1.6-0.6
			C27.6,13.5,27.2,13.4,26.8,13.3z"/>
		<path class="st0" d="M17.6,43.7c0-0.1,0-0.1,0-0.1c-0.3-0.3-0.6-0.5-0.8-0.8c-0.1-0.1-0.1-0.1-0.2-0.2c0,0,0-0.1,0-0.1
			c0-0.3,0.1-0.5,0.1-0.8c0.1-0.4,0.2-0.8,0.2-1.2c0-0.2,0.1-0.4,0.1-0.6c0-0.3,0.1-0.6,0.2-0.9c0.1-0.4,0.1-0.8,0.2-1.3
			c0.1-0.4,0.2-0.9,0.2-1.4c0.1-0.4,0.2-0.8,0.2-1.2c0-0.2,0.1-0.4,0.1-0.6c0-0.3,0.1-0.6,0.2-0.8c0-0.4,0.2-0.7,0.2-1.1
			c0-0.1,0-0.2,0.1-0.3c0.1-0.4,0.1-0.8,0.2-1.2c0-0.1,0-0.1-0.1-0.2c-0.2-0.2,0-0.5,0.2-0.5c0.1,0,0.2,0,0.4-0.1
			c0.4,0,0.7,0,1.1,0.1c0.9,0.2,1.8,0.5,2.6,0.7c0.4,0.1,0.8,0.2,1.1,0.4c0.2,0.1,0.2,0.1,0.1,0.3c-0.1,0.1-0.1,0.2-0.2,0.4
			c-0.1,0.3-0.3,0.5-0.4,0.8c-0.2,0.3-0.4,0.7-0.5,1c-0.1,0.2-0.2,0.5-0.4,0.7c-0.1,0.2-0.3,0.4-0.4,0.7c-0.1,0.1-0.1,0.3-0.2,0.4
			c-0.2,0.4-0.4,0.7-0.6,1.1c-0.1,0.1-0.1,0.2-0.2,0.3c-0.2,0.4-0.4,0.7-0.6,1.1c-0.1,0.2-0.3,0.5-0.4,0.7c-0.1,0.2-0.3,0.5-0.4,0.7
			c-0.1,0.2-0.3,0.5-0.4,0.7c-0.1,0.1-0.1,0.3-0.2,0.4c-0.1,0.1-0.1,0.3-0.2,0.4c-0.1,0.2-0.2,0.5-0.4,0.7c-0.1,0.2-0.2,0.3-0.3,0.5
			c-0.1,0.1-0.1,0.3-0.2,0.4C18,43,18,43.2,18,43.3c-0.1,0.1-0.1,0.2-0.2,0.3C17.7,43.7,17.7,43.7,17.6,43.7
			C17.6,43.6,17.6,43.6,17.6,43.7C17.6,43.7,17.6,43.7,17.6,43.7z"/>
		<path class="st3" d="M37.1,10.1c0.1,0,0.1,0.1,0.2,0.1c0.1,0-0.1,0.1,0,0.1c0.1,0,0.1,0,0.1,0c0,0,0.1,0,0.1,0.1
			c0,0,0,0.1,0.1,0.1c0.1,0,0.1,0.1,0.2,0.1c0,0.1,0,0.1-0.1,0.2c0,0-0.1,0-0.1,0c0.2,0.1,0.2,0.1,0.3-0.1c0,0,0-0.1,0.1-0.1
			c0.1,0,0.1,0.1,0.1,0.1c0,0,0.1,0,0.1,0.1c0,0,0,0.1,0,0.1c0.1,0,0.2,0,0.2,0.1c0,0,0,0.1,0,0.1c0.1,0,0.1,0.1,0.3,0.1
			c-0.1,0-0.2,0.1-0.2,0.1c0,0,0.1,0,0.2,0c0,0.1-0.1,0.2,0,0.3c0,0,0,0.1-0.1,0.1c-0.2,0.1-0.2,0.1-0.2,0.3
			c0.1-0.1,0.1-0.2,0.3-0.2l0,0c0,0.1,0,0.2,0,0.3c0,0.1,0,0.3,0.1,0.4c0,0.1,0.1,0.3,0.1,0.4c-0.1,0.1-0.1,0-0.2,0c0,0,0,0,0,0.1
			c0,0,0,0,0,0c0,0,0,0,0,0c0.1,0,0.2,0,0.2,0c0,0.1,0.1,0.2,0.1,0.3c0,0-0.1,0-0.1,0c0-0.1,0-0.1-0.1-0.1c-0.1,0-0.1,0.1-0.2,0.1
			c-0.2,0.1-0.2,0.1-0.2,0.3c0.2-0.3,0.3-0.3,0.4-0.2c-0.1,0.1-0.2,0.2-0.3,0.3c0,0-0.1,0,0,0.1c0,0,0.1,0,0.1,0
			c0.1-0.1,0.2-0.2,0.3-0.3c0,0,0.1,0,0.1,0c0.1,0,0.1,0.1,0,0.1c-0.1,0.1-0.1,0.1-0.1,0.2c0,0,0.1,0,0.2,0c0.1,0,0.1,0.1,0.1,0.1
			c-0.1,0.1,0.1,0.2,0,0.3c0,0,0,0,0,0c0,0.1,0,0.2,0,0.2c0,0,0,0-0.1,0c0,0,0,0,0,0.1c0,0,0,0,0.1,0c0,0,0,0,0-0.1c0,0,0.1,0,0.1,0
			c0,0.1,0,0.2,0,0.2c0,0,0,0,0,0.1c0,0-0.1,0.1,0,0.1c0,0,0,0,0,0.1c0,0-0.1,0.1,0,0.1c0,0.1-0.1,0-0.1,0.1c0,0,0,0,0,0.1
			c0.1,0,0.1,0.1,0.1,0.2c0,0.1,0,0.1,0,0.1c0,0-0.1,0-0.1,0c0,0.2-0.1,0.2-0.2,0.4c0,0,0,0,0,0.1c0,0.1,0,0.1-0.1,0.1
			c-0.1,0-0.1,0-0.2,0c0,0-0.1,0-0.1,0c0,0.1,0.1,0,0.1,0c0,0,0,0,0,0.1c0,0-0.1,0-0.1,0c0.1,0,0.1,0,0.1-0.1c0.1,0,0.1-0.1,0.2,0
			c0.1,0.1,0.3,0.1,0.5,0.1c0,0,0,0.1,0,0.1c0,0-0.1,0.1,0,0.1c0,0,0,0.1,0,0.1c0,0,0,0.1,0,0.1c0,0,0.1,0,0.1,0c0,0,0,0,0,0.1
			c-0.1,0-0.1,0-0.2,0.1c0.1,0.1,0.2,0,0.2,0.1c0,0,0,0-0.1,0.1c0,0,0,0.1,0,0.1c0.1,0,0.1,0,0,0.1c0,0,0,0,0,0.1c0,0,0,0-0.1,0
			c0,0-0.1,0-0.1,0c0,0,0,0.1,0.1,0c0,0,0,0,0,0c0,0.1,0.1,0.1,0.1,0.1c0,0-0.1,0.1,0,0.1c0,0-0.1,0-0.1,0.1c0.1,0,0.1,0.1,0,0.1
			c0,0,0,0,0,0.1c0.1,0.1,0,0.1,0,0.2c0,0.1,0,0.1,0,0.1l0,0c0,0,0,0.1,0,0.1c0,0.1,0,0.2-0.1,0.2c0,0-0.1,0-0.1,0c0,0,0.1,0,0.1,0
			c0,0,0.1,0,0.1,0c-0.1,0.1-0.2,0-0.1,0.2c0.1,0,0.1-0.1,0.2,0c0,0.1-0.1,0.1-0.1,0.1c0,0,0,0,0,0c0,0,0,0,0,0c0.1,0.1,0,0.3,0,0.4
			c0,0.1-0.1,0.1-0.2,0.1c-0.1,0-0.3,0-0.4-0.2c-0.1-0.1,0-0.2-0.1-0.2c0,0,0,0.1-0.1,0.2c0,0,0,0-0.1-0.1c-0.3-0.4-0.6-0.7-1-1
			c-0.3-0.2-0.7-0.4-1-0.6c-0.6-0.3-1.3-0.6-2-0.8c-0.6-0.1-1.1-0.2-1.7-0.2c0,0,0-0.1,0-0.1c-0.1,0-0.1-0.1-0.2-0.1
			c0,0-0.1,0-0.1,0c0,0.1-0.1,0.1-0.1,0.1c0,0-0.1,0-0.1,0c-0.1,0-0.1-0.1,0-0.1c0,0,0,0,0,0c0.1-0.1-0.1-0.1,0-0.2
			c0,0,0.1,0,0.1-0.1c0-0.1-0.1-0.1,0-0.1c0.1-0.1,0.1-0.2,0.1-0.2c0-0.1,0.1-0.1,0.1-0.1c0-0.1,0-0.1,0-0.1c0.1-0.1,0-0.1,0-0.1
			c0.1,0,0.1,0,0.1-0.1c0.1,0,0.1,0,0.1-0.1c0,0,0,0,0,0c0,0-0.1,0-0.1,0c0,0,0,0,0,0c0-0.1-0.1-0.2,0-0.2c0,0,0.1,0,0.1,0
			c0,0,0,0,0-0.1c0,0,0,0,0,0c0,0,0,0-0.1,0c0,0,0-0.1,0-0.1c0-0.2,0.1-0.4,0.1-0.7c0-0.1,0-0.3,0-0.4c0-0.1,0-0.2,0.1-0.3
			c0,0,0,0-0.1,0c0,0,0,0,0,0c0.1-0.1,0-0.3,0.1-0.3c0,0,0-0.1,0-0.1c-0.1,0,0-0.1,0-0.1c0-0.1,0-0.3,0-0.4c0-0.1,0-0.2,0-0.3
			c0-0.1,0-0.1,0.1-0.1c0,0,0.1,0,0.1,0c0,0,0-0.1-0.1-0.1c0,0,0,0-0.1,0c0-0.1,0-0.1,0.1-0.1c0,0,0-0.1,0-0.1
			c-0.1-0.1-0.1-0.1,0-0.1c0,0,0,0,0-0.1c0-0.1,0-0.1,0-0.1c-0.1-0.1-0.1-0.1,0-0.1c0,0,0.1-0.1,0-0.1c-0.1,0-0.1-0.1,0-0.1
			c0,0,0,0,0,0c-0.1,0-0.1-0.1,0-0.1c-0.1-0.1,0-0.2,0-0.3c0-0.2,0-0.4,0.1-0.5c0,0,0,0-0.1,0c0,0,0,0,0,0c0,0,0.1,0,0-0.1
			c0-0.1,0.1,0,0.1-0.1c0,0-0.2,0-0.1-0.1c0-0.1,0-0.1,0.1-0.2c0,0,0.1-0.1,0-0.1c-0.1,0,0-0.1,0-0.2c0,0,0.1,0,0.1-0.1
			c0-0.1-0.1,0-0.1-0.1c0-0.1,0-0.1,0.1-0.1c0,0,0,0.1,0,0.1c0,0,0,0,0,0.1c0,0,0,0,0.1-0.1c0,0,0-0.1,0-0.1c0.1,0,0.2-0.1,0.3,0
			c0.1,0,0.2,0.1,0.4,0c0,0,0.1,0,0.1,0.1c0,0,0,0,0,0.1c0.1-0.1,0.3,0,0.4,0c0.1,0,0,0.1,0.1,0.1c0,0.1,0.1,0.1,0.1,0.1
			c0.1,0.1,0.1,0.1,0.2,0c0.1,0,0.1,0.1,0.2,0.1c0,0.1-0.1,0-0.1,0.1c0,0,0.1,0,0.1,0c0.1,0,0.2,0,0.2,0.1c0,0,0,0.1,0.1,0
			c0.1-0.1,0.1,0.1,0.2,0.1c0.1,0.1,0.2,0.2,0.3,0.2c0.1,0,0.2,0,0.2,0.1c0,0-0.1,0-0.1,0c0,0.1,0.1,0,0.1,0.1
			c-0.1,0.1-0.2,0-0.2,0.1c0.2,0.1,0.3,0,0.3-0.2c0,0,0,0,0.1,0c0,0,0,0.1,0,0.1c0,0,0.1,0,0.1,0c0,0,0,0,0,0c0,0.1-0.1,0.1,0,0.2
			c0.1,0,0.1,0,0.2,0C36.8,10,36.9,10,37.1,10.1C37,10.1,37,10.1,37.1,10.1c-0.1,0.1-0.2,0.1-0.2,0.2c0,0,0,0,0,0
			C36.9,10.3,37,10.2,37.1,10.1C37.1,10.1,37.1,10.1,37.1,10.1z M39.3,17.6C39.3,17.6,39.3,17.6,39.3,17.6
			C39.3,17.6,39.3,17.6,39.3,17.6C39.3,17.6,39.3,17.7,39.3,17.6C39.3,17.7,39.3,17.6,39.3,17.6C39.3,17.6,39.3,17.6,39.3,17.6z
			 M33.3,9.2L33.3,9.2L33.3,9.2L33.3,9.2z"/>
		<path class="st1" d="M19.9,44.6c0-0.1-0.2-0.2-0.3-0.3c-0.2-0.1-0.4-0.3-0.6-0.4c-0.1,0-0.1-0.1,0-0.2c0.1-0.2,0.2-0.3,0.3-0.5
			c0.1-0.2,0.2-0.4,0.3-0.6c0.1-0.1,0.1-0.3,0.3-0.5c0.1-0.1,0.1-0.2,0.2-0.3c0.1-0.2,0.3-0.4,0.4-0.7c0.1-0.3,0.3-0.5,0.4-0.7
			c0.1-0.2,0.2-0.4,0.4-0.7c0.1-0.2,0.3-0.4,0.4-0.7c0.1-0.1,0.1-0.3,0.2-0.4c0.1-0.2,0.3-0.4,0.4-0.7c0.1-0.2,0.2-0.4,0.3-0.6
			c0.1-0.2,0.2-0.4,0.4-0.6c0.2-0.5,0.5-0.9,0.7-1.3c0.1-0.2,0.2-0.5,0.4-0.7c0.2-0.4,0.4-0.8,0.6-1.2c0.1-0.2,0.3-0.5,0.4-0.7
			c0-0.1,0.1-0.1,0.1-0.1c0-0.1,0.1-0.1,0.1-0.2c0-0.2,0.1-0.3,0.2-0.4c0.3,0.1,0.5,0.2,0.8,0.2c0.2,0,0.4,0.1,0.6,0.1
			c0.2,0.1,0.3,0.2,0.5,0.4c0.3,0.2,0.5,0.4,0.7,0.7c0.3,0.3,0.6,0.7,0.9,1c0.1,0.1,0.3,0.3,0.3,0.4c0.1,0.1,0,0.1,0,0.2
			c-0.2,0.2-0.3,0.3-0.4,0.5c-0.3,0.3-0.6,0.6-0.9,0.9c-0.2,0.2-0.4,0.5-0.6,0.7c-0.4,0.5-0.8,0.9-1.2,1.4c-0.1,0.1-0.3,0.3-0.4,0.4
			c-0.3,0.3-0.6,0.6-0.9,0.9c-0.2,0.2-0.4,0.5-0.7,0.7c-0.3,0.3-0.6,0.7-0.9,1c-0.2,0.2-0.4,0.4-0.6,0.7c-0.2,0.3-0.5,0.6-0.8,0.9
			c-0.4,0.4-0.8,0.9-1.2,1.3c-0.1,0.1-0.1,0.1-0.1,0.2c-0.1-0.1-0.3-0.1-0.4-0.2C20,44.6,19.9,44.6,19.9,44.6L19.9,44.6z"/>
		<path class="st4" d="M13.2,4.6c-0.3,0.1-0.5,0.1-0.8,0.2c-0.1,0-0.2,0.1-0.3,0.1c-0.1,0-0.2,0-0.3,0c-0.7-0.2-1.4-0.5-2.1-0.6
			c0,0-0.1,0-0.1,0C9.5,4.2,9.5,4.1,9.5,4c0-0.1,0.1-0.2,0-0.3c0,0,0.1-0.1,0.1-0.1c0.3-0.2,0.7-0.3,1-0.5C11,3,11.4,2.8,11.8,2.6
			c0.1,0,0.2,0,0.3-0.1c0.1,0,0.3-0.1,0.4-0.2c0.5-0.2,1-0.3,1.5-0.5c0.2-0.1,0.4-0.1,0.6-0.2c0,0,0,0,0-0.1
			c0.2-0.1,0.4-0.1,0.7-0.2c0.6-0.1,1.2-0.2,1.8-0.3c0.9-0.2,1.7-0.3,2.6-0.3c0.4,0,0.7-0.1,1.1,0c0.2,0,0.5,0.1,0.7,0.1
			c0.3,0.1,0.6,0.1,1,0.2c0.7,0.1,1.3,0.3,2,0.5c0.1,0,0.2,0,0.3,0.1c0.1,0,0.1,0.1,0.1,0.2c-0.1,0.2-0.1,0.3-0.2,0.4
			c-0.1,0.3-0.3,0.6-0.4,0.9c-0.2,0.3-0.3,0.6-0.5,0.9c-0.1,0.3-0.3,0.6-0.4,0.9C23,5,23,5.1,22.9,5.2c0,0-0.1,0.1-0.1,0
			c-0.7-0.3-1.4-0.4-2.1-0.6c-0.4-0.1-0.8-0.2-1.2-0.3c-0.2,0-0.3-0.1-0.5-0.1c-0.1,0-0.2,0-0.3,0c-0.1,0-0.2-0.1-0.3-0.1
			C18.1,4.1,17.8,4,17.4,4c-0.3,0-0.6-0.1-0.9-0.1c-0.8,0-1.6,0.1-2.4,0.3C13.8,4.3,13.5,4.4,13.2,4.6z"/>
		<path class="st5" d="M20.7,0.8c-0.4,0-0.7,0-1.1,0c-0.9,0-1.8,0.2-2.6,0.3c-0.6,0.1-1.2,0.2-1.8,0.3c-0.2,0-0.4,0.1-0.7,0.2
			c-0.3,0.1-0.7,0.2-1,0.3c-0.6,0.2-1.3,0.5-1.9,0.8C11.4,2.8,11,3,10.7,3.2c-0.3,0.2-0.7,0.3-1,0.5c0,0-0.1,0.1-0.1,0.1
			C9.1,4,8.7,4.2,8.3,4.5C8.1,4.6,7.9,4.8,7.7,4.9C7.4,5.1,7.2,5.3,7,5.4c-0.4,0.3-0.9,0.6-1.3,1C5.5,6.6,5.4,6.7,5.3,6.9
			C5,7.2,4.7,7.4,4.5,7.7C4.2,8,4,8.2,3.8,8.5C3.8,8.6,3.7,8.6,3.7,8.7c0,0,0,0,0,0c0,0,0,0,0,0c0,0,0,0,0,0c0,0-0.1,0.1-0.1,0.1
			c-0.3,0.5-0.6,1-0.9,1.5c0,0,0,0.1,0,0.1l0,0c0,0,0,0,0,0c-0.1,0-0.1,0.1-0.1,0.2c0,0,0,0,0,0c-0.1,0.1-0.1,0.1-0.1,0.2
			c-0.2,0.3-0.3,0.6-0.4,0.9c0,0.1-0.1,0.2-0.1,0.3c0,0-0.1,0.1,0,0.2c-0.1,0-0.1,0-0.1,0.1c-0.1,0.1-0.1,0.3-0.1,0.4
			c-0.2,0.5-0.3,0.9-0.4,1.4c-0.2,0.7-0.3,1.5-0.4,2.2c-0.1,0.6-0.1,1.1-0.1,1.7c0,0,0,0,0,0.1c0,0.5,0.1,1,0.2,1.6
			c0.1,0.6,0.2,1.2,0.4,1.9c0.2,0.8,0.4,1.6,0.7,2.3c0.7,1.7,1.5,3.3,2.4,4.9C4.6,29,4.8,29.3,5,29.6c0,0.1,0.1,0.2,0.1,0.3
			c0.5,0.9,1,1.9,1.5,2.8c0.5,0.9,0.9,1.8,1.3,2.8c0.2,0.6,0.5,1.2,0.7,1.8c0.1,0.3,0.2,0.6,0.3,1c0.1,0.4,0.2,0.8,0.3,1.1
			c0.2,0.8,0.5,1.5,0.8,2.3c0,0.1,0.1,0.2,0.2,0.3c0.1,0.2,0.1,0.5-0.1,0.6c0,0-0.1,0-0.1,0c-0.1-0.1-0.2-0.1-0.2-0.2
			c0-0.2-0.1-0.4-0.1-0.6c-0.2-0.7-0.5-1.4-0.7-2.1c-0.7-2-1.4-4-2.1-6c-0.1-0.4-0.3-0.7-0.5-1.1c-0.9-1.8-1.8-3.5-2.7-5.3
			c-0.7-1.3-1.3-2.7-1.8-4.1c-0.2-0.6-0.5-1.2-0.7-1.8c-0.2-0.4-0.2-0.8-0.3-1.2c-0.3-1.4-0.4-2.9-0.3-4.4c0-0.5,0.1-1,0.2-1.5
			c0.1-0.4,0.2-0.7,0.2-1.1c0-0.2,0.1-0.4,0.2-0.6c0.2-0.7,0.4-1.3,0.7-2C2,9.9,2.4,9.2,2.9,8.5c0.7-1,1.5-1.9,2.4-2.7
			c1-0.9,2.2-1.7,3.4-2.4c1.1-0.6,2.2-1.2,3.4-1.6c0.6-0.2,1.1-0.4,1.7-0.5c0.1,0,0.2-0.1,0.3-0.1C14.4,1.1,14.7,1,14.9,1
			c0.4-0.1,0.8-0.3,1.3-0.4c0.3-0.1,0.7-0.1,1-0.2c0.9-0.1,1.9-0.2,2.8-0.2c1.1,0,2.1,0,3.2,0.1c0.7,0,1.4,0.1,2.1,0.2
			c0.9,0.1,1.8,0.4,2.7,0.7c0.7,0.2,1.4,0.5,2,0.7c0.8,0.3,1.5,0.6,2.3,1c1,0.5,2,1,2.9,1.6c0.5,0.3,1,0.7,1.5,1
			c0.1,0.1,0.2,0.2,0.4,0.3c0.2,0.1,0.3,0.2,0.3,0.4c-0.1,0-0.2-0.1-0.4-0.2c-0.3-0.2-0.5-0.4-0.8-0.6c-0.3-0.2-0.6-0.4-0.9-0.5
			c-1-0.5-2.1-1.1-3.1-1.6c-1.1-0.5-2.2-1-3.3-1.4c-0.5-0.2-1-0.3-1.5-0.4c-0.9-0.3-1.9-0.4-2.8-0.5c-0.7-0.1-1.4-0.1-2.1-0.2
			c0,0,0,0-0.1,0c-0.3,0-0.7,0-1,0c-0.1,0-0.1,0-0.2,0C21.1,0.8,20.9,0.8,20.7,0.8z"/>
		<path class="st6" d="M40.2,14.3c0,0,0-0.1,0-0.1c0-0.1,0-0.1,0.1-0.2c-0.1,0-0.1-0.1-0.1-0.2c0-0.1,0-0.1-0.1-0.1
			c-0.1,0,0-0.1,0-0.1c0,0,0.1,0,0-0.1c0.1-0.1-0.1-0.1-0.1-0.2c0.1-0.1,0.2,0,0.2-0.1c0-0.1-0.1,0-0.1-0.1c0,0,0,0,0,0
			c0.2-0.1,0.4,0,0.6,0c0,0,0.1,0,0.1,0.1c0,0,0,0.1,0.1,0c0.1-0.1,0.2,0.1,0.4,0.1c0,0,0,0,0,0.1c0,0,0,0-0.1,0c0,0-0.1,0,0,0
			c0,0,0,0,0.1,0c0,0,0,0,0-0.1c0.1,0,0.2,0,0.3,0c0.1,0.1,0.1,0.1,0.1,0.2c0,0,0,0.1,0,0.1c0,0,0.1,0,0.1,0c0-0.1,0-0.2,0.1-0.1
			c0.5,0.3,1,0.6,1.5,0.9c0-0.1,0-0.1-0.1-0.2c-0.1-0.1-0.2-0.2-0.3-0.3c0,0,0.1-0.1,0.1,0c0.1,0.1,0.2,0.1,0.3,0.1
			c0.1,0.2,0.2,0.4,0.3,0.6c0.3,0.6,0.5,1.1,0.7,1.7c0.2,0.7,0.4,1.5,0.6,2.2c0,0.2,0.1,0.3,0.1,0.5c0,0.1-0.1,0-0.1,0.1
			c0,0.1,0.1,0,0.1,0.1c0,0,0.1,0.1,0,0.1c0,0,0,0.1,0,0.1c0.1,0,0.1,0,0.1,0.1c0,0,0,0.1,0,0.1c-0.1,0-0.1,0-0.2,0
			c0,0.1,0.1,0.1,0.2,0.1c0.1,0,0.1,0,0.1,0.1c0,0.1,0,0.2,0,0.2c-0.1,0.1-0.2,0.2-0.4,0.1c0.1,0.1,0.2,0.2,0.3,0.1
			c0,0,0.1,0,0.1-0.1c0,0.1,0,0.2,0,0.3c0,0-0.1,0-0.1,0.1c0,0,0,0,0.1,0c0,0,0,0.1,0,0.1c-0.2,0-0.2,0-0.3,0.1
			c0.2,0.1,0.2,0.1,0.2,0c0,0-0.1,0-0.1-0.1c0.1,0,0.2,0,0.3,0c0,0.1,0,0.1,0,0.2c-0.1,0-0.1,0-0.2,0c0,0,0,0,0,0c0,0,0,0,0,0
			c0,0,0,0,0,0c0,0.1,0.1,0,0.1,0c0,0.1,0.1,0,0.1,0.1c0,0-0.1,0-0.1,0c0,0,0,0,0,0.1c0,0,0,0,0,0c0,0,0,0,0,0c0,0,0,0-0.1,0.1
			c-0.1,0-0.1,0-0.1,0.1c0.1,0,0.1-0.1,0.1,0c0,0,0,0,0,0.1c0,0.2,0,0.3,0,0.5c-0.1,0.1,0,0.1,0,0.1c0,0.1,0,0.1,0,0.2
			c0,0-0.1,0,0,0.1c0,0.2,0,0.4,0,0.6c0,0,0,0,0,0.1c0,0,0,0,0,0c0,0,0,0.1-0.1,0.1c0,0,0,0,0,0.1c0,0-0.1,0-0.1,0
			c0-0.1-0.1-0.1-0.1-0.1c0,0,0,0,0-0.1c0.1,0,0.1-0.1,0.1-0.1c0,0-0.1,0-0.1,0c-0.1-0.1,0-0.2-0.2-0.2c0,0-0.1,0-0.1,0
			c-0.1,0-0.2,0-0.2-0.1c0,0,0,0-0.1,0c-0.1,0-0.1,0-0.2-0.1c0,0,0,0,0,0c0,0,0,0,0,0c0,0,0,0,0,0c0-0.1-0.1-0.1-0.2-0.1
			c0,0-0.1,0-0.1-0.1c0.1,0,0.1,0,0.2-0.1c-0.1,0-0.1-0.1-0.2-0.1c0,0-0.1,0-0.1-0.1c0,0,0-0.1,0.1-0.1c0.1,0,0.2,0,0.3,0
			c0,0,0,0,0-0.1c0,0,0.1-0.1,0-0.1c0,0-0.1,0-0.1,0c0,0-0.1,0-0.1,0c-0.1,0-0.3,0-0.5,0c-0.1,0-0.1,0-0.1,0.1c0,0-0.1,0-0.1,0
			c0-0.1-0.1-0.1-0.2-0.1c0,0,0,0,0,0c0-0.1,0.1-0.1,0-0.2c-0.1,0.1-0.2,0-0.3,0.1c0,0,0,0,0,0c0,0,0,0,0,0c0,0,0,0,0,0
			c-0.1,0-0.2,0-0.2-0.1c0,0,0.1-0.1,0.1-0.1c-0.1,0-0.1,0.1-0.1,0.1c0,0-0.1,0-0.1,0c-0.1,0-0.1,0-0.1-0.1c0,0,0,0,0.1,0
			c0,0,0,0,0,0c0,0,0,0,0,0c0,0,0,0-0.1,0c-0.1,0-0.1,0-0.2,0c0,0,0-0.1,0-0.1c0-0.1-0.1-0.1-0.1,0c-0.1,0-0.2-0.1-0.3-0.1
			c0,0,0-0.1,0-0.1c-0.1,0-0.2,0-0.3-0.1c-0.1,0-0.1,0-0.2-0.1c0,0,0.1-0.1,0-0.1c0,0-0.1,0-0.1,0.1c-0.1,0-0.1,0-0.1-0.1
			c-0.1,0-0.1-0.1-0.2,0c0-0.1-0.1,0-0.1-0.1c0-0.1,0.1-0.1,0-0.2c0,0,0,0,0-0.1c0.1-0.1,0.1-0.1,0-0.2c0,0,0-0.1,0-0.1
			c0.1,0,0.2-0.1,0.3-0.2c-0.2,0-0.2,0.1-0.4,0.1c0,0,0,0,0-0.1c0,0,0.1,0,0-0.1c0-0.1,0-0.1,0.1-0.2c0,0,0.1,0,0.1-0.1
			c0,0-0.1,0-0.1,0c0-0.1,0-0.1,0-0.2c0-0.1,0.1-0.2,0-0.3c0,0,0,0,0-0.1c0,0,0,0,0,0c0.2,0,0.2,0,0.2-0.2c0,0.1-0.1,0.1-0.2,0.2
			c-0.1,0,0-0.1,0-0.1c0,0,0,0,0,0c0,0,0.1,0,0.1,0c0,0,0,0,0,0c0,0-0.1,0-0.1,0c0,0,0,0,0,0c0-0.1,0-0.2,0-0.3c0,0,0.1,0,0.1,0
			c0-0.1,0-0.1-0.1-0.1c0,0,0,0,0,0c0-0.1,0-0.1,0-0.2c0,0,0.1,0,0.1-0.1c0,0,0-0.1,0-0.1c0-0.1,0,0,0,0c0,0-0.1,0-0.1,0
			c0-0.1,0-0.1,0-0.2c0,0,0.1,0,0.1,0c0,0,0,0-0.1,0c0,0,0-0.1,0-0.1c0,0,0,0,0,0c0,0,0-0.1,0-0.1c-0.1-0.1-0.1-0.2-0.1-0.3
			c0-0.1,0-0.2,0-0.3c0,0,0.1,0,0.1-0.1c0,0,0,0-0.1,0c0,0,0-0.1,0-0.1c0.1,0,0.1,0.1,0.2,0.2c0.1-0.1,0.1-0.1,0.2-0.2
			c0,0,0-0.1,0-0.1c0,0,0,0,0,0c0,0,0-0.1,0-0.1c-0.1,0.1-0.1,0.1-0.3,0.1c0,0,0.1-0.1,0-0.1c0,0,0-0.1,0-0.1c0.1,0,0.1-0.1,0.1-0.2
			c0,0,0,0,0-0.1c0,0-0.1,0.1-0.1,0c0-0.1-0.1-0.2,0-0.4c0,0,0.1-0.1,0.1-0.1c0,0,0.1,0,0.1-0.1c0,0,0,0,0,0c0,0,0,0,0,0.1
			c0,0-0.1,0-0.1,0c0,0,0-0.1,0-0.1c0,0,0-0.1,0-0.1c0-0.1,0.1-0.2-0.1-0.2c0,0-0.1-0.1,0-0.2c0,0,0-0.1,0-0.1c0,0,0-0.1,0-0.1
			c0.1,0,0.2,0,0.2,0c0,0,0.1,0,0-0.1c0,0,0,0-0.1,0L40.2,14.3z M44.7,22.2C44.7,22.2,44.7,22.2,44.7,22.2
			C44.7,22.2,44.7,22.2,44.7,22.2C44.7,22.2,44.7,22.2,44.7,22.2C44.7,22.2,44.7,22.2,44.7,22.2z M40.2,20.6c0,0.2,0.3,0,0.3,0.2
			c0,0,0,0,0,0c0-0.1,0.1-0.1,0.1-0.2C40.5,20.6,40.4,20.6,40.2,20.6z M40.6,17C40.6,17,40.6,17,40.6,17C40.6,17,40.6,17,40.6,17
			C40.5,17,40.5,17,40.6,17C40.5,17,40.5,17,40.6,17z M40.3,13.5L40.3,13.5L40.3,13.5L40.3,13.5z"/>
		<path class="st4" d="M23.6,44.4c-0.1,0-0.1,0-0.1,0c-0.2,0.1-0.4,0.3-0.6,0.4c-0.3,0.2-0.6,0.4-0.8,0.5c-0.1,0-0.1,0.1-0.2,0
			c-0.1-0.2-0.3-0.4-0.5-0.7c-0.1-0.1-0.1-0.1,0-0.2c0.1-0.1,0.3-0.2,0.4-0.4c0.4-0.3,0.8-0.7,1.2-1.1c0.2-0.2,0.5-0.4,0.7-0.7
			c0.3-0.3,0.5-0.5,0.8-0.8c0.3-0.2,0.5-0.5,0.8-0.7c0.3-0.3,0.7-0.6,1-0.9c0.3-0.3,0.6-0.5,0.8-0.8c0.2-0.2,0.4-0.4,0.6-0.5
			c0.2-0.1,0.3-0.3,0.5-0.5c0.5-0.5,1-0.9,1.5-1.4c0.1-0.1,0.2-0.2,0.3-0.3c0.1-0.1,0.1-0.1,0.1-0.2c0-0.1,0.1-0.2,0.1-0.4
			c0.1-0.1,0.2-0.2,0.3-0.2c0,0,0.1,0,0.1,0c0,0.1,0,0.2,0.1,0.1c0.1,0,0.3,0.1,0.4,0.1c0,0.1,0.2,0.1,0.3,0.2
			c0.5,0.5,1.1,1,1.5,1.5c0.1,0.1,0.1,0.2,0,0.3c-0.1,0.1-0.1,0.1-0.2,0.2c0,0-0.1,0.1-0.1,0.1l0,0c-0.1,0-0.1,0-0.1,0.1l0,0
			c0,0-0.1,0-0.1,0.1c0,0.1-0.1,0.1-0.1,0.1c-1.6,1-3.2,2-4.8,3c-0.7,0.4-1.3,0.9-2,1.3c-0.6,0.4-1.2,0.9-1.8,1.4
			c-0.1,0.1-0.1,0.2-0.2,0.2C23.7,44.3,23.7,44.3,23.6,44.4C23.6,44.3,23.7,44.3,23.6,44.4C23.6,44.3,23.5,44.3,23.6,44.4L23.6,44.4
			z"/>
		<path class="st5" d="M23.7,44.3c0.1,0,0.2-0.1,0.2-0.2c0.6-0.5,1.2-0.9,1.8-1.4c0.7-0.5,1.3-0.9,2-1.3c1.6-1,3.2-2,4.8-3
			c0,0,0.1-0.1,0.1-0.1c0,0,0.1,0,0.1-0.1c0,0,0,0,0,0c0,0,0.1,0,0.1-0.1c0,0,0,0,0,0c0.1,0,0.1-0.1,0.1-0.1
			c0.4-0.3,0.8-0.5,1.3-0.8c0.3-0.2,0.5-0.3,0.8-0.5c0.4-0.2,0.7-0.5,1.1-0.7c0.1-0.1,0.2-0.1,0.3-0.2c0.2-0.2,0.4-0.3,0.6-0.4
			c0.5-0.3,0.9-0.6,1.3-1c0-0.1,0.1-0.1,0.2-0.1c0.8-0.6,1.6-1.3,2.2-2c0.6-0.7,1.3-1.4,1.7-2.2c0.5-0.8,1-1.6,1.4-2.4
			c0,0,0.1-0.1,0-0.1l0,0c0,0,0,0,0,0c0.1-0.1,0.1-0.2,0.1-0.3l0,0c0,0,0,0,0,0c0.1-0.1,0.1-0.2,0.1-0.2c0,0,0,0,0,0
			c0.1-0.1,0.2-0.2,0.2-0.4c0,0,0,0,0,0c0.1-0.1,0.1-0.1,0.1-0.2c0,0,0,0,0,0c0,0,0-0.1,0-0.1c0.1-0.3,0.1-0.6,0.2-0.9
			c0-0.1,0-0.1,0.1-0.2c0.1-0.4,0.2-0.7,0.2-1.1c0,0,0-0.1,0-0.1c0,0,0,0,0-0.1c0.1-0.4,0.1-0.9,0.1-1.3c0-0.7,0-1.5,0-2.2
			c0-0.4-0.1-0.7-0.1-1.1c0-0.2,0-0.3-0.1-0.4c0-0.2,0-0.3-0.1-0.5c-0.2-0.7-0.4-1.5-0.6-2.2c-0.2-0.6-0.4-1.1-0.7-1.7
			c-0.1-0.2-0.2-0.4-0.3-0.6c0-0.2-0.1-0.4-0.2-0.6c0,0,0,0,0-0.1c-0.2-0.2-0.3-0.5-0.5-0.8c-0.1-0.2-0.2-0.4-0.3-0.5l0,0
			c0,0,0-0.1,0-0.1l0,0c0,0,0-0.1,0-0.1c0-0.2-0.2-0.3-0.3-0.4c-0.4-0.6-0.8-1.1-1.2-1.7c-0.1-0.1-0.2-0.3-0.3-0.4
			c0,0,0-0.1-0.1-0.1l0,0c-0.1-0.2-0.2-0.3-0.4-0.4l0,0l0,0l0,0c-0.1-0.2-0.3-0.4-0.4-0.6c0-0.1-0.1-0.1-0.2-0.2c0,0,0,0,0-0.1
			c0,0,0,0,0.1,0c0.2,0.2,0.3,0.3,0.5,0.5c0.6,0.6,1.1,1.2,1.6,1.8c0.2,0.3,0.5,0.6,0.7,1c0.6,0.9,1.2,1.9,1.7,2.9
			c0.4,0.9,0.9,1.8,1.3,2.7c0.1,0.2,0.1,0.4,0.2,0.6c0.3,0.9,0.4,1.8,0.6,2.8c0.1,0.8,0.1,1.6,0.1,2.4c0,0.1,0,0.3,0,0.4
			c0,0.1,0,0.2-0.1,0.3c0,0,0,0.1,0,0.2c0,0.4,0,0.8-0.1,1.3c-0.1,0.8-0.4,1.6-0.7,2.3c-0.3,0.7-0.6,1.4-0.9,2.1
			c-0.1,0.2-0.2,0.4-0.4,0.6c-0.7,1.1-1.6,2.1-2.5,3.1c-0.4,0.4-0.8,0.7-1.3,1.1c-0.7,0.6-1.4,1.1-2.1,1.6c-0.5,0.4-1,0.7-1.6,1
			c-1.4,0.8-2.8,1.7-4.2,2.5c-1.6,1-3.1,1.9-4.7,2.9c-0.9,0.5-1.7,1.1-2.4,1.7c-0.5,0.5-1.1,0.9-1.7,1.3c-0.1,0-0.1,0.1-0.2,0.1
			c0,0,0,0,0-0.1c0.1-0.2,0.3-0.4,0.5-0.6c0-0.1,0.1-0.1,0.1-0.2c0,0,0,0,0,0C23.6,44.4,23.6,44.3,23.7,44.3
			C23.7,44.3,23.6,44.3,23.7,44.3C23.7,44.3,23.7,44.3,23.7,44.3z"/>
		<path class="st7" d="M26.8,13.3c0.4,0.1,0.9,0.2,1.3,0.3c0.5,0.1,1.1,0.3,1.6,0.6c0.4,0.2,0.7,0.4,1.1,0.6
			c0.1,0.1,0.2,0.2,0.4,0.2c0.1,0.1,0.2,0.1,0.4,0.2c0.1-0.5,0.3-1,0.3-1.4c0.3-1.6,0.5-3.1,0.5-4.7c0-0.5,0-0.9,0-1.4
			c0-0.2,0-0.3-0.1-0.5c0,0,0-0.1,0-0.1c0-0.2,0-0.4-0.1-0.6c0-0.2,0-0.4,0-0.6c0.1,0.1,0.1,0.1,0.1,0.2c0.1,0.2,0.1,0.4,0.2,0.6
			c0,0.1,0.1,0.2,0.1,0.2c0,0.1,0.1,0.2,0.1,0.3c0,0.2,0.1,0.4,0.1,0.6c0.1,0.4,0.1,0.7,0.1,1.1c0,0.9,0,1.9-0.2,2.8
			c-0.1,0.9-0.3,1.8-0.6,2.7c-0.1,0.5-0.3,0.9-0.4,1.4c-0.1,0.4-0.2,0.9-0.4,1.3c-0.3,0.9-0.7,1.8-1,2.7c-0.1,0.3-0.2,0.6-0.3,0.9
			c-0.1,0.2-0.2,0.4-0.3,0.6c-0.2,0.4-0.4,0.9-0.5,1.4c0,0.1-0.1,0.2-0.1,0.3c-0.1,0.1-0.1,0.3-0.2,0.4c-0.2,0.3-0.3,0.6-0.4,0.9
			c-0.2,0.3-0.3,0.7-0.5,1c-0.8,1.8-1.7,3.5-2.6,5.2c-0.5,0.9-1,1.7-1.5,2.6c-0.9,1.6-1.8,3.3-2.7,5c-0.4,0.9-0.9,1.8-1.3,2.8
			c-0.1,0.3-0.3,0.6-0.4,0.9c-0.1,0.2-0.2,0.5-0.5,0.7c0,0,0,0-0.1,0c0-0.2,0.1-0.3,0.1-0.5c0.6-1.4,1.2-2.8,1.9-4.2
			c0.8-1.7,1.7-3.3,2.6-4.9c0.4-0.8,0.9-1.6,1.3-2.4c0.2-0.3,0.3-0.6,0.5-1c0.2-0.4,0.4-0.8,0.6-1.2c0-0.1,0.1-0.2,0.1-0.2
			c0.2-0.5,0.4-1,0.7-1.5c0.4-0.6,0.6-1.2,0.8-1.8c0.4-0.8,0.7-1.6,1.1-2.5c0.4-1,0.9-2.1,1.3-3.2c0.3-0.9,0.7-1.8,1.1-2.8
			c0.1-0.3,0.2-0.7,0.3-1c0-0.1,0-0.1-0.1-0.2c-0.2-0.1-0.4-0.2-0.6-0.4c-0.1,0-0.2-0.1-0.2-0.1c-0.1,0-0.1-0.1-0.2,0c0,0,0,0-0.1,0
			c-0.2-0.1-0.4-0.2-0.6-0.3c0,0,0,0,0,0c-0.1-0.2-0.2-0.2-0.4-0.2c-0.2-0.1-0.4-0.1-0.6-0.2c-0.5-0.2-0.9-0.3-1.4-0.4
			c-0.6-0.1-1.1-0.2-1.7-0.3c-1-0.1-1.9-0.2-2.9-0.1c-0.3,0-0.6,0.1-0.8,0.2c-0.2,0.1-0.4,0.1-0.6,0.2c0,0,0,0,0,0
			c-0.1,0-0.1,0-0.1-0.1c0-0.1,0-0.1,0.1-0.1c0.3-0.2,0.6-0.3,0.9-0.4c0.4-0.1,0.8-0.1,1.2-0.1c0.9,0,1.9,0.1,2.8,0.3
			C26.2,13.2,26.5,13.2,26.8,13.3z"/>
		<path class="st8" d="M17.4,53.8c0,0.1,0.1,0.1,0.2,0.1c0.1,0,0.1,0.1,0.1,0.2c-0.2,0.4-0.3,0.8-0.5,1.2c-0.2,0.5-0.4,0.9-0.5,1.4
			c-0.1,0.2-0.2,0.3-0.2,0.5c-0.1,0.2-0.2,0.4-0.3,0.7c-0.2,0.3-0.3,0.5-0.5,0.8c-0.1,0.1-0.1,0.1-0.2,0.2c-0.1,0-0.1,0-0.1,0
			c-0.4-0.3-0.9-0.5-1.4-0.7c-0.2-0.1-0.4-0.2-0.6-0.2c-0.4-0.2-0.9-0.3-1.3-0.5c-0.2-0.1-0.2-0.1-0.1-0.2c0.1-0.6,0.3-1.2,0.4-1.8
			c0.2-0.9,0.4-1.8,0.6-2.7c0.1-0.2,0.1-0.3,0.3-0.2c0.2,0,0.4,0.1,0.6,0.1c0.1,0,0.1,0,0.2,0c0.3,0.1,0.6,0.2,1,0.1
			c0.4,0.1,0.8,0.4,1.1,0.5c0.1,0,0.1,0.1,0.2,0.1c0,0,0,0,0.1,0c0.2,0.2,0.4,0.4,0.7,0.4C17.2,53.7,17.3,53.7,17.4,53.8z M15.5,53
			c-0.1,0.1-0.1,0.2-0.2,0.3c-0.2,0.6-0.4,1.1-0.6,1.7c-0.2,0.7-0.5,1.4-0.7,2.1c-0.1,0.2-0.2,0.4-0.2,0.7c0.2,0,0.2,0,0.3-0.2
			c0.2-0.7,0.4-1.3,0.6-2c0.3-0.8,0.5-1.7,0.7-2.5C15.5,53.1,15.5,53,15.5,53L15.5,53L15.5,53z"/>
		<path class="st4" d="M32.2,7C32.3,7,32.3,7.1,32.2,7c0,0.1-0.1,0.1-0.1,0.1c-0.2-0.1-0.4-0.3-0.7-0.4c-0.3-0.2-0.6-0.3-0.9-0.5
			C30.4,6.2,30.2,6.1,30,6c-0.1,0-0.1,0-0.2,0c0,0,0,0,0,0c0,0,0,0-0.1,0c-0.1,0-0.1,0-0.1,0c-0.3-0.1-0.6-0.3-0.9-0.4
			c-0.4-0.2-0.9-0.3-1.3-0.4c-0.5-0.1-1-0.2-1.6-0.2c-0.3,0-0.6,0.1-0.9,0.1c-0.2-0.1-0.4,0-0.6-0.1c-0.1,0-0.1,0-0.1-0.2
			c0-0.1,0.1-0.2,0.2-0.3c0.2-0.3,0.4-0.6,0.6-0.9c0.3-0.5,0.6-1,0.9-1.5c0.1-0.1,0.2-0.3,0.2-0.4c0,0,0.1-0.1,0.1-0.1
			c0.6,0,1.3,0,1.9,0.2c0.7,0.2,1.3,0.5,1.9,0.8C30.3,2.8,30.6,3,31,3.2c0.1,0.1,0.2,0.2,0.3,0.4c0.2,0.9,0.5,1.8,0.7,2.8
			c0,0.2,0.1,0.4,0.1,0.5C32.2,6.9,32.2,7,32.2,7z"/>
		<path class="st9" d="M18.2,44.4c0,0.1,0,0.1,0.1,0.1c0.2,0.1,0.4,0.2,0.6,0.4c0.4,0.2,0.8,0.4,1.3,0.5c0.2,0.1,0.4,0.1,0.5,0.2
			c0.1,0,0.1,0.1,0.2,0c0,0,0,0,0,0c0,0,0,0,0.1,0c0.1,0,0.1,0.1,0.1,0.1c0.1,0.2,0.1,0.5,0.1,0.7c0,0.1,0,0.2-0.1,0.2
			c-0.1,0-0.2,0-0.3,0.1c-0.4,0-0.8,0-1.2,0c-0.2,0-0.4,0-0.6,0c-0.1,0-0.1,0-0.2,0c-0.2,0-0.3-0.1-0.5-0.1c-0.1,0-0.2,0-0.2,0
			c-0.1,0-0.1,0-0.1-0.1c0.1-0.2,0.1-0.4,0.2-0.6c0.1-0.2,0.2-0.5,0.3-0.7c0,0,0-0.1,0-0.1c0,0-0.1,0-0.1,0c-0.1,0-0.1,0.1-0.1,0.1
			c-0.1,0.1-0.1,0.2-0.2,0.4c-0.1,0.2-0.2,0.5-0.3,0.8c-0.1,0.2-0.1,0.2-0.3,0.2c-0.3-0.1-0.5-0.1-0.8-0.1c-0.2,0-0.5-0.1-0.7-0.2
			c-0.1,0-0.1-0.1-0.2-0.1c-0.1-0.1-0.2-0.2-0.4-0.2c-0.4-0.2-0.9-0.3-1.3-0.4c-0.1,0-0.1,0-0.1-0.1c0-0.1,0-0.2,0-0.3
			c0.1-0.6,0.1-1.2,0.1-1.8c0,0,0-0.1,0-0.1c-0.1,0-0.1,0-0.1,0.1c-0.1,0.2-0.1,0.5-0.2,0.7c0,0.4-0.1,0.9-0.1,1.4
			c0,0,0,0.1-0.1,0.1c-0.1-0.1-0.3-0.1-0.4-0.1c-0.2,0-0.4-0.1-0.5-0.2c-0.3-0.3-0.7-0.6-1.1-0.9c-0.2-0.2-0.4-0.3-0.5-0.5
			c-0.1-0.1-0.1-0.2-0.1-0.3c-0.1-0.3-0.1-0.6-0.1-0.9c0-0.2,0.2-0.3,0.3-0.3c0.1,0,0.2,0,0.2,0.1c-0.2,0.1-0.3,0-0.5,0.2
			c0.1,0,0.2,0,0.3,0c0.1,0,0.3,0,0.4,0c0.4,0,0.8,0.1,1.1,0.2c0.3,0.1,0.6,0.2,0.8,0.2c0.1,0,0.1,0,0.1,0c0.2,0.1,0.5,0.1,0.7,0.1
			c0.1,0,0.3,0,0.4,0c0.1,0,0.1,0,0.2,0c0,0,0,0.1,0,0.1c0.1,0,0.2,0,0.3,0c0.2,0,0.4,0,0.6,0c0,0,0.1,0,0.1,0
			c0.5,0.2,0.9,0.3,1.3,0.6c0.1,0,0.2,0.1,0.3,0.1c0.1,0,0.1,0.1,0.2,0.1C17.8,44.2,18,44.3,18.2,44.4z"/>
		<path class="st0" d="M34.4,8c-0.1-0.1-0.1-0.1-0.2-0.1c-0.2-0.1-0.4-0.1-0.7-0.2c-0.1,0-0.1-0.1-0.1-0.1c-0.1-0.2-0.2-0.3-0.3-0.5
			c-0.3-0.5-0.5-0.9-0.8-1.4c-0.2-0.5-0.4-0.9-0.5-1.4c0-0.2,0-0.3,0.1-0.5c0-0.1,0.1-0.1,0.2-0.1c0.2,0,0.4,0,0.6,0.1
			c0.3,0.1,0.6,0.2,0.9,0.4c0.4,0.2,0.8,0.4,1.2,0.7c0.2,0.2,0.5,0.4,0.8,0.6c0.6,0.5,1.1,1,1.6,1.6c0.4,0.5,0.7,0.9,1,1.4
			c0.4,0.7,0.8,1.3,1.2,2c0.1,0.2,0.2,0.3,0.3,0.5c0,0,0,0.1,0,0.1c-0.1,0-0.2-0.1-0.3-0.2c0,0-0.1-0.1-0.1-0.1
			c-0.1-0.1-0.2-0.3-0.3-0.4c-0.4-0.6-0.9-1-1.5-1.4c-0.6-0.4-1.3-0.7-2-0.9C34.9,8.1,34.6,8,34.4,8z"/>
		<path class="st5" d="M21.3,8.4C21.5,8,21.7,7.6,22,7.1C22,7,22.1,6.9,22.1,6.8c0,0,0,0,0,0c0,0,0,0,0-0.1c0,0,0,0,0,0
			c0.1-0.1,0.2-0.2,0.2-0.4c0.1-0.2,0.2-0.3,0.3-0.5c0.2-0.2,0.3-0.5,0.4-0.7c0.3-0.5,0.7-1.1,1.1-1.6c0-0.1,0.1-0.1,0.2-0.1
			c0.1,0.1,0.2,0.2,0.2,0.3c0,0.1-0.1,0.3-0.2,0.4c-0.8,1.2-1.5,2.5-2.2,3.8c-0.5,0.9-0.9,1.8-1.2,2.8c-0.2,0.8-0.4,1.6-0.7,2.4
			c-0.2,0.6-0.3,1.1-0.5,1.7c-0.1,0.4-0.1,0.8-0.2,1.2c-0.2,1.2-0.3,2.4-0.5,3.6c-0.1,0.9-0.2,1.7-0.3,2.6c-0.1,0.6-0.1,1.2-0.2,1.7
			c-0.1,0.8-0.2,1.6-0.3,2.5c-0.1,0.9-0.2,1.9-0.3,2.8c0,0.3,0,0.7-0.1,1c0,0,0,0.1,0,0.1c0,0.1,0,0.2,0,0.3c0,0,0,0.1,0,0.1
			c0,0.2,0,0.4-0.1,0.6c0,0,0,0,0,0.1c0,0.1,0,0.2,0,0.3c0,0,0,0,0,0.1c0,0.1,0,0.2,0,0.3c0,0,0,0,0,0.1c0,0.1,0,0.2,0,0.3
			c0,0,0,0.1,0,0.1c0,0.1,0,0.1,0,0.2c0,0,0,0,0,0.1c0,0.1,0,0.2,0,0.3c0,0,0,0,0,0.1c0,0.1,0,0.1,0,0.2c0,0-0.1,0-0.1,0
			c0-0.2,0-0.3,0-0.5c0,0,0,0,0-0.1c0-0.2,0-0.4,0-0.6c0,0,0-0.1,0-0.1c0-0.2,0-0.3,0-0.5c0,0,0-0.1,0-0.1c0-0.5,0.1-0.9,0.1-1.4
			c0.1-0.8,0.1-1.6,0.2-2.5c0,0,0,0,0-0.1c0-0.1,0-0.2,0-0.3c0-0.4,0.1-0.8,0.1-1.3c0.1-0.4,0.1-0.9,0.1-1.4c0.1-1,0.1-2.1,0.2-3.1
			c0.1-1,0.2-2,0.3-3c0.1-0.9,0.2-1.7,0.3-2.6c0.1-0.5,0.1-0.9,0.2-1.4c0,0,0,0,0-0.1c0,0,0,0,0-0.1c0.1-0.4,0.2-0.8,0.3-1.2
			c0.2-0.9,0.4-1.7,0.7-2.6c0.1-0.3,0.2-0.7,0.3-1C20.7,9.8,20.9,9.4,21,9c0.1-0.1,0.1-0.2,0.2-0.3l0,0c0,0,0,0,0,0
			C21.2,8.6,21.3,8.5,21.3,8.4z"/>
		<path class="st7" d="M39.8,14.5c0.1,0.3,0.2,0.6,0.3,0.9c0,0.1,0.1,0.3,0.1,0.4c0,0.1,0,0.3,0,0.4c0,0.1,0,0.1,0,0.2
			c0,0.1,0,0.3,0,0.4c0,0.7,0,1.4-0.1,2c-0.1,0.8-0.2,1.5-0.4,2.2c-0.1,0.4-0.2,0.7-0.3,1.1c0,0.1-0.1,0.2-0.1,0.3
			c-0.2,0.4-0.4,0.9-0.6,1.3c-0.2,0.4-0.3,0.7-0.5,1.1c-0.7,1.1-1.5,2.1-2.2,3.2c-0.2,0.3-0.5,0.6-0.6,1c-0.2,0.3-0.4,0.6-0.6,0.8
			c0,0-0.1,0.1-0.1,0.2c0,0,0,0,0,0c-0.1,0-0.1,0-0.1,0c-0.1,0.2-0.3,0.4-0.4,0.5c-0.3,0.3-0.5,0.6-0.8,0.9
			c-0.2,0.2-0.4,0.5-0.7,0.7c-0.6,0.6-1.1,1.3-1.7,1.9c-0.7,0.7-1.4,1.3-2,2c-1.3,1.3-2.6,2.6-3.9,3.9c-0.3,0.3-0.7,0.7-1,1
			c-0.1,0.1-0.1,0.1-0.2,0.2c0,0-0.1,0-0.1,0c0,0-0.1,0-0.1,0c0,0,0-0.1,0-0.1c0.2-0.3,0.5-0.5,0.7-0.8c1-1,2-2,2.9-3
			c0.6-0.6,1.2-1.3,1.9-1.9c0.5-0.4,0.9-0.9,1.3-1.4c0.7-0.8,1.4-1.6,2.1-2.5c0.6-0.8,1.2-1.6,1.8-2.4c0.6-0.8,1.2-1.7,1.7-2.6
			c0.4-0.6,0.8-1.2,1.2-1.8c0.1-0.2,0.2-0.4,0.3-0.6c0.3-0.8,0.7-1.5,1-2.3c0.1-0.2,0.2-0.4,0.2-0.7c0.1-0.5,0.2-1.1,0.3-1.6
			c0-0.1,0-0.3,0.1-0.4c0,0,0,0,0-0.1c0-0.1,0-0.1,0-0.2c0,0,0,0,0-0.1c0-0.1,0-0.2,0-0.2c0,0,0,0,0-0.1c0-0.1,0-0.2,0-0.2
			c0,0,0,0,0-0.1c0-0.1,0-0.2,0-0.3c0,0,0-0.1,0-0.1c0-0.1,0-0.2,0-0.4c0,0,0,0,0-0.1c0-0.2,0-0.3,0-0.5c0,0,0-0.1,0-0.1
			c0-0.5,0-0.9,0-1.4c0,0,0-0.1,0-0.1C39.8,15.1,39.8,14.8,39.8,14.5C39.8,14.5,39.8,14.5,39.8,14.5z"/>
		<path class="st10" d="M11.9,53.8C11.9,53.9,11.9,53.9,11.9,53.8c0,0.1,0,0.1,0,0.1c0,0.1,0,0.3-0.1,0.4c-0.1,0.2-0.1,0.3-0.1,0.5
			c0,0.2-0.1,0.4-0.1,0.6c0,0.3,0,0.6-0.1,0.8c0,0.1,0,0.2,0,0.2c0,0,0,0.1,0,0.1c0,0,0,0,0,0c0,0.2-0.1,0.3,0,0.5
			c-0.1,0.1-0.1,0.3-0.1,0.5c0,0-0.1,0-0.1,0c0-0.1-0.1-0.1-0.1-0.1c-0.4-0.1-0.9-0.2-1.3-0.3c-0.2,0-0.2,0-0.2-0.2
			c0-0.3,0-0.5,0-0.8c0,0,0-0.1,0-0.1c0-0.1,0-0.1,0-0.2c0,0,0-0.1,0-0.1c0-0.1,0-0.1,0-0.2c0,0,0,0,0,0l0,0c0-0.1,0-0.3,0-0.4
			c0,0,0,0,0,0c0-0.1,0-0.2,0-0.3c0-0.1,0-0.2,0-0.2c0,0,0-0.1,0-0.1c0-0.2,0-0.3,0-0.5c0,0,0,0,0,0c0,0,0,0,0-0.1
			c0-0.2,0-0.3,0-0.5c0.1-0.3,0-0.7,0-1c0,0,0,0,0,0c0-0.1,0-0.1,0-0.2c0.5,0.1,0.9,0.1,1.4,0c0.3,0,0.5,0,0.8,0
			c0.1,0,0.1,0,0.1,0.1C12.1,52.8,12,53.3,11.9,53.8C11.9,53.8,11.9,53.8,11.9,53.8z"/>
		<path class="st3" d="M40.2,9.3c0.1,0.1,0.2,0.2,0.3,0.4c0.4,0.6,0.8,1.1,1.2,1.7c0.1,0.1,0.2,0.3,0.3,0.4c0,0,0,0.1,0,0.1
			c0,0,0,0,0,0c0,0,0,0.1,0,0.1c0,0,0,0,0,0c0,0.2,0.1,0.4,0.2,0.5c0.1,0.3,0.2,0.5,0.3,0.8c0,0.1,0,0.2-0.1,0.3
			c-0.1,0-0.1-0.1-0.2-0.1c-0.2-0.2-0.5-0.3-0.7-0.4c-0.1,0-0.2-0.1-0.3,0c-0.3-0.2-0.6-0.3-0.8-0.5c-0.3-0.2-0.5-0.6-0.6-0.9
			c-0.1-0.5-0.3-0.9-0.5-1.4C39.2,10,39,9.6,38.8,9.2c-0.1-0.3-0.3-0.7-0.5-1c-0.2-0.3-0.3-0.7-0.5-1c0,0-0.1-0.1,0-0.2
			c0.1,0,0.1,0,0.1,0.1c0.5,0.5,1,1,1.6,1.5c0.1,0.1,0.1,0.2,0.2,0.1c0,0,0,0,0,0c0,0,0,0,0,0C39.9,9,40,9.2,40.2,9.3
			C40.2,9.2,40.2,9.2,40.2,9.3C40.2,9.3,40.2,9.3,40.2,9.3z"/>
		<path class="st7" d="M10,30.3C10,30.3,10,30.3,10,30.3c0-0.1,0-0.1,0-0.2c0,0,0,0,0,0c0-0.1,0-0.1,0-0.1c0,0,0,0,0,0
			c0-0.1-0.1-0.3-0.1-0.4c0-0.1,0-0.1,0-0.2c-0.1-0.4-0.2-0.8-0.3-1.2c-0.3-1.2-0.6-2.4-0.8-3.6c-0.2-0.9-0.3-1.9-0.4-2.9
			c-0.1-0.6-0.1-1.2-0.1-1.9c0-0.4-0.1-0.9,0-1.3c0-0.3,0-0.6,0.1-0.9c0.1-1.3,0.2-2.5,0.4-3.8c0-0.3,0.1-0.5,0.1-0.8
			c0.1-0.1,0.1-0.3,0.1-0.4c0.1-0.2,0.1-0.4,0.1-0.6c0.1-0.4,0.2-0.7,0.3-1.1c0.2-0.5,0.4-0.9,0.6-1.4c0.2-0.6,0.5-1.1,0.8-1.6
			c0,0,0,0,0-0.1c0.2-0.3,0.5-0.7,0.6-1.1c0,0,0-0.1,0.1-0.1c0.1,0,0.1,0.1,0.2,0.1c0,0.1,0,0.2,0,0.3c-0.1,0.2-0.3,0.4-0.4,0.6
			c-0.3,0.5-0.6,1.1-0.8,1.7c-0.2,0.5-0.5,1-0.6,1.6c-0.2,0.5-0.3,1-0.4,1.5c0,0,0,0.1,0,0.1c-0.1,0.1-0.1,0.2-0.1,0.3
			c-0.1,0.2-0.1,0.3-0.1,0.5c-0.1,0.6-0.2,1.3-0.3,1.9c0,0.4,0,0.8,0,1.2c0,0.6-0.1,1.2-0.1,1.8c0,0.3,0,0.7,0,1
			c0,0.9,0,1.7,0.1,2.6c0.1,0.7,0.2,1.5,0.3,2.2c0.2,1.3,0.5,2.6,0.8,3.9c0.1,0.4,0.2,0.9,0.3,1.3c0,0.1,0,0.1,0.1,0.2
			c0,0.1,0,0.3,0.1,0.4c0.1,0.3,0.1,0.6,0.2,0.9c0.1,0.2,0.1,0.4,0.2,0.6c0,0,0,0.1,0,0.1c0,0,0,0,0,0c0,0,0,0.1,0,0.1c0,0,0,0,0,0
			c0,0.1,0,0.1,0,0.1c0,0,0,0,0,0c0,0.2,0.1,0.3,0.1,0.5c0,0.1,0,0.2,0.1,0.3l0,0c0,0,0,0,0,0c0,0,0,0.1,0,0.1l0,0c0,0,0,0,0,0
			c0,0,0,0.1,0,0.1c0,0,0,0-0.1,0c0,0,0,0,0,0c0,0,0-0.1,0-0.1c0,0,0,0,0,0c0,0,0-0.1,0-0.1c0,0,0,0,0,0c0,0,0-0.1,0-0.1
			c0,0,0,0,0,0c0-0.2-0.1-0.3-0.1-0.5c-0.1-0.2-0.1-0.4-0.2-0.6c0,0,0,0,0,0c0-0.2-0.1-0.4-0.2-0.6c0,0,0,0,0,0c0-0.1,0-0.2-0.1-0.2
			c0,0,0,0,0,0c0,0,0-0.1,0-0.1c0,0,0,0,0,0C10,30.4,10.1,30.4,10,30.3z"/>
		<path class="st5" d="M11.3,57.5c0,0,0.1,0,0.1,0c0.8,0,1.6,0.3,2.4,0.6c0.3,0.1,0.5,0.2,0.8,0.4c0.3,0.2,0.6,0.3,0.9,0.6
			c0,0,0.1,0.1,0.1,0.1c0.1,0.1,0.1,0.1,0.1,0c0.1-0.2,0.2-0.5,0.3-0.7c0.1-0.1,0.1-0.3,0.1-0.4c0-0.1,0.1-0.1,0.1-0.2
			c0.1-0.2,0.2-0.4,0.3-0.6c0.2-0.3,0.3-0.6,0.5-0.9c0.2-0.5,0.4-1,0.6-1.5c0.1-0.2,0.2-0.4,0.3-0.5c0.1-0.1,0.2-0.1,0.3-0.1
			c0,0.1-0.1,0.2-0.1,0.2c-0.4,0.8-0.7,1.7-1.1,2.5c-0.2,0.5-0.5,1.1-0.7,1.6c-0.1,0.3-0.2,0.5-0.3,0.8c0,0,0,0,0,0.1
			c-0.2,0.2-0.3,0.5-0.5,0.5c-0.3,0.1-0.5,0.2-0.8,0.1c-0.4,0-0.9-0.1-1.3-0.1c-0.9-0.1-1.8-0.3-2.7-0.7c-0.5-0.3-0.9-0.6-1.2-1
			c0,0-0.1-0.1,0-0.1c0.1-0.1,0.2-0.1,0.2,0c0,0,0.1,0.1,0.2,0.1c0,0.1,0,0.1,0.1,0.1c0.2,0.1,0.4,0.3,0.6,0.4
			c0.5,0.2,1,0.3,1.5,0.5c0.1,0,0.2,0.1,0.4,0.1c0.3,0,0.7,0.1,1,0.1c0.5,0.1,0.9,0,1.4,0.1c0,0,0.1,0,0.1,0c0,0,0-0.1,0-0.1
			c0,0-0.1,0-0.1,0c-0.6-0.3-1.2-0.5-1.8-0.7c-0.6-0.2-1.2-0.4-1.7-0.5c-0.2-0.1-0.4-0.1-0.7-0.1c-0.1-0.1-0.2,0-0.4-0.1
			c0-0.2,0.1-0.2,0.3-0.2C10.7,57.6,11,57.5,11.3,57.5z"/>
		<path class="st11" d="M9.8,29.6c0.1,0.1,0.1,0.3,0.1,0.4c-0.6,0-1.2,0.1-1.8,0.1c-0.3,0-0.6,0.1-0.8,0.2c-0.1,0-0.1,0.1-0.2,0.1
			c-0.3,0.1-0.5,0.4-0.7,0.6c0,0,0,0.1,0,0.2c0.1,0.3,0.2,0.6,0.3,0.9c0.3,0.7,0.5,1.4,0.7,2.1c0.2,0.6,0.5,1.3,0.7,1.9
			c0.2,0.5,0.3,0.9,0.5,1.4c0.1,0.2,0.2,0.4,0.2,0.7c0,0,0,0-0.1,0c-0.1-0.3-0.2-0.6-0.3-1c-0.2-0.6-0.5-1.2-0.7-1.8
			c-0.4-1-0.8-1.9-1.3-2.8c-0.5-0.9-1-1.9-1.5-2.8C5,29.8,5,29.7,5,29.6c0.1,0.1,0.2,0.2,0.4,0.2c0,0,0.1,0,0.1,0
			c0.1,0.1,0.2,0,0.3,0c0.2-0.1,0.3-0.2,0.5-0.2c0.4-0.1,0.9-0.1,1.3-0.1c0.4,0,0.8,0,1.1,0C9.1,29.5,9.4,29.6,9.8,29.6z M8.5,29.9
			C8.5,29.8,8.5,29.8,8.5,29.9c0.2,0,0.4,0,0.6,0c0.1,0,0.1,0,0.1-0.1c-0.1,0-0.2,0-0.3-0.1c-0.6-0.1-1.2-0.1-1.8-0.1
			c-0.4,0-0.8,0.1-1.1,0.3c-0.2,0.1-0.2,0.3-0.3,0.4c0.1,0,0.3,0,0.4,0.1c0.1,0,0.1,0,0.1-0.1c0-0.1,0.1-0.1,0.2-0.2
			C7,30.1,7.7,30,8.3,30C8.4,30,8.4,30,8.5,29.9C8.6,30,8.7,30,8.8,30C8.7,29.9,8.6,29.9,8.5,29.9z"/>
		<path class="st12" d="M10.5,57.9c0.2,0,0.5,0,0.7,0.1c0.6,0.2,1.2,0.3,1.7,0.5c0.6,0.2,1.2,0.5,1.8,0.7c0,0,0.1,0,0.1,0
			c0,0,0.1,0.1,0,0.1c0,0-0.1,0-0.1,0c-0.5-0.1-0.9-0.1-1.4-0.1c-0.3,0-0.7-0.1-1-0.1c-0.1,0-0.2,0-0.4-0.1c-0.5-0.2-1-0.3-1.5-0.5
			c-0.2-0.1-0.4-0.2-0.6-0.4c0,0-0.1-0.1-0.1-0.1c0,0,0,0,0,0C10.1,58.1,10.3,58,10.5,57.9z"/>
		<path class="st13" d="M13.5,45.6c0.1,0,0-0.1,0.1-0.1c0-0.5,0.1-0.9,0.1-1.4c0-0.2,0.1-0.5,0.2-0.7c0,0,0-0.1,0.1-0.1
			c0.1,0,0,0.1,0,0.1c-0.1,0.6-0.1,1.2-0.1,1.8c0,0.1,0,0.2,0,0.3c0,0.1,0,0.1,0.1,0.1c0.5,0.1,0.9,0.2,1.3,0.4
			c0.1,0.1,0.2,0.2,0.4,0.2c0.1,0.1,0.3,0.2,0.5,0.4c-0.2,0-0.3,0-0.4-0.1c0,0-0.1,0-0.1-0.1c-0.4-0.3-0.8-0.4-1.3-0.6
			c-0.1,0-0.3-0.1-0.4-0.1c-0.1,0-0.1,0-0.1,0.1c-0.1,0.4-0.1,0.8-0.2,1.2c-0.1,1.1-0.3,2.2-0.4,3.3c0,0.2-0.1,0.4-0.1,0.5
			c0,0.2-0.1,0.2-0.3,0.3c0-0.1,0-0.2,0-0.3c0.1-1,0.3-1.9,0.4-2.9c0.1-0.7,0.2-1.5,0.3-2.2c0-0.1,0-0.1-0.1-0.2
			c-0.1,0-0.2,0-0.3-0.1C13.3,45.6,13.4,45.6,13.5,45.6z"/>
		<path class="st13" d="M17.4,46.7c0.2,0,0.2,0,0.3-0.2c0.1-0.3,0.2-0.5,0.3-0.8c0.1-0.1,0.1-0.2,0.2-0.4c0-0.1,0.1-0.1,0.1-0.1
			c0,0,0.1,0,0.1,0c0,0,0,0.1,0,0.1c-0.1,0.2-0.2,0.5-0.3,0.7c-0.1,0.2-0.1,0.4-0.2,0.6c0,0.1,0,0.1,0.1,0.1c0.1,0,0.2,0,0.2,0
			c0.2,0,0.3,0.1,0.5,0.1c0.4,0.1,0.9,0.3,1,0.5c-0.1,0-0.2,0-0.3-0.1c-0.3-0.1-0.6-0.2-0.9-0.3c-0.2,0-0.4,0-0.6,0
			c-0.1,0-0.1,0-0.2,0.1c-0.2,0.6-0.5,1.2-0.7,1.8c-0.4,1-0.7,1.9-1,2.9c0,0.1-0.1,0.3-0.2,0.3c0-0.1,0-0.1,0-0.2
			c0.2-0.7,0.5-1.4,0.7-2.2c0.2-0.5,0.4-1.1,0.6-1.6c0.1-0.4,0.3-0.7,0.4-1.1c0,0,0-0.1,0-0.1c-0.1,0-0.3,0-0.5-0.1
			C17.1,46.7,17.3,46.7,17.4,46.7z"/>
		<path class="st7" d="M32.9,16.2c0.6-0.1,1.1,0.1,1.7,0.2c0.7,0.1,1.4,0.4,2,0.8c0.3,0.2,0.7,0.4,1,0.6c0.4,0.3,0.7,0.6,1,1
			c0,0,0,0.1,0.1,0.1c0.1,0.1,0.1,0.2,0.1,0.2c0,0-0.1,0-0.1,0c0,0.1,0,0.1-0.1,0c-0.1-0.1-0.3-0.2-0.4-0.4
			c-0.3-0.3-0.5-0.5-0.8-0.7c-0.5-0.4-1-0.7-1.5-1c-0.4-0.2-0.8-0.3-1.2-0.4c-0.5-0.2-1.1-0.2-1.7-0.3c-0.1,0-0.2,0-0.3-0.1
			c0,0-0.1,0-0.1,0C32.7,16.3,32.8,16.3,32.9,16.2C32.8,16.2,32.9,16.2,32.9,16.2z"/>
		<path class="st13" d="M18.1,53.5c0-0.2,0.1-0.4,0.1-0.5c0.5-1.1,1-2.2,1.5-3.2c0.4-0.8,0.8-1.5,1.2-2.3c0.1-0.2,0.2-0.3,0.3-0.5
			c0.1-0.1,0.2-0.2,0.3-0.3c0,0,0.1,0,0.1,0c0,0,0,0.1,0,0.1c0,0.1-0.1,0.2-0.1,0.3c-0.5,1.1-1.2,2.2-1.7,3.3
			c-0.3,0.6-0.6,1.1-0.9,1.8c-0.1,0.2-0.2,0.5-0.3,0.7c-0.1,0.2-0.1,0.3-0.2,0.4C18.3,53.3,18.2,53.4,18.1,53.5z"/>
		<path class="st13" d="M24.8,5c0.3-0.1,0.6-0.1,0.9-0.1c0.5,0,1.1,0,1.6,0.2c0.4,0.1,0.9,0.2,1.3,0.4c0.3,0.1,0.6,0.3,0.9,0.4
			c0,0,0.1,0.1,0.1,0c0,0,0,0,0.1,0c0,0,0,0,0,0c0,0,0.1,0.1,0.1,0.1c0.3,0.2,0.7,0.4,1,0.6c0,0,0.1,0,0.1,0.1c0,0,0,0.1,0,0.1
			c0,0-0.1,0-0.1,0c-0.2-0.1-0.3-0.2-0.5-0.3c-0.7-0.3-1.4-0.6-2.1-0.9c-0.8-0.3-1.6-0.4-2.4-0.5c-0.4,0-0.8,0-1.1,0
			c-0.1,0-0.1,0-0.2,0C24.6,5,24.7,5,24.8,5z"/>
		<path class="st13" d="M9.8,52.2c-0.1,0.1,0,0.1,0,0.2c0,0.1,0,0.2,0,0.2c0,0.4-0.1,0.8-0.1,1.2c0,0.2,0,0.4,0,0.6
			c0,0.1,0,0.1,0,0.2c0,0.1,0,0.2,0,0.2c0,0.1,0,0.3,0,0.4c0,0.7-0.1,1.4-0.1,2.1c0,0.1,0,0.1,0,0.2c0,0.1,0,0.1-0.1,0.2
			c0,0-0.1,0.1-0.1,0.1c-0.1,0-0.1-0.1-0.1-0.2c0.1-0.8,0.2-1.6,0.2-2.4c0.1-0.8,0-1.5,0.1-2.3c0-0.3,0-0.6,0.1-0.9
			c0-0.1,0-0.1,0.1-0.2c0,0,0-0.1,0.1-0.1c0,0,0.1,0,0.1,0.1c0,0.1,0,0.1,0,0.2C9.8,52.1,9.8,52.1,9.8,52.2z"/>
		<path class="st7" d="M34.4,8c0.3,0,0.6,0,0.8,0.1c0.7,0.2,1.4,0.5,2,0.9c0.6,0.4,1.1,0.8,1.5,1.4c0.1,0.1,0.2,0.3,0.3,0.4
			c0,0,0,0.1,0,0.1c-0.1,0-0.1-0.1-0.2-0.2c-0.3-0.3-0.6-0.6-0.9-0.8c-0.6-0.5-1.3-0.9-2.1-1.2c-0.4-0.2-0.9-0.4-1.3-0.5
			C34.4,8.1,34.3,8.2,34.4,8z"/>
		<path class="st13" d="M13.2,4.6c0.3-0.2,0.6-0.3,1-0.4c0.8-0.2,1.6-0.3,2.4-0.3c0.3,0,0.6,0,0.9,0.1c0.4,0.1,0.7,0.1,1.1,0.2
			c0.1,0,0.2,0.1,0.3,0.1c0,0,0,0,0,0c0,0,0,0,0,0c-0.3,0-0.5,0-0.8-0.1c-0.8-0.1-1.7-0.1-2.5,0c-0.4,0-0.8,0.1-1.3,0.1
			c-0.3,0.1-0.6,0.1-0.9,0.2C13.3,4.6,13.2,4.6,13.2,4.6z"/>
		<path class="st13" d="M10.1,44.6c0.1,1.2,0.1,2.4,0,3.6c0,0.4,0,0.7,0,1.1c0,0.4,0,0.7,0,1.1c0,0.2,0,0.3-0.1,0.5
			c-0.1-0.1-0.1-0.1-0.1-0.2c0-0.8,0-1.7,0.1-2.5C10,47,10,45.8,10.1,44.6C10,44.6,10.1,44.6,10.1,44.6z"/>
		<path class="st13" d="M12.1,29.4c-0.3,0-0.6,0.1-0.9,0.3c-0.1,0.1-0.2,0.2-0.4,0.1c0,0,0,0,0-0.1c0,0,0-0.1,0-0.1
			c0.4-0.2,0.8-0.4,1.2-0.5c0.4-0.1,0.7-0.2,1.1-0.2c0.8,0,1.7,0,2.5,0.2c0,0,0,0,0,0.1c-0.5-0.1-0.9-0.1-1.4-0.1
			c-0.2,0-0.4,0-0.6,0c-0.4,0-0.8,0-1.1,0.1C12.3,29.4,12.2,29.4,12.1,29.4z"/>
		<path class="st7" d="M15,52.6c-0.3,0-0.7,0-1-0.1c0,0-0.1,0-0.1,0c-0.4-0.2-0.7-0.4-1-0.6c0,0,0,0,0,0c0.1-0.1,0.2-0.2,0.4-0.1
			c0.3,0.1,0.6,0.3,0.9,0.4c0.1,0.1,0.3,0.1,0.4,0.1c0.3,0,0.5,0,0.8,0c0.1,0,0.2,0,0.2,0c0.1,0,0.1,0,0.1,0.1c0,0.1,0,0.1-0.1,0.1
			C15.3,52.5,15.2,52.6,15,52.6z"/>
		<path class="st13" d="M19.7,29.8c0.4,0.1,0.8,0.1,1.2,0.2c0.5,0.1,1,0.2,1.5,0.4c0.1,0,0.1,0,0.2,0.1c0.2,0.1,0.4,0.2,0.6,0.4
			c0,0,0,0,0,0c-0.3-0.1-0.6-0.2-0.9-0.3c-0.7-0.2-1.4-0.4-2.1-0.5c-0.4-0.1-0.8,0-1.2,0.1c-0.1,0-0.2,0-0.2-0.1
			c-0.1-0.1,0-0.2,0.1-0.2C19.1,29.9,19.4,29.9,19.7,29.8z"/>
		<path class="st13" d="M11.5,57.1c0-0.2,0-0.3,0-0.5c0,0,0,0,0,0c0,0,0-0.1,0-0.1c0,0,0-0.1,0-0.1c0.1-0.4,0.1-0.8,0.2-1.2
			c0-0.2,0.1-0.5,0.1-0.7c0.1-0.6,0.2-1.2,0.4-1.8c0-0.1,0-0.3,0.1-0.4c0,0.2,0,0.4,0,0.5c-0.1,1-0.3,2-0.5,3
			c-0.1,0.3-0.2,0.6-0.2,1C11.7,56.9,11.6,57,11.5,57.1z"/>
		<path class="st13" d="M18.2,44.4c-0.2-0.1-0.3-0.1-0.5-0.3c-0.1,0-0.1-0.1-0.2-0.1c-0.4-0.3-0.9-0.5-1.5-0.7c-0.1,0-0.2,0-0.3,0
			c-0.2,0-0.4,0-0.6,0c-0.1,0-0.2,0-0.3,0c0,0-0.1,0,0-0.1c0.6-0.1,1.2-0.1,1.7,0c0.3,0.1,0.6,0.2,0.9,0.4c0,0,0.1,0.1,0.1,0.1
			c0,0,0,0,0,0c0.2,0.1,0.4,0.3,0.6,0.4c0.1,0.1,0.2,0.1,0.3,0.2C18.3,44.3,18.2,44.3,18.2,44.4z"/>
		<path class="st13" d="M17.7,52.5C17.6,52.5,17.6,52.4,17.7,52.5c0-0.1,0-0.2,0-0.2c0.6-1.2,1.1-2.4,1.6-3.7
			c0.1-0.3,0.2-0.5,0.3-0.7c0,0,0-0.1,0-0.1c0,0,0.1-0.1,0.1,0c0,0,0,0.1,0,0.1c-0.1,0.3-0.3,0.6-0.4,0.9c-0.2,0.5-0.4,1-0.6,1.5
			c-0.2,0.5-0.5,1-0.7,1.5C18,52,17.9,52.2,17.7,52.5C17.7,52.4,17.7,52.5,17.7,52.5z"/>
		<path class="st13" d="M15.1,51.9c0.1-0.5,0.3-1,0.4-1.5c0.3-0.9,0.5-1.8,0.8-2.6c0,0,0-0.1,0-0.1c0,0,0.1,0,0.1,0c0,0,0,0,0,0.1
			c-0.2,0.5-0.3,1-0.4,1.4c-0.2,0.8-0.4,1.5-0.7,2.3C15.4,51.6,15.3,51.7,15.1,51.9C15.2,51.9,15.1,51.9,15.1,51.9z"/>
		<path class="st13" d="M21,45.8c0-0.1-0.1-0.1-0.1-0.1c0,0,0-0.1-0.1,0c0,0,0,0,0,0c-0.3-0.4-0.7-0.6-1.1-0.8
			c-0.2-0.1-0.4-0.1-0.6-0.2c0,0-0.1,0-0.1-0.1c0-0.1,0.1-0.1,0.1-0.1c0.2,0,0.4,0,0.6,0c0.1,0,0.1,0,0.2,0c0,0,0,0,0,0
			c0,0.1,0.1,0,0.1,0.1c0.1,0.1,0.3,0.1,0.4,0.2c0.2,0.1,0.4,0.3,0.6,0.4c0.1,0.1,0.2,0.2,0.3,0.3c0.1,0.1,0.2,0.2,0.2,0.3
			c0,0,0.1,0.1,0,0.1c-0.1,0-0.1,0.1-0.2,0C21.2,45.9,21.1,45.8,21,45.8z"/>
		<path class="st13" d="M11.4,52.1c-0.3,0-0.5-0.1-0.7-0.2c-0.2-0.1-0.4-0.3-0.6-0.4c0,0-0.1,0-0.1-0.1c0.1-0.1,0.1-0.1,0.2-0.1
			c0,0,0,0,0.1,0.1c0.3,0.2,0.6,0.4,1,0.4c0.3,0,0.6,0,0.9-0.1c0.1,0,0.1,0,0.2-0.1c0.1,0,0.1,0,0.1,0.1c0,0.1-0.1,0.1-0.2,0.2
			C12,52.1,11.7,52.1,11.4,52.1z"/>
		<path class="st7" d="M17.4,53.8c-0.1-0.1-0.2,0-0.3-0.1c-0.3-0.1-0.5-0.2-0.7-0.4c0,0,0,0-0.1,0c-0.1-0.2-0.3-0.4-0.4-0.6
			c-0.1-0.1-0.1-0.1,0-0.2c0,0,0.1,0,0.1,0c0,0.1,0.1,0.1,0.2,0.2c0.3,0.4,0.7,0.7,1.2,0.8c0.1,0,0.3,0.1,0.4,0.2c0,0,0.1,0,0.1,0.1
			c0,0.1,0,0.1-0.1,0.1C17.6,53.8,17.5,53.8,17.4,53.8z"/>
		<path class="st13" d="M8.8,4.4c0.2-0.1,0.4-0.1,0.6,0c0.6,0.1,1.2,0.2,1.8,0.5c0,0,0,0,0.1,0c0,0,0.1,0,0.1,0.1
			c0,0.1-0.1,0.1-0.1,0.1C11.1,5,10.9,5,10.6,5c-0.3,0-0.6-0.1-0.9-0.2c-0.1,0-0.3-0.1-0.4-0.1c-0.1,0-0.2,0-0.2-0.1
			c0,0-0.1,0-0.1,0C8.9,4.5,8.9,4.5,8.8,4.4z"/>
		<path class="st13" d="M31.3,35.8c-0.1,0-0.3-0.1-0.4-0.1c-0.1,0-0.1-0.1-0.1-0.1c0.1-0.2,0.1-0.2,0.2-0.1c0.2,0,0.4,0.1,0.5,0.1
			c0.1,0,0.1,0.1,0.2,0c0,0,0,0,0,0c0,0,0,0.1,0.1,0.1c0,0,0.1,0.1,0.1,0.1c0.4,0.2,0.7,0.5,0.9,0.9c0.1,0.1,0.2,0.3,0.3,0.4
			c0,0,0,0.1,0,0.1c-0.3-0.2-0.4-0.4-0.6-0.6C32.1,36.1,31.8,35.9,31.3,35.8z"/>
		<path class="st13" d="M13.5,43.1c0,0-0.1,0.1-0.1,0c-0.3-0.1-0.6-0.2-0.8-0.2c-0.4-0.1-0.7-0.2-1.1-0.2c-0.1,0-0.3,0-0.4,0
			c-0.1,0-0.2,0-0.3,0c0.2-0.1,0.4-0.1,0.5-0.2c0.3,0,0.5,0,0.8,0c0.5,0.1,0.9,0.2,1.3,0.4C13.5,42.9,13.5,43,13.5,43.1z"/>
		<path class="st13" d="M26.7,32.7c-0.2-0.1-0.4-0.1-0.6-0.1c-0.3,0-0.5-0.1-0.8-0.2c0.1-0.1,0.2,0,0.2,0c0.5,0,1,0.1,1.5,0.3
			c0.6,0.2,1.1,0.5,1.6,0.8c0,0,0,0,0,0c-0.2-0.1-0.4-0.2-0.6-0.3C27.6,32.9,27.1,32.8,26.7,32.7z"/>
		<path class="st13" d="M12.2,50.4c0.1-1.3,0.1-2.7,0.3-4c0.1,0.5,0.1,0.9,0,1.4c-0.1,0.6-0.1,1.2-0.1,1.8
			C12.4,49.9,12.3,50.2,12.2,50.4C12.3,50.4,12.3,50.4,12.2,50.4z"/>
		<path class="st13" d="M12.2,45.4c-0.1,0-0.2,0-0.3-0.1c-0.2-0.1-0.3-0.3-0.4-0.4c-0.1-0.2-0.2-0.3-0.4-0.4
			c-0.2-0.1-0.4-0.3-0.6-0.4c0.1,0,0.2,0,0.3,0.1C11.4,44.5,11.9,44.9,12.2,45.4C12.2,45.4,12.2,45.4,12.2,45.4z"/>
		<path class="st13" d="M41.3,13.1c0.1-0.1,0.2-0.1,0.3,0c0.3,0.1,0.5,0.2,0.7,0.4c0.1,0,0.1,0.1,0.2,0.1c0.1,0.1,0.2,0.2,0.3,0.2
			c0.1,0.1,0.2,0.2,0.3,0.3c0,0,0.1,0.1,0.1,0.2c-0.5-0.3-0.9-0.7-1.5-0.9C41.6,13.3,41.4,13.3,41.3,13.1z"/>
		<path class="st11" d="M33.5,31.6c0.3-0.3,0.5-0.6,0.8-0.9c0.1-0.2,0.3-0.4,0.4-0.5c0,0,0-0.1,0.1,0c0,0.1,0,0.1-0.1,0.2
			c-0.2,0.2-0.3,0.4-0.5,0.6c-0.2,0.2-0.4,0.5-0.6,0.7C33.6,31.6,33.6,31.7,33.5,31.6C33.5,31.7,33.5,31.7,33.5,31.6z"/>
		<path class="st8" d="M11.9,54.4c0,0.3-0.1,0.5-0.1,0.7c-0.1,0.4-0.2,0.8-0.2,1.2c0,0,0,0.1,0,0.1c-0.1-0.1,0-0.2,0-0.2
			c0.1-0.3,0.1-0.5,0.1-0.8c0-0.2,0.1-0.4,0.1-0.6C11.8,54.7,11.8,54.5,11.9,54.4C11.8,54.4,11.9,54.4,11.9,54.4z"/>
		<path class="st13" d="M17.6,33.7C17.6,33.7,17.7,33.7,17.6,33.7c0.1,0.2,0.1,0.5,0,0.7c-0.1,0.2-0.1,0.5-0.1,0.8c0,0,0,0-0.1,0
			C17.4,34.7,17.5,34.2,17.6,33.7z"/>
		<path class="st11" d="M38.9,13.6c-0.1,0.1-0.2,0.3-0.3,0.3c0,0-0.1,0-0.1,0c-0.1,0,0-0.1,0-0.1c0.1-0.1,0.1-0.3,0.3-0.3
			c-0.2-0.1-0.3-0.1-0.4,0.2c0-0.2,0-0.2,0.2-0.3c0.1,0,0.1-0.1,0.2-0.1c0.1,0,0.1,0,0.1,0.1c0,0.1,0.1,0,0.1,0
			C38.9,13.5,38.8,13.5,38.9,13.6z"/>
		<path class="st11" d="M39.4,16.4c-0.1-0.1-0.3,0-0.5-0.1c-0.1,0-0.1,0-0.2,0c0,0,0,0,0,0c0,0,0,0,0-0.1c0-0.1-0.1,0-0.1,0
			c0,0,0.1,0,0.1,0c0.1,0,0.1,0,0.2,0c0.1,0,0.1,0,0.1-0.1c0,0,0,0,0-0.1c0.1-0.1,0.2-0.2,0.2-0.4c0,0,0,0,0.1,0c0,0.1,0,0.1,0,0.2
			c0,0-0.1,0.1-0.1,0.1c-0.1,0.1-0.1,0.2-0.1,0.2c0,0.1,0.1,0,0.2,0C39.4,16.3,39.4,16.4,39.4,16.4C39.4,16.4,39.4,16.4,39.4,16.4
			L39.4,16.4z"/>
		<path class="st13" d="M20.7,46.8c0.1,0,0.2-0.1,0.3-0.1c-0.2,0.2-0.5,0.4-0.8,0.3c0.1-0.1,0.2-0.1,0.3-0.2
			C20.5,46.8,20.6,46.8,20.7,46.8z"/>
		<path class="st11" d="M28.6,24.3c0.1-0.3,0.3-0.6,0.4-0.9c0.1-0.1,0.1-0.3,0.2-0.4c0,0.2-0.1,0.3-0.2,0.5
			c-0.1,0.2-0.2,0.4-0.3,0.6C28.8,24.1,28.7,24.2,28.6,24.3C28.6,24.3,28.6,24.3,28.6,24.3z"/>
		<path class="st6" d="M18.1,26.4c0,0.4,0,0.8-0.1,1.3c-0.1,0-0.1,0-0.1,0.1c0,0,0,0.1,0,0.1c0-0.1,0-0.2,0-0.3
			C18,27.2,18.1,26.9,18.1,26.4C18.1,26.5,18.1,26.5,18.1,26.4z"/>
		<path class="st11" d="M16.5,57.1c-0.1,0.2-0.2,0.4-0.3,0.6c0,0-0.1,0-0.1,0C16.2,57.5,16.3,57.3,16.5,57.1
			C16.5,57.1,16.5,57.1,16.5,57.1z"/>
		<path class="st11" d="M32.9,16.2C32.9,16.2,32.8,16.2,32.9,16.2c-0.1,0-0.2,0-0.2,0c-0.1,0-0.2,0-0.2-0.1c0.1,0,0.1,0,0.1-0.1
			c0-0.1,0.1-0.1,0.1,0c0,0.1,0.1,0.1,0.2,0.1C32.9,16.1,32.9,16.2,32.9,16.2z"/>
		<path class="st11" d="M9.7,54.9c0-0.1,0-0.2,0-0.2c0-0.1,0-0.1,0-0.2c0-0.2,0-0.4,0-0.6c0,0,0,0.1,0.1,0.1c0,0,0,0,0,0.1
			c0,0,0,0,0,0c0,0,0,0,0,0c0,0.2,0,0.3,0,0.5c0,0,0,0.1,0,0.1C9.7,54.7,9.7,54.8,9.7,54.9C9.7,54.9,9.7,54.9,9.7,54.9z"/>
		<path class="st2" d="M39.4,16.3c-0.1,0-0.2,0-0.2,0c0-0.1,0-0.2,0.1-0.2c0,0,0.1-0.1,0.1-0.1C39.4,16.1,39.4,16.2,39.4,16.3z"/>
		<path class="st2" d="M35.1,8.9c-0.1,0.1-0.1,0.1-0.2,0c0,0-0.1,0-0.1-0.1c0,0,0.1-0.1,0.1-0.1C34.9,8.8,35,8.7,35.1,8.9z"/>
		<path class="st11" d="M40.2,14.3l0.3,0.1c0,0,0.1,0,0.1,0c0,0,0,0.1,0,0.1c-0.1,0.1-0.2,0-0.2,0C40.2,14.5,40.2,14.4,40.2,14.3z"
			/>
		<path class="st11" d="M22.6,5.9c-0.1,0.2-0.2,0.3-0.3,0.5c0,0,0,0-0.1,0C22.4,6.2,22.5,6,22.6,5.9C22.6,5.9,22.6,5.9,22.6,5.9z"/>
		<path class="st10" d="M39.8,14.5C39.8,14.5,39.8,14.5,39.8,14.5c-0.1-0.1-0.2-0.2-0.2-0.4C39.7,14.2,39.8,14.2,39.8,14.5z"/>
		<path class="st11" d="M36.3,9.6c0,0.2-0.1,0.2-0.3,0.2C36.1,9.7,36.2,9.7,36.3,9.6c-0.1,0-0.2,0.1-0.1,0
			C36.2,9.5,36.2,9.5,36.3,9.6C36.3,9.5,36.3,9.6,36.3,9.6z"/>
		<path class="st11" d="M20.7,0.8c0.2,0,0.4,0,0.5,0c0,0,0.1,0,0.1,0c0,0,0,0,0,0C21.2,0.9,21,0.8,20.7,0.8z"/>
		<path class="st11" d="M37.1,10.1C37.1,10.1,37.1,10.1,37.1,10.1c0,0.1-0.1,0.2-0.2,0.2c0,0,0,0,0,0C36.8,10.2,36.9,10.1,37.1,10.1
			C37,10.1,37,10.1,37.1,10.1C37,10.1,37,10.1,37.1,10.1z"/>
		<path class="st8" d="M15.8,29.3c0.1,0,0.2,0,0.3,0.1C16,29.4,15.9,29.4,15.8,29.3C15.8,29.3,15.8,29.3,15.8,29.3z"/>
		<path class="st11" d="M36.7,9.9c-0.1,0-0.1,0-0.2,0c0-0.1,0-0.1,0-0.2C36.6,9.7,36.7,9.8,36.7,9.9z"/>
		<path class="st10" d="M23.1,30.9C23.1,30.9,23.1,30.9,23.1,30.9c0.1,0,0.2,0,0.2,0.1C23.2,31,23.2,31,23.1,30.9z"/>
		<path d="M12.2,50.4C12.3,50.4,12.3,50.4,12.2,50.4c0.1,0.1,0.1,0.1,0,0.2C12.2,50.6,12.2,50.5,12.2,50.4z"/>
		<path class="st13" d="M38.9,10.9C39,10.9,39,10.8,38.9,10.9c0.1,0,0.1,0,0.1,0c0,0,0,0.1,0,0.1C39,11,39,10.9,38.9,10.9z"/>
		<path class="st2" d="M32.7,14.9C32.7,14.9,32.6,14.9,32.7,14.9c-0.1,0,0-0.1,0-0.1C32.7,14.8,32.7,14.8,32.7,14.9
			C32.7,14.8,32.7,14.8,32.7,14.9z"/>
		<path class="st10" d="M28.6,33.5C28.6,33.4,28.6,33.4,28.6,33.5c0.1,0,0.1,0,0.2,0.1C28.7,33.5,28.6,33.5,28.6,33.5z"/>
		<path class="st10" d="M15.8,29.3C15.8,29.3,15.8,29.3,15.8,29.3c-0.1,0.1-0.2,0.1-0.2,0c0,0,0,0,0-0.1
			C15.7,29.2,15.8,29.3,15.8,29.3z"/>
		<path class="st11" d="M39.4,17.3C39.4,17.3,39.4,17.3,39.4,17.3c-0.1,0.1-0.1,0-0.1,0C39.3,17.3,39.3,17.3,39.4,17.3
			C39.4,17.2,39.4,17.2,39.4,17.3C39.4,17.2,39.4,17.2,39.4,17.3C39.4,17.3,39.4,17.3,39.4,17.3C39.4,17.3,39.4,17.3,39.4,17.3z"/>
		<path class="st10" d="M39.8,15.4c0,0,0,0.1,0,0.1C39.8,15.5,39.8,15.4,39.8,15.4z"/>
		<path class="st11" d="M36.5,9.7c0,0-0.1,0-0.1,0c0,0,0,0,0-0.1C36.4,9.6,36.5,9.6,36.5,9.7z"/>
		<path class="st11" d="M40.3,16.4c0,0,0-0.1,0-0.2c0,0,0.1,0,0.1,0C40.4,16.3,40.4,16.3,40.3,16.4C40.3,16.4,40.3,16.4,40.3,16.4z"
			/>
		<path class="st10" d="M39.8,16.9c0,0,0,0.1,0,0.1C39.8,17,39.8,16.9,39.8,16.9z"/>
		<path class="st10" d="M39.7,17.9c0,0,0,0.1,0,0.1C39.7,18,39.7,17.9,39.7,17.9z"/>
		<path class="st2" d="M32.7,14.4C32.7,14.4,32.7,14.4,32.7,14.4c0.1,0,0.1,0,0.1,0C32.8,14.5,32.8,14.5,32.7,14.4
			C32.7,14.5,32.7,14.5,32.7,14.4C32.7,14.5,32.7,14.5,32.7,14.4z"/>
		<path class="st11" d="M41.2,13.3C41.1,13.4,41.1,13.4,41.2,13.3c-0.1,0.1-0.1,0.1-0.1,0C41,13.3,41.1,13.3,41.2,13.3
			C41.1,13.3,41.1,13.3,41.2,13.3C41.2,13.3,41.2,13.3,41.2,13.3z"/>
		<path class="st10" d="M17.4,35.1C17.4,35.1,17.5,35.1,17.4,35.1c0.1,0,0,0.1,0,0.1C17.4,35.2,17.4,35.2,17.4,35.1z"/>
		<path class="st13" d="M17.8,32.8c0,0,0-0.1,0-0.1C17.8,32.7,17.8,32.8,17.8,32.8z"/>
		<path class="st13" d="M18,30.4c0,0,0-0.1,0-0.1C18,30.3,18,30.3,18,30.4z"/>
		<path class="st13" d="M18,30.8c0,0,0-0.1,0-0.1C18,30.7,18,30.8,18,30.8z"/>
		<path class="st13" d="M17.7,31.8c0,0,0,0.1,0,0.1C17.7,31.9,17.7,31.9,17.7,31.8z"/>
		<path class="st13" d="M17.7,32.4c0,0,0,0.1,0,0.1C17.7,32.5,17.7,32.5,17.7,32.4z"/>
		<path class="st8" d="M21.4,0.8c0,0-0.1,0-0.1,0C21.3,0.8,21.4,0.8,21.4,0.8C21.5,0.8,21.4,0.8,21.4,0.8z"/>
		<path class="st10" d="M39.6,18.9C39.7,19,39.7,19,39.6,18.9C39.6,19,39.6,19,39.6,18.9z"/>
		<path class="st13" d="M17.8,32.3C17.8,32.3,17.8,32.3,17.8,32.3C17.8,32.3,17.8,32.3,17.8,32.3z"/>
		<path class="st10" d="M39.7,18.6C39.7,18.6,39.7,18.7,39.7,18.6C39.6,18.7,39.6,18.6,39.7,18.6z"/>
		<path class="st10" d="M39.7,18.3C39.7,18.3,39.7,18.4,39.7,18.3C39.7,18.4,39.7,18.3,39.7,18.3z"/>
		<path class="st13" d="M17.7,33.1C17.7,33,17.7,33,17.7,33.1C17.8,33,17.8,33,17.7,33.1z"/>
		<path class="st8" d="M22.4,0.8C22.5,0.8,22.5,0.8,22.4,0.8C22.5,0.9,22.5,0.9,22.4,0.8z"/>
		<path d="M15.1,51.9C15.1,51.9,15.2,51.9,15.1,51.9C15.2,51.9,15.2,52,15.1,51.9C15.1,51.9,15.1,51.9,15.1,51.9z"/>
		<path class="st13" d="M17.9,31.9C17.8,31.9,17.8,31.9,17.9,31.9C17.9,31.9,17.9,31.9,17.9,31.9z"/>
		<path class="st10" d="M39.8,17.5C39.8,17.5,39.8,17.5,39.8,17.5C39.8,17.5,39.8,17.5,39.8,17.5z"/>
		<path class="st13" d="M17.9,31.5C17.9,31.5,17.9,31.4,17.9,31.5C17.9,31.4,17.9,31.5,17.9,31.5z"/>
		<path class="st8" d="M11.9,53.8C11.9,53.8,11.9,53.8,11.9,53.8C11.9,53.8,11.9,53.8,11.9,53.8z"/>
		<path class="st13" d="M17.6,33.1C17.7,33.2,17.7,33.2,17.6,33.1C17.6,33.2,17.6,33.2,17.6,33.1z"/>
		<path class="st10" d="M39.6,19.2C39.6,19.2,39.6,19.2,39.6,19.2C39.6,19.2,39.6,19.2,39.6,19.2z"/>
		<path class="st6" d="M18,28C18,28,18,28,18,28C18,28,18,28,18,28z"/>
		<path class="st13" d="M17.7,33.5C17.7,33.5,17.7,33.4,17.7,33.5C17.7,33.4,17.7,33.5,17.7,33.5z"/>
		<path class="st9" d="M9.7,55.8C9.7,55.8,9.7,55.9,9.7,55.8C9.7,55.9,9.7,55.8,9.7,55.8z"/>
		<path class="st9" d="M9.7,56.1C9.7,56.1,9.7,56.2,9.7,56.1C9.7,56.2,9.7,56.1,9.7,56.1z"/>
		<path class="st6" d="M40.1,13.1C40.1,13.1,40.1,13.1,40.1,13.1C40,13.1,40.1,13.1,40.1,13.1C40.1,13.1,40.1,13.1,40.1,13.1z"/>
		<path class="st3" d="M39.4,17.3C39.4,17.3,39.4,17.3,39.4,17.3C39.5,17.3,39.5,17.3,39.4,17.3z"/>
		<path class="st3" d="M39.5,18.1C39.5,18.1,39.5,18.1,39.5,18.1C39.5,18.1,39.5,18.1,39.5,18.1C39.5,18.1,39.5,18.1,39.5,18.1
			C39.5,18.1,39.5,18.1,39.5,18.1z"/>
		<polygon class="st3" points="38.9,13.4 38.9,13.3 38.9,13.3 		"/>
		<path class="st3" d="M39.4,16.4C39.4,16.4,39.4,16.4,39.4,16.4C39.5,16.4,39.5,16.4,39.4,16.4z"/>
		<path class="st3" d="M38.5,11.9C38.5,11.9,38.5,11.9,38.5,11.9C38.5,11.9,38.5,11.9,38.5,11.9C38.5,11.9,38.5,11.9,38.5,11.9z"/>
		<path class="st9" d="M9.7,55.1C9.7,55.2,9.7,55.2,9.7,55.1C9.7,55.2,9.7,55.2,9.7,55.1C9.7,55.1,9.7,55.1,9.7,55.1z"/>
		<polygon class="st9" points="9.7,55.6 9.7,55.6 9.7,55.6 9.7,55.6 		"/>
		<path class="st6" d="M40.1,13.1C40.1,13.1,40.1,13.1,40.1,13.1C40.1,13.1,40.1,13.1,40.1,13.1C40.1,13,40.1,13,40.1,13.1
			C40.1,13.1,40.1,13.1,40.1,13.1z"/>
		<path class="st3" d="M33.2,9.7C33.2,9.7,33.2,9.7,33.2,9.7C33.2,9.7,33.2,9.7,33.2,9.7C33.2,9.6,33.2,9.7,33.2,9.7z"/>
		<path class="st8" d="M11.9,54C11.9,53.9,11.9,53.9,11.9,54C11.9,53.9,11.9,53.9,11.9,54z"/>
		<path class="st11" d="M8.9,13.1c0-0.1,0-0.2,0.1-0.3c0.1,0,0.1,0,0.1,0c0.4-0.2,0.8-0.4,1.2-0.6c0.3-0.1,0.6-0.2,0.8-0.3
			c0,0,0,0,0,0.1c-0.5,0.2-1,0.5-1.4,0.9c0.2,0.1,0.2,0.1,0.3,0c0.2-0.2,0.4-0.3,0.6-0.4c0.3-0.1,0.6-0.2,0.9-0.3
			c0.6-0.2,1.2-0.2,1.8-0.3c0.3,0,0.5-0.1,0.8,0c0.5,0,0.9,0.1,1.4,0.1c1.1,0.1,2.1,0.4,3.2,0.7c0.1,0,0.2,0.1,0.3,0.1
			c0.1,0,0.1,0,0.2-0.1c0.1,0,0.2-0.1,0.2-0.2c0.1-0.2,0.2-0.4,0.3-0.6c0.1-0.2,0.2-0.5,0.3-0.7c0.1-0.2,0.2-0.3,0.2-0.5
			c0-0.1,0.1-0.3,0.2-0.4c0.1-0.3,0.2-0.5,0.4-0.8C20.8,9.3,20.9,9.2,21,9c0,0,0,0,0,0c-0.2,0.4-0.3,0.8-0.4,1.1
			c-0.1,0.3-0.2,0.7-0.3,1c-0.3,0.8-0.5,1.7-0.7,2.6c-0.1,0.4-0.2,0.8-0.3,1.2c0,0,0,0,0,0.1c0-0.2,0-0.4,0-0.6c0-0.2,0-0.4,0-0.6
			c0-0.1,0-0.2-0.1-0.3c0-0.2-0.1-0.3-0.2-0.5c0-0.1-0.1-0.2-0.2-0.2c-0.6-0.1-1.3-0.2-1.9-0.3c-0.4,0-0.8,0-1.2-0.1
			c-0.8,0-1.6,0-2.4,0c-0.5,0-1,0.1-1.5,0.2c-0.4,0.1-0.7,0.1-1.1,0.1c-0.1,0-0.2,0-0.3,0C9.9,12.9,9.4,13,8.9,13.1z"/>
		<path class="st11" d="M8.7,12.8c0,0.1,0,0.3-0.1,0.4c-0.1,0-0.2,0-0.2,0c-0.1,0-0.2,0-0.3-0.1C7.9,13.1,7.8,13,7.7,13
			c-0.6-0.2-1.2-0.2-1.8-0.1c-0.6,0.1-1.2,0.2-1.8,0.5c-0.9,0.3-1.7,0.7-2.5,1.2c-0.1,0.1-0.2,0.1-0.2,0.2c0,0.2-0.1,0.4-0.1,0.7
			c-0.1,0.3-0.1,0.7-0.1,1C1.1,16.8,1,17.2,1,17.5c0,0.2,0,0.3-0.1,0.5c0-0.6,0-1.1,0.1-1.7c0.1-0.7,0.2-1.5,0.4-2.2
			c0.1-0.5,0.2-1,0.4-1.4c0-0.1,0.1-0.3,0.1-0.4c0,0,0-0.1,0.1-0.1c0,0.2-0.1,0.3-0.1,0.5c0,0.1,0,0.2,0,0.3c0,0.1,0,0.1,0,0.2
			c0,0.1,0,0.2,0,0.3c0.1,0,0.2-0.1,0.3-0.1c0,0.1-0.1,0.1-0.1,0.2c0,0.1,0,0.1,0.1,0.1c0.1,0,0.2-0.1,0.3-0.1
			c0.6-0.3,1.2-0.5,1.8-0.7c0.4-0.1,0.9-0.2,1.4-0.3c0-0.1,0-0.1-0.1-0.2c-0.1,0-0.1,0-0.2,0c0.3-0.1,0.6-0.2,0.9-0.3
			c0.1,0,0.1,0,0.2,0C7,12.3,7.8,12.5,8.7,12.8C8.6,12.8,8.6,12.8,8.7,12.8z"/>
		<path class="st7" d="M19.1,12.6c0,0.1-0.1,0.1-0.2,0.1c-0.1,0-0.2-0.1-0.3-0.1c-1-0.3-2.1-0.6-3.2-0.7c-0.4-0.1-0.9-0.1-1.4-0.1
			c-0.3,0-0.5,0-0.8,0c-0.6,0.1-1.2,0.1-1.8,0.3c-0.3,0.1-0.6,0.2-0.9,0.3c-0.2,0.1-0.4,0.2-0.6,0.4c-0.1,0.1-0.2,0.1-0.3,0
			c0.4-0.4,0.9-0.7,1.4-0.9c0.2,0,0.3-0.1,0.5-0.1c0.9-0.3,1.7-0.3,2.6-0.3c0.5,0,0.9,0.1,1.3,0.1c0.7,0.1,1.3,0.2,2,0.4
			c0.1,0,0.1,0.1,0.2,0.1c0.2,0.1,0.5,0.2,0.7,0.3c0,0,0,0,0.1,0c0.1,0.1,0.2,0.1,0.3,0.1C19,12.4,19.1,12.5,19.1,12.6z"/>
		<path class="st7" d="M5.1,12.4c0.1,0,0.2,0,0.2,0c0.1,0,0.1,0,0.1,0.2c-0.5,0.1-0.9,0.2-1.4,0.3c-0.6,0.2-1.2,0.4-1.8,0.7
			c-0.1,0.1-0.2,0.1-0.3,0.1c-0.1,0-0.1,0-0.1-0.1c0-0.1,0.1-0.2,0.1-0.2c0.2-0.2,0.4-0.3,0.7-0.4c0.5-0.2,1.1-0.4,1.6-0.5
			C4.6,12.5,4.8,12.5,5.1,12.4z"/>
		<path class="st11" d="M2.7,10.5C2.7,10.5,2.7,10.4,2.7,10.5C3,9.9,3.3,9.4,3.6,8.9c0,0,0,0,0,0C3.5,9.1,3.4,9.3,3.3,9.5
			C3.2,9.7,3.1,9.9,3,10.1C2.9,10.3,2.8,10.4,2.7,10.5z"/>
		<path class="st11" d="M18.5,12.2C18.5,12.2,18.5,12.2,18.5,12.2c-0.3-0.1-0.5-0.2-0.8-0.3c0,0,0,0,0-0.1c0,0,0.1,0,0.1,0
			C18.1,11.9,18.4,12,18.5,12.2z"/>
		<path class="st6" d="M11.6,11.7c-0.1,0.1-0.3,0.1-0.5,0.1c0,0,0,0,0-0.1C11.3,11.7,11.5,11.6,11.6,11.7z"/>
		<path class="st6" d="M22.3,6.4C22.3,6.4,22.4,6.4,22.3,6.4c0,0.1-0.1,0.3-0.2,0.4C22.1,6.6,22.2,6.5,22.3,6.4z"/>
		<path class="st6" d="M21,9C21,9,21,9,21,9c0-0.1,0-0.2,0-0.2c0,0,0.1-0.1,0.1-0.1C21.1,8.8,21.1,8.9,21,9z"/>
		<path class="st6" d="M22.1,6.8C22.1,6.9,22,7,22,7.1C22,7,22,6.9,22.1,6.8z"/>
		<path class="st6" d="M21.3,8.4c0,0.1-0.1,0.2-0.1,0.3C21.2,8.6,21.2,8.5,21.3,8.4z"/>
		<path class="st6" d="M2.4,10.9c0-0.1,0.1-0.2,0.1-0.2C2.6,10.8,2.6,10.9,2.4,10.9z"/>
		<path class="st6" d="M2.6,10.7c0-0.1,0-0.1,0.1-0.2C2.7,10.6,2.7,10.6,2.6,10.7z"/>
		<path class="st6" d="M3.7,8.7c0-0.1,0.1-0.1,0.1-0.2C3.8,8.6,3.8,8.7,3.7,8.7z"/>
		<path class="st6" d="M17.7,11.9C17.7,11.9,17.7,11.9,17.7,11.9c-0.1,0.1-0.1,0-0.2,0C17.6,11.8,17.7,11.9,17.7,11.9z"/>
		<path class="st6" d="M3.7,8.9C3.6,8.9,3.6,8.9,3.7,8.9c0-0.1,0-0.1,0-0.1C3.7,8.8,3.7,8.8,3.7,8.9z"/>
		<path class="st6" d="M22.2,6.7C22.2,6.8,22.2,6.8,22.2,6.7C22.1,6.8,22.1,6.8,22.2,6.7z"/>
		<path class="st6" d="M3.7,8.8C3.7,8.7,3.7,8.7,3.7,8.8C3.7,8.7,3.7,8.8,3.7,8.8z"/>
		<path class="st13" d="M11.2,33.8c0.1,0.1,0.1,0.3,0.1,0.4c0.1,0.3,0.2,0.6,0.3,0.9c0.1,0.4,0.2,0.8,0.3,1.2c0,0.1,0,0.1,0,0.2
			c-0.1-0.1-0.1-0.2-0.1-0.2c-0.1-0.4-0.2-0.8-0.3-1.3c-0.1-0.4-0.1-0.7-0.3-1.1C11.1,33.9,11.1,33.9,11.2,33.8
			C11.1,33.8,11.1,33.8,11.2,33.8c-0.1,0.1,0,0.1,0,0.1C11.2,33.9,11.1,33.8,11.2,33.8C11.2,33.8,11.2,33.8,11.2,33.8z"/>
		<path class="st13" d="M10.8,33C10.8,33,10.9,33,10.8,33L10.8,33C10.9,33.1,10.9,33.1,10.8,33C10.9,33.1,10.9,33.1,10.8,33l0.1,0
			c0.1,0.2,0.1,0.4,0.2,0.6c0,0,0-0.1-0.1-0.1c0,0,0,0,0-0.1c0,0,0,0,0,0c0,0,0,0,0,0c0,0,0,0,0,0c0,0.1,0,0.2,0,0.3c0,0,0,0,0,0
			C11,33.6,10.9,33.3,10.8,33z M10.9,33.2C10.9,33.3,10.9,33.3,10.9,33.2C10.9,33.3,10.9,33.3,10.9,33.2C11,33.3,11,33.3,10.9,33.2
			C11,33.2,10.9,33.2,10.9,33.2z M11,33.4C11,33.4,11,33.4,11,33.4C11,33.4,11,33.4,11,33.4C11,33.4,11,33.4,11,33.4z"/>
		<path class="st13" d="M10.4,31.5c0.1,0.2,0.2,0.4,0.2,0.6c0,0.2,0.1,0.3,0.1,0.5c-0.1-0.2-0.1-0.5-0.2-0.7
			C10.4,31.8,10.4,31.7,10.4,31.5z"/>
		<path class="st13" d="M10.8,32.8c-0.1-0.1-0.1-0.2-0.1-0.3c0-0.2-0.1-0.3-0.1-0.5C10.7,32.2,10.8,32.5,10.8,32.8z"/>
		<path class="st13" d="M10.2,30.8c0.1,0.2,0.1,0.4,0.2,0.6C10.3,31.3,10.2,31.1,10.2,30.8z"/>
		<path class="st7" d="M11.1,33.8c0-0.1,0-0.2,0-0.3l0,0c0,0,0,0.1,0.1,0.1c0,0,0,0,0,0c0,0,0,0.1,0,0.1
			C11.1,33.7,11.2,33.7,11.1,33.8C11.2,33.8,11.2,33.8,11.1,33.8C11.1,33.8,11.2,33.9,11.1,33.8C11.1,33.9,11.1,33.8,11.1,33.8z"/>
		<path class="st13" d="M10.1,30.6c0.1,0.1,0.1,0.1,0.1,0.2C10.1,30.8,10.1,30.7,10.1,30.6z"/>
		<path class="st13" d="M9.9,30c0.1,0,0,0.1,0,0.1C9.9,30.1,9.9,30.1,9.9,30z"/>
		<path class="st13" d="M10.9,33c0,0,0-0.1,0-0.1C10.9,32.9,10.9,33,10.9,33C10.9,33,10.9,33,10.9,33C10.9,33,10.9,33,10.9,33
			L10.9,33z"/>
		<path class="st13" d="M10.6,32c-0.1,0,0-0.1,0-0.1C10.6,31.9,10.6,31.9,10.6,32z"/>
		<path class="st13" d="M10.7,32.8c0,0,0,0.1,0,0.1C10.7,32.8,10.7,32.8,10.7,32.8z"/>
		<path class="st13" d="M10.9,32.9C10.8,32.8,10.8,32.8,10.9,32.9C10.9,32.8,10.9,32.8,10.9,32.9z"/>
		<path class="st13" d="M10,30.2c0,0,0,0.1,0,0.1C10,30.3,10,30.2,10,30.2z"/>
		<path class="st13" d="M10.1,30.5C10.1,30.5,10.1,30.6,10.1,30.5C10.1,30.6,10,30.5,10.1,30.5z"/>
		<path class="st13" d="M10.5,31.7c0,0,0-0.1,0-0.1C10.5,31.6,10.5,31.6,10.5,31.7z"/>
		<path class="st13" d="M10.6,31.8c0,0,0-0.1,0-0.1C10.6,31.8,10.6,31.8,10.6,31.8z"/>
		<path class="st13" d="M10,30.3c0,0,0,0.1,0,0.1C10,30.4,10,30.4,10,30.3z"/>
		<path class="st13" d="M10.7,32.6c0,0,0,0.1,0,0.1C10.7,32.7,10.7,32.7,10.7,32.6z"/>
		<path class="st13" d="M10.8,32.9C10.8,32.9,10.8,33,10.8,32.9C10.8,33,10.8,32.9,10.8,32.9z"/>
		<path class="st13" d="M11.1,33.7C11.1,33.7,11.1,33.7,11.1,33.7C11.1,33.7,11.1,33.7,11.1,33.7z"/>
		<path class="st14" d="M40.3,16.4C40.3,16.4,40.3,16.4,40.3,16.4c0.1,0,0.1,0.1,0.1,0.1c0,0.1,0,0.1,0,0.2c0,0,0,0.1,0,0.1
			c0,0,0,0,0,0.1c0,0.1,0.1,0.2,0,0.3c0,0.1,0,0.2,0.1,0.3c0,0,0,0.1,0,0.1c0,0,0,0,0,0c0,0,0,0.1,0,0.1c0,0,0,0,0,0
			c0,0.1,0,0.1,0,0.2c-0.1,0-0.1,0.1,0,0.2c0,0.1,0,0.1,0,0.2c0,0,0,0,0,0.1c0,0.1,0,0.2,0,0.3c0,0,0,0,0,0c0,0-0.1,0.1,0,0.1
			c0,0,0,0,0,0.1c0,0,0,0,0,0c0,0,0,0,0,0.1c0,0.1,0,0.2,0,0.3c0,0.1-0.1,0.1,0,0.2c0,0,0,0.1,0,0.1c0,0-0.1,0.1-0.1,0.2
			c0,0,0,0.1,0,0.1c0,0,0,0,0,0.1c0,0,0,0.1,0,0.1c0,0,0,0.1,0,0.1c-0.1,0.1,0,0.1,0,0.2c0,0,0,0,0,0.1c0,0.1-0.1,0.1,0,0.2
			c0,0.1,0.1,0,0.1,0.1c0,0.1,0.1,0,0.2,0c0,0.1,0.1,0.1,0.1,0.1c0,0,0,0,0.1,0c0.1,0,0.1,0,0.2,0.1C41,21,41.1,21,41.2,21
			c0,0,0,0,0,0.1c0.1,0,0.2,0.1,0.3,0.1c0,0,0.1,0.1,0.1,0.1c0.1,0,0.1,0,0.2,0c0,0,0,0,0,0c0,0.1,0.1,0.1,0.1,0.1c0,0,0.1,0,0.1,0
			c0,0,0,0,0,0c0,0.1,0.2,0.1,0.2,0.1c0,0,0,0,0,0l0,0c0,0,0,0,0,0c0,0.1,0.1,0.2,0.3,0.2c0.1,0.1,0.1,0.1,0.2,0l0,0
			c0,0,0.1,0,0.1,0c0,0.1,0.1,0.1,0.1,0.1c0,0.1,0.1,0.1,0.2,0.1c0,0,0.1,0,0.1,0l0,0c0,0.1,0.1,0.1,0.1,0.1c0,0,0.1,0,0.2,0.1
			c0,0,0,0,0,0c0,0.1,0.1,0.1,0.2,0.1c0,0,0.1,0,0.1,0c0,0.2,0.1,0.1,0.2,0.1c0,0,0.1,0,0.1,0c0,0,0,0.1,0,0.1c0,0,0,0,0,0
			c0,0,0.1,0.1,0.1,0.1c0,0,0,0,0,0c0,0,0,0.1,0,0.1c0,0.1,0,0.1,0.1,0.1c0,0,0.1,0,0.1,0c0,0,0,0,0-0.1c0,0,0.1-0.1,0.1-0.1
			c0,0,0,0,0,0c0,0,0,0,0-0.1c0-0.2,0-0.4,0-0.6c0,0,0-0.1,0-0.1c0-0.1,0-0.1,0-0.2c0,0,0-0.1,0-0.1c0-0.2,0-0.3,0-0.5
			c0,0,0,0,0-0.1c0,0,0,0,0-0.1c0,0,0,0,0.1-0.1c0,0,0,0,0,0c0,0,0,0,0,0c0,0,0,0,0,0c0,0,0-0.1,0-0.1c0-0.1-0.1-0.1-0.1-0.1
			c0,0,0.1,0,0.1-0.1c0-0.1,0-0.1,0-0.2c0,0,0,0,0-0.1c0,0,0-0.1,0-0.1c0,0,0-0.1,0-0.1c0-0.1-0.1-0.2,0-0.3c0,0,0.1-0.1,0-0.1
			c0-0.1,0-0.2,0-0.2c0-0.1,0-0.2,0-0.2c0,0,0,0,0,0l0,0c0,0,0-0.1,0-0.1c0,0,0.1,0,0.1,0c0.1,0.3,0.1,0.7,0.1,1.1
			c0.1,0.7,0.1,1.5,0,2.2c0,0.4,0,0.9-0.1,1.3c0,0,0,0,0,0.1c-0.1,0-0.1,0,0,0.1c0,0.4-0.1,0.7-0.2,1.1c0,0,0,0-0.1,0
			c-0.1-0.1-0.1-0.2-0.1-0.2c0-0.3-0.2-0.5-0.3-0.8c-0.1-0.2-0.2-0.4-0.3-0.6c-0.1-0.1-0.2-0.2-0.2-0.3c-0.1-0.1-0.1-0.1-0.1-0.2
			c0,0,0-0.1,0-0.1c0.1,0,0.1,0,0.2-0.1c-0.1-0.1-0.2-0.1-0.2-0.2c-0.6-0.6-1.4-1-2.2-1.2c-0.1,0-0.3-0.1-0.5,0
			c0.1,0.1,0.2,0.1,0.3,0.2c0,0,0,0,0,0.1c-0.4,0-0.7,0-1.1,0c-0.1-0.1-0.1,0-0.1,0c-0.1,0.5-0.3,1.1-0.4,1.6
			c-0.1,0.3-0.2,0.6-0.4,0.9c-0.1,0.2-0.2,0.4-0.3,0.6c0,0.1-0.1,0.2-0.1,0.3c-0.1,0.3-0.3,0.5-0.5,0.7c0,0-0.1,0-0.1,0.1
			c0,0.1-0.1,0.2-0.2,0.2c-0.1,0-0.1,0-0.1,0.1c-0.1,0.2-0.3,0.4-0.5,0.6c-0.1,0.1-0.2,0.2-0.2,0.3c-0.2,0.3-0.4,0.5-0.6,0.7
			c-0.2,0.3-0.5,0.6-0.7,0.9c-0.1,0.1-0.2,0.2-0.3,0.3c0,0-0.1,0.1-0.1,0.1c0,0,0,0-0.1,0c0.1-0.4,0.4-0.7,0.6-1
			c0.7-1.1,1.4-2.1,2.2-3.2c0.2-0.3,0.4-0.7,0.5-1.1c0.2-0.4,0.4-0.9,0.6-1.3c0.1-0.1,0.1-0.2,0.1-0.3c0.1-0.4,0.2-0.7,0.3-1.1
			c0.2-0.7,0.3-1.5,0.4-2.2c0.1-0.7,0.1-1.3,0.1-2C40.3,16.7,40.3,16.5,40.3,16.4z"/>
		<path class="st11" d="M31.3,35.8c0.5,0.1,0.8,0.3,1.2,0.6c0.2,0.2,0.4,0.5,0.6,0.6c0,0,0.1,0.1,0.1,0.1c0,0,0,0,0,0c0,0,0,0,0,0
			c0.1,0.1,0.1,0.1,0.3,0c0.5-0.3,1.1-0.7,1.6-1c0.4-0.2,0.7-0.4,1-0.7c0.4-0.3,0.9-0.6,1.3-0.9c0.3-0.2,0.6-0.4,0.9-0.7
			c0.3-0.2,0.6-0.5,0.9-0.7c0.3-0.2,0.7-0.5,1-0.8c0.4-0.3,0.7-0.7,1-1c0.1-0.2,0.3-0.3,0.4-0.5c0.2-0.2,0.3-0.5,0.5-0.7
			c0.1-0.2,0.3-0.4,0.4-0.6c0.2-0.3,0.3-0.6,0.5-0.8c0.2-0.2,0.3-0.5,0.5-0.7c0.1-0.1,0.2-0.2,0.2-0.4c0-0.1,0.1-0.1,0.1-0.1
			c0,0,0,0.1,0,0.1c-0.4,0.8-0.9,1.6-1.4,2.4c-0.5,0.8-1.1,1.5-1.7,2.2c-0.7,0.7-1.5,1.4-2.2,2c-0.1,0-0.1,0.1-0.2,0.1
			c-0.4,0.4-0.8,0.7-1.3,1c-0.2,0.1-0.4,0.2-0.6,0.4c-0.1,0.1-0.2,0.1-0.3,0.2c-0.4,0.2-0.7,0.5-1.1,0.7c-0.3,0.1-0.5,0.3-0.8,0.5
			c-0.4,0.3-0.8,0.5-1.3,0.8c0,0-0.1,0.1-0.1,0.1c0-0.1,0-0.1,0.1-0.1c0.1-0.1,0.1-0.1,0.2-0.2c0.1-0.1,0.1-0.2,0-0.3
			c-0.5-0.5-1-1-1.5-1.5C31.5,35.9,31.3,35.9,31.3,35.8z"/>
		<path class="st13" d="M41.1,21.6c-0.1-0.1-0.2-0.1-0.3-0.2c0.2,0,0.3,0,0.5,0c0.9,0.2,1.6,0.6,2.2,1.2c0.1,0.1,0.2,0.2,0.2,0.2
			c-0.1,0.1-0.1,0-0.2,0.1c-0.1-0.1-0.2-0.2-0.4-0.3c-0.2-0.2-0.5-0.3-0.7-0.5c-0.3-0.2-0.6-0.3-1-0.5c0,0,0,0-0.1,0
			c0,0-0.1,0-0.1,0c0,0,0,0,0,0C41.3,21.6,41.2,21.6,41.1,21.6z"/>
		<path class="st11" d="M35.5,29.1C35.5,29.1,35.5,29.1,35.5,29.1c0,0.2-0.1,0.3-0.2,0.4c-0.2,0.2-0.3,0.4-0.4,0.5
			c0,0-0.1,0.1-0.1,0.1c0-0.1,0-0.1,0.1-0.2C35.1,29.7,35.3,29.4,35.5,29.1z"/>
		<path class="st11" d="M43.2,22.6c0.1,0.1,0.3,0.2,0.4,0.3c0,0,0,0.1,0,0.1C43.5,22.9,43.4,22.8,43.2,22.6
			C43.2,22.7,43.2,22.7,43.2,22.6z"/>
		<path class="st6" d="M44.3,26.7c0,0.1-0.1,0.3-0.2,0.4C44.2,26.9,44.2,26.7,44.3,26.7z"/>
		<path class="st6" d="M44,27.4c0,0.1-0.1,0.2-0.1,0.3C43.8,27.4,43.9,27.4,44,27.4z"/>
		<path class="st6" d="M44.1,27.1c0,0.1,0,0.2-0.1,0.2C44,27.2,44,27.1,44.1,27.1z"/>
		<path class="st11" d="M41.1,21.6c0.1,0,0.2,0,0.2,0.1C41.3,21.7,41.2,21.6,41.1,21.6C41.1,21.6,41.1,21.6,41.1,21.6z"/>
		<path class="st6" d="M44.5,26.4c0,0.1,0,0.2-0.1,0.2C44.3,26.6,44.3,26.5,44.5,26.4z"/>
		<path class="st10" d="M33.2,37.1c0,0-0.1,0-0.1-0.1c0,0,0.1,0,0-0.1C33.2,37,33.2,37.1,33.2,37.1z"/>
		<path class="st11" d="M44.7,25.2C44.7,25.2,44.7,25.2,44.7,25.2c0,0.1,0,0.2,0,0.2C44.7,25.4,44.7,25.3,44.7,25.2z"/>
		<path class="st11" d="M40,21.7C40,21.6,40,21.6,40,21.7C40,21.7,40,21.7,40,21.7z"/>
		<path class="st11" d="M38.2,25.9C38.3,25.8,38.3,25.8,38.2,25.9C38.3,25.8,38.3,25.8,38.2,25.9z"/>
		<path class="st11" d="M38,26.2C38,26.1,38,26.1,38,26.2C38.1,26.1,38,26.2,38,26.2z"/>
		<path class="st6" d="M44.5,26.3c0,0,0,0.1,0,0.1C44.5,26.4,44.5,26.3,44.5,26.3z"/>
		<path class="st14" d="M31.9,35.7C31.8,35.6,31.8,35.6,31.9,35.7C31.8,35.6,31.8,35.6,31.9,35.7z"/>
		<path class="st11" d="M41.4,21.7C41.4,21.6,41.4,21.7,41.4,21.7C41.4,21.7,41.4,21.7,41.4,21.7z"/>
		<path class="st10" d="M33.3,37.2C33.2,37.1,33.2,37.1,33.3,37.2C33.2,37.1,33.2,37.1,33.3,37.2z"/>
		<path class="st11" d="M38.8,16.4c0,0.1-0.1,0.1-0.1,0.1C38.7,16.4,38.8,16.4,38.8,16.4C38.8,16.4,38.8,16.4,38.8,16.4z"/>
		<path class="st14" d="M32.7,14.9C32.7,14.8,32.7,14.8,32.7,14.9c0-0.1,0.1-0.1,0.1-0.1c0,0,0,0,0,0C32.8,14.9,32.7,14.9,32.7,14.9
			z"/>
		<path class="st14" d="M39.1,14.6C39.1,14.6,39.1,14.7,39.1,14.6C39.1,14.7,39.1,14.7,39.1,14.6C39,14.7,39.1,14.7,39.1,14.6
			C39.1,14.6,39.1,14.6,39.1,14.6C39.1,14.6,39.1,14.6,39.1,14.6z"/>
		<path class="st14" d="M39.3,17.6C39.3,17.6,39.3,17.6,39.3,17.6C39.3,17.6,39.3,17.7,39.3,17.6C39.3,17.7,39.3,17.6,39.3,17.6
			L39.3,17.6z"/>
		<path class="st14" d="M39.4,18.7C39.4,18.7,39.4,18.7,39.4,18.7C39.4,18.7,39.4,18.7,39.4,18.7C39.4,18.7,39.4,18.7,39.4,18.7z"/>
		<path class="st14" d="M39.3,17.6C39.3,17.6,39.3,17.6,39.3,17.6C39.3,17.6,39.3,17.6,39.3,17.6C39.3,17.6,39.3,17.6,39.3,17.6z"/>
		<path class="st2" d="M32.8,14.8C32.8,14.8,32.8,14.8,32.8,14.8C32.8,14.8,32.8,14.8,32.8,14.8z"/>
		<polygon class="st14" points="33.3,9.2 33.3,9.3 33.3,9.2 		"/>
		<path class="st14" d="M20,44.7c0,0-0.1,0-0.1-0.1C19.9,44.6,20,44.6,20,44.7z"/>
		<path class="st11" d="M11.8,2.6c0.6-0.3,1.2-0.6,1.9-0.8c0.3-0.1,0.7-0.2,1-0.3c0,0,0,0.1,0,0.1c-0.2,0.1-0.4,0.1-0.6,0.2
			c-0.5,0.2-1,0.3-1.5,0.5c-0.1,0-0.3,0.1-0.4,0.2C11.9,2.6,11.8,2.6,11.8,2.6z"/>
		<path class="st3" d="M0.8,18c0.1-0.2,0.1-0.3,0.1-0.5c0.1-0.4,0.1-0.7,0.2-1.1c0.1-0.3,0.1-0.7,0.1-1c0-0.2,0.1-0.4,0.1-0.7
			c0-0.1,0.1-0.2,0.2-0.2c0.8-0.5,1.7-0.9,2.5-1.2c0.6-0.2,1.2-0.4,1.8-0.5c0.6-0.1,1.2-0.1,1.8,0.1c0.1,0,0.3,0.1,0.4,0.2
			c0.1,0.1,0.2,0.1,0.3,0.1c0.1,0,0.2,0,0.2,0c0,0.3-0.1,0.5-0.1,0.8c-0.2,1.3-0.3,2.5-0.4,3.8c0,0.3,0,0.6-0.1,0.9
			c0,0.4,0,0.9,0,1.3c0.1,0.6,0.1,1.2,0.1,1.9c0.1,1,0.3,1.9,0.4,2.9c0.2,1.2,0.5,2.4,0.8,3.6c0.1,0.4,0.2,0.8,0.3,1.2
			c0,0.1,0,0.1,0,0.2c-0.3,0-0.7-0.1-1-0.1c-0.4,0-0.8,0-1.1,0c-0.4,0-0.9,0.1-1.3,0.1c-0.2,0-0.4,0.1-0.5,0.2
			c-0.1,0.1-0.2,0.1-0.3,0c0,0-0.1,0-0.1,0c-0.2,0-0.3-0.1-0.4-0.2c-0.2-0.3-0.3-0.6-0.5-0.9c-0.9-1.6-1.6-3.3-2.4-4.9
			c-0.3-0.7-0.6-1.5-0.7-2.3c-0.2-0.6-0.3-1.2-0.4-1.9C0.9,19.1,0.9,18.6,0.8,18C0.8,18.1,0.8,18.1,0.8,18z"/>
		<path class="st11" d="M42.8,13.9c-0.1-0.1-0.2-0.1-0.3-0.2c0.1-0.1,0.1-0.2,0.1-0.3c-0.1-0.3-0.2-0.5-0.3-0.8c0,0,0,0,0.1,0
			c0.2,0.3,0.3,0.5,0.5,0.8c0,0,0,0,0,0.1c0,0.2,0.2,0.4,0.2,0.6c-0.1,0-0.2,0-0.3-0.1C42.9,13.8,42.8,13.8,42.8,13.9z"/>
		<path class="st11" d="M43.3,22.1C43.3,22.1,43.3,22.1,43.3,22.1c0-0.1-0.1-0.1-0.1,0c-0.1,0-0.2,0-0.2-0.1c0-0.1-0.1-0.1-0.1-0.1
			c0-0.1,0-0.1,0.1-0.1c0.1,0.1,0.3,0,0.5,0c0,0,0.1,0,0.1,0c0,0,0.1-0.1,0.1,0c0,0,0,0.1,0,0.1c0,0,0,0.1,0,0.1
			c-0.1-0.1-0.2,0-0.3,0c0,0-0.1,0-0.1,0.1c0,0,0,0.1,0.1,0.1c0.1,0,0.1,0.1,0.2,0.1C43.5,22.1,43.4,22.1,43.3,22.1z"/>
		<path class="st11" d="M40.4,16.7c0-0.1,0-0.1,0-0.2c0.2,0,0.2,0,0.3-0.1c0,0,0,0.1,0,0.1c0,0,0,0,0,0c0,0,0,0,0,0c0,0,0,0,0,0
			c0,0,0,0,0,0c0.1,0,0.1,0.1,0,0.1c0,0.1-0.1,0.1-0.2,0.2C40.5,16.8,40.5,16.7,40.4,16.7z"/>
		<path class="st11" d="M42.7,21.8c-0.1,0-0.2-0.1-0.3-0.2c0.1,0,0.2,0,0.3-0.1C42.7,21.6,42.7,21.6,42.7,21.8
			C42.6,21.7,42.6,21.7,42.7,21.8C42.6,21.8,42.7,21.7,42.7,21.8c0.1-0.1,0.1-0.1,0.2,0c0,0,0,0,0,0C42.8,21.8,42.7,21.8,42.7,21.8z
			"/>
		<path class="st11" d="M44.8,19.9c0.1,0,0,0.1,0,0.1c0,0-0.1,0-0.1,0.1c-0.1,0.1-0.1,0.1-0.3-0.1C44.6,20.1,44.7,20,44.8,19.9z"/>
		<path class="st11" d="M44.9,19.4C44.9,19.4,44.8,19.4,44.9,19.4c-0.1-0.1-0.1-0.1-0.2-0.1c0,0-0.1-0.1,0-0.1c0.1,0,0-0.1,0-0.1
			c0-0.1-0.1,0-0.1-0.1c0,0,0.1,0,0.1-0.1C44.9,19.1,44.9,19.2,44.9,19.4z"/>
		<path class="st11" d="M40.2,20.6c0.1,0,0.3,0,0.4,0c0,0.1-0.1,0.1-0.1,0.2c0,0,0,0,0,0C40.5,20.6,40.3,20.7,40.2,20.6z"/>
		<path class="st11" d="M44.8,19.5c0.1,0.1,0,0.1,0,0.2c0,0,0-0.1-0.1-0.1c-0.1,0-0.1-0.1-0.2-0.1C44.6,19.5,44.7,19.5,44.8,19.5
			C44.8,19.5,44.8,19.5,44.8,19.5C44.8,19.5,44.8,19.5,44.8,19.5C44.8,19.5,44.8,19.5,44.8,19.5z"/>
		<path class="st11" d="M44.8,20.6C44.8,20.6,44.8,20.6,44.8,20.6c-0.1,0.1-0.1,0.1-0.3,0.1c0.1,0.1,0.1,0.1,0.1,0.1c0,0,0,0-0.2,0
			C44.6,20.6,44.6,20.5,44.8,20.6z"/>
		<path class="st11" d="M40.2,20.1C40.2,20,40.2,20,40.2,20.1c0.1-0.1,0.2-0.2,0.3-0.2C40.4,20,40.4,20,40.2,20.1z"/>
		<path class="st11" d="M40.5,19C40.5,19,40.5,18.9,40.5,19c0-0.1,0.1-0.1,0.2-0.2C40.7,18.9,40.7,18.9,40.5,19z"/>
		<path class="st11" d="M44.2,22.8C44.2,22.8,44.2,22.8,44.2,22.8c0-0.1,0-0.1,0-0.2c0.1,0,0.1,0.1,0.2,0.2l0,0
			C44.3,22.8,44.3,22.8,44.2,22.8z"/>
		<path class="st11" d="M40.5,18.2c0-0.1-0.1-0.1,0-0.2c0,0,0,0,0.1,0c0,0,0-0.1,0,0c0,0,0,0.1,0,0.1C40.6,18.2,40.5,18.2,40.5,18.2
			z"/>
		<path class="st11" d="M41.7,21.3c-0.1,0-0.1,0-0.1-0.1C41.6,21.1,41.6,21.1,41.7,21.3C41.7,21.2,41.7,21.3,41.7,21.3z"/>
		<path class="st11" d="M44.4,22.9C44.4,22.9,44.4,22.9,44.4,22.9c0-0.1,0-0.1,0-0.1l0,0c0,0,0.1,0,0.1,0
			C44.4,22.8,44.5,22.9,44.4,22.9z"/>
		<path class="st11" d="M40.5,18.4C40.4,18.4,40.4,18.4,40.5,18.4C40.5,18.4,40.5,18.4,40.5,18.4c0.1-0.1,0.1-0.1,0.1,0
			C40.6,18.5,40.5,18.4,40.5,18.4z"/>
		<path class="st11" d="M40.2,20.4c0-0.1,0-0.1,0-0.2C40.3,20.3,40.2,20.3,40.2,20.4z"/>
		<path class="st11" d="M42.1,21.5C42.1,21.4,42.1,21.4,42.1,21.5c0-0.1,0-0.1,0.1-0.1C42.2,21.4,42.2,21.4,42.1,21.5z"/>
		<path class="st11" d="M40.7,20.9C40.6,20.9,40.6,20.9,40.7,20.9C40.6,20.8,40.6,20.8,40.7,20.9C40.7,20.8,40.7,20.9,40.7,20.9z"/>
		<path class="st11" d="M40.4,19.6C40.4,19.6,40.4,19.6,40.4,19.6C40.4,19.5,40.4,19.5,40.4,19.6C40.5,19.6,40.4,19.6,40.4,19.6z"/>
		<path class="st11" d="M40.4,20.8c-0.1,0-0.1,0.1-0.2,0C40.3,20.7,40.4,20.7,40.4,20.8z"/>
		<path class="st11" d="M44.8,21.2C44.8,21.2,44.8,21.2,44.8,21.2c-0.1,0-0.1,0.1-0.1,0.1C44.7,21.2,44.7,21.2,44.8,21.2z"/>
		<path class="st11" d="M40.5,18.8C40.5,18.8,40.5,18.7,40.5,18.8C40.5,18.7,40.5,18.7,40.5,18.8c0,0,0.1-0.1,0.1-0.1c0,0,0,0,0,0
			C40.6,18.8,40.5,18.8,40.5,18.8C40.5,18.8,40.5,18.8,40.5,18.8z"/>
		<path class="st11" d="M44.5,23.1C44.5,23.1,44.4,23.1,44.5,23.1C44.5,23,44.5,23,44.5,23.1z"/>
		<path class="st11" d="M40.2,19.9c0,0,0-0.1,0-0.1C40.3,19.9,40.3,19.9,40.2,19.9z"/>
		<path class="st11" d="M44.8,20.8C44.8,20.9,44.8,20.9,44.8,20.8c-0.1,0-0.2,0.1-0.2,0l0,0C44.7,20.8,44.8,20.8,44.8,20.8z"/>
		<path class="st11" d="M44.8,22.1c0,0,0,0.1,0,0.1C44.7,22.1,44.8,22.1,44.8,22.1z"/>
		<path class="st14" d="M40.4,15.5C40.4,15.4,40.4,15.4,40.4,15.5C40.5,15.4,40.5,15.4,40.4,15.5C40.5,15.5,40.5,15.5,40.4,15.5
			C40.4,15.5,40.4,15.5,40.4,15.5z"/>
		<path class="st11" d="M44.8,21C44.8,21,44.8,21.1,44.8,21C44.8,21.1,44.8,21.1,44.8,21C44.8,21,44.8,21,44.8,21z"/>
		<path class="st11" d="M44.8,21.8C44.8,21.9,44.8,21.9,44.8,21.8C44.8,21.9,44.7,21.9,44.8,21.8z"/>
		<path class="st11" d="M40.4,16.9C40.4,16.8,40.4,16.8,40.4,16.9C40.4,16.8,40.5,16.8,40.4,16.9C40.5,16.8,40.4,16.9,40.4,16.9z"/>
		<path class="st11" d="M44.8,20.4C44.8,20.4,44.8,20.5,44.8,20.4C44.8,20.5,44.8,20.5,44.8,20.4C44.8,20.4,44.8,20.4,44.8,20.4z"/>
		<path class="st11" d="M43.6,22.3C43.6,22.3,43.6,22.3,43.6,22.3C43.6,22.3,43.6,22.3,43.6,22.3C43.7,22.3,43.7,22.3,43.6,22.3
			C43.7,22.3,43.6,22.3,43.6,22.3z"/>
		<path class="st11" d="M41.9,21.4C41.9,21.4,41.9,21.4,41.9,21.4C41.9,21.3,41.9,21.3,41.9,21.4C41.9,21.3,41.9,21.3,41.9,21.4
			C41.9,21.4,41.9,21.4,41.9,21.4C41.9,21.4,41.9,21.4,41.9,21.4z"/>
		<path class="st11" d="M40.5,17.8C40.5,17.8,40.5,17.8,40.5,17.8C40.5,17.8,40.5,17.8,40.5,17.8C40.5,17.8,40.5,17.8,40.5,17.8z"/>
		<path class="st14" d="M40.6,17C40.5,17,40.5,17,40.6,17C40.5,17,40.5,17,40.6,17C40.6,17,40.6,17,40.6,17C40.6,17,40.6,17,40.6,17
			z"/>
		<path class="st11" d="M41.2,21.1C41.2,21.1,41.2,21.1,41.2,21.1C41.2,21.1,41.2,21.1,41.2,21.1z"/>
		<path class="st11" d="M44.7,23C44.7,23.1,44.7,23.1,44.7,23C44.7,23.1,44.6,23,44.7,23z"/>
		<path class="st11" d="M40.4,19.1C40.4,19,40.4,19,40.4,19.1C40.5,19,40.5,19.1,40.4,19.1z"/>
		<path class="st11" d="M44.7,22.2C44.7,22.2,44.7,22.2,44.7,22.2C44.7,22.2,44.7,22.2,44.7,22.2L44.7,22.2z"/>
		<path class="st11" d="M44.8,21.1C44.9,21.1,44.9,21.1,44.8,21.1C44.9,21.1,44.9,21.1,44.8,21.1C44.9,21.1,44.8,21.1,44.8,21.1z"/>
		<path class="st11" d="M44.8,22.9C44.8,22.9,44.7,22.9,44.8,22.9C44.7,22.9,44.7,22.9,44.8,22.9z"/>
		<path class="st11" d="M40.5,17.7C40.5,17.7,40.5,17.7,40.5,17.7C40.5,17.7,40.5,17.7,40.5,17.7z"/>
		<path class="st11" d="M42.4,21.5L42.4,21.5C42.4,21.5,42.4,21.5,42.4,21.5C42.4,21.5,42.4,21.5,42.4,21.5
			C42.4,21.5,42.4,21.5,42.4,21.5z"/>
		<path class="st11" d="M44.7,20.8C44.6,20.8,44.6,20.8,44.7,20.8C44.6,20.8,44.6,20.8,44.7,20.8C44.6,20.8,44.6,20.8,44.7,20.8
			C44.6,20.8,44.7,20.8,44.7,20.8z"/>
		<polygon class="st14" points="40.3,13.5 40.3,13.5 40.3,13.5 		"/>
		<path class="st11" d="M44.7,22.2C44.7,22.2,44.7,22.2,44.7,22.2C44.7,22.2,44.7,22.2,44.7,22.2C44.7,22.2,44.7,22.2,44.7,22.2z"/>
		<path class="st14" d="M23.7,44.3c0,0,0,0.1-0.1,0.1C23.5,44.3,23.6,44.3,23.7,44.3z"/>
		<path class="st3" d="M32.8,38.1c0,0-0.1,0.1-0.1,0.1C32.7,38.1,32.8,38.1,32.8,38.1z"/>
		<path class="st3" d="M32.7,38.2C32.7,38.2,32.6,38.2,32.7,38.2C32.6,38.2,32.7,38.2,32.7,38.2z"/>
		<path class="st14" d="M23.7,44.3C23.7,44.3,23.7,44.3,23.7,44.3C23.7,44.3,23.7,44.3,23.7,44.3z"/>
		<path class="st11" d="M40.2,9.2C40,9.2,39.9,9,39.7,8.8c0,0,0,0,0,0C39.9,8.9,40.1,9.1,40.2,9.2z"/>
		<path class="st4" d="M42.4,12.5C42.4,12.5,42.4,12.5,42.4,12.5c-0.1-0.2-0.3-0.3-0.3-0.5C42.3,12.1,42.3,12.3,42.4,12.5z"/>
		<path class="st11" d="M44.9,24.1C44.9,24.1,44.9,24.1,44.9,24.1C44.9,24.1,45,24.1,44.9,24.1z"/>
		<path class="st11" d="M40.2,9.3C40.2,9.3,40.2,9.3,40.2,9.3C40.2,9.2,40.2,9.3,40.2,9.3z"/>
		<path class="st4" d="M42.1,12C42.1,12,42.1,11.9,42.1,12C42.1,11.9,42.1,11.9,42.1,12z"/>
		<path class="st4" d="M42.1,11.9C42.1,11.9,42,11.9,42.1,11.9C42.1,11.8,42.1,11.9,42.1,11.9z"/>
		<path class="st14" d="M39.8,8.8C39.8,8.8,39.8,8.8,39.8,8.8C39.7,8.8,39.8,8.8,39.8,8.8C39.8,8.8,39.8,8.8,39.8,8.8L39.8,8.8z"/>
		<path class="st13" d="M15.5,53c0,0,0,0.1,0,0.1c-0.2,0.8-0.5,1.7-0.7,2.5c-0.2,0.7-0.4,1.3-0.6,2c0,0.1-0.1,0.2-0.3,0.2
			c0-0.2,0.1-0.5,0.2-0.7c0.2-0.7,0.5-1.4,0.7-2.1c0.2-0.6,0.4-1.1,0.6-1.7C15.4,53.2,15.4,53.1,15.5,53L15.5,53z"/>
		<polygon class="st13" points="15.5,53 15.5,53 15.5,53 		"/>
		<path class="st14" d="M29.7,6C29.7,6,29.7,6,29.7,6C29.7,5.9,29.7,5.9,29.7,6z"/>
		<path class="st11" d="M15.8,43.3c0.1,0,0.2,0,0.3,0c0.5,0.1,1,0.3,1.5,0.7c-0.1,0-0.2,0-0.3-0.1C16.8,43.7,16.3,43.5,15.8,43.3
			C15.8,43.3,15.8,43.3,15.8,43.3z"/>
		<path class="st14" d="M20.9,45.6C20.9,45.6,20.9,45.6,20.9,45.6C20.9,45.7,20.9,45.7,20.9,45.6z"/>
		<path class="st8" d="M9.8,53.9c0,0,0-0.1-0.1-0.1c0-0.4,0-0.8,0.1-1.2c0-0.1,0-0.2,0-0.2c0,0,0,0,0,0c0,0.3,0,0.7,0,1
			C9.8,53.6,9.8,53.8,9.8,53.9z"/>
		<path class="st8" d="M9.7,54.6c0,0,0-0.1,0-0.1C9.8,54.6,9.8,54.6,9.7,54.6z"/>
		<path class="st8" d="M9.8,54C9.8,54,9.8,54,9.8,54C9.8,54,9.8,54,9.8,54C9.8,54,9.8,54,9.8,54z"/>
		<path class="st8" d="M11.5,56.6C11.5,56.6,11.5,56.6,11.5,56.6C11.5,56.6,11.5,56.6,11.5,56.6z"/>
		<path class="st7" d="M8.5,30c-0.1,0-0.1,0-0.2,0c-0.7,0-1.3,0.1-1.9,0.4c-0.1,0-0.1,0.1-0.2,0.2c0,0.1-0.1,0.1-0.1,0.1
			c-0.1,0-0.3-0.1-0.4-0.1c0-0.2,0.1-0.3,0.3-0.4c0.3-0.2,0.7-0.3,1.1-0.3c0.6-0.1,1.2,0,1.8,0.1c0.1,0,0.2,0,0.3,0.1
			C9.2,30,9.2,30,9.1,30c-0.2,0-0.4-0.1-0.5-0.1C8.5,29.8,8.5,29.8,8.5,30C8.5,29.9,8.5,29.9,8.5,30z"/>
		<path class="st10" d="M8.5,30C8.5,29.9,8.5,29.9,8.5,30c0.1,0,0.2,0,0.3,0C8.7,30,8.6,30,8.5,30z"/>
		<path class="st8" d="M9.7,54.4c0,0.1,0,0.1,0,0.2C9.6,54.6,9.6,54.5,9.7,54.4z"/>
		<path class="st7" d="M10.9,33C10.9,33,10.9,33,10.9,33C10.9,33.1,10.9,33.1,10.9,33C10.9,33.1,10.9,33.1,10.9,33z"/>
		<path class="st7" d="M11,33.6C11,33.5,11,33.5,11,33.6C11,33.5,11,33.5,11,33.6C11,33.5,11,33.5,11,33.6C11,33.5,11,33.5,11,33.6
			C11,33.6,11,33.6,11,33.6z"/>
		<path class="st7" d="M10.9,33.2C10.9,33.2,11,33.2,10.9,33.2C11,33.3,11,33.3,10.9,33.2C10.9,33.3,10.9,33.3,10.9,33.2
			C10.9,33.3,10.9,33.3,10.9,33.2z"/>
		<path class="st7" d="M11,33.4C11,33.4,11,33.4,11,33.4C11,33.4,11,33.4,11,33.4C11,33.4,11,33.4,11,33.4z"/>
		<path class="st6" d="M42.7,21.8c0.1,0,0.1,0,0.2,0C42.8,21.9,42.8,21.9,42.7,21.8z"/>
		<path class="st6" d="M44.3,22.8C44.3,22.8,44.3,22.8,44.3,22.8c0,0.1-0.1,0-0.1,0C44.3,22.8,44.3,22.8,44.3,22.8z"/>
		<path class="st6" d="M43.2,22.1c0.1-0.1,0.1-0.1,0.1,0C43.3,22.1,43.3,22.1,43.2,22.1z"/>
		<path class="st6" d="M44.8,19.5C44.8,19.5,44.8,19.5,44.8,19.5C44.8,19.5,44.8,19.5,44.8,19.5C44.8,19.5,44.8,19.5,44.8,19.5z"/>
		<path class="st6" d="M40.6,16.6C40.6,16.6,40.6,16.6,40.6,16.6C40.6,16.6,40.6,16.6,40.6,16.6C40.6,16.6,40.6,16.6,40.6,16.6z"/>
		<path class="st6" d="M40.6,16.6C40.6,16.6,40.6,16.5,40.6,16.6C40.7,16.5,40.7,16.6,40.6,16.6C40.7,16.6,40.7,16.6,40.6,16.6
			C40.6,16.6,40.6,16.6,40.6,16.6z"/>
		<path class="st6" d="M42.7,21.7C42.7,21.7,42.6,21.8,42.7,21.7C42.6,21.7,42.6,21.7,42.7,21.7C42.7,21.7,42.7,21.7,42.7,21.7z"/>
		<polygon class="st5" points="21.2,46.9 21.5,47 23.7,44.6 23.5,44.4 		"/>
		<polygon class="st5" points="37.1,5.8 37,6 39.8,8.8 40,8.6 		"/>
		<polygon class="st5" points="9.9,50.6 9.6,51.9 9.8,51.8 9.9,50.9 		"/>
		<polygon class="st15" points="9.7,42.4 10.2,42.2 10.1,44.6 10,44.6 		"/>
		<polygon class="st15" points="9.5,57.6 9.7,58 9.4,58.1 9.2,57.7 		"/>
		<polygon class="st15" points="18.2,53 18.5,53.1 18.1,54.1 17.6,54.6 		"/>
	</g>
</g>
</svg>
